<?xml version="1.0" encoding="UTF-8"?>
<!DOCTYPE svg PUBLIC "-//W3C//DTD SVG 1.1//EN" "http://www.w3.org/Graphics/SVG/1.1/DTD/svg11.dtd">
<!-- Creator: CorelDRAW 2021 (64-Bit) -->
<svg xmlns="http://www.w3.org/2000/svg" xml:space="preserve" width="0.292177in" height="0.29176in" version="1.1" style="shape-rendering:geometricPrecision; text-rendering:geometricPrecision; image-rendering:optimizeQuality; fill-rule:evenodd; clip-rule:evenodd"
viewBox="0 0 1.42 1.42"
 xmlns:xlink="http://www.w3.org/1999/xlink"
 xmlns:xodm="http://www.corel.com/coreldraw/odm/2003">
 <defs>
  <style type="text/css">
   <![CDATA[
    .fil0 {fill:#D9F7FF}
   ]]>
  </style>
 </defs>
 <g id="Layer_x0020_1">
  <metadata id="CorelCorpID_0Corel-Layer"/>
  <g id="_2163181903552">
   <path class="fil0" d="M0.83 0.5c0,0.01 0.01,0.08 0.01,0.1 0,0.04 0.02,0.08 -0.02,0.08 -0.02,0 -0.02,-0.01 -0.03,-0.02 -0.01,-0.01 -0.02,-0.02 -0.03,-0.02l-0.05 -0.05c-0.01,0.01 -0.02,0.01 -0.03,0.02 -0.02,0.02 -0.07,0.07 -0.09,0.07 -0.04,0 -0.02,-0.06 -0.01,-0.1 0,-0.02 0.01,-0.05 0.01,-0.08l-0.08 -0.06c-0.01,-0.01 -0.02,-0.01 -0.02,-0.03 0,-0.05 0.12,-0.03 0.14,-0.06l0.05 -0.1c0.01,-0.02 0.01,-0.02 0.04,-0.02 0.02,0 0.06,0.09 0.07,0.11 0.01,0.01 0.01,0.01 0.02,0.02 0.02,0 0.11,0.02 0.12,0.03 0.03,0.03 -0.02,0.06 -0.05,0.08 -0.01,0.01 -0.03,0.02 -0.04,0.03zm0.25 0.01c0.01,-0.06 0.04,-0.26 0.05,-0.31 0.02,-0.06 0.11,-0.06 0.13,-0.03 0.01,0.02 0.01,0.11 0.01,0.15 0,0.03 -0.01,0.06 -0.02,0.07 -0.01,0.02 -0.03,0.03 -0.05,0.04 -0.03,0.02 -0.09,0.06 -0.11,0.08zm-0.93 -0.19c0,-0.03 -0.01,-0.13 0.01,-0.15 0.02,-0.03 0.11,-0.02 0.13,0.03 0.01,0.02 0.03,0.18 0.03,0.2 0,0.02 0,0.03 0.01,0.05 0,0.01 0.01,0.04 0.01,0.05 -0.03,-0.01 -0.15,-0.1 -0.17,-0.12 -0.01,-0.02 -0.02,-0.04 -0.02,-0.08zm-0.15 -0.13c0,0.17 -0.02,0.26 0.12,0.36 0.01,0.01 0.01,0.01 0.02,0.02l0.22 0.16c0.01,0.01 0.01,0.03 0.01,0.06 0.01,0.07 0.02,0.1 0.07,0.15 0.02,0.02 0.07,0.04 0.11,0.04l0.29 0c0.08,0 0.15,-0.06 0.17,-0.13l0.02 -0.1c0,-0.02 -0,-0.02 0.01,-0.03 0.01,-0.01 0.01,-0.01 0.02,-0.02l0.2 -0.14c0.01,-0.01 0.01,-0.01 0.02,-0.02 0.01,-0.01 0.01,-0.01 0.02,-0.02 0.12,-0.09 0.1,-0.21 0.1,-0.35 0,-0.06 -0.03,-0.11 -0.07,-0.14 -0.02,-0.02 -0.06,-0.04 -0.09,-0.04l-1.08 0c-0.03,0 -0.07,0.02 -0.09,0.04 -0.04,0.03 -0.08,0.08 -0.08,0.14z"/>
   <path class="fil0" d="M0.42 1.42l0.58 0c0.02,0 0.04,-0.02 0.04,-0.04 0,-0.02 -0.03,-0.08 -0.05,-0.1 -0.01,-0.02 -0.01,-0.03 -0.03,-0.04 -0.02,-0.02 -0.04,-0.03 -0.07,-0.04 -0.02,-0.01 -0.06,0 -0.08,-0.03 -0.01,-0.02 -0,-0.09 -0.07,-0.09 -0.06,0 -0.11,-0.01 -0.13,0.03 -0.01,0.03 0,0.04 -0.02,0.06 -0.03,0.03 -0.07,-0 -0.13,0.04 -0.04,0.03 -0.05,0.06 -0.07,0.1 -0.01,0.01 -0.02,0.04 -0.03,0.06 -0,0.02 0.02,0.04 0.05,0.04z"/>
  </g>
 </g>
</svg>
