<?xml version="1.0" encoding="UTF-8"?>
<!DOCTYPE svg PUBLIC "-//W3C//DTD SVG 1.1//EN" "http://www.w3.org/Graphics/SVG/1.1/DTD/svg11.dtd">
<!-- Creator: CorelDRAW 2021 (64-Bit) -->
<svg xmlns="http://www.w3.org/2000/svg" xml:space="preserve" width="0.76061in" height="0.742858in" version="1.1" style="shape-rendering:geometricPrecision; text-rendering:geometricPrecision; image-rendering:optimizeQuality; fill-rule:evenodd; clip-rule:evenodd"
viewBox="0 0 10.06 9.82"
 xmlns:xlink="http://www.w3.org/1999/xlink"
 xmlns:xodm="http://www.corel.com/coreldraw/odm/2003">
 <defs>
  <style type="text/css">
   <![CDATA[
   .fil0 {}
    .fil0 {fill:#D9F7FF}
   ]]>
  </style>
    <clipPath id="id0">
     <rect width="10.06" height="9.82"/>
    </clipPath>
 </defs>
 <g id="Layer_x0020_1">
  <metadata id="CorelCorpID_0Corel-Layer"/>
  <g id="_2203843733264">
  </g>
  <g id="_2203843737248">
   <g style="clip-path:url(#id0)">
    <image x="-0" y="0" width="10.06" height="9.82" xlink:href="character-logo_Images\character-logo_ImgID1.png"/>
   </g>
  </g>
  <path class="fil0" d="M7.7 3.66c0,-0.34 0.01,-0.68 0.01,-1.01 -0,-0.21 -0,-0.41 -0.01,-0.62 -0,-0.09 -0,-0.25 -0.02,-0.33 -0.03,-0.08 -0.13,-0.17 -0.22,-0.17 -0.13,0 -0.41,0.09 -0.55,0.13 -0.2,0.05 -0.4,0.1 -0.59,0.15 -0.2,0.05 -0.4,0.1 -0.6,0.15 -0.14,0.03 -0.5,0.14 -0.63,0.14 -0.11,0 -0.24,-0.05 -0.34,-0.07 -0.1,-0.02 -0.19,-0.05 -0.29,-0.07 -0.2,-0.05 -0.4,-0.1 -0.59,-0.15 -0.2,-0.05 -0.41,-0.11 -0.61,-0.16 -0.13,-0.03 -0.43,-0.12 -0.55,-0.12 -0.08,0 -0.18,0.1 -0.2,0.17 -0.02,0.08 -0.02,0.25 -0.02,0.33 -0.01,0.21 -0.01,0.41 -0.01,0.62 -0,0.34 0.01,0.68 0.01,1.01l0 0.15 -0.14 0.03c-0.21,0.05 -0.79,0.21 -0.79,0.49l0 0.09c0,0.09 0.12,0.21 0.21,0.21l0.56 0 0 0.18c0,0.15 -0.03,0.4 -0.14,0.51 -0.48,0.49 -0.37,1.23 0.26,1.52 0.13,0.06 0.2,0.23 0.28,0.34 0.06,0.09 0.12,0.17 0.18,0.25 0.24,0.27 0.42,0.43 0.73,0.62 0.8,0.48 1.75,0.51 2.61,0.16 0.11,-0.04 0.2,-0.11 0.3,-0.16 0.15,-0.07 0.31,-0.21 0.43,-0.32 0.24,-0.21 0.45,-0.46 0.6,-0.74 0.1,-0.18 0.15,-0.12 0.27,-0.2 0.04,-0.03 0.08,-0.05 0.11,-0.08 0.17,-0.17 0.25,-0.26 0.3,-0.5 0.05,-0.23 0.01,-0.44 -0.1,-0.64 -0.05,-0.09 -0.1,-0.15 -0.17,-0.22 -0.12,-0.13 -0.1,-0.32 -0.14,-0.47l-0.05 -0.23 0.23 0c0.11,0 0.37,0.02 0.46,-0.03 0.11,-0.05 0.13,-0.16 0.13,-0.27 0,-0.28 -0.58,-0.44 -0.79,-0.49l-0.14 -0.03 0 -0.15zm-5.11 1.71l0.42 0 0.11 0.41c0.04,0.16 0.08,0.24 0.28,0.24l0.91 0c0.08,0 0.15,-0.02 0.2,-0.06 0.08,-0.07 0.16,-0.48 0.19,-0.59l0.78 0c0.03,0.14 0.08,0.28 0.11,0.42 0.02,0.08 0.03,0.13 0.08,0.17 0.11,0.09 0.88,0.05 1.1,0.05 0.19,0 0.25,-0.08 0.29,-0.23 0.03,-0.12 0.09,-0.3 0.1,-0.41l0.4 0 -0.02 0.06 0.02 0c-0.01,0.04 -0.01,0.08 -0.02,0.12 -0.01,0.05 -0.03,0.12 -0.04,0.18 0.05,-0.03 0.16,-0.18 0.19,-0.26 0.42,0.22 0.38,1 -0.16,1.08 -0.03,0 -0.06,0.01 -0.08,0 -0.07,0.18 -0.2,0.38 -0.29,0.5 -0.13,0.19 -0.3,0.36 -0.48,0.51 -0.39,0.31 -0.96,0.53 -1.46,0.53l-0.22 0c-0.56,0 -1.18,-0.27 -1.58,-0.64 -0.13,-0.12 -0.26,-0.24 -0.36,-0.4 -0.11,-0.17 -0.17,-0.27 -0.26,-0.46 -0.01,-0.02 -0.01,-0.03 -0.02,-0.05 -0.12,0.01 -0.21,0 -0.34,-0.11 -0.31,-0.28 -0.24,-0.77 0.07,-0.95 0.04,0.08 0.14,0.22 0.18,0.25 -0,-0.02 -0.04,-0.2 -0.06,-0.3l0 -0 -0 -0.01c-0.01,-0.04 -0.01,-0.06 -0.02,-0.07zm4.93 -0.29l-0.31 0c-0.01,-0.11 -0.11,-0.18 -0.23,-0.18l-1.36 0c-0.13,0 -0.2,0.07 -0.23,0.18l-0.65 0c-0.03,-0.05 -0.02,-0.09 -0.07,-0.13 -0.04,-0.03 -0.1,-0.05 -0.16,-0.05l-1.34 0c-0.14,0 -0.23,0.05 -0.24,0.18l-0.29 0 -0 -0.04c0,-0.08 0.03,-0.16 0.03,-0.23l0 -0.18 4.81 0 0 0.18c0,0.09 0.01,0.18 0.02,0.27z"/>
 </g>
</svg>
