<?xml version="1.0" encoding="UTF-8"?>
<!DOCTYPE svg PUBLIC "-//W3C//DTD SVG 1.1//EN" "http://www.w3.org/Graphics/SVG/1.1/DTD/svg11.dtd">
<!-- Creator: CorelDRAW 2021 (64-Bit) -->
<svg xmlns="http://www.w3.org/2000/svg" xml:space="preserve" width="0.567197in" height="0.633591in" version="1.1" style="shape-rendering:geometricPrecision; text-rendering:geometricPrecision; image-rendering:optimizeQuality; fill-rule:evenodd; clip-rule:evenodd"
viewBox="0 0 9.33 10.42"
 xmlns:xlink="http://www.w3.org/1999/xlink"
 xmlns:xodm="http://www.corel.com/coreldraw/odm/2003">
 <defs>
  <style type="text/css">
   <![CDATA[
    .fil0 {fill:#00CCFF;fill-opacity:0.129412}
    .fil1 {fill:#2BD5FF;fill-opacity:0.129412}
   ]]>
  </style>
 </defs>
 <g id="Layer_x0020_1">
  <metadata id="CorelCorpID_0Corel-Layer"/>
  <path class="fil0" d="M-0 3.18c0,-0.62 0.51,-0.98 1,-1.25l2.33 -1.34c0.34,-0.18 0.89,-0.56 1.26,-0.59l0.01 -0 0.11 0 0.01 0c0.4,0.03 0.99,0.43 1.33,0.64 0.38,0.23 0.78,0.43 1.17,0.66 0.67,0.4 2.1,0.97 2.1,1.88l0 4.1c0,0.72 -0.5,0.93 -1.02,1.23 -0.7,0.4 -1.39,0.82 -2.08,1.24 -0.33,0.2 -0.74,0.47 -1.11,0.6 -0.7,0.25 -1.24,-0.2 -1.83,-0.53l-1.78 -1.01c-0.61,-0.37 -1.51,-0.67 -1.51,-1.52l0 -4.1z"/>
  <path class="fil1" d="M0.3 3.18l0 4.1c0,0.63 0.65,0.83 1.36,1.26l1.78 1.01c1.67,0.96 0.95,0.84 4.72,-1.31 0.38,-0.22 0.87,-0.38 0.87,-0.96l0 -4.1c0,-0.68 -1.16,-1.15 -1.96,-1.62 -0.42,-0.25 -0.77,-0.42 -1.17,-0.66 -0.64,-0.39 -0.94,-0.58 -1.2,-0.59l-0.09 0c-0.26,0.02 -0.53,0.22 -1.14,0.55l-2.33 1.34c-0.36,0.2 -0.84,0.49 -0.84,0.99z"/>
 </g>
</svg>
