<?xml version="1.0" encoding="UTF-8"?>
<!DOCTYPE svg PUBLIC "-//W3C//DTD SVG 1.1//EN" "http://www.w3.org/Graphics/SVG/1.1/DTD/svg11.dtd">
<!-- Creator: CorelDRAW 2021 (64-Bit) -->
<svg xmlns="http://www.w3.org/2000/svg" xml:space="preserve" width="0.69735in" height="0.739787in" version="1.1" style="shape-rendering:geometricPrecision; text-rendering:geometricPrecision; image-rendering:optimizeQuality; fill-rule:evenodd; clip-rule:evenodd"
viewBox="0 0 8.21 8.71"
 xmlns:xlink="http://www.w3.org/1999/xlink"
 xmlns:xodm="http://www.corel.com/coreldraw/odm/2003">
 <defs>
  <style type="text/css">
   <![CDATA[
    .fil0 {fill:#D9F7FF}
   ]]>
  </style>
     <clipPath id="id0">
      <rect y="0" width="8.21" height="8.71"/>
     </clipPath>
 </defs>
 <g id="Layer_x0020_1">
  <metadata id="CorelCorpID_0Corel-Layer"/>
  <g id="_2163175042528">
   <g>
    <g style="clip-path:url(#id0)">
     <image x="-0" y="0" width="8.21" height="8.71" xlink:href="items_Images\items_ImgID1.png"/>
    </g>
   </g>
   <g>
    <path class="fil0" d="M3.21 1.4c-0.02,0.01 -0.1,0.01 -0.12,0.01 -0.04,0 -0.08,0.01 -0.12,0.02 -0.29,0.05 -0.52,0.17 -0.75,0.33 -0.05,0.04 -0.1,0.08 -0.15,0.12 -0.02,0.02 -0.05,0.04 -0.07,0.07 -0.01,0.01 -0.02,0.02 -0.03,0.03l-0.03 0.04c-0.03,0.03 -0.09,0.12 -0.12,0.16 -0.14,0.21 -0.25,0.49 -0.28,0.8 -0.02,0.17 -0.01,0.36 -0.01,0.54l0 3.52c0,0.09 -0.01,0.18 0.01,0.26 0.03,0.14 0.13,0.26 0.23,0.32 0.15,0.09 0.26,0.08 0.47,0.08l0 -1.78c0,-0.2 0.02,-0.33 0.09,-0.5 0.12,-0.26 0.33,-0.46 0.62,-0.56 0.18,-0.06 0.33,-0.06 0.53,-0.06l1.18 0c0.2,0 0.36,-0.01 0.54,0.06 0.17,0.06 0.3,0.15 0.41,0.26 0.08,0.09 0.16,0.2 0.21,0.31 0.07,0.17 0.09,0.29 0.09,0.5 0,0.09 -0,1.75 0,1.78 0.16,0.01 0.33,0.01 0.46,-0.08 0.1,-0.07 0.19,-0.16 0.23,-0.31 0.02,-0.08 0.02,-0.17 0.02,-0.25l0 -3.53c0,-0.17 0.01,-0.37 -0.01,-0.54 -0.03,-0.32 -0.14,-0.59 -0.28,-0.81 -0.04,-0.06 -0.08,-0.1 -0.12,-0.15 -0.11,-0.13 -0.29,-0.29 -0.44,-0.38 -0.19,-0.11 -0.36,-0.18 -0.59,-0.23 -0.08,-0.02 -0.16,-0.02 -0.24,-0.03 -0.02,-0.3 -0.25,-0.54 -0.52,-0.61 -0.12,-0.03 -0.23,-0.03 -0.35,-0.03 -0.12,0 -0.24,-0.01 -0.35,0.02 -0.26,0.07 -0.49,0.3 -0.52,0.61zm0.26 -0l1.23 0c0,-0.05 -0.05,-0.15 -0.07,-0.18 -0.04,-0.05 -0.07,-0.09 -0.12,-0.13 -0.14,-0.09 -0.24,-0.08 -0.42,-0.08 -0.19,0 -0.28,-0.01 -0.42,0.08 -0.05,0.03 -0.09,0.08 -0.12,0.13 -0.02,0.03 -0.08,0.13 -0.07,0.18zm-0.36 1.59l0.01 0 1.95 -0 0 -0.44 -1.96 0 0 0.44z"/>
    <path class="fil0" d="M2.54 7.71l3.1 0 0 -1.56c0,-0.16 0.01,-0.34 -0.03,-0.49 -0.07,-0.25 -0.27,-0.45 -0.51,-0.53 -0.15,-0.05 -0.32,-0.03 -0.49,-0.03l-1.04 0c-0.16,0 -0.34,-0.01 -0.49,0.03 -0.25,0.08 -0.45,0.27 -0.52,0.52 -0.04,0.15 -0.03,0.33 -0.03,0.49l0 1.56zm0.49 -0.57l2.19 -0 0 -0.56c-0.03,-0.01 -0.23,-0 -0.28,-0l-1.92 0 0 0.56z"/>
    <path class="fil0" d="M0.76 5.91l0 0.9c0,0.18 0.15,0.33 0.33,0.33l0.27 0 -0 -2.06c-0.05,0.02 -0.19,0.1 -0.23,0.13 -0.07,0.05 -0.13,0.11 -0.18,0.17 -0.1,0.13 -0.19,0.32 -0.19,0.53z"/>
    <path class="fil0" d="M6.81 7.14c0.11,-0 0.29,0.01 0.39,-0.02 0.09,-0.04 0.17,-0.11 0.2,-0.21 0.03,-0.09 0.02,-0.28 0.02,-0.39 0,-0.14 0,-0.27 0,-0.41 0,-0.13 0.01,-0.26 -0.02,-0.38 -0.05,-0.21 -0.16,-0.37 -0.32,-0.5 -0.07,-0.05 -0.17,-0.11 -0.26,-0.15l-0 2.06z"/>
    <path class="fil0" d="M3.03 7.14l-0 -0.56 1.92 0c0.05,0 0.25,-0.01 0.28,0 -0,-0.01 0,-0 -0.01,-0.01l-1.08 0c-0.02,0 -1.07,-0 -1.1,0 -0,0.03 -0,0.45 -0,0.53 -0,0.01 -0,0.02 0,0.03z"/>
   </g>
  </g>
 </g>
</svg>
