<?xml version="1.0" encoding="UTF-8"?>
<!DOCTYPE svg PUBLIC "-//W3C//DTD SVG 1.1//EN" "http://www.w3.org/Graphics/SVG/1.1/DTD/svg11.dtd">
<!-- Creator: CorelDRAW 2021 (64-Bit) -->
<svg xmlns="http://www.w3.org/2000/svg" xml:space="preserve" width="0.34963in" height="0.339685in" version="1.1" style="shape-rendering:geometricPrecision; text-rendering:geometricPrecision; image-rendering:optimizeQuality; fill-rule:evenodd; clip-rule:evenodd"
viewBox="0 0 3.6 3.5"
 xmlns:xlink="http://www.w3.org/1999/xlink"
 xmlns:xodm="http://www.corel.com/coreldraw/odm/2003">
 <defs>
  <style type="text/css">
   <![CDATA[
    .fil0 {fill:#D9F7FF}
   ]]>
  </style>
 </defs>
 <g id="Layer_x0020_1">
  <metadata id="CorelCorpID_0Corel-Layer"/>
  <path class="fil0" d="M1.03 0.66l2.18 -0.65c0,0 0.3,-0.06 0.31,0.16 0.03,0.88 0.35,2.82 -0.53,2.92 -1.03,0.11 -1.02,-1.08 0.03,-0.79 0.03,-0 0.08,0.05 0.1,-0.24 0.02,-0.3 -0.01,-1.01 -0.01,-1.01 0,0 0.01,-0.13 -0.1,-0.1 -0.11,0.02 -1.61,0.47 -1.61,0.47 0,0 -0.07,0.03 -0.07,0.1 0,0.07 -0.01,1.51 -0.01,1.51 0,0 -0.01,0.38 -0.41,0.46 -0.39,0.07 -0.76,-0.04 -0.87,-0.24 -0.11,-0.19 0.01,-0.41 0.26,-0.52 0.25,-0.11 0.52,-0.04 0.52,-0.04 0,0 0.06,0.01 0.06,-0.05 0,-0.06 -0.01,-1.74 -0.01,-1.74 0,0 -0,-0.18 0.16,-0.23z"/>
 </g>
</svg>
