<?xml version="1.0" encoding="UTF-8"?>
<!DOCTYPE svg PUBLIC "-//W3C//DTD SVG 1.1//EN" "http://www.w3.org/Graphics/SVG/1.1/DTD/svg11.dtd">
<!-- Creator: CorelDRAW 2021 (64-Bit) -->
<svg xmlns="http://www.w3.org/2000/svg" xml:space="preserve" width="0.53174in" height="0.521815in" version="1.1" style="shape-rendering:geometricPrecision; text-rendering:geometricPrecision; image-rendering:optimizeQuality; fill-rule:evenodd; clip-rule:evenodd"
viewBox="0 0 4.48 4.39"
 xmlns:xlink="http://www.w3.org/1999/xlink"
 xmlns:xodm="http://www.corel.com/coreldraw/odm/2003">
 <defs>
  <style type="text/css">
   <![CDATA[
    .fil0 {fill:#D9F7FF}
   ]]>
  </style>
 </defs>
 <g id="Layer_x0020_1">
  <metadata id="CorelCorpID_0Corel-Layer"/>
  <g id="_2163181939072">
   <path class="fil0" d="M0.73 0.15l0.03 -0.02 0 -0c0,-0 0.01,-0 0.01,-0.01 0.01,-0.01 0.03,-0.02 0.04,-0.03 0.03,-0.02 0.06,-0.03 0.09,-0.05 0.26,-0.11 0.53,-0.01 0.75,0.14 0.05,0.03 0.09,0.07 0.13,0.11 0,0 0.01,0.01 0.01,0.01l0.02 0.02c0.02,0.02 0.04,0.04 0.06,0.06 0.01,0.01 0.01,0.01 0.02,0.02l0 0 0.04 0.04c0.01,0.01 0.01,0.01 0.02,0.02 0.01,0.01 0.01,0.01 0.02,0.02l0.53 0c0,-0 0,-0.01 0.01,-0.01l0.07 -0.07c0,-0 0,-0 0.01,-0.01 0.01,-0.02 0.03,-0.03 0.05,-0.05l0.05 -0.05c0.02,-0.02 0.05,-0.04 0.07,-0.06 0.09,-0.07 0.18,-0.14 0.29,-0.18l0.06 -0.02c0.01,-0 0.02,-0.01 0.03,-0.01 0.13,-0.04 0.28,-0.04 0.42,0.01 0.07,0.03 0.12,0.06 0.18,0.11l0 0 0.04 0.04c0.05,0.05 0.1,0.13 0.13,0.2 0.02,0.07 0.04,0.14 0.03,0.21 -0.02,0.17 -0.17,0.24 -0.33,0.21 -0.06,-0.01 -0.11,-0.02 -0.17,-0.02 -0.18,0 -0.35,0.04 -0.5,0.14 -0.03,0.02 -0.05,0.03 -0.07,0.05l-0.01 0.01c0.46,0 0.92,0 1.38,0 0.04,0 0.08,-0 0.12,0 0.07,0 0.12,0.06 0.12,0.13l0 0.67c0,0.04 -0.02,0.07 -0.05,0.1 -0.02,0.02 -0.06,0.03 -0.09,0.03l-0.14 0 0 2.21 0.14 0c0.2,0 0.18,0.27 0.01,0.27l-4.22 0c-0.17,0 -0.18,-0.27 0.01,-0.27l0.14 0 0 -2.21 -0.15 0c-0.07,0 -0.13,-0.06 -0.13,-0.13l0 -0.66c0,-0.07 0.05,-0.12 0.12,-0.13 0.04,-0.01 0.08,-0 0.12,-0 0.46,0 0.93,0 1.39,0 -0.01,-0.01 -0.03,-0.02 -0.04,-0.03 -0.02,-0.02 -0.05,-0.03 -0.07,-0.04 -0.09,-0.04 -0.15,-0.07 -0.24,-0.09 -0.02,-0.01 -0.05,-0.01 -0.08,-0.01 -0.08,-0.01 -0.19,-0.01 -0.27,-0 -0.1,0.02 -0.18,0.03 -0.27,-0.03 -0.08,-0.05 -0.11,-0.14 -0.11,-0.23 0,-0.04 0.01,-0.08 0.02,-0.13 0.01,-0.04 0.03,-0.09 0.06,-0.13 0,-0.01 0.01,-0.01 0.01,-0.02 0.01,-0.01 0.02,-0.03 0.03,-0.04l0.03 -0.04 0 -0c0.01,-0.01 0.02,-0.03 0.04,-0.04zm1.04 0.61l0 -0.09 -0.05 -0.05c-0,-0 -0.01,-0.01 -0.01,-0.01l-0.06 -0.07c-0.03,-0.03 -0.06,-0.06 -0.09,-0.08l-0.08 -0.06c-0,-0 -0.01,-0 -0.01,-0.01l-0.07 -0.04c-0.01,-0 -0.02,-0.01 -0.03,-0.02 -0.02,-0.01 -0.03,-0.02 -0.05,-0.03 -0.09,-0.04 -0.18,-0.06 -0.28,-0.04 -0.02,0 -0.04,0.01 -0.06,0.02 -0.03,0.01 -0.05,0.03 -0.07,0.04 -0.02,0.01 -0.03,0.03 -0.05,0.05 -0.01,0.02 -0.03,0.04 -0.04,0.05 -0.02,0.04 -0.03,0.07 -0.03,0.12 0,0 0,0 0,0 0.03,-0 0.05,-0.01 0.07,-0.01 0.03,-0 0.05,-0.01 0.08,-0.01 0.03,-0 0.06,0 0.08,-0 0.02,-0 0.03,-0 0.05,-0 0.04,0 0.09,0 0.13,0.01 0.07,0.01 0.15,0.03 0.22,0.05 0.08,0.03 0.18,0.07 0.25,0.12 0.03,0.02 0.05,0.04 0.08,0.05zm1.89 -0.21c0,-0.02 -0,-0.04 -0.01,-0.06 -0.03,-0.09 -0.1,-0.17 -0.19,-0.21 -0.14,-0.06 -0.25,-0.02 -0.38,0.04 -0.05,0.03 -0.11,0.07 -0.15,0.1l-0.1 0.09c-0,0 -0,0 -0,0l-0.07 0.07c-0,0 -0.01,0.01 -0.01,0.01 -0,0 -0.01,0.01 -0.01,0.01l-0 0 -0.03 0.04c-0,0 -0,0.01 -0.01,0.01 0,0.03 0,0.06 0,0.1 0.05,-0.04 0.12,-0.08 0.18,-0.11l0 -0 0.15 -0.06 0 -0c0.08,-0.03 0.16,-0.04 0.24,-0.05 0.02,-0 0.04,-0 0.07,-0.01l0 -0 0.14 0 0 0c0.02,0 0.04,0 0.06,0.01 0.03,0 0.08,0.01 0.11,0.02zm-1.62 0.2l0 0.23 0.39 0 0 -0.23 -0.39 0zm0.51 0.89l-0 -0.33c0,-0.02 0,-0.04 0,-0.06l-0.62 -0c-0,0.06 0,0.12 0,0.18 0,0.07 0,0.14 0,0.22 0.15,-0 0.46,-0 0.62,0zm-0.88 -0.39l-1.4 -0 -0 0.4 1.41 -0c0,-0.05 -0,-0.11 -0,-0.16 -0,-0.08 -0,-0.16 -0,-0.24zm2.54 -0c-0.04,-0 -0.08,0 -0.12,0l-1.25 0c-0.01,0 -0.02,-0 -0.03,-0 -0,0.11 0,0.23 0,0.34 0,0.02 -0,0.04 -0,0.07 0.11,0 0.22,-0 0.32,-0 0.13,-0 0.25,-0 0.38,-0l0.7 0 0 -0.4zm-0.28 2.5l0 -1.84 -1.31 0 0 1.93c0.02,-0.06 0.07,-0.09 0.13,-0.09l1.17 0zm-1.31 0.17l0 0.2 1.31 0 0 -0.11 -1.18 0c-0.06,0 -0.11,-0.04 -0.13,-0.09zm-2.07 0.09c-0,0.04 -0,0.07 0,0.11 0.4,0 0.8,-0 1.2,-0 0.03,0 0.07,0 0.11,0l-0 -2.22c-0.22,0 -0.43,0 -0.65,0 -0.12,0 -0.24,0 -0.36,0 -0.08,0 -0.16,0 -0.24,-0 -0.01,-0 -0.03,0 -0.05,0 0,0.02 0,0.03 0,0.05l0 1.74c0,0.02 -0,0.03 -0,0.05l0.58 0c0.07,0 0.13,0.06 0.13,0.13 0,0.03 -0.01,0.06 -0.03,0.09 -0.02,0.03 -0.05,0.05 -0.09,0.05 -0.03,0 -0.08,0 -0.12,0 -0.07,0 -0.15,0 -0.22,0 -0.09,-0 -0.17,-0 -0.26,-0zm1.81 0.11c0,-0.05 -0,-0.09 -0,-0.14 0,-0.13 0,-0.27 0,-0.4 -0,-0.19 -0,-0.38 -0,-0.57l0 -1.11 -0.24 0 0 2.21c0.08,0 0.16,0 0.24,-0z"/>
  </g>
  <path class="fil0" d="M2.42 1.84c0,0.01 0,0.03 0,0.04l0 1.14c0,0 0,1.16 -0,1.18 -0.04,0 -0.37,0 -0.38,-0l-0 -2.35 0.38 -0zm-1.94 -0c0.02,0 0.71,0 0.72,0 0.24,0 0.48,0 0.72,0l0 2.36c-0.01,0 -0.17,0 -0.18,0 -0.42,0 -0.85,0 -1.27,0 -0,-0.03 -0,-0.24 0,-0.25 0.03,-0 0.63,0 0.66,-0 0.01,0 0.03,-0.01 0.03,-0.02 0.01,-0.01 0.01,-0.02 0.01,-0.04 -0,-0.03 -0.03,-0.05 -0.06,-0.05l-0.66 -0c-0,-0.04 -0,-0.08 -0,-0.12l0 -1.74c0,-0.02 -0,-0.11 0,-0.12zm2.2 2.05c0,0.03 0.03,0.06 0.06,0.06l1.25 0 0 0.25 -1.45 0 0 -2.36 1.45 0 0 1.98 -1.24 0c-0.04,0 -0.07,0.02 -0.07,0.06zm1.59 -2.71l-0 0.54c-0.01,0 -0.01,0 -0.02,0l-0.75 -0c-0.02,0 -0.74,0 -0.77,-0 -0,-0.02 -0,-0.11 -0,-0.13 0,-0.03 -0,-0.39 0,-0.41 0.02,-0 0.07,-0 0.1,-0l1.25 0c0.01,0 0.18,-0 0.19,0zm-4.08 -0l1.55 0c0,0.02 0,0.05 0,0.07 0,0.06 0,0.46 -0,0.47l-1.55 0 0 -0.54zm2.43 0.54c-0.01,-0 -0.75,-0 -0.76,-0 -0,-0 -0,-0 -0,-0l-0 -0.01c0,-0.08 -0,-0.51 0,-0.52l0.76 0c0,0.01 0,0.11 0,0.13l0 0.4c-0,0.01 0,0 -0,0.01zm-0.65 -1.04l0.53 0 0 0.38 -0.53 0 0 -0.38zm1.7 -0.05c-0.02,0 -0.1,-0.01 -0.12,-0.02 -0.02,-0 -0.04,-0 -0.06,-0.01l-0.13 0c-0.02,0 -0.04,0 -0.07,0.01 -0.09,0.01 -0.15,0.02 -0.23,0.05l-0.15 0.06c-0.06,0.03 -0.15,0.09 -0.2,0.13 -0,0 -0.01,0.01 -0.01,0.01 -0.01,0.01 -0.01,0.01 -0.02,0.02 -0.02,0.02 -0.05,0.05 -0.05,0.05 0,-0.09 0,-0.18 -0,-0.27 -0,-0.02 0.01,-0.02 0.03,-0.04l0.03 -0.04c0.01,-0.01 0.01,-0.01 0.02,-0.02 0,-0 0,-0 0.01,-0.01l0.08 -0.08c0,-0 0,-0 0.01,-0.01l0.1 -0.09c0.05,-0.04 0.11,-0.08 0.17,-0.11 0.14,-0.07 0.28,-0.11 0.44,-0.05 0.1,0.04 0.2,0.14 0.23,0.25 0.01,0.04 0.02,0.1 -0.01,0.13 -0.01,0.01 -0.01,0.01 -0.02,0.01 -0.01,0 -0.02,0 -0.03,0zm-2.93 -0.08c0,-0.06 0.02,-0.11 0.04,-0.15 0.01,-0.02 0.03,-0.05 0.05,-0.07 0.02,-0.02 0.04,-0.04 0.06,-0.06 0.03,-0.02 0.05,-0.04 0.09,-0.05 0.02,-0.01 0.04,-0.02 0.07,-0.02 0.11,-0.03 0.22,-0 0.32,0.04 0.02,0.01 0.04,0.02 0.06,0.03 0.01,0.01 0.02,0.01 0.03,0.02l0.07 0.04c0.01,0 0.01,0.01 0.01,0.01l0.08 0.06c0.03,0.02 0.07,0.06 0.09,0.09l0.07 0.07c0,0.01 0.01,0.01 0.01,0.01l0.05 0.06c0,0 0.01,0.01 0.01,0.01 0,0.01 0,0.01 0,0.02l-0 0.27 -0.04 -0.04c-0.01,-0.01 -0.01,-0.01 -0.02,-0.02 -0,-0.01 -0.01,-0.01 -0.01,-0.01 -0.05,-0.04 -0.05,-0.05 -0.11,-0.08 -0.06,-0.04 -0.16,-0.09 -0.23,-0.11 -0.06,-0.02 -0.14,-0.04 -0.21,-0.05 -0.04,-0 -0.08,-0.01 -0.12,-0.01 -0.01,0 -0.03,-0 -0.04,-0 -0.03,0 -0.06,-0 -0.08,0 -0.03,0 -0.05,0 -0.08,0.01 -0.04,0.01 -0.05,0.01 -0.09,0.01 -0.04,0 -0.07,-0.03 -0.07,-0.08zm-0.12 -0.01c0,0.07 0.02,0.13 0.08,0.17 0.07,0.05 0.14,0.03 0.22,0.02 0.09,-0.01 0.21,-0.01 0.3,0 0.03,0 0.05,0.01 0.08,0.02 0.11,0.03 0.16,0.05 0.26,0.1 0.03,0.01 0.05,0.03 0.08,0.05 0.04,0.03 0.07,0.06 0.11,0.09 0.02,0.02 0.04,0.05 0.06,0.07 -0.52,0 -1.04,0 -1.56,0 -0.03,0 -0.08,-0 -0.11,0 -0.03,0 -0.05,0.03 -0.05,0.06l0 0.66c0,0.03 0.03,0.06 0.06,0.06l0.23 0 0 2.36 -0.22 0c-0.1,0 -0.09,0.12 -0.01,0.12l4.22 0c0.07,0 0.09,-0.12 -0.01,-0.12l-0.22 0 0 -2.36 0.22 0c0.02,0 0.03,-0.01 0.04,-0.01 0.01,-0.01 0.02,-0.02 0.02,-0.04l0 -0.67c0,-0.03 -0.03,-0.05 -0.06,-0.05 -0.03,-0 -0.08,-0 -0.11,-0 -0.52,0 -1.04,0 -1.56,0 0.01,-0.02 0.05,-0.06 0.07,-0.08 0.01,-0.01 0.02,-0.02 0.03,-0.03l0.04 -0.03c0.03,-0.02 0.05,-0.04 0.08,-0.06 0.15,-0.1 0.33,-0.15 0.54,-0.15 0.07,0 0.13,0.01 0.19,0.02 0.12,0.02 0.23,-0.03 0.24,-0.15 0.01,-0.07 -0,-0.12 -0.02,-0.18 -0.02,-0.06 -0.06,-0.13 -0.11,-0.17l-0.04 -0.04c-0.05,-0.04 -0.1,-0.07 -0.16,-0.1 -0.12,-0.04 -0.25,-0.04 -0.37,-0 -0.01,0 -0.02,0.01 -0.03,0.01l-0.06 0.02c-0.1,0.04 -0.19,0.1 -0.27,0.17 -0.02,0.02 -0.05,0.04 -0.07,0.06l-0.05 0.05c-0.01,0.01 -0.03,0.03 -0.04,0.04 -0,0 -0,0.01 -0.01,0.01l-0.07 0.07c-0.01,0.01 -0.02,0.03 -0.03,0.03l-0.59 0c-0.01,0 -0.03,-0.03 -0.04,-0.04 -0.01,-0.01 -0.01,-0.01 -0.02,-0.02l-0.04 -0.04c-0.01,-0.01 -0.01,-0.01 -0.02,-0.02 -0.02,-0.02 -0.04,-0.04 -0.06,-0.06l-0.02 -0.02c-0,-0 -0.01,-0 -0.01,-0.01 -0.04,-0.04 -0.08,-0.07 -0.12,-0.1 -0.19,-0.14 -0.44,-0.24 -0.68,-0.14 -0.03,0.01 -0.06,0.03 -0.08,0.04 -0.01,0.01 -0.02,0.02 -0.04,0.03 -0,0 -0.01,0 -0.01,0.01l-0.03 0.02c-0.01,0.01 -0.02,0.02 -0.03,0.03l-0.03 0.03c-0.01,0.01 -0.02,0.02 -0.03,0.04 -0,0.01 -0.01,0.01 -0.01,0.02 -0.02,0.03 -0.04,0.07 -0.05,0.11 -0.01,0.03 -0.02,0.07 -0.02,0.11z"/>
  <path class="fil0" d="M4.28 1.72l-1.54 0 0 -0.54 -0.08 0 1.62 0c-0.01,-0 -0.18,-0 -0.19,-0l-1.25 0c-0.03,0 -0.07,-0 -0.1,0 -0,0.02 -0,0.37 -0,0.41 0,0.02 -0,0.12 0,0.13 0.03,0 0.74,0 0.77,0l0.75 0c0.01,0 0.02,0 0.02,-0z"/>
  <path class="fil0" d="M0.19 1.18l1.54 0 0 0.54 -1.54 0 0 -0.54zm-0 0.54l1.55 -0c0,-0.01 0,-0.42 0,-0.47 0,-0.02 0,-0.05 -0,-0.07l-1.55 -0 -0 0.54z"/>
  <path class="fil0" d="M2.04 4.2c0.01,0 0.34,0 0.38,0 0,-0.02 0,-1.17 0,-1.18l0 -1.14c0,-0.01 0,-0.03 -0,-0.04l0 2.35 -0.38 0z"/>
  <path class="fil0" d="M1.14 3.83l-0 -0c-0.01,-0 -0.65,-0 -0.65,-0l0 -1.99c-0,0.01 -0,0.1 -0,0.12l0 1.74c0,0.04 -0,0.08 0,0.12l0.66 0z"/>
  <path class="fil0" d="M1.93 4.2l-1.44 0 0 -0.25 0.64 0c0.01,0 0.02,0 0.02,-0 -0.03,0 -0.63,0 -0.66,0 -0,0.01 -0,0.23 -0,0.25 0.42,0 0.85,0 1.27,0 0.01,0 0.17,0 0.18,-0z"/>
  <path class="fil0" d="M1.86 1.72l0 -0.54 0.76 0 0 0.54c0,-0 0,0 0,-0.01l-0 -0.4c0,-0.02 0,-0.12 -0,-0.13l-0.76 -0c-0,0.01 -0,0.44 -0,0.52l0 0.01c0,0 0,0 0,0z"/>
 </g>
</svg>
