<?xml version="1.0" encoding="UTF-8"?>
<!DOCTYPE svg PUBLIC "-//W3C//DTD SVG 1.1//EN" "http://www.w3.org/Graphics/SVG/1.1/DTD/svg11.dtd">
<!-- Creator: CorelDRAW 2021 (64-Bit) -->
<svg xmlns="http://www.w3.org/2000/svg" xml:space="preserve" width="0.320299in" height="0.320299in" version="1.1" style="shape-rendering:geometricPrecision; text-rendering:geometricPrecision; image-rendering:optimizeQuality; fill-rule:evenodd; clip-rule:evenodd"
viewBox="0 0 2.86 2.86"
 xmlns:xlink="http://www.w3.org/1999/xlink"
 xmlns:xodm="http://www.corel.com/coreldraw/odm/2003">
 <defs>
  <style type="text/css">
   <![CDATA[
    .fil0 {fill:#D9F7FF}
   ]]>
  </style>
 </defs>
 <g id="Layer_x0020_1">
  <metadata id="CorelCorpID_0Corel-Layer"/>
  <g id="_2203851013280">
   <polygon class="fil0" points="0.89,2.41 0.64,2.66 0.19,2.21 0.44,1.96 "/>
   <polygon class="fil0" points="1.75,2.51 1.75,2.86 1.11,2.86 1.11,2.5 "/>
   <polygon class="fil0" points="2.41,1.96 2.66,2.21 2.21,2.66 1.96,2.41 "/>
   <polygon class="fil0" points="2.51,1.11 2.86,1.11 2.86,1.75 2.5,1.75 "/>
   <polygon class="fil0" points="1.96,0.44 2.21,0.19 2.66,0.64 2.41,0.89 "/>
   <polygon class="fil0" points="1.11,0.35 1.11,0 1.75,0 1.75,0.35 "/>
   <polygon class="fil0" points="0.44,0.89 0.19,0.64 0.64,0.19 0.89,0.44 "/>
   <polygon class="fil0" points="-0,1.75 -0,1.11 0.35,1.11 0.35,1.75 "/>
   <path class="fil0" d="M0.44 1.01l0.29 -0.29 0.29 -0.29 0.41 0 0.41 0 0.29 0.29 0.29 0.29 -0 0.41 -0 0.41 -0.29 0.29 -0.29 0.29 -0.41 -0 -0.41 -0 -0.29 -0.29 -0.29 -0.29 0 -0.41 0 -0.41zm0.58 0.24l0.12 -0.12 0.12 -0.12 0.17 0 0.17 0 0.12 0.12 0.12 0.12 -0 0.17 -0 0.17 -0.12 0.12 -0.12 0.12 -0.17 -0 -0.17 -0 -0.12 -0.12 -0.12 -0.12 0 -0.17 0 -0.17z"/>
  </g>
 </g>
</svg>
