<?xml version="1.0" encoding="UTF-8"?>
<!DOCTYPE svg PUBLIC "-//W3C//DTD SVG 1.1//EN" "http://www.w3.org/Graphics/SVG/1.1/DTD/svg11.dtd">
<!-- Creator: CorelDRAW 2021 (64-Bit) -->
<svg xmlns="http://www.w3.org/2000/svg" xml:space="preserve" width="0.495661in" height="0.429512in" version="1.1" style="shape-rendering:geometricPrecision; text-rendering:geometricPrecision; image-rendering:optimizeQuality; fill-rule:evenodd; clip-rule:evenodd"
viewBox="0 0 4.22 3.66"
 xmlns:xlink="http://www.w3.org/1999/xlink"
 xmlns:xodm="http://www.corel.com/coreldraw/odm/2003">
 <defs>
  <style type="text/css">
   <![CDATA[
    .fil0 {fill:#D9F7FF}
   ]]>
  </style>
 </defs>
 <g id="Layer_x0020_1">
  <metadata id="CorelCorpID_0Corel-Layer"/>
  <g id="_2203851012752">
   <path class="fil0" d="M1.9 0.87l0.45 0 0 0.41c0,0.02 0.01,0.05 -0.01,0.05l-0.39 0c-0.02,0 -0.01,-0.03 -0.02,-0.05l-0.03 -0.27c-0,-0.01 -0.01,-0.02 -0.01,-0.03l-0.01 -0.09c-0,-0.02 0,-0.01 0.01,-0.01zm1.1 0.46l-0.39 0c-0.01,0 -0.01,-0 -0.01,-0.01l0 -0.44c0,-0.01 0,-0.01 0.01,-0.01 0.14,0 0.29,-0 0.43,0l0.01 -0c0.02,-0 0.02,-0 0.01,0.08 -0.01,0.05 -0.01,0.09 -0.02,0.13 -0,0.01 -0,0.02 -0,0.03l-0.02 0.2c-0,0.01 0,0.03 -0.01,0.03zm0.73 0l-0.47 0c-0.01,0 -0.01,-0.01 -0.01,-0.02l0.05 -0.42c0,-0.01 0,-0.02 0.01,-0.02l0.57 0c0,0.02 -0,0.02 -0.01,0.03 -0,0.01 -0.01,0.02 -0.01,0.03l-0.12 0.35c-0.01,0.03 -0.01,0.06 -0.03,0.06zm-2.67 -0.46l0.58 0 0.05 0.41c0,0.01 0,0.02 0,0.03 0,0.01 0.01,0.02 -0.01,0.02l-0.5 0c-0.01,0 -0.01,-0.02 -0.02,-0.05 -0.03,-0.1 -0.07,-0.24 -0.09,-0.33l-0.02 -0.06c-0,-0.01 -0.01,-0.02 0.01,-0.02zm-0.05 0.76l0.25 0 -0.01 -0.03c-0.01,-0.03 -0.02,-0.02 0.08,-0.02l0.37 -0c0.02,0 0.02,-0.01 0.02,0.05l0.24 0c0,-0.01 -0,-0.02 -0,-0.03 -0.01,-0.04 -0.01,-0.03 0.06,-0.03l0.31 -0c0.02,0 0.01,0.01 0.01,0.05l0.24 0c0,-0.03 -0.01,-0.05 0.01,-0.05l0.37 0c0.01,0 0,0.04 -0,0.05l0.24 0c0,-0 0,-0 0,-0l0 -0.01c0,-0 0,-0.01 0,-0.01 0,-0.01 0,-0.02 0.01,-0.03 0.01,-0.01 0.17,-0 0.19,-0 0.08,0 0.17,0 0.25,0 -0,0.02 -0.01,0.03 -0.01,0.05l0.25 0c0.01,-0.01 0.01,-0.03 0.02,-0.05l0.05 -0.16c0.01,-0.02 0.01,-0.03 0.02,-0.05l0.05 -0.16c0.03,-0.07 0.05,-0.14 0.07,-0.21l0.04 -0.11c0,-0.01 0,-0.02 0.01,-0.02 0.03,-0.02 0.06,-0.04 0.07,-0.08 0,-0.02 0,-0.07 -0.01,-0.1 -0.01,-0.02 -0.02,-0.03 -0.03,-0.04l-0.04 -0.02c-0,-0 -0,-0 -0,-0 -0.01,-0 -0,-0 -0.01,-0 -0.02,-0.01 -3.14,-0 -3.15,-0 -0.01,-0.02 -0.01,-0.04 -0.02,-0.06 -0,-0 -0,-0.01 -0,-0.01l-0.01 -0.03c-0,-0 -0,-0 -0,-0l-0.04 -0.14c-0,-0 -0,-0 -0,-0.01 -0,-0 -0,-0 -0,-0l-0 -0.01c-0.01,-0.04 -0.02,-0.08 -0.03,-0.12 -0,-0.01 -0,-0.02 -0.01,-0.03 -0,-0 -0,-0 -0,-0l-0 -0.01c-0,-0 -0,-0.01 -0,-0.01 -0,-0 -0,-0 -0,-0l-0.01 -0.05c-0.01,-0.03 -0.02,-0.07 -0.05,-0.09 -0.04,-0.03 -0.06,-0.03 -0.12,-0.03 -0.1,0 -0.21,0 -0.31,0 -0.08,0 -0.24,-0.01 -0.29,0.02 -0.02,0.01 -0.04,0.04 -0.05,0.06 -0.01,0.01 -0.01,0.01 -0.01,0.03 -0,0.05 0.01,0.08 0.04,0.11 0.03,0.02 0.07,0.03 0.1,0.03 0,0 0.01,0 0.02,0 0.07,0 0.43,-0.01 0.46,-0 0,0.02 0.1,0.36 0.12,0.43l0.06 0.21c0,0.01 0,0.02 0.01,0.02l0.16 0.58c0.01,0.02 0.01,0.02 0.01,0.04 0.01,0.03 0.01,0.06 0.03,0.09z"/>
   <path class="fil0" d="M3.89 1.62l-0.25 0c-0.01,0.01 -0.07,0.2 -0.07,0.21l-0.07 0.2c-0.01,0.02 0,0.01 -0.04,0.01l-0.3 0 0.05 -0.42 -0.24 0 -0.05 0.42 -0.32 0c0,-0.01 0,-0.02 0,-0.02 0,-0.01 0,-0.01 -0,-0.02 -0,-0.08 -0,-0.29 -0,-0.37l-0.24 0c0,0.12 -0,0.24 0,0.37 0,0.05 0.01,0.05 -0.04,0.05l-0.28 -0 -0.02 -0.18c-0,-0.01 0,-0.02 -0,-0.03l-0.03 -0.21 -0.24 0c0,0.02 0,0.03 0.01,0.05 0.01,0.05 0.02,0.13 0.02,0.18l0.01 0.08c0,0.02 -0,0.02 0.01,0.05 0,0.01 0.01,0.04 0.01,0.05l-0.4 0c-0.02,-0.07 -0.04,-0.14 -0.06,-0.21 -0.01,-0.02 -0.01,-0.03 -0.02,-0.05l-0.05 -0.16 -0.25 0 0.31 1.08c0.02,0.06 0.03,0.13 0.09,0.15 0.03,0.01 0.06,0.01 0.1,0.01 0.58,0 1.17,0 1.75,0 0.07,0 0.42,0.01 0.46,-0 0.12,-0.02 0.13,-0.2 0.02,-0.24 -0.05,-0.02 -0.15,-0.01 -0.21,-0.01l-1.97 -0c-0.02,-0 -0.02,-0.02 -0.02,-0.03l-0.09 -0.3c0.72,0 1.44,-0 2.15,0 0.06,0 0.1,-0.02 0.13,-0.07 0.01,-0.02 0.02,-0.05 0.01,-0.08 -0.01,-0.04 -0.03,-0.03 -0.01,-0.07 0.01,-0.02 0.02,-0.05 0.02,-0.07 0.02,-0.07 0.12,-0.34 0.12,-0.37z"/>
   <path class="fil0" d="M1.54 3.32c0,0.09 0.01,0.12 0.06,0.2 0.01,0.01 0.01,0.01 0.02,0.02 0.02,0.02 0.03,0.03 0.06,0.05 0.01,0.01 0.03,0.02 0.04,0.03 0.07,0.04 0.18,0.05 0.25,0.02 0.02,-0.01 0.05,-0.02 0.07,-0.04 0.02,-0.02 0.04,-0.02 0.06,-0.05 0.04,-0.05 0.06,-0.08 0.08,-0.14 0.01,-0.05 0.01,-0.09 0,-0.14 -0.01,-0.03 -0.02,-0.06 -0.03,-0.09 -0.01,-0.01 -0.01,-0.02 -0.02,-0.03 -0.01,-0.02 -0.03,-0.03 -0.05,-0.05l-0.03 -0.03c-0.02,-0.01 -0.03,-0.02 -0.05,-0.03 -0.16,-0.08 -0.34,-0.01 -0.42,0.15 -0.01,0.02 -0.03,0.07 -0.03,0.09 -0,0.01 -0,0.02 -0,0.04z"/>
   <path class="fil0" d="M2.97 3.31c0,0.09 0,0.11 0.04,0.19l0.03 0.04c0.01,0.01 0.01,0.01 0.02,0.02 0.04,0.04 0.14,0.1 0.19,0.1 0.09,0 0.1,0.01 0.18,-0.03 0.01,-0 0.02,-0.01 0.02,-0.01 0.01,-0 0.01,-0 0.01,-0.01l0.03 -0.02c0.01,-0.01 0.03,-0.03 0.04,-0.04 0.02,-0.03 0.04,-0.06 0.05,-0.09 0.01,-0.02 0.01,-0.03 0.02,-0.06 0.03,-0.1 -0.01,-0.22 -0.08,-0.29l-0.04 -0.04c-0.04,-0.03 -0.06,-0.04 -0.11,-0.05 -0.09,-0.03 -0.18,-0.01 -0.25,0.04l-0.08 0.08c-0.01,0.01 -0.01,0.01 -0.02,0.02 -0.02,0.03 -0.03,0.05 -0.04,0.08 -0,0.01 -0.01,0.05 -0.01,0.07z"/>
  </g>
 </g>
</svg>
