<?xml version="1.0" encoding="UTF-8"?>
<!DOCTYPE svg PUBLIC "-//W3C//DTD SVG 1.1//EN" "http://www.w3.org/Graphics/SVG/1.1/DTD/svg11.dtd">
<!-- Creator: CorelDRAW 2021 (64-Bit) -->
<svg xmlns="http://www.w3.org/2000/svg" xml:space="preserve" width="5.66781in" height="6.82705in" version="1.1" style="shape-rendering:geometricPrecision; text-rendering:geometricPrecision; image-rendering:optimizeQuality; fill-rule:evenodd; clip-rule:evenodd"
viewBox="0 0 147.27 177.39"
 xmlns:xlink="http://www.w3.org/1999/xlink"
 xmlns:xodm="http://www.corel.com/coreldraw/odm/2003">
 <defs>
  <style type="text/css">
   <![CDATA[
    .fil2 {fill:none}
    .fil8 {fill:none;fill-rule:nonzero}
    .fil0 {fill:#DEA978}
    .fil1 {fill:#C18953}
    .fil13 {fill:#503431}
    .fil12 {fill:#FEFEFE;fill-rule:nonzero}
    .fil24 {fill:#F5893F;fill-rule:nonzero}
    .fil5 {fill:#F4B63D;fill-rule:nonzero}
    .fil20 {fill:#EFA07D;fill-rule:nonzero}
    .fil4 {fill:#E4EAF1;fill-rule:nonzero}
    .fil6 {fill:#DEA978;fill-rule:nonzero}
    .fil23 {fill:#BF6858;fill-rule:nonzero}
    .fil7 {fill:#C18953;fill-rule:nonzero}
    .fil18 {fill:#C5B4A2;fill-rule:nonzero}
    .fil15 {fill:#47302E;fill-rule:nonzero}
    .fil16 {fill:#3C2F2D;fill-rule:nonzero}
    .fil11 {fill:#303234;fill-rule:nonzero}
    .fil21 {fill:#303234;fill-rule:nonzero}
    .fil19 {fill:#30363C;fill-rule:nonzero}
    .fil3 {fill:url(#id2)}
    .fil10 {fill:url(#id3)}
    .fil9 {fill:url(#id4)}
    .fil14 {fill:url(#id5)}
    .fil17 {fill:url(#id6)}
    .fil22 {fill:url(#id7)}
   ]]>
  </style>
    <clipPath id="id0">
     <path d="M57.85 34.82c0,0 -4.57,18.83 -4.26,26.92 0.32,8.1 0.23,16.12 -2.56,18.53 -9.54,7.05 -14.83,10.34 -17.79,12.67 -2.97,2.33 -4.17,3.69 -5.37,6.09 -1.2,2.41 -4.32,9.1 -3.93,9.62 2.25,2.97 24.81,16.51 52.2,16.51 27.39,0 49.96,-13.55 52.2,-16.51 0.39,-0.51 -2.73,-7.21 -3.93,-9.62 -1.2,-2.4 -2.4,-3.77 -5.37,-6.09 -2.97,-2.33 -8.26,-5.61 -17.79,-12.67 -4.78,-4.55 -4.77,-9.11 -4.45,-17.21 0.32,-8.1 -2.36,-28.24 -2.36,-28.24l-36.59 0z"/>
    </clipPath>
      <clipPath id="id1" style="clip-rule:nonzero">
       <path d="M100.33 51.3c0.84,-2.36 4.29,-4.57 5.73,-3.73 1.44,0.84 2.24,4.97 1.64,7.58 -0.6,2.6 -3,7.29 -3.85,8.21 -0.84,0.92 -3.97,2.8 -5.89,2.28l2.36 -14.35z"/>
      </clipPath>
  <linearGradient id="id2" gradientUnits="userSpaceOnUse" x1="76.14" y1="86.73" x2="76.14" y2="44.22">
   <stop offset="0" style="stop-opacity:1; stop-color:#F9D4B2"/>
   <stop offset="1" style="stop-opacity:1; stop-color:#EFA07D"/>
  </linearGradient>
  <linearGradient id="id3" gradientUnits="userSpaceOnUse" x1="75.05" y1="3.56" x2="75.05" y2="46.41">
   <stop offset="0" style="stop-opacity:1; stop-color:#33373C"/>
   <stop offset="1" style="stop-opacity:1; stop-color:#434A50"/>
  </linearGradient>
  <linearGradient id="id4" gradientUnits="userSpaceOnUse" x1="75.17" y1="56.46" x2="75.17" y2="14.16">
   <stop offset="0" style="stop-opacity:1; stop-color:#DEA978"/>
   <stop offset="1" style="stop-opacity:1; stop-color:#B6755A"/>
  </linearGradient>
  <linearGradient id="id5" gradientUnits="userSpaceOnUse" x1="62.4" y1="48.91" x2="63.14" y2="52.57">
   <stop offset="0" style="stop-opacity:1; stop-color:#835644"/>
   <stop offset="1" style="stop-opacity:1; stop-color:#5C3937"/>
  </linearGradient>
  <linearGradient id="id6" gradientUnits="userSpaceOnUse" xlink:href="#id5" x1="87" y1="48.88" x2="87.75" y2="52.6">
  </linearGradient>
  <linearGradient id="id7" gradientUnits="userSpaceOnUse" x1="75.42" y1="56" x2="75.42" y2="19.75">
   <stop offset="0" style="stop-opacity:1; stop-color:#E0A884"/>
   <stop offset="1" style="stop-opacity:1; stop-color:#D7815F"/>
  </linearGradient>
 </defs>
 <g id="Layer_x0020_1">
  <metadata id="CorelCorpID_0Corel-Layer"/>
  <g id="_2284148040240">
   <path class="fil0" d="M57.85 34.82c0,0 -4.57,18.83 -4.26,26.92 0.32,8.1 0.23,16.12 -2.56,18.53 -9.54,7.05 -14.83,10.34 -17.79,12.67 -2.97,2.33 -4.17,3.69 -5.37,6.09 -1.2,2.41 -4.32,9.1 -3.93,9.62 2.25,2.97 24.81,16.51 52.2,16.51 27.39,0 49.96,-13.55 52.2,-16.51 0.39,-0.51 -2.73,-7.21 -3.93,-9.62 -1.2,-2.4 -2.4,-3.77 -5.37,-6.09 -2.97,-2.33 -8.26,-5.61 -17.79,-12.67 -4.78,-4.55 -4.77,-9.11 -4.45,-17.21 0.32,-8.1 -2.36,-28.24 -2.36,-28.24l-36.59 0z"/>
   <g style="clip-path:url(#id0)">
    <g>
     <path id="_1" class="fil1" d="M49.5 72.06l53.78 0c0,0 -29.45,45.3 -51.97,4.24 -22.52,-41.05 -1.82,-4.24 -1.82,-4.24z"/>
    </g>
   </g>
   <path class="fil2" d="M57.85 34.82c0,0 -4.57,18.83 -4.26,26.92 0.32,8.1 0.23,16.12 -2.56,18.53 -9.54,7.05 -14.83,10.34 -17.79,12.67 -2.97,2.33 -4.17,3.69 -5.37,6.09 -1.2,2.41 -4.32,9.1 -3.93,9.62 2.25,2.97 24.81,16.51 52.2,16.51 27.39,0 49.96,-13.55 52.2,-16.51 0.39,-0.51 -2.73,-7.21 -3.93,-9.62 -1.2,-2.4 -2.4,-3.77 -5.37,-6.09 -2.97,-2.33 -8.26,-5.61 -17.79,-12.67 -4.78,-4.55 -4.77,-9.11 -4.45,-17.21 0.32,-8.1 -2.36,-28.24 -2.36,-28.24l-36.59 0z"/>
   <path class="fil3" d="M86.43 66.32c1.93,-2.14 4.14,-4.39 6.29,-7.51 0.38,-8.39 1.72,-23.99 1.72,-23.99l-36.59 0c0,0 1.34,15.6 1.72,23.99 2.14,3.12 4.36,5.37 6.29,7.51 4.47,4.96 7.59,6.54 10.29,6.54 2.7,0 5.82,-1.58 10.29,-6.54z"/>
   <path class="fil4" d="M119.64 92.18c-1.31,-1.03 -3.01,-2.2 -5.38,-3.83 -1.45,-1 -3.16,-2.18 -5.14,-3.58 -9.1,6.07 -20.54,9.69 -32.98,9.69 -12.44,0 -23.88,-3.63 -32.98,-9.69 -1.98,1.4 -3.69,2.58 -5.13,3.57 -2.37,1.64 -4.08,2.81 -5.39,3.84 -3.1,2.43 -4.36,3.87 -5.64,6.42 -4.21,8.41 -8.98,66.01 -9.79,78.8l117.18 0c-0.57,-11.26 -4.85,-70.23 -9.13,-78.8 -1.28,-2.55 -2.54,-3.99 -5.64,-6.42z"/>
   <path class="fil5" d="M48.32 80.61c-1.47,1.05 -3.76,2.69 -5.88,4.1 -1.98,1.4 -3.69,2.58 -5.13,3.57 -2.37,1.64 -4.08,2.81 -5.39,3.84 -3.1,2.43 -16.1,15.61 -17.38,18.16 -4.27,8.54 -13.09,57.55 -14.54,67.11l57.23 0 -7.84 -96.5c0,0 -0.34,-0.21 -1.07,-0.29z"/>
   <g>
    <g>
     <path class="fil6" d="M49.78 51.3c-0.84,-2.36 -4.29,-4.57 -5.73,-3.73 -1.44,0.84 -2.25,4.97 -1.64,7.58 0.6,2.6 3,7.29 3.85,8.21 0.84,0.92 3.97,2.8 5.89,2.28l-2.36 -14.35z"/>
     <path class="fil7" d="M48.93 49.85c0.37,0.46 0.67,0.95 0.84,1.45l2.36 14.35c-1.24,0.34 -2.98,-0.33 -4.29,-1.09l1.08 -14.7z"/>
    </g>
    <g>
     <path class="fil6" d="M100.33 51.3c0.84,-2.36 4.29,-4.57 5.73,-3.73 1.44,0.84 2.24,4.97 1.64,7.58 -0.6,2.6 -3,7.29 -3.85,8.21 -0.84,0.92 -3.97,2.8 -5.89,2.28l2.36 -14.35z"/>
     <g style="clip-path:url(#id1)">
      <g>
       <path id="_1_0" class="fil7" d="M103.44 49.53c-0.37,0.46 -2.93,1.27 -3.11,1.77l-2.36 14.35c1.24,0.34 4.79,-0.71 6.09,-1.47l-0.62 -14.65z"/>
      </g>
     </g>
     <path class="fil8" d="M100.33 51.3c0.84,-2.36 4.29,-4.57 5.73,-3.73 1.44,0.84 2.24,4.97 1.64,7.58 -0.6,2.6 -3,7.29 -3.85,8.21 -0.84,0.92 -3.97,2.8 -5.89,2.28l2.36 -14.35z"/>
     <path class="fil9" d="M75.05 6.17c-24.32,0 -28.08,16.51 -28.08,25.97 0,9.46 -0.42,22.05 2.95,34.87 3.1,11.79 6.76,12.42 11.23,16.19 4.47,3.77 11.2,4.97 13.9,4.97 2.7,0 9.82,0.78 14.29,-2.98 4.47,-3.77 8.95,-6.56 11.73,-17.27 3.37,-12.82 2.05,-26.31 2.05,-35.77 0,-9.46 -3.75,-25.97 -28.08,-25.97z"/>
    </g>
   </g>
   <path class="fil10" d="M103.47 21.74c0,0 2.28,5.41 2.28,7.88 0,2.46 -1.02,16.23 -1.46,17.96 -0.45,1.73 -3.04,5.55 -3.04,5.55l-0.84 -9.15c0,0 -3.25,-3.91 -3.37,-4.81 -0.12,-0.9 0.06,-11.24 0,-12.02 -0.06,-0.78 -0.96,-0.96 -0.96,-0.96 -3.91,0.9 -21.02,1.92 -21.02,1.92 0,0 -17.11,-1.02 -21.02,-1.92 0,0 -0.9,0.18 -0.96,0.96 -0.06,0.78 0.12,11.12 0,12.02 -0.12,0.9 -3.37,4.81 -3.37,4.81l-0.84 9.15c0,0 -2.6,-3.82 -3.04,-5.55 -0.44,-1.73 -1.47,-15.5 -1.47,-17.96 0,-2.47 2.28,-7.88 2.28,-7.88 -0.98,-0.66 -1.54,-2.91 -1.54,-2.91l3.05 1.2c-0.16,-2.73 0.56,-5.05 1.08,-7.01 0.52,-1.97 2.56,-5.69 2.56,-5.69 0,0 1.28,2.52 1.4,3.77 1.12,-1.8 4.17,-4.69 6.73,-6.17 2.56,-1.48 9.3,-4.21 9.3,-4.21 0,0 0.32,2.08 0.2,3.45 2.32,-0.96 6.73,-2.12 9.74,-2.49 3.01,-0.36 8.06,-1.16 8.78,-1.68 0.12,2.93 -0.2,4.21 -0.2,4.21 0,0 4.89,-0.8 6.61,-1.48 1.72,-0.68 2.12,-1 2.12,-1 0,0 1.32,4.37 0.44,8.78 1.44,-1.28 2.44,-2.61 2.44,-2.61 0,0 2.92,5.33 3.21,8.22 0.28,2.89 0.24,4.05 0.24,4.05l1.64 -0.24c0,0 -0.32,1.16 -0.98,1.82z"/>
   <path class="fil11" d="M75.58 27.02c0,0 0.44,-0.96 1.3,-2.28 0.85,-1.33 2.13,-3 3.57,-4.54 0.76,-0.73 1.46,-1.52 2.24,-2.13 0.77,-0.62 1.47,-1.23 2.14,-1.65 1.35,-0.84 2.27,-1.34 2.27,-1.34 0,0 -0.75,0.75 -1.91,1.78 -0.3,0.24 -0.58,0.57 -0.9,0.87 -0.32,0.31 -0.65,0.64 -1,0.98 -0.36,0.32 -0.69,0.7 -1.05,1.06 -0.35,0.37 -0.71,0.74 -1.07,1.11 -0.37,0.36 -0.7,0.76 -1.05,1.13 -0.35,0.37 -0.69,0.74 -1.02,1.09 -0.65,0.73 -1.25,1.4 -1.77,1.98 -1.05,1.17 -1.75,1.94 -1.75,1.94z"/>
   <path class="fil11" d="M74 27.02c0,0 -0.13,-0.7 -0.16,-1.75 -0.02,-0.52 -0.01,-1.13 0.05,-1.79 0.03,-0.65 0.16,-1.34 0.26,-2.03 0.13,-0.69 0.32,-1.37 0.5,-2 0.09,-0.32 0.23,-0.61 0.35,-0.89 0.11,-0.28 0.23,-0.54 0.34,-0.78 0.11,-0.24 0.27,-0.44 0.39,-0.62 0.12,-0.18 0.23,-0.33 0.32,-0.46 0.18,-0.25 0.29,-0.38 0.29,-0.38 0,0 -0.04,0.18 -0.12,0.47 -0.04,0.14 -0.1,0.32 -0.16,0.52 -0.05,0.2 -0.14,0.41 -0.19,0.67 -0.09,0.51 -0.24,1.08 -0.38,1.69 -0.1,0.63 -0.27,1.28 -0.37,1.95 -0.13,0.67 -0.25,1.34 -0.37,1.97 -0.12,0.63 -0.24,1.22 -0.34,1.72 -0.23,1.01 -0.4,1.69 -0.4,1.69z"/>
   <path class="fil11" d="M71.87 26.8c0,0 -0.35,-0.28 -0.76,-0.78 -0.41,-0.5 -0.85,-1.23 -1.2,-2.01 -0.15,-0.4 -0.3,-0.8 -0.39,-1.19 -0.08,-0.4 -0.15,-0.77 -0.17,-1.09 -0,-0.66 0.07,-1.09 0.07,-1.09 0,0 0.24,0.39 0.48,0.95 0.28,0.56 0.61,1.29 0.92,2.05 0.32,0.75 0.6,1.52 0.79,2.12 0.17,0.61 0.26,1.04 0.26,1.04z"/>
   <path class="fil11" d="M78.63 27.02c0,0 0.7,-0.4 1.79,-0.9 1.09,-0.5 2.57,-1.09 4.04,-1.66 1.48,-0.55 2.99,-1.02 4.15,-1.32 1.16,-0.29 1.96,-0.43 1.96,-0.43 0,0 -0.69,0.42 -1.76,0.95 -1.07,0.53 -2.54,1.16 -4.03,1.72 -0.75,0.26 -1.5,0.55 -2.21,0.75 -0.72,0.21 -1.39,0.38 -1.97,0.51 -1.17,0.26 -1.97,0.37 -1.97,0.37z"/>
   <path class="fil11" d="M100.45 23.91c-2.07,1.42 -4.38,2.28 -4.38,2.28 0,0 0.9,0.18 0.96,0.96 0.01,0.1 0.01,0.35 0.01,0.71 1.96,-1.4 3.41,-3.96 3.41,-3.96z"/>
   <path class="fil11" d="M53.06 27.7c0,-0.26 0.01,-0.47 0.01,-0.55 0.06,-0.78 0.96,-0.96 0.96,-0.96 0,0 -3.69,-2.01 -5.12,-3.16 0,0 1.93,2.99 4.15,4.67z"/>
   <path class="fil7" d="M76 68.31c1.52,0 2.73,-1.37 2.84,-2.06 -0.47,0.2 -1.83,0.79 -2.84,0.79 -1.01,0 -2.37,-0.58 -2.84,-0.79 0.11,0.68 1.32,2.06 2.84,2.06z"/>
   <path class="fil12" d="M87.56 47.64c-2.06,0.44 -4.38,2.1 -5.57,4.09 0.84,1.42 2.83,2.87 6.52,2.61 3.69,-0.26 5.44,-4.74 5.55,-5.72 -0.93,-0.55 -3.53,-1.19 -6.5,-0.99z"/>
   <path class="fil12" d="M63.29 47.64c2.06,0.44 4.38,2.1 5.57,4.09 -0.84,1.42 -2.83,2.87 -6.52,2.61 -3.69,-0.26 -5.44,-4.74 -5.55,-5.72 0.93,-0.55 3.53,-1.19 6.5,-0.99z"/>
   <g>
    <g>
     <path class="fil13" d="M62.88 48.08c1.42,0 2.57,1.14 2.57,2.54 0,0.35 -0.07,0.68 -0.2,0.98 -0.04,0.11 -0.09,0.21 -0.14,0.31l-0.01 0c-0.45,0.75 -1.27,1.25 -2.21,1.25 -1.01,0 -1.88,-0.57 -2.3,-1.4l-0.03 -0.01c-0.09,-0.19 -0.16,-0.39 -0.2,-0.6 -0.03,-0.17 -0.05,-0.34 -0.05,-0.52 0,-0.02 0,-0.03 0,-0.05 0.02,-1.38 1.16,-2.5 2.57,-2.5z"/>
     <g>
      <path class="fil14" d="M62.36 48.12c0.18,-0.04 0.36,-0.05 0.54,-0.05 1.42,0.02 2.55,1.19 2.53,2.62 -0.01,0.44 -0.13,0.85 -0.33,1.21 -0.4,0.12 -0.82,0.24 -1.28,0.33 -0.26,0.05 -0.52,0.1 -0.79,0.13 -0.79,-0.01 -1.67,-0.24 -2.49,-0.62 -0.09,-0.19 -0.16,-0.39 -0.2,-0.6 0.04,0.21 0.11,0.41 0.2,0.6 0.83,0.39 1.7,0.61 2.49,0.62 0.27,-0.04 0.53,-0.08 0.79,-0.13 0.45,-0.09 0.88,-0.2 1.28,-0.33 0.18,-0.32 0.29,-0.68 0.32,-1.06 -0.04,0.01 -0.08,0.02 -0.12,0.03 -0.47,0.1 -0.94,0.15 -1.38,0.17 0.04,-0.11 0.06,-0.23 0.06,-0.36 0.01,-0.62 -0.48,-1.13 -1.1,-1.14 -0.08,-0 -0.16,0.01 -0.24,0.02 -0.5,0.1 -0.89,0.55 -0.89,1.08 -0,0.09 0.01,0.17 0.02,0.25 -0.61,-0.11 -1.12,-0.25 -1.46,-0.36 -0,0.03 -0.01,0.06 -0.01,0.1 0.02,-1.24 0.9,-2.26 2.06,-2.5z"/>
      <path class="fil15" d="M63.98 50.67c0.01,-0.62 -0.48,-1.13 -1.1,-1.14 -0.62,-0.01 -1.12,0.49 -1.13,1.11 -0.01,0.62 0.48,1.13 1.1,1.14 0.62,0.01 1.12,-0.49 1.13,-1.11z"/>
      <path class="fil12" d="M63.53 49.81c-0.11,0.29 0.09,0.62 0.44,0.75 0.35,0.13 0.72,0 0.83,-0.28 0.11,-0.29 -0.09,-0.62 -0.44,-0.75 -0.35,-0.13 -0.72,-0 -0.83,0.28z"/>
     </g>
    </g>
    <path class="fil16" d="M61.78 50.89c0.62,0.11 1.35,0.18 2.14,0.14 -0.13,0.37 -0.45,0.65 -0.83,0.73 -0.08,0.02 -0.15,0.02 -0.24,0.02 -0.53,-0.01 -0.97,-0.39 -1.08,-0.89z"/>
   </g>
   <g>
    <g>
     <path class="fil13" d="M87.49 48.03c1.44,0 2.61,1.16 2.61,2.58 0,0.35 -0.07,0.69 -0.2,1 -0.04,0.11 -0.09,0.21 -0.15,0.31l-0.01 0c-0.45,0.76 -1.29,1.27 -2.25,1.27 -1.02,0 -1.91,-0.58 -2.34,-1.43l-0.03 -0.01c-0.09,-0.19 -0.16,-0.4 -0.2,-0.61 -0.03,-0.17 -0.05,-0.35 -0.05,-0.53 0,-0.02 0,-0.03 0,-0.05 0.02,-1.41 1.18,-2.54 2.61,-2.54z"/>
     <g>
      <path class="fil17" d="M86.96 48.08c0.18,-0.04 0.36,-0.05 0.55,-0.05 1.44,0.02 2.59,1.21 2.57,2.67 -0.01,0.45 -0.13,0.86 -0.34,1.23 -0.4,0.13 -0.84,0.24 -1.3,0.33 -0.26,0.05 -0.53,0.1 -0.8,0.13 -0.8,-0.01 -1.69,-0.24 -2.53,-0.63 -0.09,-0.19 -0.16,-0.4 -0.2,-0.61 0.04,0.21 0.11,0.42 0.2,0.61 0.84,0.39 1.73,0.63 2.53,0.63 0.27,-0.04 0.54,-0.08 0.8,-0.13 0.46,-0.09 0.89,-0.21 1.3,-0.33 0.18,-0.33 0.29,-0.69 0.32,-1.08 -0.04,0.01 -0.08,0.02 -0.12,0.03 -0.48,0.1 -0.95,0.15 -1.4,0.17 0.04,-0.11 0.06,-0.24 0.06,-0.37 0.01,-0.63 -0.49,-1.15 -1.12,-1.16 -0.08,-0 -0.16,0.01 -0.24,0.02 -0.51,0.1 -0.9,0.56 -0.91,1.1 -0,0.09 0.01,0.17 0.02,0.25 -0.62,-0.11 -1.13,-0.25 -1.49,-0.37 -0,0.03 -0.01,0.06 -0.01,0.1 0.02,-1.26 0.91,-2.3 2.09,-2.54z"/>
      <path class="fil15" d="M88.61 50.67c0.01,-0.63 -0.49,-1.15 -1.12,-1.16 -0.63,-0.01 -1.14,0.49 -1.15,1.13 -0.01,0.63 0.49,1.15 1.12,1.16 0.63,0.01 1.14,-0.5 1.15,-1.13z"/>
      <path class="fil12" d="M88.15 49.8c-0.11,0.29 0.09,0.63 0.45,0.77 0.35,0.13 0.73,0 0.84,-0.29 0.11,-0.29 -0.09,-0.63 -0.45,-0.77 -0.35,-0.13 -0.73,-0 -0.84,0.29z"/>
     </g>
    </g>
    <path class="fil16" d="M86.37 50.89c0.63,0.11 1.37,0.18 2.18,0.15 -0.13,0.37 -0.45,0.66 -0.85,0.74 -0.08,0.02 -0.16,0.02 -0.24,0.02 -0.54,-0.01 -0.99,-0.4 -1.09,-0.91z"/>
   </g>
   <path class="fil18" d="M84.37 50.72c-0,-0 -0,-0 -0,-0.01 -0.05,-0.24 -0.08,-0.48 -0.08,-0.71 0,0.23 0.02,0.47 0.08,0.71 0,0 0,0 0,0.01z"/>
   <path class="fil19" d="M81.35 52.1c0,0 3.07,-3.59 6.56,-4.06 4.55,-0.11 5.9,0.91 5.9,0.91 0,0.22 -0.11,0.84 -0.11,0.84 0,0 1.15,-1.13 1.61,-1.87 -2.52,-0.67 -4.88,-0.94 -7.96,-0.65 -3.09,0.29 -5.9,1.86 -5.9,1.86 0,0 1.9,-0.7 3.54,-0.95 -1.06,0.63 -3.07,2.27 -3.63,3.92z"/>
   <path class="fil20" d="M84.11 53.63c0.73,0.3 5.52,1.64 8.34,-1.63 -0.66,1.34 -3.72,3.96 -8.34,1.63z"/>
   <path class="fil7" d="M83.72 47.03c0,0 2.88,-0.99 6.99,-0.71 -2.14,-0.6 -5.04,-0.26 -5.3,-0.24 -0.26,0.02 -1.19,0.46 -1.69,0.95z"/>
   <path class="fil19" d="M69.5 52.1c0,0 -3.07,-3.59 -6.56,-4.06 -4.55,-0.11 -5.9,0.91 -5.9,0.91 0,0.22 0.11,0.84 0.11,0.84 0,0 -1.15,-1.13 -1.61,-1.87 2.52,-0.67 4.88,-0.94 7.97,-0.65 3.09,0.29 5.9,1.86 5.9,1.86 0,0 -1.9,-0.7 -3.53,-0.95 1.05,0.63 3.06,2.27 3.63,3.92z"/>
   <path class="fil20" d="M66.74 53.63c-0.73,0.3 -5.52,1.64 -8.34,-1.63 0.66,1.34 3.72,3.96 8.34,1.63z"/>
   <path class="fil7" d="M67.13 47.03c0,0 -2.88,-0.99 -6.99,-0.71 2.14,-0.6 5.04,-0.26 5.3,-0.24 0.25,0.02 1.19,0.46 1.69,0.95z"/>
   <path class="fil21" d="M95.31 42.45c0,0 -0.15,-0.01 -0.41,-0.02l-0.03 -0.11c0.28,0.08 0.44,0.13 0.44,0.13z"/>
   <path class="fil22" d="M55.54 42.45c0,0 0.28,-0.09 0.75,-0.22 -0.02,0.06 -0.03,0.12 -0.05,0.18 -0.43,0.02 -0.69,0.04 -0.69,0.04z"/>
   <path class="fil23" d="M69.3 75.55c-0.22,0.06 -1.13,0.66 -1.19,0.8 -0.06,0.14 1.61,0.63 4.01,0.56 8.11,-0.26 10.17,-0.73 11.1,-1.23 0.93,-0.5 1.49,-0.82 1.29,-0.9 -0.2,-0.08 0.44,-0.78 0.03,-0.66 -0.42,0.12 -1.35,0.58 -2.08,0.86 -0.73,0.28 -4.57,1.17 -10.23,1.59 -1.29,0.09 -2.88,-0.34 -2.82,-0.5 0.06,-0.16 0.11,-0.57 -0.1,-0.52z"/>
   <g>
    <path class="fil19" d="M80.62 42.76c0,0 0.87,1.43 1.83,1.41 0.96,-0.02 6.28,-1.56 8.15,-2.19 1.87,-0.63 3.76,-0.93 4.18,-0.99 -0.98,-0.17 -2.52,-0.62 -4.75,-0.48 -2.54,0.15 -5.59,1.26 -9.41,2.26z"/>
    <path class="fil19" d="M70.79 42.76c0,0 -0.87,1.43 -1.83,1.41 -0.96,-0.02 -6.28,-1.56 -8.15,-2.19 -1.87,-0.63 -3.76,-0.93 -4.18,-0.99 0.98,-0.17 2.52,-0.62 4.75,-0.48 2.54,0.15 5.59,1.26 9.41,2.26z"/>
   </g>
   <path class="fil24" d="M39.71 86.63l11.02 90.77 1.08 0 -11.21 -91.39c-0.3,0.21 -0.61,0.42 -0.89,0.62z"/>
   <path class="fil5" d="M103.24 80.67c1.47,1.05 3.76,2.69 5.88,4.1 1.98,1.4 3.69,2.58 5.13,3.57 2.37,1.64 4.08,2.81 5.39,3.84 3.1,2.43 16.1,15.61 17.38,18.16 4.21,8.42 9.37,56.45 10.25,67.05l-52.51 0 7.41 -96.44c0,0 0.34,-0.21 1.07,-0.29z"/>
   <path class="fil24" d="M111.85 86.68l-11.02 90.71 -0.94 0 11.07 -91.34c0.3,0.21 0.61,0.42 0.89,0.62z"/>
  </g>
 </g>
</svg>
