<?xml version="1.0" encoding="UTF-8"?>
<!DOCTYPE svg PUBLIC "-//W3C//DTD SVG 1.1//EN" "http://www.w3.org/Graphics/SVG/1.1/DTD/svg11.dtd">
<!-- Creator: CorelDRAW 2021 (64-Bit) -->
<svg xmlns="http://www.w3.org/2000/svg" xml:space="preserve" width="4.88933in" height="7.16664in" version="1.1" style="shape-rendering:geometricPrecision; text-rendering:geometricPrecision; image-rendering:optimizeQuality; fill-rule:evenodd; clip-rule:evenodd"
viewBox="0 0 101.58 148.9"
 xmlns:xlink="http://www.w3.org/1999/xlink"
 xmlns:xodm="http://www.corel.com/coreldraw/odm/2003">
 <defs>
  <style type="text/css">
   <![CDATA[
    .fil25 {fill:#919191}
    .fil24 {fill:#444545}
    .fil32 {fill:#333333}
    .fil23 {fill:#FEFEFE;fill-rule:nonzero}
    .fil0 {fill:#F9D4B2;fill-rule:nonzero}
    .fil15 {fill:#F4B63D;fill-rule:nonzero}
    .fil1 {fill:#EFA07D;fill-rule:nonzero}
    .fil8 {fill:#F1F1F5;fill-rule:nonzero}
    .fil22 {fill:#E2896A;fill-rule:nonzero}
    .fil28 {fill:#C5B4A2;fill-rule:nonzero}
    .fil14 {fill:#803333;fill-rule:nonzero}
    .fil26 {fill:#545454;fill-rule:nonzero}
    .fil27 {fill:#282929;fill-rule:nonzero}
    .fil12 {fill:#303234;fill-rule:nonzero}
    .fil30 {fill:#303234;fill-rule:nonzero}
    .fil29 {fill:#30363C;fill-rule:nonzero}
    .fil7 {fill:url(#id0)}
    .fil5 {fill:url(#id1)}
    .fil3 {fill:url(#id2)}
    .fil13 {fill:url(#id3)}
    .fil4 {fill:url(#id4)}
    .fil2 {fill:url(#id5)}
    .fil19 {fill:url(#id6)}
    .fil17 {fill:url(#id7)}
    .fil18 {fill:url(#id8)}
    .fil11 {fill:url(#id9)}
    .fil6 {fill:url(#id10)}
    .fil21 {fill:url(#id11)}
    .fil16 {fill:url(#id12)}
    .fil9 {fill:url(#id13)}
    .fil10 {fill:url(#id14)}
    .fil31 {fill:url(#id15)}
    .fil20 {fill:url(#id16)}
   ]]>
  </style>
  <linearGradient id="id0" gradientUnits="userSpaceOnUse" x1="53.2" y1="6.48" x2="53.2" y2="31.11">
   <stop offset="0" style="stop-opacity:1; stop-color:#33373C"/>
   <stop offset="1" style="stop-opacity:1; stop-color:#434A50"/>
  </linearGradient>
  <linearGradient id="id1" gradientUnits="userSpaceOnUse" x1="53.61" y1="44.09" x2="53.61" y2="11.82">
   <stop offset="0" style="stop-opacity:1; stop-color:#F9D4B2"/>
   <stop offset="1" style="stop-opacity:1; stop-color:#EFA07D"/>
  </linearGradient>
  <linearGradient id="id2" gradientUnits="userSpaceOnUse" x1="53.61" y1="85.08" x2="53.61" y2="52.62">
   <stop offset="0" style="stop-opacity:1; stop-color:#F4BB96"/>
   <stop offset="1" style="stop-opacity:1; stop-color:#EFA07D"/>
  </linearGradient>
  <linearGradient id="id3" gradientUnits="userSpaceOnUse" x1="53.61" y1="89.33" x2="53.61" y2="103.2">
   <stop offset="0" style="stop-opacity:1; stop-color:#FEFEFE"/>
   <stop offset="1" style="stop-opacity:1; stop-color:#E4EAF1"/>
  </linearGradient>
  <linearGradient id="id4" gradientUnits="userSpaceOnUse" xlink:href="#id2" x1="53.61" y1="85.08" x2="53.61" y2="52.62">
  </linearGradient>
  <linearGradient id="id5" gradientUnits="userSpaceOnUse" xlink:href="#id1" x1="53.61" y1="85.08" x2="53.61" y2="52.62">
  </linearGradient>
  <linearGradient id="id6" gradientUnits="userSpaceOnUse" x1="70.19" y1="110.32" x2="70.19" y2="63.94">
   <stop offset="0" style="stop-opacity:1; stop-color:#B03A3A"/>
   <stop offset="1" style="stop-opacity:1; stop-color:#8F3132"/>
  </linearGradient>
  <linearGradient id="id7" gradientUnits="userSpaceOnUse" x1="53.61" y1="85.08" x2="53.61" y2="52.62">
   <stop offset="0" style="stop-opacity:1; stop-color:#B98D78"/>
   <stop offset="1" style="stop-opacity:1; stop-color:#B46E57"/>
  </linearGradient>
  <linearGradient id="id8" gradientUnits="userSpaceOnUse" x1="36.88" y1="110.32" x2="36.88" y2="63.94">
   <stop offset="0" style="stop-opacity:1; stop-color:#863232"/>
   <stop offset="1" style="stop-opacity:1; stop-color:#6D2D2D"/>
  </linearGradient>
  <linearGradient id="id9" gradientUnits="userSpaceOnUse" x1="53.2" y1="6.48" x2="53.2" y2="31.11">
   <stop offset="0" style="stop-opacity:1; stop-color:#41464C"/>
   <stop offset="1" style="stop-opacity:1; stop-color:#525A60"/>
  </linearGradient>
  <linearGradient id="id10" gradientUnits="userSpaceOnUse" x1="53.61" y1="44.09" x2="53.61" y2="11.82">
   <stop offset="0" style="stop-opacity:1; stop-color:#E0A884"/>
   <stop offset="1" style="stop-opacity:1; stop-color:#D7815F"/>
  </linearGradient>
  <linearGradient id="id11" gradientUnits="userSpaceOnUse" xlink:href="#id8" x1="70.36" y1="110.32" x2="70.36" y2="63.94">
  </linearGradient>
  <linearGradient id="id12" gradientUnits="userSpaceOnUse" xlink:href="#id6" x1="37.04" y1="110.32" x2="37.04" y2="63.94">
  </linearGradient>
  <linearGradient id="id13" gradientUnits="userSpaceOnUse" xlink:href="#id9" x1="53.2" y1="6.48" x2="53.2" y2="31.11">
  </linearGradient>
  <linearGradient id="id14" gradientUnits="userSpaceOnUse" xlink:href="#id9" x1="53.2" y1="6.48" x2="53.2" y2="31.11">
  </linearGradient>
  <linearGradient id="id15" gradientUnits="userSpaceOnUse" xlink:href="#id10" x1="53.53" y1="45.78" x2="53.53" y2="16.8">
  </linearGradient>
  <linearGradient id="id16" gradientUnits="userSpaceOnUse" xlink:href="#id7" x1="53.61" y1="85.08" x2="53.61" y2="52.62">
  </linearGradient>
 </defs>
 <g id="Layer_x0020_1">
  <metadata id="CorelCorpID_0Corel-Layer"/>
  <g id="_2284220764352">
   <path class="fil0" d="M72.92 40.18c0.64,-1.81 3.27,-3.49 4.38,-2.85 1.1,0.64 1.71,3.8 1.26,5.79 -0.46,1.99 -2.29,5.57 -2.94,6.27 -0.64,0.7 -3.03,2.14 -4.5,1.74l1.81 -10.95z"/>
   <path class="fil1" d="M73.56 39.07c-0.28,0.35 -0.51,0.72 -0.64,1.11l-1.81 10.95c0.95,0.26 2.28,-0.25 3.27,-0.83l-0.83 -11.23z"/>
   <path class="fil0" d="M34.31 40.18c-0.64,-1.81 -3.27,-3.49 -4.37,-2.85 -1.1,0.64 -1.71,3.8 -1.25,5.79 0.46,1.99 2.29,5.57 2.94,6.27 0.64,0.7 3.03,2.14 4.5,1.74l-1.8 -10.95z"/>
   <path class="fil1" d="M33.67 39.07c0.28,0.35 0.51,0.72 0.64,1.11l1.8 10.95c-0.95,0.26 -2.28,-0.25 -3.27,-0.83l0.82 -11.23z"/>
   <path class="fil2" d="M53.61 114.42c-20.91,0 -38.14,-10.34 -39.86,-12.61 -0.3,-0.39 2.08,-5.51 3,-7.34 0.87,-1.74 1.74,-2.77 3.76,-4.38 2.13,2.4 10.65,11.96 13.97,14.6 3.8,3.03 19.13,7.9 19.13,7.9l0 -4.13c-6.99,-6.18 -13.26,-16.87 -16.61,-23.19 8.83,4.02 16.61,6.2 16.61,6.2 0,0 7.78,-2.18 16.61,-6.19 -3.35,6.33 -9.61,17.01 -16.61,23.19l0 4.13c0,0 15.33,-4.87 19.13,-7.9 3.32,-2.64 11.84,-12.2 13.97,-14.6 2.02,1.61 2.89,2.64 3.76,4.38 0.92,1.84 3.3,6.95 3,7.34 -1.71,2.27 -18.94,12.61 -39.86,12.61zm0 -27.4c0,0 -8.32,-1.23 -17.51,-3.49 -1.07,-2.08 -1.66,-3.38 -1.66,-3.38 0.01,-0.01 0.03,-0.02 0.04,-0.03 0,-0 0.01,-0.01 0.01,-0.01 0.01,-0.01 0.02,-0.02 0.03,-0.02 0,-0 0.01,-0 0.01,-0.01 0.01,-0.01 0.02,-0.02 0.03,-0.02 0,-0 0.01,-0 0.01,-0.01 0.01,-0.01 0.02,-0.02 0.03,-0.02 0,-0 0.01,-0 0.01,-0.01 0.01,-0.01 0.02,-0.02 0.03,-0.03 0,-0 0,-0 0.01,-0 0.01,-0.01 0.03,-0.02 0.04,-0.03 0,-0 0,-0 0,-0 2.18,-1.64 3.63,-3.17 4.6,-4.67 0,0 0,-0 0,-0 0.01,-0.01 0.01,-0.02 0.02,-0.02 0,-0 0,-0 0,-0 0.01,-0.01 0.01,-0.02 0.02,-0.03 0,-0 0,-0 0,-0 0.01,-0.01 0.01,-0.02 0.02,-0.02 0,-0 0,-0 0,-0 0.01,-0.01 0.01,-0.02 0.02,-0.02 0,-0 0,-0 0,-0 0.01,-0.01 0.01,-0.02 0.02,-0.03 0,-0 0,-0 0,-0 0.01,-0.02 0.02,-0.04 0.04,-0.06 0,-0 0,-0 0,-0 0.01,-0.01 0.01,-0.02 0.01,-0.02 0,-0 0,-0 0,-0.01 0,-0.01 0.01,-0.01 0.01,-0.02 0,-0 0,-0.01 0,-0.01 0,-0.01 0.01,-0.01 0.01,-0.02 0,-0 0,-0.01 0,-0.01 0,-0.01 0.01,-0.01 0.01,-0.02 0,-0 0,-0.01 0.01,-0.01 0,-0.01 0.01,-0.01 0.01,-0.02 0,-0 0,-0.01 0.01,-0.01 0,-0.01 0.01,-0.01 0.01,-0.02 0,-0.01 0,-0.01 0.01,-0.01 0,-0.01 0,-0.01 0.01,-0.01 0,-0 0.01,-0.01 0.01,-0.01 0,-0 0.01,-0.01 0.01,-0.01 0.01,-0.01 0.01,-0.02 0.02,-0.03 0,-0 0,-0.01 0.01,-0.01 0,-0 0.01,-0.01 0.01,-0.02 0,-0 0,-0.01 0.01,-0.01 0,-0.01 0.01,-0.01 0.01,-0.02 0,-0 0,-0.01 0.01,-0.01 0,-0.01 0.01,-0.01 0.01,-0.02 0,-0 0,-0.01 0.01,-0.01 0,-0.01 0.01,-0.01 0.01,-0.02 0,-0 0,-0.01 0.01,-0.01 0,-0.01 0.01,-0.01 0.01,-0.02 0,-0 0,-0 0,-0.01 0,-0.01 0.01,-0.01 0.01,-0.02 0,-0 0,-0 0,-0 1.18,-2.12 1.44,-4.23 1.44,-6.59 -0,-1.13 -0.06,-2.32 -0.11,-3.6 -0.05,-1.28 -0.14,-2.86 -0.25,-4.54 1.7,1.94 3.48,3.3 5.01,4.6 3.41,2.88 5.79,3.8 7.85,3.8 2.06,0 4.44,-0.92 7.85,-3.8 1.54,-1.3 3.31,-2.67 5.01,-4.6 -0.11,1.68 -0.19,3.25 -0.25,4.54 -0.2,4.93 -0.55,8.54 3.02,12.53 0,0 0,0 0,0 0.01,0.01 0.01,0.02 0.02,0.02 0,0 0,0 0,0.01 0.01,0.01 0.01,0.01 0.02,0.02 0,0 0,0 0.01,0.01 0.01,0.01 0.01,0.01 0.02,0.02 0,0 0,0.01 0.01,0.01 0.01,0.01 0.01,0.01 0.02,0.02 0,0 0,0 0,0.01 0.01,0.01 0.01,0.01 0.02,0.02 0,0 0,0 0,0 0.01,0.01 0.03,0.03 0.04,0.04 0,0 0.01,0.01 0.01,0.01 0,0.01 0.01,0.01 0.01,0.01 0.01,0.01 0.01,0.01 0.01,0.01 0,0 0.01,0.01 0.01,0.01 0.01,0 0.01,0.01 0.02,0.02 0,0 0.01,0.01 0.01,0.01 0.01,0.01 0.01,0.01 0.02,0.02 0,0 0.01,0.01 0.01,0.01 0.01,0.01 0.01,0.01 0.02,0.02 0,0 0.01,0.01 0.01,0.01 0.01,0.01 0.01,0.01 0.02,0.02 0,0 0,0 0.01,0.01 0.01,0.01 0.02,0.02 0.02,0.03 0,0 0,0 0,0 0.8,0.85 1.78,1.71 2.98,2.61 0,0 0,0 0,0 0.01,0.01 0.02,0.02 0.04,0.03 0,0 0,0 0.01,0 0.01,0.01 0.02,0.02 0.03,0.03 0,0 0,0 0.01,0.01 0.01,0.01 0.02,0.02 0.04,0.02 0,0 0.01,0 0.01,0.01 0.01,0.01 0.02,0.02 0.03,0.03 0,0 0.01,0 0.01,0.01 0.01,0.01 0.03,0.02 0.04,0.03 0,0 -0.6,1.3 -1.66,3.38 -9.19,2.26 -17.51,3.49 -17.51,3.49z"/>
   <path class="fil3" d="M53.61 91.45c0,0 -7.78,-2.18 -16.61,-6.2 -0.33,-0.62 -0.63,-1.2 -0.9,-1.73 9.19,2.26 17.51,3.49 17.51,3.49 0,0 8.32,-1.23 17.51,-3.49 -0.27,0.53 -0.57,1.11 -0.9,1.73 -8.83,4.02 -16.61,6.19 -16.61,6.19z"/>
   <path class="fil4" d="M61.47 69.49c1.47,-1.63 3.16,-3.35 4.8,-5.74 0.29,-6.4 1.31,-18.31 1.31,-18.31l-27.94 0c0,0 1.02,11.91 1.31,18.31 1.64,2.38 3.33,4.1 4.8,5.74 3.41,3.78 5.79,4.99 7.85,4.99 2.06,0 4.44,-1.21 7.85,-4.99z"/>
   <path class="fil5" d="M53.61 68.33c-2.06,0 -4.44,-0.92 -7.85,-3.8 -1.54,-1.3 -3.31,-2.67 -5.01,-4.6 -1.82,-2.07 -3.56,-4.79 -4.84,-8.76 -0.18,-0.56 -0.35,-1.14 -0.51,-1.76 -0.8,-3.03 -1.41,-5.78 -1.88,-8.35 0,-0 0,0 0,-0l1.35 -7.2c0,0 0.28,-0.29 0.55,-0.62 0.5,0.58 1.04,1.16 1.25,1.16 0.04,0 0.06,-0.02 0.08,-0.06 0.01,-0.07 0.56,-2.33 1.06,-4.39 0.65,1.08 1.38,1.98 2.06,2.8 0.49,-1.89 3.93,-6.48 5.6,-8.81 -0.03,1.14 -0.05,2.68 0.06,3.69 0,0 0.12,-0.09 0.32,-0.26 0.05,0.52 0.1,1.02 0.17,1.43 0,0 5.18,-4.74 8.1,-7.19 -0.9,1.98 -1.34,4.21 -1.34,4.21 0,0 0.19,-0.1 0.51,-0.26 -0.11,0.58 -0.16,0.96 -0.16,0.96 0,0 6.84,-4.08 10.26,-5.68l5.54 4.07c0,0 2.36,7.5 2.39,7.62 0.22,0.46 1.04,1.32 1.04,1.32l1.35 7.2c0,0 0,0 0,0 -0.46,2.57 -1.08,5.31 -1.87,8.34 -0.16,0.61 -0.33,1.2 -0.51,1.76 -1.28,3.97 -3.02,6.69 -4.84,8.76 -1.7,1.94 -3.48,3.3 -5.01,4.6 -3.41,2.88 -5.79,3.8 -7.85,3.8z"/>
   <path class="fil6" d="M36.68 34.42c-0.21,0 -0.76,-0.58 -1.25,-1.16 0.2,-0.24 0.4,-0.51 0.49,-0.7 0.02,-0.07 0.71,-2.29 1.35,-4.31 0.57,1.12 1.24,2.07 1.86,2.93 0.64,-1.93 4.68,-6.58 6.4,-8.69 0,0 -0.03,0.62 -0.06,1.48 -1.67,2.33 -5.1,6.92 -5.6,8.81 -0.68,-0.82 -1.41,-1.72 -2.06,-2.8 -0.5,2.06 -1.04,4.32 -1.06,4.39 -0.01,0.04 -0.04,0.06 -0.08,0.06zm9.34 -5.58c-0.07,-0.41 -0.13,-0.91 -0.17,-1.43 1.31,-1.04 6.29,-4.98 8.8,-6.78 -0.19,0.32 -0.37,0.67 -0.53,1.02 -2.92,2.45 -8.1,7.19 -8.1,7.19zm7.11 -2.29c0,0 0.05,-0.37 0.16,-0.96 1.69,-0.85 7.16,-3.57 10.11,-4.73 -3.42,1.61 -10.26,5.68 -10.26,5.68z"/>
   <path class="fil7" d="M73.73 41.22l-0.03 -0.15 -1.35 -7.2c0,0 -0.83,-0.86 -1.04,-1.32 -0.03,-0.12 -2.39,-7.62 -2.39,-7.62l-5.54 -4.07c-2.95,1.15 -8.41,3.87 -10.11,4.73 -0.33,0.16 -0.51,0.26 -0.51,0.26 0,0 0.44,-2.23 1.34,-4.21 0.16,-0.35 0.34,-0.7 0.53,-1.02 -2.51,1.8 -7.49,5.74 -8.8,6.78 -0.21,0.16 -0.32,0.26 -0.32,0.26 -0.11,-1.01 -0.09,-2.56 -0.06,-3.69 0.02,-0.85 0.06,-1.48 0.06,-1.48 -1.71,2.11 -5.75,6.76 -6.4,8.69 -0.62,-0.86 -1.29,-1.81 -1.86,-2.93 -0.63,2.03 -1.33,4.24 -1.35,4.31 -0.09,0.19 -0.29,0.46 -0.49,0.7 -0.27,0.33 -0.55,0.62 -0.55,0.62l-1.35 7.2 -0.03 0.15c0,0 -2.33,-3.67 -2.42,-3.94 0,-0 -0,-0 -0,-0 -0.86,-2.18 -2.52,-9.06 -2.55,-9.46 -0.02,-0.4 0.89,-4.33 0.89,-4.33 -1.1,-0.14 -3.92,-1.27 -3.92,-1.27 0,0 2.51,-3.07 4.14,-5.06 -0,0 -0.01,0.01 -0.01,0.01 3.53,0.31 6.98,0.42 10.04,0.42 6.54,0 11.29,-0.48 11.29,-0.48 -4.2,-1.23 -13.57,-3.31 -20.83,-5.14 -1.47,0.98 -2.57,1.72 -2.62,1.75 0.12,-0.08 7.49,-5.03 9.82,-6.36 2.36,-1.35 4.59,-2.02 4.59,-2.02 0,0 -1.04,-1.56 -1.68,-2.66 2.91,-0.55 12.21,-1.62 15.09,-2.11 5.81,0.86 8.9,3.06 11.35,5.17 -0.25,-2.3 -0.34,-5.72 -0.34,-5.72 0,0 4.65,5.45 5.11,6.92 0.3,2.79 0.12,3.58 0.12,3.58 0,0 4.25,4.01 4.47,4.28 -0.04,-0.05 -0.19,-0.2 -0.41,-0.42 -4.43,1.06 -8.53,2.04 -10.93,2.75 0,0 4.76,0.49 11.3,0.49 0.59,0 1.19,-0 1.81,-0.01 -0.58,-0.98 -1.13,-1.87 -1.49,-2.42 1.26,1.87 4.56,7.73 4.56,7.73 -2.54,-0.58 -3.43,-0.89 -3.43,-0.89 0,0 1.25,5.42 1.23,5.81 -0.02,0.4 -1.69,7.28 -2.55,9.46 -0,0 -0,0 -0,0 -0.09,0.28 -2.42,3.94 -2.42,3.94zm-43.28 -25.04c0.24,-0.3 0.42,-0.51 0.51,-0.61 -0.08,0.1 -0.26,0.31 -0.51,0.61zm-2.92 -2.47c0,0 0,0 0,0 -0,0 -0,0 -0,0z"/>
   <path class="fil8" d="M76.33 15.16c-0.1,-0.16 -0.2,-0.28 -0.27,-0.38 0.07,0.09 0.17,0.22 0.27,0.38z"/>
   <path class="fil9" d="M76.02 17.59c-6.54,0 -11.3,-0.49 -11.3,-0.49 2.4,-0.7 6.51,-1.69 10.93,-2.75 0.22,0.22 0.38,0.38 0.41,0.42 0.07,0.09 0.17,0.22 0.27,0.38 0.37,0.55 0.91,1.44 1.49,2.42 -0.61,0.01 -1.22,0.01 -1.81,0.01z"/>
   <path class="fil10" d="M29.64 17.16c0.31,-0.37 0.58,-0.71 0.81,-0.98 -0.22,0.27 -0.5,0.61 -0.81,0.98zm-2.12 -3.45zm0 0l-0 0zm0 0c0,-0 0,-0 0,-0 0,0 0,0 0,0z"/>
   <path class="fil11" d="M39.68 17.59c-3.06,0 -6.51,-0.11 -10.04,-0.42 0,-0 0.01,-0.01 0.01,-0.01 0.31,-0.37 0.58,-0.71 0.81,-0.98 0.24,-0.3 0.42,-0.51 0.51,-0.61 -2.26,-1.1 -3.43,-1.87 -3.43,-1.87 0,0 0,0 0,0 0,-0 0,-0 0,-0 0.05,-0.03 1.15,-0.77 2.62,-1.75 7.26,1.83 16.63,3.91 20.83,5.14 0,0 -4.76,0.48 -11.29,0.48z"/>
   <path class="fil12" d="M63.39 20.87c0,0 2.99,-2.8 3.98,-3.9 0,0 -1.4,3.28 -2.89,4.7l-1.1 -0.81z"/>
   <path class="fil12" d="M37.26 28.25c0,0 -0.73,-1.97 -1.14,-3.81 0,0 0.09,4.11 0.54,5.74l0.6 -1.93z"/>
   <path class="fil13" d="M80.62 84.86c-1.16,-0.81 -2.48,-1.74 -3.96,-2.8 -11.08,4.72 -23.04,7.33 -23.04,7.33 0,0 -11.96,-2.61 -23.04,-7.33 -1.49,1.06 -2.8,1.99 -3.96,2.8l27.01 25.25 27.01 -25.25z"/>
   <path class="fil14" d="M96.68 105.05c-0.97,-1.95 -4.66,-15.42 -9.86,-17.31 -1,-0.78 -2.3,-0.19 -4.1,-1.43 -0.63,-0.43 -1.33,-0.92 -2.1,-1.45l-27.01 25.25 -27.01 -25.25c-0.76,0.53 -1.46,1.01 -2.09,1.45 -1.81,1.25 -3.11,2.15 -4.11,2.93 -2.37,1.85 -7.81,3.24 -12.44,9.82 -3.39,6.77 -7.62,44.98 -7.96,49.85l101.45 0c0.27,-5.63 0.61,-32.28 -4.77,-43.85z"/>
   <path class="fil15" d="M64.63 129.73l0 -23.21 -3.3 0 0 23.73c1.12,-0.13 2.22,-0.34 3.3,-0.52z"/>
   <path class="fil15" d="M42.6 129.13c1.09,0.18 1.52,0.48 2.64,0.62l0.67 -23.23 -3.3 0 0 22.61z"/>
   <path class="fil16" d="M53.61 112.58c0,0 -15.33,-4.87 -19.13,-7.9 -3.32,-2.64 -11.84,-12.2 -13.97,-14.6 -0.31,-0.35 -0.49,-0.55 -0.49,-0.55 0,0 -0.82,-3.66 1.01,-5.96 1.84,-2.3 3.67,-3.49 5.05,-6.25 1.38,-2.76 4.06,-5.88 6.76,-7.89 2.7,-2.02 8.15,-4.96 8.15,-4.96 0.05,1.28 0.11,2.47 0.11,3.6 0,2.37 -0.26,4.47 -1.44,6.59 1.47,-2.64 1.52,-5.26 1.4,-8.38 -1.98,2.04 -5.3,5.65 -5.98,7.43 -0.98,2.57 -0.64,6.43 -0.64,6.43 0,0 0.6,1.3 1.66,3.38 0.27,0.53 0.57,1.11 0.9,1.73 3.35,6.33 9.61,17.01 16.61,23.19l0 4.13zm-19.13 -32.47c0,-0 0.01,-0 0.01,-0.01 -0,0 -0.01,0.01 -0.01,0.01zm0.04 -0.03c0,-0 0.01,-0 0.01,-0.01 -0,0 -0.01,0 -0.01,0.01zm0.04 -0.03c0,-0 0.01,-0 0.01,-0.01 -0,0 -0.01,0 -0.01,0.01zm0.04 -0.03c0,-0 0.01,-0 0.01,-0.01 -0,0 -0.01,0 -0.01,0.01zm0.04 -0.03c0,-0 0,-0 0.01,-0 -0,0 -0,0 -0.01,0zm0.04 -0.03c0,-0 0,-0 0,-0 -0,0 -0,0 -0,0zm4.6 -4.67c0,0 0,-0 0,-0 0,0 -0,0 -0,0zm0.02 -0.03c0,-0 0,-0 0,-0 -0,0 -0,0 -0,0zm0.02 -0.03c0,-0 0,-0 0,-0 -0,0 -0,0 -0,0zm0.02 -0.03c0,-0 0,-0 0,-0 -0,0 -0,0 -0,0zm0.02 -0.03c0,-0 0,-0 0,-0 -0,0 -0,0 -0,0zm0.02 -0.03c0,-0 0,-0 0,-0 0,0 -0,0 -0,0zm0.04 -0.06c0,-0 0,-0 0,-0 0,0 -0,0 -0,0zm0.02 -0.03c0,-0 0,-0 0,-0.01 -0,0 -0,0 -0,0.01zm0.02 -0.03c0,-0 0,-0.01 0,-0.01 -0,0 -0,0 -0,0.01zm0.02 -0.03c0,-0 0,-0.01 0,-0.01 -0,0 -0,0.01 -0,0.01zm0.02 -0.03c0,-0 0,-0.01 0.01,-0.01 -0,0 -0,0.01 -0.01,0.01zm0.02 -0.03c0,-0 0,-0.01 0.01,-0.01 -0,0 -0,0.01 -0.01,0.01zm0.01 -0.03c0,-0 0.01,-0.01 0.01,-0.01 -0,0 -0.01,0.01 -0.01,0.01zm0.02 -0.03c0,-0 0.01,-0.01 0.01,-0.01 -0,0.01 -0,0.01 -0.01,0.01zm0.02 -0.03c0.01,-0.01 0.01,-0.02 0.02,-0.03 -0.01,0.01 -0.01,0.02 -0.02,0.03zm0.02 -0.04c0,-0 0.01,-0.01 0.01,-0.02 -0,0.01 -0.01,0.01 -0.01,0.02zm0.02 -0.03c0,-0.01 0.01,-0.01 0.01,-0.02 -0,0.01 -0.01,0.01 -0.01,0.02zm0.02 -0.03c0,-0.01 0.01,-0.01 0.01,-0.02 -0,0.01 -0.01,0.01 -0.01,0.02zm0.02 -0.03c0,-0.01 0.01,-0.01 0.01,-0.02 -0,0.01 -0.01,0.01 -0.01,0.02zm0.01 -0.03c0,-0.01 0.01,-0.01 0.01,-0.02 -0,0.01 -0.01,0.01 -0.01,0.02zm0.01 -0.03c0,-0.01 0.01,-0.01 0.01,-0.02 -0,0.01 -0.01,0.01 -0.01,0.02z"/>
   <path class="fil17" d="M34.44 80.14c0.01,-0.01 0.03,-0.02 0.04,-0.03 -0.01,0.01 -0.03,0.02 -0.04,0.03zm0.05 -0.04c0.01,-0.01 0.02,-0.02 0.03,-0.02 -0.01,0.01 -0.02,0.02 -0.03,0.02zm0.04 -0.03c0.01,-0.01 0.02,-0.02 0.03,-0.02 -0.01,0.01 -0.02,0.02 -0.03,0.02zm0.04 -0.03c0.01,-0.01 0.02,-0.02 0.03,-0.02 -0.01,0.01 -0.02,0.02 -0.03,0.02zm0.04 -0.03c0.01,-0.01 0.02,-0.02 0.03,-0.03 -0.01,0.01 -0.02,0.02 -0.03,0.03zm0.04 -0.03c0.01,-0.01 0.02,-0.02 0.04,-0.03 -0.01,0.01 -0.03,0.02 -0.04,0.03zm0.04 -0.03c2.18,-1.64 3.63,-3.17 4.6,-4.67 -0.96,1.51 -2.42,3.03 -4.6,4.67zm4.6 -4.67c0.01,-0.01 0.01,-0.02 0.02,-0.02 -0.01,0.01 -0.01,0.02 -0.02,0.02zm0.02 -0.03c0.01,-0.01 0.01,-0.02 0.02,-0.03 -0,0.01 -0.01,0.02 -0.02,0.03zm0.02 -0.03c0.01,-0.01 0.01,-0.02 0.02,-0.02 -0,0.01 -0.01,0.02 -0.02,0.02zm0.02 -0.03c0.01,-0.01 0.01,-0.02 0.02,-0.02 -0.01,0.01 -0.01,0.02 -0.02,0.02zm0.02 -0.03c0.01,-0.01 0.01,-0.02 0.02,-0.03 -0.01,0.01 -0.01,0.02 -0.02,0.03zm0.02 -0.03c0.01,-0.02 0.02,-0.04 0.04,-0.06 -0.01,0.02 -0.02,0.04 -0.04,0.06zm0.04 -0.06c0.01,-0.01 0.01,-0.02 0.01,-0.02 -0.01,0.01 -0.01,0.02 -0.01,0.02zm0.02 -0.03c0,-0.01 0.01,-0.01 0.01,-0.02 -0.01,0.01 -0.01,0.01 -0.01,0.02zm0.02 -0.03c0,-0.01 0.01,-0.01 0.01,-0.02 -0,0.01 -0.01,0.01 -0.01,0.02zm0.02 -0.03c0,-0.01 0.01,-0.01 0.01,-0.02 -0,0.01 -0.01,0.01 -0.01,0.02zm0.02 -0.03c0,-0.01 0.01,-0.01 0.01,-0.02 -0,0 -0.01,0.01 -0.01,0.02zm0.02 -0.03c0,-0.01 0.01,-0.01 0.01,-0.02 -0,0 -0.01,0.01 -0.01,0.02zm0.02 -0.03c0,-0.01 0,-0.01 0.01,-0.01 -0,0 -0.01,0.01 -0.01,0.01zm0.02 -0.03c0,-0 0.01,-0.01 0.01,-0.01 -0,0 -0,0.01 -0.01,0.01zm0.02 -0.04c0,-0 0,-0.01 0.01,-0.01 -0,0 -0,0.01 -0.01,0.01zm0.02 -0.03c0,-0 0,-0.01 0.01,-0.01 -0,0 -0,0.01 -0.01,0.01zm0.02 -0.03c0,-0 0,-0.01 0.01,-0.01 -0,0 -0,0.01 -0.01,0.01zm0.02 -0.03c0,-0 0,-0.01 0.01,-0.01 -0,0 -0,0.01 -0.01,0.01zm0.02 -0.03c0,-0 0,-0.01 0.01,-0.01 -0,0 -0,0.01 -0.01,0.01zm0.01 -0.03c0,-0 0,-0 0,-0.01 -0,0 -0,0 -0,0.01zm0.02 -0.03c0,-0 0,-0 0,-0 -0,0 -0,0 -0,0z"/>
   <path class="fil18" d="M34.44 80.14c-0,-0.03 -0.34,-3.86 0.64,-6.43 0.68,-1.78 4,-5.39 5.98,-7.43 0.11,3.12 0.06,5.74 -1.4,8.38 -0,0 -0,0 -0,0 -0,0.01 -0.01,0.01 -0.01,0.02 -0,0 -0,0 -0,0.01 -0,0.01 -0.01,0.01 -0.01,0.02 -0,0 -0,0.01 -0.01,0.01 -0,0.01 -0.01,0.01 -0.01,0.02 -0,0 -0,0.01 -0.01,0.01 -0,0.01 -0.01,0.01 -0.01,0.02 -0,0 -0,0.01 -0.01,0.01 -0,0.01 -0.01,0.01 -0.01,0.02 -0,0 -0,0.01 -0.01,0.01 -0,0.01 -0.01,0.01 -0.01,0.02 -0,0 -0,0.01 -0.01,0.01 -0.01,0.01 -0.01,0.02 -0.02,0.03 -0,0 -0.01,0.01 -0.01,0.01 -0,0.01 -0,0.01 -0.01,0.01 -0,0 -0.01,0.01 -0.01,0.01 -0,0 -0.01,0.01 -0.01,0.01 -0,0 -0.01,0.01 -0.01,0.02 -0,0 -0,0.01 -0.01,0.01 -0,0.01 -0.01,0.01 -0.01,0.02 -0,0 -0,0.01 -0.01,0.01 -0,0.01 -0.01,0.01 -0.01,0.02 -0,0 -0,0.01 -0,0.01 -0,0.01 -0.01,0.01 -0.01,0.02 -0,0 -0,0 -0,0.01 -0.01,0.01 -0.01,0.01 -0.01,0.02 -0,0 -0,0 -0,0.01 -0.01,0.01 -0.01,0.02 -0.01,0.02 0,0 -0,0 -0,0 -0.01,0.02 -0.02,0.04 -0.04,0.06 0,0 -0,0 -0,0 -0.01,0.01 -0.01,0.02 -0.02,0.03 -0,0 -0,0 -0,0 -0,0.01 -0.01,0.02 -0.02,0.02 -0,0 -0,0 -0,0 -0,0.01 -0.01,0.02 -0.02,0.02 -0,0 -0,0 -0,0 -0,0.01 -0.01,0.02 -0.02,0.03 -0,0 -0,0 -0,0 -0.01,0.01 -0.01,0.02 -0.02,0.02 -0.97,1.51 -2.42,3.03 -4.6,4.67 -0.01,0.01 -0.03,0.02 -0.04,0.03 -0,0 -0,0 -0.01,0 -0.01,0.01 -0.02,0.02 -0.03,0.03 -0,0 -0.01,0 -0.01,0.01 -0.01,0.01 -0.02,0.02 -0.03,0.02 -0,0 -0.01,0 -0.01,0.01 -0.01,0.01 -0.02,0.02 -0.03,0.02 -0,0 -0.01,0 -0.01,0.01 -0.01,0.01 -0.02,0.02 -0.03,0.02 -0,0 -0,0.01 -0.01,0.01 -0.01,0.01 -0.03,0.02 -0.04,0.03z"/>
   <path class="fil19" d="M53.61 112.58l0 -4.13c7,-6.18 13.26,-16.87 16.61,-23.19 0.33,-0.62 0.63,-1.2 0.9,-1.73 1.07,-2.08 1.66,-3.38 1.66,-3.38 0,0 0.34,-3.86 -0.64,-6.43 -0.68,-1.78 -4,-5.39 -5.98,-7.43 -0.15,4.04 -0.02,7.23 3.09,10.72 -3.57,-3.99 -3.22,-7.6 -3.02,-12.53 0,0 5.45,2.94 8.15,4.96 2.7,2.02 5.38,5.14 6.75,7.89 1.38,2.75 3.21,3.95 5.05,6.25 1.84,2.3 1.01,5.96 1.01,5.96 0,0 -0.17,0.2 -0.49,0.55 -2.13,2.4 -10.65,11.96 -13.97,14.6 -3.8,3.03 -19.13,7.9 -19.13,7.9zm19.13 -32.47c-0,-0 -0.01,-0 -0.01,-0.01 0,0 0.01,0 0.01,0.01zm-0.04 -0.03c-0,-0 -0.01,-0 -0.01,-0.01 0,0 0,0 0.01,0.01zm-0.04 -0.03c-0,-0 -0,-0 -0.01,-0.01 0,0 0,0 0.01,0.01zm-0.04 -0.03c-0,-0 -0,-0 -0.01,-0 0,0 0,0 0.01,0zm-0.04 -0.03c0,-0 -0,-0 -0,-0 0,0 0,0 0,0zm-2.98 -2.61c-0,-0 -0,-0 -0,-0 0,0 0,0 0,0zm-0.03 -0.03c-0,-0 -0,-0 -0.01,-0.01 0,0 0,0 0.01,0.01zm-0.03 -0.03c-0,-0 -0.01,-0.01 -0.01,-0.01 0,0 0.01,0.01 0.01,0.01zm-0.03 -0.03c-0,-0 -0.01,-0.01 -0.01,-0.01 0,0 0.01,0.01 0.01,0.01zm-0.03 -0.03c-0,-0 -0.01,-0.01 -0.01,-0.01 0,0 0.01,0.01 0.01,0.01zm-0.03 -0.03c-0,-0 -0.01,-0.01 -0.01,-0.01 0,0 0.01,0.01 0.01,0.01zm-0.02 -0.03c-0,-0 -0.01,-0.01 -0.01,-0.01 0,0.01 0.01,0.01 0.01,0.01zm-0.02 -0.02c-0.01,-0.01 -0.03,-0.03 -0.04,-0.04 0.01,0.01 0.03,0.03 0.04,0.04zm-0.04 -0.05c-0.01,-0.01 -0.01,-0.01 -0.02,-0.02 0.01,0.01 0.01,0.01 0.02,0.02zm-0.02 -0.03c-0.01,-0.01 -0.01,-0.01 -0.02,-0.02 0.01,0.01 0.01,0.01 0.02,0.02zm-0.03 -0.03c-0.01,-0.01 -0.01,-0.01 -0.02,-0.02 0.01,0.01 0.01,0.01 0.02,0.02zm-0.02 -0.03c-0.01,-0.01 -0.01,-0.01 -0.02,-0.02 0.01,0.01 0.01,0.01 0.02,0.02zm-0.02 -0.03c-0.01,-0.01 -0.01,-0.02 -0.02,-0.02 0.01,0.01 0.01,0.02 0.02,0.02z"/>
   <path class="fil20" d="M72.78 80.14c-0.01,-0.01 -0.03,-0.02 -0.04,-0.03 0.01,0.01 0.03,0.02 0.04,0.03zm-0.05 -0.03c-0.01,-0.01 -0.02,-0.02 -0.03,-0.03 0.01,0.01 0.02,0.02 0.03,0.03zm-0.04 -0.03c-0.01,-0.01 -0.02,-0.02 -0.04,-0.02 0.01,0.01 0.02,0.02 0.04,0.02zm-0.04 -0.03c-0.01,-0.01 -0.02,-0.02 -0.03,-0.03 0.01,0.01 0.02,0.02 0.03,0.03zm-0.04 -0.03c-0.01,-0.01 -0.03,-0.02 -0.04,-0.03 0.01,0.01 0.02,0.02 0.04,0.03zm-0.04 -0.03c-1.2,-0.9 -2.18,-1.76 -2.98,-2.61 0.8,0.84 1.78,1.71 2.98,2.61zm-2.98 -2.61c-0.01,-0.01 -0.02,-0.02 -0.02,-0.03 0.01,0.01 0.02,0.02 0.02,0.03zm-0.03 -0.03c-0.01,-0.01 -0.01,-0.02 -0.02,-0.02 0.01,0.01 0.01,0.01 0.02,0.02zm-0.03 -0.03c-0.01,-0.01 -0.01,-0.01 -0.02,-0.02 0.01,0.01 0.01,0.01 0.02,0.02zm-0.03 -0.03c-0,-0 -0.01,-0.01 -0.02,-0.02 0.01,0.01 0.01,0.01 0.02,0.02zm-0.03 -0.03c-0.01,-0.01 -0.01,-0.01 -0.02,-0.02 0.01,0 0.01,0.01 0.02,0.02zm-0.03 -0.03c-0,-0 -0.01,-0.01 -0.01,-0.01 0.01,0.01 0.01,0.01 0.01,0.01zm-0.03 -0.03c-0,-0 -0.01,-0.01 -0.01,-0.01 0,0 0,0.01 0.01,0.01zm-0.05 -0.05c-0,-0 -0,-0 -0,-0 0,0 0,0 0,0zm-0.02 -0.02c-0,-0 -0,-0 -0,-0.01 0,0 0,0 0,0.01zm-0.02 -0.03c-0,-0 -0,-0 -0.01,-0.01 0,0 0,0.01 0.01,0.01zm-0.02 -0.03c-0,-0 -0,-0 -0.01,-0.01 0,0 0,0 0.01,0.01zm-0.03 -0.03c-0,-0 -0,-0 -0,-0.01 0,0 0,0 0,0.01zm-0.02 -0.03c0,-0 -0,-0 -0,-0 0,0 0,0 0,0z"/>
   <path class="fil21" d="M72.78 80.14c-0.01,-0.01 -0.03,-0.02 -0.04,-0.03 -0,-0 -0.01,-0 -0.01,-0.01 -0.01,-0.01 -0.02,-0.02 -0.03,-0.03 -0,-0 -0.01,-0 -0.01,-0.01 -0.01,-0.01 -0.02,-0.02 -0.04,-0.02 -0,-0 -0,-0 -0.01,-0.01 -0.01,-0.01 -0.02,-0.02 -0.03,-0.03 -0,-0 -0,-0 -0.01,-0 -0.01,-0.01 -0.03,-0.02 -0.04,-0.03 0,-0 -0,-0 -0,-0 -1.2,-0.9 -2.18,-1.77 -2.98,-2.61 0,-0 -0,-0 -0,-0 -0.01,-0.01 -0.02,-0.02 -0.02,-0.03 -0,-0 -0,-0 -0.01,-0.01 -0.01,-0.01 -0.01,-0.01 -0.02,-0.02 -0,-0 -0.01,-0.01 -0.01,-0.01 -0.01,-0.01 -0.01,-0.01 -0.02,-0.02 -0,-0 -0.01,-0.01 -0.01,-0.01 -0,-0 -0.01,-0.01 -0.02,-0.02 -0,-0 -0.01,-0.01 -0.01,-0.01 -0.01,-0.01 -0.01,-0.01 -0.02,-0.02 -0,-0 -0.01,-0.01 -0.01,-0.01 -0,-0 -0.01,-0.01 -0.01,-0.01 -0,-0 -0.01,-0.01 -0.01,-0.01 -0,-0 -0.01,-0 -0.01,-0.01 -0.01,-0.01 -0.03,-0.03 -0.04,-0.04 -0,-0 -0,-0 -0,-0 -0.01,-0.01 -0.01,-0.01 -0.02,-0.02 -0,-0 -0,-0 -0,-0.01 -0.01,-0.01 -0.01,-0.01 -0.02,-0.02 -0,-0 -0,-0 -0.01,-0.01 -0.01,-0.01 -0.01,-0.01 -0.02,-0.02 -0,-0 -0,-0.01 -0.01,-0.01 -0.01,-0.01 -0.01,-0.01 -0.02,-0.02 -0,-0 -0,-0 -0,-0.01 -0.01,-0.01 -0.01,-0.02 -0.02,-0.02 0,-0 -0,-0 -0,-0 -3.11,-3.49 -3.24,-6.68 -3.09,-10.72 1.98,2.04 5.3,5.65 5.98,7.43 0.98,2.57 0.64,6.43 0.64,6.43z"/>
   <path class="fil22" d="M53.99 55.43c1.21,0 2.18,-1.1 2.27,-1.64 -0.38,0.16 -1.47,0.63 -2.27,0.63 -0.8,0 -1.89,-0.47 -2.27,-0.63 0.08,0.55 1.06,1.64 2.27,1.64z"/>
   <path class="fil23" d="M63.24 39.1c-1.65,0.35 -3.51,1.68 -4.46,3.27 0.67,1.14 2.1,1.44 5.05,1.24 2.91,-1.29 4.52,-2.94 4.61,-3.72 -0.74,-0.44 -2.82,-0.95 -5.2,-0.79z"/>
   <g>
    <path class="fil24" d="M63.01 38.8c-1.15,0 -2.09,0.93 -2.09,2.07 0,0.28 0.06,0.55 0.16,0.8 0.03,0.09 0.07,0.17 0.12,0.25l0.01 0c0.36,0.61 1.03,1.02 1.8,1.02 0.82,0 1.53,-0.46 1.87,-1.14l0.02 -0.01c0.07,-0.15 0.13,-0.32 0.16,-0.49 0.03,-0.14 0.04,-0.28 0.04,-0.42 -0,-0.01 -0,-0.03 -0,-0.04 -0.02,-1.12 -0.95,-2.03 -2.09,-2.03z"/>
    <path class="fil25" d="M63.43 38.83c-0.14,-0.03 -0.29,-0.04 -0.44,-0.04 -1.15,0.02 -2.07,0.97 -2.06,2.13 0.01,0.36 0.11,0.69 0.27,0.98 0.32,0.1 0.67,0.19 1.04,0.27 0.21,0.04 0.42,0.08 0.64,0.11 0.64,-0.01 1.35,-0.19 2.03,-0.51 0.07,-0.15 0.13,-0.32 0.16,-0.49 -0.03,0.17 -0.09,0.33 -0.16,0.49 -0.67,0.31 -1.39,0.5 -2.03,0.51 -0.22,-0.03 -0.43,-0.07 -0.64,-0.11 -0.37,-0.07 -0.72,-0.17 -1.04,-0.27 -0.14,-0.26 -0.24,-0.55 -0.26,-0.86 0.03,0.01 0.07,0.01 0.1,0.02 0.39,0.08 0.76,0.12 1.12,0.13 -0.03,-0.09 -0.05,-0.19 -0.05,-0.29 -0.01,-0.5 0.39,-0.92 0.89,-0.93 0.07,-0 0.13,0.01 0.19,0.02 0.41,0.08 0.72,0.44 0.73,0.88 0,0.07 -0.01,0.14 -0.02,0.2 0.5,-0.09 0.91,-0.2 1.19,-0.3 0,0.03 0.01,0.05 0.01,0.08 -0.01,-1.01 -0.73,-1.84 -1.67,-2.03z"/>
    <path class="fil26" d="M62.11 40.91c-0.01,-0.5 0.39,-0.92 0.89,-0.93 0.5,-0.01 0.91,0.4 0.92,0.9 0.01,0.5 -0.39,0.92 -0.89,0.93 -0.5,0.01 -0.91,-0.4 -0.92,-0.9z"/>
    <path class="fil23" d="M62.49 40.21c0.09,0.23 -0.07,0.51 -0.36,0.61 -0.28,0.11 -0.58,0 -0.67,-0.23 -0.09,-0.23 0.07,-0.51 0.36,-0.61 0.28,-0.11 0.58,-0 0.67,0.23z"/>
    <path class="fil27" d="M63.91 41.08c-0.5,0.09 -1.1,0.14 -1.74,0.12 0.11,0.3 0.36,0.53 0.68,0.59 0.06,0.01 0.13,0.02 0.19,0.02 0.43,-0.01 0.79,-0.32 0.87,-0.72z"/>
   </g>
   <path class="fil28" d="M60.68 41.56c-0,-0 -0,-0 -0,-0.01 -0.04,-0.19 -0.06,-0.38 -0.06,-0.57 0,0.19 0.02,0.38 0.06,0.57 0,0 0,0 0,0.01z"/>
   <path class="fil29" d="M58.27 42.67c0,0 2.45,-2.87 5.24,-3.25 3.64,-0.09 4.72,0.73 4.72,0.73 0,0.18 -0.09,0.67 -0.09,0.67 0,0 0.92,-0.9 1.29,-1.5 -2.02,-0.53 -3.9,-0.75 -6.37,-0.52 -2.47,0.23 -4.72,1.49 -4.72,1.49 0,0 1.52,-0.56 2.83,-0.76 -0.84,0.5 -2.45,1.82 -2.9,3.13z"/>
   <path class="fil1" d="M60.64 43.53c0.21,0.12 3.78,0.68 6.62,-2.04 -0.17,0.64 -0.73,1.23 -1.62,1.77 -1.14,0.69 -2.82,1.07 -5,0.28z"/>
   <path class="fil1" d="M60.16 38.61c0,0 2.3,-0.79 5.59,-0.57 -1.71,-0.48 -4.03,-0.2 -4.24,-0.19 -0.2,0.01 -0.95,0.36 -1.35,0.76z"/>
   <path class="fil30" d="M69.43 34.95c0,0 -0.12,-0.01 -0.33,-0.02l-0.02 -0.09c0.22,0.06 0.35,0.11 0.35,0.11z"/>
   <path class="fil31" d="M37.63 34.95c0,0 0.22,-0.07 0.6,-0.17 -0.01,0.05 -0.03,0.1 -0.04,0.14 -0.34,0.02 -0.55,0.03 -0.55,0.03z"/>
   <g>
    <path class="fil29" d="M57.69 35.2c0,0 0.7,1.14 1.47,1.12 0.77,-0.02 5.02,-1.24 6.51,-1.75 1.49,-0.5 3.01,-0.75 3.35,-0.79 -0.79,-0.14 -2.02,-0.49 -3.8,-0.38 -2.03,0.12 -4.47,1.01 -7.53,1.8z"/>
    <path class="fil29" d="M49.83 35.2c0,0 -0.7,1.14 -1.47,1.12 -0.77,-0.02 -5.02,-1.24 -6.51,-1.75 -1.49,-0.5 -3.01,-0.75 -3.35,-0.79 0.79,-0.14 2.02,-0.49 3.8,-0.38 2.03,0.12 4.47,1.01 7.53,1.8z"/>
   </g>
   <path class="fil23" d="M44.06 39.14c1.65,0.35 3.51,1.68 4.46,3.27 -0.67,1.14 -2.1,1.44 -5.05,1.24 -2.91,-1.29 -4.52,-2.94 -4.61,-3.72 0.74,-0.44 2.82,-0.95 5.2,-0.79z"/>
   <path class="fil28" d="M46.62 41.61c0,-0 0,-0 0,-0.01 0.04,-0.19 0.06,-0.38 0.06,-0.57 -0,0.19 -0.02,0.38 -0.06,0.57 -0,0 -0,0 -0,0.01z"/>
   <g>
    <path class="fil24" d="M43.94 38.76c-1.15,0 -2.09,0.93 -2.09,2.07 0,0.28 0.06,0.55 0.16,0.8 0.03,0.09 0.07,0.17 0.12,0.25l0.01 0c0.36,0.61 1.03,1.02 1.8,1.02 0.82,0 1.53,-0.46 1.87,-1.14l0.02 -0.01c0.07,-0.15 0.13,-0.32 0.16,-0.49 0.03,-0.14 0.04,-0.28 0.04,-0.42 -0,-0.01 -0,-0.03 -0,-0.04 -0.02,-1.12 -0.95,-2.03 -2.09,-2.03z"/>
    <path class="fil25" d="M44.36 38.8c-0.14,-0.03 -0.29,-0.04 -0.44,-0.04 -1.15,0.02 -2.07,0.97 -2.06,2.13 0.01,0.36 0.11,0.69 0.27,0.98 0.32,0.1 0.67,0.19 1.04,0.27 0.21,0.04 0.42,0.08 0.64,0.11 0.64,-0.01 1.35,-0.19 2.03,-0.51 0.07,-0.15 0.13,-0.32 0.16,-0.49 -0.03,0.17 -0.09,0.33 -0.16,0.49 -0.67,0.31 -1.39,0.5 -2.03,0.51 -0.22,-0.03 -0.43,-0.07 -0.64,-0.11 -0.37,-0.07 -0.72,-0.17 -1.04,-0.27 -0.14,-0.26 -0.24,-0.55 -0.26,-0.86 0.03,0.01 0.07,0.01 0.1,0.02 0.39,0.08 0.76,0.12 1.12,0.13 -0.03,-0.09 -0.05,-0.19 -0.05,-0.29 -0.01,-0.5 0.39,-0.92 0.89,-0.93 0.07,-0 0.13,0.01 0.19,0.02 0.41,0.08 0.72,0.44 0.73,0.88 0,0.07 -0.01,0.14 -0.02,0.2 0.5,-0.09 0.91,-0.2 1.19,-0.3 0,0.03 0.01,0.05 0.01,0.08 -0.01,-1.01 -0.73,-1.84 -1.67,-2.03z"/>
    <path class="fil26" d="M43.04 40.87c-0.01,-0.5 0.39,-0.92 0.89,-0.93 0.5,-0.01 0.91,0.4 0.92,0.9 0.01,0.5 -0.39,0.92 -0.89,0.93 -0.5,0.01 -0.91,-0.4 -0.92,-0.9z"/>
    <path class="fil23" d="M43.41 40.17c0.09,0.23 -0.07,0.51 -0.36,0.61 -0.28,0.11 -0.58,0 -0.67,-0.23 -0.09,-0.23 0.07,-0.51 0.36,-0.61 0.28,-0.11 0.58,-0 0.67,0.23z"/>
    <path class="fil27" d="M44.83 41.05c-0.5,0.09 -1.1,0.14 -1.74,0.12 0.11,0.3 0.36,0.53 0.68,0.59 0.06,0.01 0.13,0.02 0.19,0.02 0.43,-0.01 0.79,-0.32 0.87,-0.72z"/>
   </g>
   <path class="fil29" d="M49.03 42.71c0,0 -2.45,-2.87 -5.24,-3.25 -3.64,-0.09 -4.72,0.73 -4.72,0.73 0,0.18 0.09,0.67 0.09,0.67 0,0 -0.92,-0.9 -1.29,-1.5 2.02,-0.53 3.9,-0.75 6.37,-0.52 2.47,0.23 4.72,1.49 4.72,1.49 0,0 -1.52,-0.56 -2.83,-0.76 0.84,0.5 2.45,1.82 2.9,3.13z"/>
   <path class="fil1" d="M46.66 43.58c-0.21,0.12 -3.78,0.68 -6.62,-2.04 0.17,0.64 0.73,1.23 1.62,1.77 1.14,0.69 2.82,1.07 5,0.28z"/>
   <path class="fil1" d="M47.14 38.66c0,0 -2.3,-0.79 -5.59,-0.57 1.71,-0.48 4.03,-0.2 4.24,-0.19 0.2,0.01 0.95,0.36 1.35,0.76z"/>
   <path class="fil32" d="M55.46 59.37c0,0 -4.07,0.69 -4.77,0 -0.7,-0.69 -0.98,-0.14 -0.49,0.21 0.48,0.35 0.67,1.05 5.01,0.39 0,0 1.22,-0.18 1.64,-0.73 0.42,-0.55 -1.39,0.14 -1.39,0.14z"/>
  </g>
 </g>
</svg>
