<?xml version="1.0" encoding="UTF-8"?>
<!DOCTYPE svg PUBLIC "-//W3C//DTD SVG 1.1//EN" "http://www.w3.org/Graphics/SVG/1.1/DTD/svg11.dtd">
<!-- Creator: CorelDRAW 2021 (64-Bit) -->
<svg xmlns="http://www.w3.org/2000/svg" xml:space="preserve" width="5.20054in" height="7.04286in" version="1.1" style="shape-rendering:geometricPrecision; text-rendering:geometricPrecision; image-rendering:optimizeQuality; fill-rule:evenodd; clip-rule:evenodd"
viewBox="0 0 107.78 145.96"
 xmlns:xlink="http://www.w3.org/1999/xlink"
 xmlns:xodm="http://www.corel.com/coreldraw/odm/2003">
 <defs>
  <style type="text/css">
   <![CDATA[
    .fil11 {fill:#503431}
    .fil10 {fill:#FEFEFE;fill-rule:nonzero}
    .fil44 {fill:#F69481;fill-rule:nonzero}
    .fil17 {fill:#EFA07D;fill-rule:nonzero}
    .fil40 {fill:#F1F1F5;fill-rule:nonzero}
    .fil0 {fill:#E4EAF1;fill-rule:nonzero}
    .fil25 {fill:#E2896A;fill-rule:nonzero}
    .fil45 {fill:#BF6858;fill-rule:nonzero}
    .fil23 {fill:#C5B4A2;fill-rule:nonzero}
    .fil37 {fill:#ABB5C5;fill-rule:nonzero}
    .fil3 {fill:#A3B0C1;fill-rule:nonzero}
    .fil13 {fill:#47302E;fill-rule:nonzero}
    .fil14 {fill:#3C2F2D;fill-rule:nonzero}
    .fil27 {fill:#303234;fill-rule:nonzero}
    .fil24 {fill:#30363C;fill-rule:nonzero}
    .fil1 {fill:url(#id0)}
    .fil21 {fill:url(#id1)}
    .fil22 {fill:url(#id2)}
    .fil20 {fill:url(#id3)}
    .fil9 {fill:url(#id4)}
    .fil15 {fill:url(#id5)}
    .fil29 {fill:url(#id6)}
    .fil38 {fill:url(#id7)}
    .fil18 {fill:url(#id8)}
    .fil16 {fill:url(#id9)}
    .fil32 {fill:url(#id10)}
    .fil12 {fill:url(#id11)}
    .fil2 {fill:url(#id12)}
    .fil7 {fill:url(#id13)}
    .fil19 {fill:url(#id14)}
    .fil8 {fill:url(#id15)}
    .fil26 {fill:url(#id16)}
    .fil5 {fill:url(#id17)}
    .fil6 {fill:url(#id18)}
    .fil36 {fill:url(#id19)}
    .fil31 {fill:url(#id20)}
    .fil4 {fill:url(#id21)}
    .fil28 {fill:url(#id22)}
    .fil30 {fill:url(#id23)}
    .fil42 {fill:url(#id24)}
    .fil35 {fill:url(#id25)}
    .fil34 {fill:url(#id26)}
    .fil33 {fill:url(#id27)}
    .fil39 {fill:url(#id28)}
    .fil41 {fill:url(#id29)}
    .fil43 {fill:url(#id30)}
   ]]>
  </style>
  <linearGradient id="id0" gradientUnits="userSpaceOnUse" x1="85.85" y1="142.49" x2="85.85" y2="76.88">
   <stop offset="0" style="stop-opacity:1; stop-color:#5D7A9F"/>
   <stop offset="1" style="stop-opacity:1; stop-color:#3B5B8A"/>
  </linearGradient>
  <linearGradient id="id1" gradientUnits="userSpaceOnUse" x1="54.69" y1="78.9" x2="54.69" y2="55.98">
   <stop offset="0" style="stop-opacity:1; stop-color:#F9D4B2"/>
   <stop offset="1" style="stop-opacity:1; stop-color:#EFA07D"/>
  </linearGradient>
  <linearGradient id="id2" gradientUnits="userSpaceOnUse" xlink:href="#id1" x1="54.69" y1="43.7" x2="54.69" y2="12.73">
  </linearGradient>
  <linearGradient id="id3" gradientUnits="userSpaceOnUse" xlink:href="#id1" x1="54.69" y1="78.9" x2="54.69" y2="55.98">
  </linearGradient>
  <linearGradient id="id4" gradientUnits="userSpaceOnUse" x1="71.65" y1="98.31" x2="71.65" y2="74.02">
   <stop offset="0" style="stop-opacity:1; stop-color:#5D7AA1"/>
   <stop offset="1" style="stop-opacity:1; stop-color:#47648C"/>
  </linearGradient>
  <linearGradient id="id5" gradientUnits="userSpaceOnUse" x1="64.96" y1="37.51" x2="65.83" y2="41.79">
   <stop offset="0" style="stop-opacity:1; stop-color:#835644"/>
   <stop offset="1" style="stop-opacity:1; stop-color:#5C3937"/>
  </linearGradient>
  <linearGradient id="id6" gradientUnits="userSpaceOnUse" x1="54.69" y1="43.7" x2="54.69" y2="12.73">
   <stop offset="0" style="stop-opacity:1; stop-color:#E0A884"/>
   <stop offset="1" style="stop-opacity:1; stop-color:#D7815F"/>
  </linearGradient>
  <linearGradient id="id7" gradientUnits="userSpaceOnUse" x1="54.69" y1="78.9" x2="54.69" y2="55.98">
   <stop offset="0" style="stop-opacity:1; stop-color:#B09F8E"/>
   <stop offset="1" style="stop-opacity:1; stop-color:#AA7B67"/>
  </linearGradient>
  <linearGradient id="id8" gradientUnits="userSpaceOnUse" xlink:href="#id1" x1="28.43" y1="43.92" x2="41.52" y2="43.58">
  </linearGradient>
  <linearGradient id="id9" gradientUnits="userSpaceOnUse" xlink:href="#id1" x1="78.75" y1="43.35" x2="68.02" y2="44.85">
  </linearGradient>
  <linearGradient id="id10" gradientUnits="userSpaceOnUse" xlink:href="#id6" x1="54.69" y1="43.7" x2="54.69" y2="12.73">
  </linearGradient>
  <linearGradient id="id11" gradientUnits="userSpaceOnUse" xlink:href="#id5" x1="43.46" y1="37.51" x2="44.32" y2="41.79">
  </linearGradient>
  <linearGradient id="id12" gradientUnits="userSpaceOnUse" xlink:href="#id0" x1="24.22" y1="144.41" x2="24.22" y2="76.76">
  </linearGradient>
  <linearGradient id="id13" gradientUnits="userSpaceOnUse" x1="36.5" y1="98.42" x2="36.5" y2="74.13">
   <stop offset="0" style="stop-opacity:1; stop-color:#7D9EC8"/>
   <stop offset="1" style="stop-opacity:1; stop-color:#5C81AF"/>
  </linearGradient>
  <linearGradient id="id14" gradientUnits="userSpaceOnUse" xlink:href="#id1" x1="28.09" y1="43.84" x2="41.77" y2="43.5">
  </linearGradient>
  <linearGradient id="id15" gradientUnits="userSpaceOnUse" xlink:href="#id4" x1="37.8" y1="98.31" x2="37.8" y2="74.02">
  </linearGradient>
  <linearGradient id="id16" gradientUnits="userSpaceOnUse" xlink:href="#id6" x1="54.69" y1="43.7" x2="54.69" y2="12.73">
  </linearGradient>
  <linearGradient id="id17" gradientUnits="userSpaceOnUse" x1="78.8" y1="113.28" x2="78.8" y2="78.71">
   <stop offset="0" style="stop-opacity:1; stop-color:#495E7F"/>
   <stop offset="1" style="stop-opacity:1; stop-color:#344A70"/>
  </linearGradient>
  <linearGradient id="id18" gradientUnits="userSpaceOnUse" xlink:href="#id13" x1="72.99" y1="98.42" x2="72.99" y2="74.13">
  </linearGradient>
  <linearGradient id="id19" gradientUnits="userSpaceOnUse" x1="54.3" y1="1.81" x2="54.3" y2="35.57">
   <stop offset="0" style="stop-opacity:1; stop-color:#33373C"/>
   <stop offset="1" style="stop-opacity:1; stop-color:#434A50"/>
  </linearGradient>
  <linearGradient id="id20" gradientUnits="userSpaceOnUse" xlink:href="#id6" x1="54.69" y1="43.7" x2="54.69" y2="12.73">
  </linearGradient>
  <linearGradient id="id21" gradientUnits="userSpaceOnUse" xlink:href="#id17" x1="30.7" y1="113.28" x2="30.7" y2="78.71">
  </linearGradient>
  <linearGradient id="id22" gradientUnits="userSpaceOnUse" xlink:href="#id6" x1="54.69" y1="43.7" x2="54.69" y2="12.73">
  </linearGradient>
  <linearGradient id="id23" gradientUnits="userSpaceOnUse" xlink:href="#id6" x1="54.57" y1="43.7" x2="54.57" y2="12.73">
  </linearGradient>
  <linearGradient id="id24" gradientUnits="userSpaceOnUse" x1="54.19" y1="1.81" x2="54.19" y2="35.57">
   <stop offset="0" style="stop-opacity:1; stop-color:#41464C"/>
   <stop offset="1" style="stop-opacity:1; stop-color:#525A60"/>
  </linearGradient>
  <linearGradient id="id25" gradientUnits="userSpaceOnUse" xlink:href="#id6" x1="54.69" y1="43.7" x2="54.69" y2="12.73">
  </linearGradient>
  <linearGradient id="id26" gradientUnits="userSpaceOnUse" xlink:href="#id6" x1="54.69" y1="43.7" x2="54.69" y2="12.73">
  </linearGradient>
  <linearGradient id="id27" gradientUnits="userSpaceOnUse" xlink:href="#id6" x1="54.69" y1="43.7" x2="54.69" y2="12.73">
  </linearGradient>
  <linearGradient id="id28" gradientUnits="userSpaceOnUse" xlink:href="#id7" x1="54.69" y1="78.9" x2="54.69" y2="55.98">
  </linearGradient>
  <linearGradient id="id29" gradientUnits="userSpaceOnUse" xlink:href="#id24" x1="54.19" y1="1.81" x2="54.19" y2="35.57">
  </linearGradient>
  <linearGradient id="id30" gradientUnits="userSpaceOnUse" xlink:href="#id24" x1="54.19" y1="1.81" x2="54.19" y2="35.57">
  </linearGradient>
 </defs>
 <g id="Layer_x0020_1">
  <metadata id="CorelCorpID_0Corel-Layer"/>
  <g id="_2284144691440">
   <path class="fil0" d="M93.04 95.04c-0.99,-1.99 -1.98,-3.11 -4.39,-5 -1.02,-0.8 -2.35,-1.72 -4.19,-2.99 -2.32,-1.6 -5.5,-3.79 -9.7,-6.9 -0.73,-0.54 -1.37,-1.07 -1.95,-1.58 -4.47,4.86 -10.52,9.71 -18.07,11.87 -7.54,-2.15 -13.6,-7 -18.07,-11.87 -0.58,0.52 -1.22,1.04 -1.95,1.58 -4.19,3.1 -7.37,5.29 -9.69,6.89 -1.85,1.27 -3.18,2.19 -4.2,2.99 -2.41,1.89 -3.4,3.02 -4.39,5 -3.68,7.36 -5.9,49.37 -5.7,49.65 0.93,0.48 2.1,0.9 3.5,1.28l81.94 0c0.18,-7.63 0.15,-44.31 -3.16,-50.93z"/>
   <path class="fil1" d="M107.66 145.96l0.12 -0.02c0.06,-0.08 -2.44,-29.44 -5.66,-39.03 0,-0.72 -3.5,-6.62 -6.12,-11.87 -1.52,-1.75 -5.23,-3.11 -7.64,-5 -1.02,-0.8 -2.36,-1.72 -4.2,-2.99 -2.16,-1.49 -5.07,-3.5 -8.85,-6.28 2.32,6.66 6.07,17.35 6.27,18.11 0.23,0.87 -0.13,1.14 -0.52,1.14 -0.09,0 -0.19,-0.02 -0.28,-0.04 -0.3,-0.09 -1.13,-0.3 -2.22,-0.57 0.33,1.19 0.55,1.99 0.59,2.17 0.18,0.81 -0.05,1.07 -0.35,1.07 -0.11,0 -0.23,-0.04 -0.34,-0.1 -0.34,-0.18 -4.67,-0.55 -6.66,-0.55 -0.39,0 -0.7,0.01 -0.86,0.05 -0.97,0.2 -6.99,2.57 -7.02,2.58l0.2 41.33 43.54 0z"/>
   <path class="fil2" d="M-0 145.96c1.07,-7.62 4.11,-28.22 5.4,-33.52 -0,-0.72 5.18,-12.15 7.81,-17.4 1.52,-1.75 5.23,-3.11 7.64,-5 1.02,-0.8 2.36,-1.72 4.2,-2.99 2.16,-1.49 5.07,-3.5 8.85,-6.28 -2.32,6.66 -6.07,17.35 -6.27,18.11 -0.23,0.87 0.13,1.14 0.52,1.14 0.09,0 0.19,-0.02 0.28,-0.04 0.3,-0.09 1.13,-0.3 2.22,-0.57 -0.33,1.19 -0.55,1.99 -0.59,2.17 -0.18,0.81 0.05,1.07 0.35,1.07 0.11,0 0.23,-0.04 0.34,-0.1 0.34,-0.18 4.67,-0.55 6.66,-0.55 0.39,0 0.7,0.01 0.86,0.05 0.97,0.2 6.99,2.57 7.02,2.58l3.34 41.33 -48.62 0z"/>
   <path class="fil3" d="M45.29 104.64l-0 0c0,0 0,0 0,0z"/>
   <path class="fil4" d="M45.29 104.64c-0.03,-0.01 -6.05,-2.38 -7.02,-2.58 -0.16,-0.03 -0.46,-0.05 -0.86,-0.05 -1.99,0 -6.33,0.37 -6.66,0.55 -0.11,0.06 -0.23,0.1 -0.34,0.1 -0.29,0 -0.52,-0.26 -0.35,-1.07 0.04,-0.19 0.26,-0.98 0.59,-2.17 0.62,-0.15 1.31,-0.32 2.04,-0.49 1.23,-0.29 2.49,-0.45 3.54,-0.45 0.68,0 1.27,0.07 1.71,0.21 1.12,0.37 7.32,5.93 7.34,5.95l0 0z"/>
   <path class="fil3" d="M64.21 104.64zm0 0zm0 0c0,0 0,0 0,-0l-0 0z"/>
   <path class="fil5" d="M64.21 104.64l0 -0c0.05,-0.05 6.23,-5.58 7.35,-5.95 0.44,-0.15 1.03,-0.21 1.71,-0.21 1.05,0 2.31,0.16 3.54,0.45 0.73,0.17 1.43,0.34 2.04,0.49 0.33,1.19 0.55,1.99 0.59,2.17 0.18,0.81 -0.05,1.07 -0.35,1.07 -0.11,0 -0.23,-0.04 -0.34,-0.1 -0.34,-0.18 -4.67,-0.55 -6.66,-0.55 -0.39,0 -0.7,0.01 -0.86,0.05 -0.97,0.2 -6.97,2.56 -7.02,2.58z"/>
   <path class="fil6" d="M64.21 104.64l0.49 -2.83 4.02 -19.24 1.24 -5.93c0.24,-1.72 1.21,-3.58 -2.23,-4.82 0.07,0.47 0.19,1.07 0.41,1.73 -0.51,-1.5 -0.5,-2.69 -0.5,-2.7 0.03,0.02 3.85,2.07 4.71,2.56 0.87,0.49 1.17,1.24 1.43,2.11 0.08,0.26 0.81,2.38 1.81,5.25 0,0 0,0 0,0 2.32,6.66 6.07,17.35 6.27,18.11 0.23,0.87 -0.13,1.14 -0.52,1.14 -0.09,0 -0.19,-0.02 -0.28,-0.04 -0.3,-0.09 -1.13,-0.3 -2.22,-0.57 -0.62,-0.15 -1.31,-0.32 -2.04,-0.49 -1.23,-0.29 -2.49,-0.45 -3.54,-0.45 -0.68,0 -1.27,0.07 -1.71,0.21 -1.12,0.37 -7.3,5.91 -7.35,5.95z"/>
   <g>
    <path class="fil7" d="M45.29 104.64c0,0 0,0 -0,0 -0.03,-0.03 -6.22,-5.58 -7.34,-5.95 -0.44,-0.15 -1.03,-0.21 -1.71,-0.21 -1.05,0 -2.31,0.16 -3.54,0.45 -0.73,0.17 -1.43,0.34 -2.04,0.49 -1.09,0.27 -1.92,0.48 -2.22,0.57 -0.09,0.03 -0.19,0.04 -0.28,0.04 -0.39,0 -0.74,-0.27 -0.52,-1.14 0.2,-0.75 3.94,-11.45 6.27,-18.11 1,-2.87 1.74,-4.99 1.81,-5.25 0.26,-0.87 0.56,-1.62 1.43,-2.11 0.87,-0.49 4.71,-2.56 4.71,-2.56 0,0 0,0 0,0.01 -0,0.12 -0.02,1.28 -0.5,2.7 0.22,-0.66 0.35,-1.27 0.42,-1.74 -3.45,1.25 -2.48,3.1 -2.23,4.82l0 0 1.24 5.93 4.02 19.24 0.49 2.83z"/>
    <g>
     <path class="fil8" d="M39.51 76.53c-0.24,-1.72 -1.21,-3.58 2.23,-4.82 -0.07,0.47 -0.19,1.07 -0.42,1.74 -0.33,0.98 -0.89,2.1 -1.81,3.08 -0,0 -0,0 -0.01,0.01z"/>
     <path class="fil9" d="M69.94 76.53c-0,-0 -0,-0 -0,-0 -0.93,-0.99 -1.48,-2.1 -1.82,-3.09 -0.22,-0.66 -0.34,-1.26 -0.41,-1.73 3.45,1.25 2.48,3.1 2.23,4.82z"/>
    </g>
   </g>
   <g>
    <path class="fil10" d="M65.07 36.56c-1.77,0.37 -3.75,1.8 -4.76,3.5 0.72,1.22 2.42,2.45 5.58,2.23 3.15,-0.22 4.65,-4.05 4.75,-4.89 -0.8,-0.47 -3.02,-1.02 -5.56,-0.84z"/>
    <path class="fil10" d="M44.31 36.56c1.77,0.37 3.75,1.8 4.76,3.5 -0.72,1.22 -2.42,2.45 -5.58,2.23 -3.15,-0.22 -4.65,-4.05 -4.75,-4.89 0.8,-0.47 3.02,-1.02 5.56,-0.84z"/>
   </g>
   <g>
    <g>
     <path class="fil11" d="M44.02 36.54c1.66,0 3.01,1.33 3.01,2.97 0,0.41 -0.08,0.79 -0.23,1.14 -0.05,0.12 -0.11,0.24 -0.17,0.36l-0.02 0c-0.52,0.88 -1.49,1.46 -2.59,1.46 -1.18,0 -2.19,-0.67 -2.69,-1.64l-0.04 -0.02c-0.1,-0.22 -0.18,-0.46 -0.23,-0.7 -0.04,-0.2 -0.06,-0.4 -0.06,-0.61 0,-0.02 0,-0.04 0.01,-0.05 0.03,-1.62 1.36,-2.92 3,-2.92z"/>
     <g>
      <path class="fil12" d="M43.41 36.59c0.21,-0.04 0.42,-0.06 0.64,-0.06 1.66,0.02 2.98,1.4 2.96,3.06 -0.01,0.52 -0.15,0.99 -0.39,1.41 -0.46,0.15 -0.96,0.28 -1.49,0.38 -0.3,0.06 -0.61,0.11 -0.92,0.15 -0.92,-0.01 -1.95,-0.28 -2.91,-0.73 -0.1,-0.22 -0.18,-0.46 -0.23,-0.7 0.05,0.25 0.13,0.48 0.23,0.7 0.96,0.45 1.99,0.72 2.91,0.73 0.32,-0.04 0.62,-0.09 0.92,-0.15 0.53,-0.11 1.03,-0.24 1.49,-0.38 0.21,-0.37 0.34,-0.79 0.37,-1.24 -0.05,0.01 -0.1,0.02 -0.14,0.03 -0.55,0.11 -1.1,0.17 -1.61,0.19 0.05,-0.13 0.07,-0.27 0.07,-0.42 0.01,-0.72 -0.56,-1.32 -1.28,-1.33 -0.09,-0 -0.19,0.01 -0.28,0.03 -0.59,0.12 -1.04,0.64 -1.05,1.27 -0,0.1 0.01,0.2 0.03,0.29 -0.71,-0.12 -1.3,-0.29 -1.71,-0.43 -0,0.04 -0.01,0.07 -0.01,0.11 0.02,-1.45 1.05,-2.65 2.41,-2.92z"/>
      <path class="fil13" d="M45.31 39.58c0.01,-0.72 -0.56,-1.32 -1.28,-1.33 -0.72,-0.01 -1.31,0.57 -1.32,1.29 -0.01,0.73 0.56,1.32 1.28,1.33 0.72,0.01 1.31,-0.57 1.32,-1.29z"/>
      <path class="fil10" d="M44.78 38.57c-0.12,0.33 0.1,0.73 0.51,0.88 0.41,0.15 0.84,0 0.97,-0.33 0.13,-0.33 -0.1,-0.73 -0.51,-0.88 -0.41,-0.15 -0.84,-0.01 -0.97,0.33z"/>
     </g>
    </g>
    <path class="fil14" d="M42.73 39.83c0.72,0.13 1.58,0.21 2.5,0.17 -0.15,0.43 -0.52,0.76 -0.97,0.85 -0.09,0.02 -0.18,0.03 -0.28,0.03 -0.62,-0.01 -1.14,-0.45 -1.26,-1.04z"/>
   </g>
   <g>
    <g>
     <path class="fil11" d="M65.52 36.54c1.66,0 3.01,1.33 3.01,2.97 0,0.41 -0.08,0.79 -0.23,1.14 -0.05,0.12 -0.11,0.24 -0.17,0.36l-0.02 0c-0.52,0.88 -1.49,1.46 -2.59,1.46 -1.18,0 -2.19,-0.67 -2.69,-1.64l-0.04 -0.02c-0.1,-0.22 -0.18,-0.46 -0.23,-0.7 -0.04,-0.2 -0.06,-0.4 -0.06,-0.61 0,-0.02 0,-0.04 0.01,-0.05 0.03,-1.62 1.36,-2.92 3,-2.92z"/>
     <g>
      <path class="fil15" d="M64.92 36.59c0.21,-0.04 0.42,-0.06 0.64,-0.06 1.66,0.02 2.98,1.4 2.96,3.06 -0.01,0.52 -0.15,0.99 -0.39,1.41 -0.46,0.15 -0.96,0.28 -1.49,0.38 -0.3,0.06 -0.61,0.11 -0.92,0.15 -0.92,-0.01 -1.95,-0.28 -2.91,-0.73 -0.1,-0.22 -0.18,-0.46 -0.23,-0.7 0.05,0.25 0.13,0.48 0.23,0.7 0.96,0.45 1.99,0.72 2.91,0.73 0.32,-0.04 0.62,-0.09 0.92,-0.15 0.53,-0.11 1.03,-0.24 1.49,-0.38 0.21,-0.37 0.34,-0.79 0.37,-1.24 -0.05,0.01 -0.1,0.02 -0.14,0.03 -0.55,0.11 -1.1,0.17 -1.61,0.19 0.05,-0.13 0.07,-0.27 0.07,-0.42 0.01,-0.72 -0.56,-1.32 -1.28,-1.33 -0.09,-0 -0.19,0.01 -0.28,0.03 -0.59,0.12 -1.04,0.64 -1.05,1.27 -0,0.1 0.01,0.2 0.03,0.29 -0.71,-0.12 -1.3,-0.29 -1.71,-0.43 -0,0.04 -0.01,0.07 -0.01,0.11 0.02,-1.45 1.05,-2.65 2.41,-2.92z"/>
      <path class="fil13" d="M66.81 39.57c0.01,-0.72 -0.56,-1.32 -1.28,-1.33 -0.72,-0.01 -1.31,0.57 -1.32,1.29 -0.01,0.73 0.56,1.32 1.28,1.33 0.72,0.01 1.31,-0.57 1.32,-1.29z"/>
      <path class="fil10" d="M66.28 38.57c-0.12,0.33 0.1,0.73 0.51,0.88 0.41,0.15 0.84,0 0.97,-0.33 0.13,-0.33 -0.1,-0.73 -0.51,-0.88 -0.41,-0.15 -0.84,-0.01 -0.97,0.33z"/>
     </g>
    </g>
    <path class="fil14" d="M64.23 39.83c0.72,0.13 1.58,0.21 2.5,0.17 -0.15,0.43 -0.52,0.76 -0.97,0.85 -0.09,0.02 -0.18,0.03 -0.28,0.03 -0.62,-0.01 -1.14,-0.45 -1.26,-1.04z"/>
   </g>
   <g>
    <g>
     <path class="fil16" d="M73.45 50.91c0,-0 0,-0 0,-0 -0,0 -0,0 -0,0zm0.01 -0c0,-0 0.01,-0 0.01,-0 -0,0 -0.01,0 -0.01,0zm0.01 -0c0.81,-0.09 1.7,-0.48 2.43,-0.9l-0.67 -9.15c0.33,-0.42 1.34,-1.81 2.38,-4.12 0.24,-0.07 0.46,-0.11 0.67,-0.11 0.22,0 0.43,0.04 0.59,0.14 1.12,0.66 1.75,3.87 1.28,5.9 -0.47,2.03 -2.34,5.68 -3,6.4 -0.53,0.58 -2.25,1.67 -3.68,1.83z"/>
     <path class="fil17" d="M75.05 38.55c-0.29,0.36 -0.52,0.74 -0.66,1.13l-1.84 11.18c0.97,0.26 2.32,-0.26 3.34,-0.85l-0.84 -11.46z"/>
    </g>
    <g>
     <g>
      <path class="fil18" d="M35.99 50.92c-0,0 -0,0 -0,0 0,0 0,0 0,0zm-0 -0c-1.44,-0.13 -3.21,-1.24 -3.75,-1.84 -0.66,-0.72 -2.53,-4.37 -3,-6.4 -0.47,-2.03 0.16,-5.25 1.28,-5.9 0.17,-0.1 0.37,-0.14 0.59,-0.14 0.2,0 0.42,0.04 0.65,0.1 1.06,2.35 2.09,3.75 2.4,4.14l-0.67 9.13c0.75,0.44 1.68,0.83 2.5,0.91z"/>
      <path class="fil19" d="M34.33 38.55c0.29,0.36 0.52,0.74 0.66,1.13l1.84 11.18c-0.97,0.26 -2.32,-0.26 -3.34,-0.85l0.84 -11.46z"/>
     </g>
     <g>
      <g>
       <path class="fil20" d="M54.69 90.16c-5.45,-1.55 -10.11,-4.52 -13.97,-7.87l-1.24 -5.93c0,-0 0,-0 0.01,-0.01 0.92,-0.98 1.48,-2.1 1.81,-3.08 0.48,-1.42 0.5,-2.57 0.5,-2.7 0.22,-1.86 0.1,-3.84 0.01,-6.09 -0.05,-1.31 -0.14,-2.91 -0.25,-4.63 1.74,1.98 3.55,3.37 5.12,4.7 3.48,2.94 5.91,3.87 8.02,3.87 2.1,0 4.53,-0.94 8.02,-3.87 1.57,-1.32 3.38,-2.72 5.12,-4.7 -0.11,1.72 -0.2,3.32 -0.25,4.63 -0.09,2.25 -0.21,4.22 0.01,6.08l-0 0c0,0 -0.01,1.2 0.5,2.7 0.33,0.99 0.89,2.1 1.82,3.09 0,0 0,0 0,0l-1.24 5.93c-3.86,3.36 -8.53,6.32 -13.97,7.87z"/>
       <path class="fil21" d="M62.71 69.6c1.5,-1.67 3.23,-3.42 4.9,-5.85 0.3,-6.54 1.34,-18.69 1.34,-18.69l-28.52 0c0,0 1.04,12.16 1.34,18.69 1.67,2.43 3.4,4.19 4.9,5.86 3.48,3.86 5.91,5.1 8.02,5.1 2.1,0 4.53,-1.23 8.02,-5.1z"/>
      </g>
      <path class="fil22" d="M54.69 68.42c-2.1,0 -4.54,-0.94 -8.02,-3.87 -1.57,-1.32 -3.38,-2.72 -5.12,-4.7 -1.86,-2.11 -3.63,-4.89 -4.94,-8.94 -0.18,-0.57 -0.36,-1.17 -0.52,-1.79 -0.77,-2.94 -1.37,-5.61 -1.84,-8.12 0,0 0,0 0,0l0 -0c0,0 0,0 0,0l2.11 -6.59 1.54 -1c-0.17,0.6 -0.34,1.21 -0.47,1.73 1.15,-0.37 3.56,-1.3 5.97,-2.74 1.51,0.34 3.54,0.92 5.06,1.37 -0.09,0.69 -0.19,1.36 -0.31,1.95 0.5,-0.22 1.01,-0.45 1.55,-0.71 -0.03,0.74 -0.07,1.44 -0.13,2.08 2.75,-1.52 6.22,-3.72 8.34,-7.43 0.01,1.54 0.01,3.74 -0.01,5.25 0.31,-0.2 0.62,-0.43 0.92,-0.69 -0,0.06 0,0.13 0.01,0.19 0,0 0.1,-0.03 0.28,-0.09 0.03,0.38 0.06,0.75 0.09,1.08 0.55,-0.43 1.07,-0.96 1.55,-1.58 2.15,-0.64 5.49,-1.59 6.78,-1.69 0.17,-0.01 0.34,-0.02 0.51,-0.03 0.22,1.07 0.38,2.1 0.46,3.01 0.25,-0.27 0.47,-0.56 0.66,-0.85 0.04,0.2 0.07,0.4 0.09,0.59 0.71,-0.87 1.13,-1.85 1.39,-2.77 0.29,0.01 0.53,0.02 0.71,0.03l0.33 1.2 1.13 1.34 1.22 6.92c0,0 0.38,-0.39 0.96,-1.13l0.13 0.56c0,0 0.01,-0.01 0.02,-0.03 -0.47,2.51 -1.07,5.2 -1.84,8.15 -0.16,0.62 -0.34,1.22 -0.52,1.79 -1.3,4.05 -3.08,6.83 -4.94,8.94 -1.74,1.98 -3.55,3.37 -5.12,4.7 -3.48,2.94 -5.91,3.87 -8.02,3.87zm11.34 -31.89c-0.31,0 -0.64,0.01 -0.96,0.03 -1.77,0.37 -3.75,1.8 -4.76,3.5 0.66,1.12 2.16,2.26 4.86,2.26 0.23,0 0.47,-0.01 0.72,-0.03 3.15,-0.22 4.65,-4.05 4.75,-4.89 -0.69,-0.41 -2.47,-0.88 -4.59,-0.88zm-22.69 0c-2.13,0 -3.9,0.47 -4.59,0.88 0.1,0.83 1.59,4.67 4.75,4.89 0.25,0.02 0.49,0.03 0.72,0.03 2.7,0 4.2,-1.14 4.86,-2.26 -1.02,-1.7 -3,-3.12 -4.76,-3.5 -0.33,-0.02 -0.65,-0.03 -0.96,-0.03zm5.3 -4.46c-0.99,-0.16 -2.49,-0.39 -3.89,-0.54 1.71,-1.18 3.28,-2.62 4.23,-4.3 -0.06,1.35 -0.17,3.11 -0.34,4.84zm22.67 -0.05c-0.16,-0.05 -0.37,-0.1 -0.62,-0.17 0.11,-0.45 0.18,-0.88 0.23,-1.26l0.39 1.43zm-9.31 -0.15c1.54,-2.9 2.39,-6.83 1.96,-11.08 1.26,1.82 2.98,6.47 3.91,10.6 -0.19,-0.01 -0.38,-0.02 -0.57,-0.03 -0.06,-0 -0.12,-0 -0.19,-0 -1.33,0 -3.46,0.26 -5.11,0.51z"/>
     </g>
    </g>
   </g>
   <path class="fil23" d="M62.34 39.19c-0,-0 -0,-0 -0,-0.01 -0.04,-0.2 -0.07,-0.41 -0.07,-0.61 0,0.2 0.02,0.4 0.07,0.61 0,0 0,0 0,0.01z"/>
   <path class="fil24" d="M59.76 40.38c0,0 2.62,-3.07 5.61,-3.47 3.89,-0.09 5.04,0.78 5.04,0.78 0,0.19 -0.09,0.72 -0.09,0.72 0,0 0.98,-0.97 1.37,-1.6 -2.16,-0.57 -4.17,-0.81 -6.81,-0.56 -2.64,0.25 -5.04,1.59 -5.04,1.59 0,0 1.63,-0.6 3.02,-0.81 -0.9,0.54 -2.62,1.94 -3.1,3.35z"/>
   <path class="fil17" d="M62.11 41.68c0.62,0.26 4.72,1.4 7.13,-1.39 -0.56,1.14 -3.18,3.39 -7.13,1.39z"/>
   <path class="fil17" d="M61.78 36.04c0,0 2.46,-0.84 5.97,-0.61 -1.83,-0.52 -4.31,-0.22 -4.53,-0.2 -0.22,0.02 -1.01,0.39 -1.44,0.81z"/>
   <path class="fil24" d="M58.82 34.4c0,0 6.73,-2.13 8.7,-2.28 1.97,-0.16 4.17,0 4.17,0 0,0 -2.16,-0.72 -4.39,-0.76 -2.23,-0.05 -7.26,0.8 -7.65,0.91 -0.39,0.11 -0.89,1.08 -0.83,2.14z"/>
   <path class="fil24" d="M49.63 40.38c0,0 -2.63,-3.07 -5.61,-3.47 -3.89,-0.09 -5.04,0.78 -5.04,0.78 0,0.19 0.09,0.72 0.09,0.72 0,0 -0.98,-0.97 -1.38,-1.6 2.16,-0.57 4.17,-0.81 6.81,-0.56 2.64,0.25 5.04,1.59 5.04,1.59 0,0 -1.63,-0.6 -3.02,-0.81 0.9,0.54 2.62,1.94 3.1,3.35z"/>
   <path class="fil17" d="M47.27 41.68c-0.62,0.26 -4.72,1.4 -7.13,-1.39 0.56,1.14 3.18,3.39 7.13,1.39z"/>
   <path class="fil17" d="M47.6 36.04c0,0 -2.46,-0.84 -5.97,-0.61 1.83,-0.52 4.31,-0.22 4.53,-0.2 0.22,0.02 1.01,0.39 1.44,0.81z"/>
   <path class="fil24" d="M50.56 34.4c0,0 -6.73,-2.13 -8.7,-2.28 -1.97,-0.16 -4.17,0 -4.17,0 0,0 2.16,-0.72 4.39,-0.76 2.23,-0.05 7.26,0.8 7.65,0.91 0.39,0.11 0.89,1.08 0.83,2.14z"/>
   <path class="fil25" d="M54.69 52.75c1.21,0 2.18,-1.09 2.26,-1.64 -0.37,0.16 -1.46,0.63 -2.26,0.63 -0.8,0 -1.89,-0.47 -2.26,-0.63 0.08,0.55 1.05,1.64 2.26,1.64z"/>
   <path class="fil26" d="M74.02 41.56l-1.22 -6.92 -1.13 -1.34 -0.33 -1.2c0.22,0.01 0.35,0.02 0.35,0.02 0,0 -0.14,-0.05 -0.37,-0.11l-0.39 -1.43c0.12,-1.02 0.06,-1.74 0.06,-1.74l1.34 4.04 1.2 1.27 1.45 6.28c-0.57,0.74 -0.96,1.13 -0.96,1.13z"/>
   <path class="fil27" d="M71.69 32.12c0,0 -0.13,-0.01 -0.35,-0.02l-0.03 -0.09c0.24,0.07 0.37,0.11 0.37,0.11z"/>
   <path class="fil28" d="M34.26 41l1.58 -6.84 3.09 -4.25c0,0 -0.27,0.89 -0.6,2.03 -0.4,0.11 -0.64,0.19 -0.64,0.19 0,0 0.22,-0.02 0.59,-0.03 -0.12,0.42 -0.25,0.86 -0.38,1.31l-1.54 1 -2.11 6.59z"/>
   <path class="fil29" d="M37.69 32.12c0,0 0.24,-0.08 0.64,-0.19 -0.01,0.05 -0.03,0.1 -0.05,0.15 -0.37,0.02 -0.59,0.03 -0.59,0.03z"/>
   <path class="fil30" d="M49.56 37.08c0.06,-0.64 0.11,-1.34 0.13,-2.08 2.89,-1.41 6.17,-3.52 8.2,-7.16 0,0 0.01,0.75 0.01,1.81 -2.13,3.72 -5.59,5.92 -8.34,7.43zm9.63 -1.69c-0.03,-0.33 -0.06,-0.7 -0.09,-1.08 0.33,-0.1 0.91,-0.28 1.64,-0.5 -0.48,0.61 -1,1.14 -1.55,1.58zm1.65 -3.35c2.08,-2.78 3.57,-6.8 3.12,-11.26 0.43,4.25 -0.42,8.18 -1.96,11.08 -0.42,0.06 -0.82,0.12 -1.16,0.18z"/>
   <path class="fil31" d="M59.1 34.31c-0.01,-0.11 -0.02,-0.22 -0.03,-0.33 0.62,-0.55 1.21,-1.2 1.77,-1.94 0.34,-0.06 0.73,-0.12 1.16,-0.18 -0.38,0.72 -0.81,1.37 -1.26,1.95 -0.72,0.22 -1.31,0.4 -1.64,0.5z"/>
   <path class="fil32" d="M37.43 35.13c1.04,-0.34 2.94,-1.42 4.96,-2.94 0.29,0.05 0.64,0.12 1.01,0.2 -2.4,1.44 -4.82,2.37 -5.97,2.74zm7.32 -3.61c-0.47,-0.05 -0.93,-0.09 -1.36,-0.12 2.27,-1.86 4.52,-4.2 5.68,-6.59 0,0 -0.02,0.98 -0.09,2.41 -0.95,1.68 -2.53,3.12 -4.23,4.3z"/>
   <path class="fil33" d="M43.4 32.39c-0.37,-0.08 -0.72,-0.15 -1.01,-0.2 0.33,-0.25 0.67,-0.52 1.01,-0.79 0.43,0.03 0.89,0.07 1.36,0.12 -0.44,0.31 -0.9,0.6 -1.35,0.87z"/>
   <path class="fil34" d="M68.49 35.1c-0.08,-0.91 -0.24,-1.94 -0.46,-3.01 0.21,-0.01 0.42,-0.02 0.63,-0.03 0.2,0.76 0.37,1.5 0.49,2.18 -0.19,0.3 -0.41,0.58 -0.66,0.85zm-0 -3.66c-0.2,-0.02 -0.41,-0.04 -0.62,-0.06 -0.93,-4.13 -2.65,-8.78 -3.91,-10.6 1.29,1.86 3.36,6.54 4.53,10.66z"/>
   <path class="fil35" d="M68.03 32.09c-0.05,-0.23 -0.1,-0.47 -0.15,-0.71 0.21,0.01 0.41,0.03 0.62,0.06 0.06,0.21 0.12,0.42 0.17,0.62 -0.21,0.01 -0.42,0.01 -0.63,0.03z"/>
   <path class="fil36" d="M75.11 41l-0.13 -0.56 -1.45 -6.28 -1.2 -1.27 -1.34 -4.04c0,0 0.06,0.72 -0.06,1.74 -0.05,0.39 -0.12,0.81 -0.23,1.26 -0.02,0.08 -0.04,0.15 -0.06,0.23 -0.25,0.92 -0.68,1.9 -1.39,2.77 -0.03,-0.19 -0.06,-0.39 -0.09,-0.59 -0.12,-0.69 -0.29,-1.42 -0.49,-2.18 -0.05,-0.21 -0.11,-0.41 -0.17,-0.62 -1.17,-4.12 -3.24,-8.8 -4.53,-10.66 0.45,4.46 -1.04,8.48 -3.12,11.26 -0.56,0.74 -1.15,1.4 -1.77,1.94 -0.09,0.08 -0.17,0.15 -0.26,0.22 -0.31,0.26 -0.61,0.49 -0.92,0.69 0.02,-1.52 0.02,-3.72 0.01,-5.25 -0,-1.06 -0.01,-1.81 -0.01,-1.81 -2.03,3.64 -5.31,5.75 -8.2,7.16 -0.53,0.26 -1.05,0.5 -1.55,0.71 0.12,-0.6 0.22,-1.26 0.31,-1.95 0.07,-0.55 0.14,-1.12 0.19,-1.7 0.17,-1.73 0.28,-3.48 0.34,-4.84 0.07,-1.43 0.09,-2.41 0.09,-2.41 -1.16,2.39 -3.41,4.73 -5.68,6.59 -0.34,0.27 -0.67,0.54 -1.01,0.79 -2.01,1.52 -3.92,2.6 -4.96,2.94 0.14,-0.53 0.3,-1.13 0.47,-1.73 0.13,-0.45 0.25,-0.89 0.38,-1.31 0.02,-0.05 0.03,-0.1 0.05,-0.15 0.33,-1.14 0.6,-2.03 0.6,-2.03l-3.09 4.25 -1.58 6.84 -0 0c0,0 0,0 -0,-0 -0,-0 -0.04,-0.04 -0.09,-0.12 -0.31,-0.4 -1.34,-1.79 -2.4,-4.14 -0.81,-1.8 -1.64,-4.15 -2.17,-7.05 -0.25,-7.87 0.62,-10.25 0.62,-10.25 0,0 -0.01,0.02 -0.02,0.05 2.55,0.37 4.92,0.51 7.03,0.51 5.8,0 9.61,-1.03 9.61,-1.03 -6.87,-2.01 -11.81,-4.22 -15.19,-6.05 -0.44,0.67 -0.81,1.25 -1.11,1.7 1.6,-2.4 5.29,-8.63 10.01,-11 8.35,-2.88 14.43,-3.62 17.96,-3.62 1.64,0 2.74,0.16 3.26,0.34 1.64,0.56 5.72,4.45 5.72,4.45 0.86,-0.99 2.44,-2.3 5.1,-2.3 1.12,0 2.44,0.24 3.98,0.83 -1.81,0.59 -7.03,2.69 -7.03,2.69 2.81,1.56 7.47,4.97 8.62,6.68 0,0 0,0 0,0.01 -0,-0 -0,-0 -0,-0.01 -0.08,-0.11 -0.17,-0.24 -0.28,-0.36 -3.35,1.94 -8.42,4.35 -15.62,6.59 0,0 3.49,0.88 8.85,0.88 2.75,0 6,-0.23 9.53,-0.94 -0.55,-1.64 -1.2,-3.48 -1.78,-4.79 1.16,2.66 2.65,7.51 2.98,8.43 -0.78,-0.03 -1.63,-0.41 -2.29,-0.79 0.18,1.59 0.33,4.12 0.21,7.97 -0.54,2.9 -1.36,5.26 -2.17,7.06 -1.04,2.31 -2.05,3.7 -2.38,4.12 -0.04,0.05 -0.07,0.09 -0.09,0.11 -0.02,0.02 -0.02,0.03 -0.02,0.03zm3.76 -26.93c-0,-0.01 -0.01,-0.01 -0.01,-0.02 0,0.01 0.01,0.01 0.01,0.02zm-0.01 -0.02c-0,-0 -0,-0 -0,-0 0,0 0,0 0,0zm-0.01 -0.03c0,-0 0,-0 -0,-0 0,0 0,0 0,0zm-0 -0.01c-0,-0 -0,-0 -0,-0 0,0 0,0 0,0zm-0 -0.01c0,-0 0,-0 0,-0l0 0zm-0.64 -1.25l-0 0 0 0zm-0.02 -0.02l0 0 -0 -0zm0 0c-0,-0 -0,-0 -0,-0 0,0 0,0 0,0zm-0 -0.01c-0,-0 -0,-0 -0,-0 0,0 0,0 0,0zm-0 -0.01c-0,-0 -0,-0 -0,-0 0,0 0,0 0,0zm-0 -0.01c-0,-0 -0,-0 -0,-0 0,0 0,0 0,0z"/>
   <path class="fil37" d="M39.48 76.36c0,-0 0,-0 0.01,-0.01 -0,0 -0,0 -0.01,0.01z"/>
   <path class="fil38" d="M39.49 76.35c0.92,-0.98 1.48,-2.09 1.81,-3.08 -0.33,0.98 -0.89,2.09 -1.81,3.08z"/>
   <path class="fil37" d="M69.9 76.36c-0,-0 -0,-0 -0,-0 0,0 0,0 0,0z"/>
   <path class="fil39" d="M69.9 76.36c-0.93,-0.99 -1.49,-2.1 -1.82,-3.09 0.33,0.99 0.89,2.1 1.82,3.09z"/>
   <path class="fil40" d="M30.09 15.25c0.12,-0.16 0.27,-0.38 0.45,-0.64 -0.18,0.26 -0.33,0.48 -0.45,0.64z"/>
   <path class="fil41" d="M37.23 20c-2.11,0 -4.48,-0.14 -7.03,-0.51 0.01,-0.03 0.02,-0.05 0.02,-0.05 -1.69,0 -3.69,-1.44 -3.69,-1.44 0,0 2.31,-1.12 3.56,-2.75 0.12,-0.16 0.27,-0.38 0.45,-0.64 0.3,-0.45 0.67,-1.03 1.11,-1.7 3.38,1.83 8.33,4.04 15.19,6.05 0,0 -3.81,1.03 -9.61,1.03z"/>
   <path class="fil42" d="M78.87 14.07c-0,-0 0,-0 -0,-0l0 0zm-0.01 -0.02c-0,-0 -0,-0 -0,-0 0,0 0,0 0,0zm-0 -0.01c-0,-0.01 -0.01,-0.02 -0.01,-0.03 0,0.01 0.01,0.02 0.01,0.03zm-0.01 -0.03c-0,-0 -0,-0.01 -0,-0.01 0,0 0,0.01 0,0.01zm-0 -0.01c-0,-0 -0,-0.01 -0,-0.01 0,0 0,0.01 0,0.01zm-0 -0.01c-0.23,-0.52 -0.45,-0.96 -0.64,-1.25 0.19,0.3 0.41,0.73 0.64,1.25zm-0.64 -1.25c-0,-0.01 -0.01,-0.01 -0.01,-0.02 0,0.01 0.01,0.01 0.01,0.02zm-0.01 -0.02c-0,-0 -0,-0 -0,-0 0,0 0,0 0,0zm-0 -0.01c-0,-0 -0,-0 -0,-0 0,0 0,0 0,0zm-0 -0.01c-0,-0 -0,-0 -0,-0 0,0 0,0 0,0zm-0 -0.01c-0,-0 -0,-0 -0,-0 0,0 0,0 0,0zm-0 -0.01c-0,-0 -0,-0 -0,-0 0,0 0,0 0,0z"/>
   <path class="fil43" d="M71.12 19.8c-5.36,0 -8.85,-0.88 -8.85,-0.88 7.2,-2.24 12.27,-4.65 15.62,-6.59 0.11,0.13 0.2,0.25 0.28,0.36 0,0 0,0 0,0.01 0,0 0,0 0,0 0,0 0,0 0,0 0,0 0,0 0,0 0,0 0,0 0,0 0,0 0,0 0,0 0,0 0,0 0,0 0,0 0,0 0,0 0,0 0,0 0,0 0,0 0,0 0,0 0,0.01 0.01,0.01 0.01,0.02l0 0c0.19,0.3 0.41,0.73 0.64,1.25 0,0 0,0 0,0 0,0 0,0.01 0,0.01 0,0 0,0 0,0 0,0 0,0.01 0,0.01 0,0 0,0 0,0 0,0.01 0.01,0.02 0.01,0.03 0,0 0,0 0,0 0,0 0,0 0,0 0,0.01 0.01,0.01 0.01,0.02 0,0 0,0 0,0 0.57,1.31 1.22,3.15 1.78,4.79 -3.52,0.71 -6.77,0.94 -9.53,0.94z"/>
   <g>
    <path class="fil44" d="M60.34 58.32c-0.97,0.71 -1.52,2.27 -4.99,2.27 -3.46,0 -4.01,-1.56 -4.99,-2.27l9.97 0z"/>
    <path class="fil44" d="M50.25 58.31c0.76,0.02 2.38,-0.45 3.32,-0.81 0.94,-0.36 1.75,-0.69 3.16,-0.88 1.64,-0.23 3.53,0.26 3.73,1.63 -1.89,0.38 -7.3,0.73 -10.21,0.06z"/>
    <path class="fil45" d="M55.28 58.83c1.94,0 4.44,-0.33 4.94,-0.4 0.49,-0.06 1.17,-0.46 1.06,-0.54 -0.11,-0.08 -0.6,-0.24 -0.65,-0.22 -0.05,0.02 0.29,0.36 -0.24,0.49 -0.52,0.13 -1.97,0.4 -5.11,0.4 -3.14,0 -4.59,-0.28 -5.11,-0.4 -0.52,-0.13 -0.19,-0.48 -0.24,-0.49 -0.05,-0.02 -0.54,0.14 -0.65,0.22 -0.11,0.08 0.57,0.47 1.06,0.54 0.49,0.06 2.99,0.4 4.94,0.4z"/>
   </g>
  </g>
 </g>
</svg>
