<?xml version="1.0" encoding="UTF-8"?>
<!DOCTYPE svg PUBLIC "-//W3C//DTD SVG 1.1//EN" "http://www.w3.org/Graphics/SVG/1.1/DTD/svg11.dtd">
<!-- Creator: CorelDRAW 2021 (64-Bit) -->
<svg xmlns="http://www.w3.org/2000/svg" xml:space="preserve" width="4.88076in" height="6.9441in" version="1.1" style="shape-rendering:geometricPrecision; text-rendering:geometricPrecision; image-rendering:optimizeQuality; fill-rule:evenodd; clip-rule:evenodd"
viewBox="0 0 116.08 165.15"
 xmlns:xlink="http://www.w3.org/1999/xlink"
 xmlns:xodm="http://www.corel.com/coreldraw/odm/2003">
 <defs>
  <style type="text/css">
   <![CDATA[
    .fil14 {fill:#503431}
    .fil13 {fill:#FEFEFE;fill-rule:nonzero}
    .fil0 {fill:#F9D4B2;fill-rule:nonzero}
    .fil1 {fill:#EFA07D;fill-rule:nonzero}
    .fil8 {fill:#F2F9F3;fill-rule:nonzero}
    .fil23 {fill:#F1F1F5;fill-rule:nonzero}
    .fil5 {fill:#E4EAF1;fill-rule:nonzero}
    .fil27 {fill:#E2896A;fill-rule:nonzero}
    .fil7 {fill:#E3EEE5;fill-rule:nonzero}
    .fil26 {fill:#BF6858;fill-rule:nonzero}
    .fil19 {fill:#C5B4A2;fill-rule:nonzero}
    .fil11 {fill:#BFC9C1;fill-rule:nonzero}
    .fil16 {fill:#47302E;fill-rule:nonzero}
    .fil17 {fill:#3C2F2D;fill-rule:nonzero}
    .fil21 {fill:#303234;fill-rule:nonzero}
    .fil10 {fill:#3E9F6E;fill-rule:nonzero}
    .fil20 {fill:#30363C;fill-rule:nonzero}
    .fil9 {fill:#377F59;fill-rule:nonzero}
    .fil25 {fill:url(#id0)}
    .fil24 {fill:url(#id1)}
    .fil3 {fill:url(#id2)}
    .fil6 {fill:url(#id3)}
    .fil2 {fill:url(#id4)}
    .fil18 {fill:url(#id5)}
    .fil4 {fill:url(#id6)}
    .fil12 {fill:url(#id7)}
    .fil15 {fill:url(#id8)}
    .fil22 {fill:url(#id9)}
   ]]>
  </style>
  <linearGradient id="id0" gradientUnits="userSpaceOnUse" x1="58.29" y1="1.68" x2="58.29" y2="38.79">
   <stop offset="0" style="stop-opacity:1; stop-color:#41464C"/>
   <stop offset="1" style="stop-opacity:1; stop-color:#525A60"/>
  </linearGradient>
  <linearGradient id="id1" gradientUnits="userSpaceOnUse" x1="58.29" y1="1.68" x2="58.29" y2="38.79">
   <stop offset="0" style="stop-opacity:1; stop-color:#33373C"/>
   <stop offset="1" style="stop-opacity:1; stop-color:#434A50"/>
  </linearGradient>
  <linearGradient id="id2" gradientUnits="userSpaceOnUse" x1="57.74" y1="81.86" x2="57.74" y2="53.33">
   <stop offset="0" style="stop-opacity:1; stop-color:#F9D4B2"/>
   <stop offset="1" style="stop-opacity:1; stop-color:#EFA07D"/>
  </linearGradient>
  <linearGradient id="id3" gradientUnits="userSpaceOnUse" x1="26.12" y1="106.78" x2="26.12" y2="185.17">
   <stop offset="0" style="stop-opacity:1; stop-color:#3E9F6E"/>
   <stop offset="1" style="stop-opacity:1; stop-color:#387669"/>
  </linearGradient>
  <linearGradient id="id4" gradientUnits="userSpaceOnUse" xlink:href="#id2" x1="57.74" y1="81.86" x2="57.74" y2="53.33">
  </linearGradient>
  <linearGradient id="id5" gradientUnits="userSpaceOnUse" x1="68.77" y1="35.57" x2="69.69" y2="40.15">
   <stop offset="0" style="stop-opacity:1; stop-color:#835644"/>
   <stop offset="1" style="stop-opacity:1; stop-color:#5C3937"/>
  </linearGradient>
  <linearGradient id="id6" gradientUnits="userSpaceOnUse" xlink:href="#id2" x1="57.83" y1="37.11" x2="57.83" y2="-5.66">
  </linearGradient>
  <linearGradient id="id7" gradientUnits="userSpaceOnUse" xlink:href="#id3" x1="89.36" y1="106.53" x2="89.36" y2="184.11">
  </linearGradient>
  <linearGradient id="id8" gradientUnits="userSpaceOnUse" xlink:href="#id5" x1="45.75" y1="35.57" x2="46.68" y2="40.16">
  </linearGradient>
  <linearGradient id="id9" gradientUnits="userSpaceOnUse" x1="57.77" y1="42.2" x2="57.77" y2="9.03">
   <stop offset="0" style="stop-opacity:1; stop-color:#E0A884"/>
   <stop offset="1" style="stop-opacity:1; stop-color:#D7815F"/>
  </linearGradient>
 </defs>
 <g id="Layer_x0020_1">
  <metadata id="CorelCorpID_0Corel-Layer"/>
  <g id="_2284220751248">
   <path class="fil0" d="M79.64 37.94c0.73,-2.05 3.71,-3.96 4.96,-3.23 1.25,0.73 1.94,4.3 1.42,6.56 -0.52,2.26 -2.6,6.32 -3.33,7.12 -0.73,0.8 -3.44,2.43 -5.1,1.98l2.05 -12.43z"/>
   <path class="fil1" d="M80.37 36.69c-0.32,0.39 -0.58,0.82 -0.73,1.25l-2.05 12.43c1.08,0.29 2.58,-0.29 3.71,-0.95l-0.94 -12.74z"/>
   <path class="fil0" d="M35.84 37.94c-0.73,-2.05 -3.72,-3.96 -4.97,-3.23 -1.25,0.73 -1.94,4.3 -1.42,6.56 0.52,2.26 2.6,6.32 3.33,7.12 0.73,0.8 3.44,2.43 5.11,1.98l-2.05 -12.43z"/>
   <path class="fil1" d="M35.11 36.69c0.32,0.39 0.58,0.82 0.73,1.25l2.05 12.43c-1.08,0.29 -2.58,-0.29 -3.71,-0.95l0.94 -12.74z"/>
   <path class="fil2" d="M41.89 43.91c0,0 1.25,14.58 1.53,21.6 0.28,7.01 0.83,11.66 -7.43,17.78 -8.26,6.11 -12.85,8.96 -15.41,10.97 -2.57,2.01 -3.61,3.19 -4.65,5.28 -1.04,2.08 -3.74,7.89 -3.4,8.33 1.95,2.57 21.49,14.3 45.22,14.3 23.73,0 43.28,-11.74 45.22,-14.3 0.34,-0.45 -2.36,-6.25 -3.4,-8.33 -1.04,-2.08 -2.08,-3.26 -4.65,-5.28 -2.57,-2.02 -7.15,-4.86 -15.42,-10.97 -8.26,-6.11 -7.71,-10.76 -7.43,-17.78 0.28,-7.01 1.53,-21.6 1.53,-21.6l-31.7 0z"/>
   <path class="fil3" d="M66.65 71.2c1.67,-1.85 3.59,-3.81 5.44,-6.51 0.33,-7.27 1.49,-20.78 1.49,-20.78l-31.7 0c0,0 1.16,13.51 1.49,20.78 1.86,2.7 3.78,4.66 5.45,6.51 3.87,4.29 6.57,5.66 8.91,5.66 2.34,0 5.04,-1.37 8.91,-5.66z"/>
   <path class="fil4" d="M57.74 69.88c-2.34,0 -5.04,-1.04 -8.91,-4.31 -3.61,-3.04 -8.37,-6.44 -11.18,-15.16 -0.2,-0.64 -0.4,-1.3 -0.58,-1.99 -3,-11.37 -1.37,-8.55 -1.05,-21.57 0.02,-0.75 2.8,-2.62 2.79,-3.34 7.16,-15.03 20.45,-12.21 27.67,-12.21 0.01,0 6.81,1.35 6.82,1.35 0.13,-0.1 5.56,4.99 5.87,6.58 0.12,0.61 1,20.67 1.15,20.67 0.02,0 0.04,-0.01 0.06,-0.02 -0.5,2.64 -1.14,5.46 -1.95,8.54 -0.18,0.69 -0.38,1.36 -0.58,1.99 -2.8,8.72 -7.57,12.12 -11.18,15.16 -3.87,3.26 -6.57,4.31 -8.91,4.31z"/>
   <path class="fil5" d="M100.3 99.16c-1.11,-2.21 -2.2,-3.46 -4.88,-5.56 -1.14,-0.89 -2.61,-1.91 -4.66,-3.32 -2.52,-1.74 -5.97,-4.12 -10.5,-7.47 -5.63,10.01 -13.63,16.27 -22.52,16.27 -8.89,0 -16.89,-6.27 -22.52,-16.27 -4.52,3.34 -7.97,5.71 -10.49,7.45 -2.05,1.42 -3.53,2.44 -4.67,3.33 -2.69,2.1 -3.78,3.35 -4.89,5.56 -3.74,7.47 -6.34,57.14 -6.59,65.99l95 0c0.02,-0.02 0.03,-0.03 0.05,-0.05 0.23,-0.3 0.77,-57.75 -3.32,-65.94z"/>
   <path class="fil6" d="M36.27 82.01c-0.26,0.2 -0.13,0.6 -0.4,0.81 -4.66,3.45 -8.34,5.88 -10.92,7.66 -2.05,1.41 -3.45,2.48 -4.58,3.37 -2.68,2.1 -5.44,4.95 -6.54,7.16 -3.9,7.79 -13.14,58.99 -13.82,64.16l52.08 0 0 -66.58c0,-1.51 -0.16,-2.5 -0.68,-2.92 -0.48,-0.38 -12.93,-11.66 -15.13,-13.65z"/>
   <path class="fil7" d="M17.72 103.42c1.11,-2.51 3.72,-4.72 5.73,-5.97 1.35,-0.84 10.93,-7.33 17.13,-11.54 -1.98,-1.79 -3.64,-3.29 -4.31,-3.9 -0.26,0.2 -0.5,0.4 -0.78,0.61 -4.66,3.45 -8.19,5.88 -10.76,7.66 -2.05,1.42 -3.53,2.44 -4.67,3.33 -2.69,2.1 -5.13,5.19 -6.24,7.4 -3.86,7.73 -12.85,58.26 -13.65,64.16l5.26 0c2.07,-9.21 11.54,-60.04 12.29,-61.73z"/>
   <path class="fil7" d="M44.12 74.92c-0.61,-0.57 -1.01,-0.94 -1.01,-0.94 0,0 0.43,-2.4 0.43,-4.36 0,-1.95 -0.18,-5.31 -0.18,-5.31 0,0 -3.08,2.24 -4.62,3.52 -1.53,1.28 -2.03,2.34 -2.03,3.85 0,1.51 -0.84,10.28 -0.85,10.65 -0.01,0.37 0.25,0.91 0.72,1.51 0.32,0.41 1.35,3.06 5.3,6.63 0,-4.11 0,-12.44 0,-13.61 0,-1.24 0.66,-2.04 2.23,-1.94z"/>
   <path class="fil8" d="M44.12 74.92c-0.61,-0.57 -1.01,-0.94 -1.01,-0.94 0,0 0.43,-2.4 0.43,-4.36 0,-1.95 -0.18,-5.31 -0.18,-5.31 0,0 -3.08,2.24 -4.62,3.52 -0.34,0.28 -0.62,0.55 -0.86,0.82 -0.38,1.2 -0.13,2.28 0.32,3.01 0.6,0.96 2.08,2.71 3.85,4.29l0 0c0.28,-0.69 0.93,-1.1 2.07,-1.02z"/>
   <path class="fil9" d="M51.3 93.94c0,-0.73 0,-9.79 0,-10.62 0,-0.83 -0.36,-2.03 -1.06,-2.71 -0.53,-0.51 -4.27,-3.98 -6.11,-5.69 -1.57,-0.1 -2.23,0.7 -2.23,1.94 0,1.17 0,9.5 0,13.61 1.77,1.6 4.13,3.39 7.27,5.24 0,0 0.88,0 1.56,0 0.68,0 0.57,-1.04 0.57,-1.77z"/>
   <path class="fil10" d="M51.3 83.32c0,-0.83 -0.36,-2.03 -1.06,-2.71 -0.53,-0.51 -4.27,-3.98 -6.11,-5.69 -1.14,-0.07 -1.79,0.33 -2.07,1.02 0.84,0.83 4.83,4.76 5.67,5.57 0.94,0.9 1.25,1.63 1.25,3.19 0,1.29 0,8.42 0,10.89l0.19 0.12c0,0 0.88,0 1.56,0 0.68,0 0.57,-1.04 0.57,-1.77 0,-0.73 0,-9.79 0,-10.62z"/>
   <path class="fil11" d="M43.11 73.98c0,0 0.43,-1.39 0.43,-4.36 0,-0.8 -0.03,-1.83 -0.06,-2.77 -2.66,1.03 -3.17,2.57 -3.38,3.4 -0.24,0.94 1.87,2.58 3.01,3.73z"/>
   <path class="fil12" d="M79.21 82.01c0.26,0.2 0.13,0.6 0.4,0.81 4.66,3.45 8.34,5.88 10.92,7.66 2.05,1.41 3.45,2.48 4.58,3.37 2.68,2.1 6.12,5.14 7.22,7.35 4.09,8.18 13.42,63.36 13.19,63.66 -3.25,0.8 -23.73,-0.37 -42.79,0.3l-9.33 0 0 -66.58c0,-1.51 0.16,-2.5 0.68,-2.92 0.48,-0.38 12.93,-11.66 15.13,-13.65z"/>
   <path class="fil7" d="M96.26 102.39c-1.11,-2.51 -2.22,-3.69 -4.23,-4.94 -1.35,-0.84 -10.93,-7.33 -17.13,-11.54 1.98,-1.79 3.63,-3.29 4.31,-3.9 0.26,0.2 0.5,0.4 0.78,0.61 4.66,3.45 8.19,5.88 10.77,7.66 2.05,1.42 3.53,2.44 4.67,3.33 2.68,2.1 5.81,5.38 6.92,7.59 4.09,8.19 10.08,46.87 13.74,63.96l-10.12 0c-0.55,-0.02 -1.03,-0.04 -1.42,-0.04 -0.9,-2.43 -7.48,-60.89 -8.28,-62.72z"/>
   <path class="fil7" d="M71.35 74.92c0.61,-0.57 1.02,-0.94 1.02,-0.94 0,0 -0.44,-2.4 -0.44,-4.36 0,-1.95 0.18,-5.31 0.18,-5.31 0,0 3.08,2.24 4.62,3.52 1.54,1.28 2.03,2.34 2.03,3.85 0,1.51 0.84,10.28 0.85,10.65 0.01,0.37 -0.25,0.91 -0.72,1.51 -0.32,0.41 -1.36,3.06 -5.3,6.63 0,-4.11 0,-12.44 0,-13.61 0,-1.24 -0.66,-2.04 -2.23,-1.94z"/>
   <path class="fil8" d="M71.35 74.92c0.61,-0.57 1.02,-0.94 1.02,-0.94 0,0 -0.44,-2.4 -0.44,-4.36 0,-1.95 0.18,-5.31 0.18,-5.31 0,0 3.08,2.24 4.62,3.52 0.34,0.28 0.62,0.55 0.86,0.82 0.38,1.2 0.13,2.28 -0.32,3.01 -0.6,0.96 -2.08,2.71 -3.85,4.29l-0 0c-0.28,-0.69 -0.93,-1.1 -2.07,-1.02z"/>
   <path class="fil9" d="M64.18 93.94c0,-0.73 0,-9.79 0,-10.62 0,-0.83 0.36,-2.03 1.06,-2.71 0.53,-0.51 4.27,-3.98 6.11,-5.69 1.57,-0.1 2.23,0.7 2.23,1.94 0,1.17 0,9.5 0,13.61 -1.77,1.6 -4.13,3.39 -7.28,5.24 0,0 -0.88,0 -1.56,0 -0.68,0 -0.57,-1.04 -0.57,-1.77z"/>
   <path class="fil10" d="M64.18 83.32c0,-0.83 0.36,-2.03 1.06,-2.71 0.53,-0.51 4.27,-3.98 6.11,-5.69 1.14,-0.07 1.79,0.33 2.07,1.02 -0.84,0.83 -4.83,4.76 -5.67,5.57 -0.94,0.9 -1.25,1.63 -1.25,3.19 0,1.29 0,8.42 0,10.89l-0.19 0.12c0,0 -0.88,0 -1.56,0 -0.68,0 -0.57,-1.04 -0.57,-1.77 0,-0.73 0,-9.79 0,-10.62z"/>
   <path class="fil11" d="M72.37 73.98c0,0 -0.44,-1.39 -0.44,-4.36 0,-0.8 0.03,-1.83 0.06,-2.77 2.66,1.03 3.17,2.57 3.38,3.4 0.23,0.94 -1.87,2.58 -3.01,3.73z"/>
   <path class="fil9" d="M93.52 114.67c-0.28,0.13 -0.56,0.26 -0.84,0.39 0.05,-6.33 1.37,-11.09 2.73,-14.33 0.18,0.3 0.36,0.64 0.53,0.99 -1.2,3.07 -2.32,7.38 -2.42,12.95z"/>
   <g>
    <path class="fil13" d="M68.89 34.55c-1.89,0.4 -4.01,1.92 -5.1,3.75 0.77,1.3 2.59,2.62 5.97,2.39 3.38,-0.23 4.98,-4.34 5.08,-5.23 -0.85,-0.5 -3.23,-1.09 -5.95,-0.9z"/>
    <path class="fil13" d="M46.66 34.55c1.89,0.4 4.01,1.92 5.1,3.75 -0.77,1.3 -2.59,2.62 -5.97,2.39 -3.38,-0.23 -4.98,-4.34 -5.08,-5.23 0.85,-0.5 3.23,-1.09 5.95,-0.9z"/>
   </g>
   <g>
    <g>
     <path class="fil14" d="M46.35 34.53c1.78,0 3.22,1.42 3.22,3.18 0,0.43 -0.09,0.85 -0.25,1.23 -0.05,0.13 -0.11,0.26 -0.18,0.38l-0.02 0.01c-0.56,0.94 -1.59,1.57 -2.77,1.57 -1.26,0 -2.35,-0.71 -2.88,-1.75l-0.04 -0.02c-0.11,-0.24 -0.19,-0.49 -0.25,-0.75 -0.04,-0.21 -0.06,-0.43 -0.06,-0.65 0,-0.02 0,-0.04 0.01,-0.06 0.03,-1.73 1.46,-3.13 3.22,-3.13z"/>
     <g>
      <path class="fil15" d="M45.7 34.59c0.22,-0.04 0.45,-0.07 0.68,-0.06 1.78,0.03 3.19,1.49 3.17,3.28 -0.01,0.55 -0.17,1.06 -0.41,1.51 -0.5,0.16 -1.03,0.3 -1.6,0.41 -0.32,0.06 -0.65,0.12 -0.99,0.17 -0.98,-0.01 -2.09,-0.29 -3.12,-0.78 -0.11,-0.24 -0.19,-0.49 -0.25,-0.75 0.05,0.26 0.14,0.51 0.25,0.75 1.03,0.48 2.13,0.77 3.12,0.78 0.34,-0.05 0.67,-0.1 0.99,-0.17 0.57,-0.11 1.1,-0.26 1.6,-0.41 0.22,-0.4 0.36,-0.85 0.4,-1.33 -0.05,0.01 -0.1,0.02 -0.15,0.03 -0.59,0.12 -1.17,0.18 -1.73,0.21 0.05,-0.14 0.08,-0.29 0.08,-0.45 0.01,-0.78 -0.6,-1.41 -1.38,-1.42 -0.1,-0 -0.2,0.01 -0.3,0.03 -0.63,0.13 -1.11,0.68 -1.12,1.36 -0,0.11 0.01,0.21 0.03,0.31 -0.77,-0.13 -1.4,-0.31 -1.83,-0.46 -0,0.04 -0.01,0.08 -0.01,0.12 0.02,-1.55 1.13,-2.83 2.58,-3.13z"/>
      <path class="fil16" d="M47.73 37.78c0.01,-0.78 -0.6,-1.41 -1.38,-1.42 -0.77,-0.01 -1.4,0.61 -1.42,1.38 -0.01,0.78 0.6,1.41 1.38,1.43 0.77,0.01 1.4,-0.61 1.42,-1.39z"/>
      <path class="fil13" d="M47.16 36.7c-0.13,0.36 0.11,0.78 0.55,0.94 0.44,0.16 0.9,0 1.03,-0.35 0.13,-0.36 -0.11,-0.78 -0.55,-0.94 -0.44,-0.16 -0.9,-0.01 -1.03,0.35z"/>
     </g>
    </g>
    <path class="fil17" d="M44.97 38.05c0.78,0.13 1.69,0.22 2.68,0.18 -0.16,0.46 -0.56,0.81 -1.04,0.91 -0.09,0.02 -0.19,0.03 -0.29,0.03 -0.67,-0.01 -1.22,-0.49 -1.35,-1.12z"/>
   </g>
   <g>
    <g>
     <path class="fil14" d="M69.37 34.53c1.78,0 3.22,1.42 3.22,3.18 0,0.43 -0.09,0.85 -0.25,1.23 -0.05,0.13 -0.11,0.26 -0.18,0.38l-0.02 0.01c-0.56,0.94 -1.59,1.57 -2.77,1.57 -1.26,0 -2.35,-0.71 -2.88,-1.75l-0.04 -0.02c-0.11,-0.24 -0.19,-0.49 -0.25,-0.75 -0.04,-0.21 -0.06,-0.43 -0.06,-0.65 0,-0.02 0,-0.04 0.01,-0.06 0.03,-1.73 1.46,-3.13 3.22,-3.13z"/>
     <g>
      <path class="fil18" d="M68.72 34.59c0.22,-0.04 0.45,-0.07 0.68,-0.06 1.78,0.03 3.19,1.49 3.17,3.28 -0.01,0.55 -0.17,1.06 -0.41,1.51 -0.5,0.16 -1.03,0.3 -1.6,0.41 -0.32,0.06 -0.65,0.12 -0.99,0.17 -0.98,-0.01 -2.09,-0.3 -3.12,-0.78 -0.11,-0.24 -0.19,-0.49 -0.25,-0.75 0.05,0.26 0.14,0.51 0.25,0.75 1.03,0.48 2.13,0.77 3.12,0.78 0.34,-0.05 0.67,-0.1 0.99,-0.17 0.57,-0.11 1.1,-0.26 1.6,-0.41 0.22,-0.4 0.36,-0.85 0.4,-1.33 -0.05,0.01 -0.1,0.02 -0.15,0.03 -0.59,0.12 -1.17,0.18 -1.73,0.21 0.05,-0.14 0.08,-0.29 0.08,-0.45 0.01,-0.78 -0.6,-1.41 -1.38,-1.42 -0.1,-0 -0.2,0.01 -0.3,0.03 -0.63,0.13 -1.11,0.68 -1.12,1.36 -0,0.11 0.01,0.21 0.03,0.31 -0.77,-0.13 -1.4,-0.31 -1.83,-0.46 -0,0.04 -0.01,0.08 -0.01,0.12 0.02,-1.55 1.13,-2.83 2.58,-3.13z"/>
      <path class="fil16" d="M70.75 37.78c0.01,-0.78 -0.6,-1.41 -1.38,-1.42 -0.77,-0.01 -1.4,0.61 -1.42,1.38 -0.01,0.78 0.6,1.41 1.38,1.43 0.77,0.01 1.4,-0.61 1.42,-1.39z"/>
      <path class="fil13" d="M70.18 36.7c-0.13,0.36 0.11,0.78 0.55,0.94 0.44,0.16 0.9,0 1.03,-0.35 0.13,-0.36 -0.11,-0.78 -0.55,-0.94 -0.44,-0.16 -0.9,-0.01 -1.03,0.35z"/>
     </g>
    </g>
    <path class="fil17" d="M67.99 38.05c0.78,0.13 1.69,0.22 2.68,0.18 -0.16,0.46 -0.56,0.81 -1.04,0.91 -0.09,0.02 -0.19,0.03 -0.29,0.03 -0.67,-0.01 -1.22,-0.49 -1.35,-1.12z"/>
   </g>
   <path class="fil19" d="M65.96 37.37c-0,-0 -0,-0 -0,-0.01 -0.05,-0.22 -0.07,-0.44 -0.07,-0.65 0,0.21 0.02,0.43 0.07,0.65 0,0 0,0 0,0.01z"/>
   <path class="fil20" d="M63.2 38.64c0,0 2.81,-3.29 6,-3.72 4.16,-0.1 5.4,0.84 5.4,0.84 0,0.2 -0.1,0.77 -0.1,0.77 0,0 1.05,-1.03 1.47,-1.71 -2.31,-0.61 -4.46,-0.86 -7.29,-0.6 -2.83,0.27 -5.4,1.71 -5.4,1.71 0,0 1.74,-0.64 3.24,-0.87 -0.97,0.58 -2.81,2.08 -3.32,3.59z"/>
   <path class="fil1" d="M65.72 40.03c0.66,0.28 5.05,1.5 7.63,-1.49 -0.6,1.22 -3.4,3.62 -7.63,1.49z"/>
   <path class="fil1" d="M65.37 34c0,0 2.63,-0.9 6.4,-0.65 -1.96,-0.55 -4.62,-0.23 -4.85,-0.22 -0.23,0.02 -1.09,0.42 -1.55,0.87z"/>
   <path class="fil20" d="M62.2 32.24c0,0 7.21,-2.28 9.31,-2.44 2.11,-0.17 4.46,0 4.46,0 0,0 -2.31,-0.77 -4.7,-0.82 -2.39,-0.05 -7.78,0.85 -8.19,0.97 -0.42,0.12 -0.95,1.15 -0.89,2.29z"/>
   <path class="fil20" d="M52.35 38.64c0,0 -2.81,-3.29 -6,-3.72 -4.16,-0.1 -5.4,0.84 -5.4,0.84 0,0.2 0.1,0.77 0.1,0.77 0,0 -1.05,-1.03 -1.47,-1.71 2.31,-0.61 4.47,-0.86 7.29,-0.6 2.83,0.27 5.4,1.71 5.4,1.71 0,0 -1.74,-0.64 -3.24,-0.87 0.97,0.58 2.8,2.08 3.32,3.59z"/>
   <path class="fil1" d="M49.83 40.03c-0.66,0.28 -5.05,1.5 -7.64,-1.49 0.6,1.22 3.4,3.62 7.64,1.49z"/>
   <path class="fil1" d="M50.18 34c0,0 -2.63,-0.9 -6.4,-0.65 1.96,-0.55 4.62,-0.23 4.85,-0.22 0.23,0.02 1.09,0.42 1.55,0.87z"/>
   <path class="fil20" d="M53.35 32.24c0,0 -7.21,-2.28 -9.31,-2.44 -2.11,-0.17 -4.46,0 -4.46,0 0,0 2.31,-0.77 4.7,-0.82 2.39,-0.05 7.78,0.85 8.19,0.97 0.42,0.12 0.95,1.15 0.89,2.29z"/>
   <path class="fil21" d="M75.97 29.8c0,0 -0.14,-0.01 -0.37,-0.02l-0.03 -0.1c0.26,0.07 0.4,0.12 0.4,0.12z"/>
   <path class="fil22" d="M39.57 29.8c0,0 0.25,-0.08 0.68,-0.2 -0.02,0.05 -0.03,0.11 -0.05,0.17 -0.39,0.02 -0.63,0.03 -0.63,0.03z"/>
   <path class="fil11" d="M98.64 96.56c-0.58,0.82 -1.67,2.54 -2.69,5.16 -0.17,-0.35 -0.35,-0.69 -0.53,-0.99 1.04,-2.47 2.1,-4.07 2.65,-4.81 0.2,0.21 0.4,0.43 0.57,0.64z"/>
   <g>
    <path class="fil23" d="M22.2 22.6c-0,-0 -0,-0 -0,-0 0,0 0,0 0,0zm-0.01 -0.01c-0,-0 -0,-0 -0,-0 0,0 0,0 0,0zm-0 -0.01c-0,-0 -0,-0 -0,-0 0,0 0,0 0,0zm-0.01 -0.01c-0,-0 -0,-0 -0,-0.01 0,0 0,0 0,0.01zm-0 -0.01c-0.03,-0.05 -0.06,-0.1 -0.09,-0.15 0.03,0.05 0.06,0.1 0.09,0.15zm-0.09 -0.15c-0,-0 -0,-0 -0,-0.01 0,0 0,0 0,0.01zm-0.01 -0.01c-0,-0 -0,-0 -0,-0.01 0,0 0,0 0,0.01zm-0.01 -0.01c-0,-0 -0,-0 -0,-0.01 0,0 0,0 0,0.01zm-0 -0.01c-0,-0 -0,-0 -0,-0 0,0 0,0 0,0z"/>
    <path class="fil24" d="M79.86 40.92c0,0 -0.13,-3.41 -0.23,-3.68 -0.1,-0.27 -1.29,-2.58 -1.63,-2.87 -0.34,-0.29 0.05,-1.85 0,-2.29 -0.05,-0.44 -0.32,-2.14 -1.14,-3.36 -0.91,2.47 -2.22,4.63 -2.73,4.63 -0.01,0 -0.02,-0 -0.02,-0 -0.29,-0.04 -1.15,-1.39 -2.06,-2.99 -1.74,-3.09 -2.18,-4.19 -2.96,-5.36 0.02,0.58 -1.58,5.5 -2.19,5.53 -0,0 -0,0 -0.01,0 -0.61,0 -1.41,-3.56 -2.19,-6.04 -0.77,-2.46 -2.7,-6.32 -3.04,-6.32 -0,0 -0.01,0 -0.01,0 -0.32,0.07 -3.36,2.08 -3.36,2.08 0,0 -3.04,-2.01 -3.36,-2.08 -0,0 -0.01,0 -0.01,0 -0.35,0 -2.27,3.85 -3.05,6.32 -0.78,2.48 -1.58,6.04 -2.19,6.04 -0,0 -0,0 -0.01,0 -0.61,-0.02 -2.22,-4.94 -2.19,-5.53 -0.78,1.17 -1.22,2.27 -2.96,5.36 -0.9,1.6 -1.76,2.95 -2.06,2.99 -0.01,0 -0.02,0 -0.02,0 -0.5,0 -1.82,-2.16 -2.73,-4.63 -0.83,1.22 -1.1,2.92 -1.15,3.36 -0.05,0.44 0.34,2 0,2.29 -0.34,0.29 -1.53,2.61 -1.63,2.87 -0.1,0.27 -0.23,3.68 -0.23,3.68 -0.01,-0.01 -2.52,-2.34 -2.76,-2.67 -0.25,-0.33 -2.88,-9.25 -2.83,-15.77 0.05,-6.53 2.63,-12.57 5.85,-15.44 3.21,-2.87 11.74,-6.72 13.98,-6.96 0.41,-0.04 0.83,-0.07 1.27,-0.07 1.97,0 4.18,0.48 6.07,1.67 1.89,-1.2 4.1,-1.67 6.07,-1.67 0.44,0 0.86,0.02 1.27,0.07 2.24,0.24 10.77,4.09 13.98,6.96 3.21,2.87 5.8,8.91 5.84,15.44 0.05,6.53 -2.58,15.44 -2.83,15.77 -0.25,0.33 -2.7,2.61 -2.76,2.67 -0,0 -0,0 -0,0zm3.42 -28.56c-6.75,1.63 -14.06,3.31 -17.7,4.38 0,0 5.05,0.52 12,0.52 2.25,0 4.71,-0.05 7.25,-0.2 -0.37,-1.68 -0.9,-3.27 -1.54,-4.69zm-49.99 0c-0.64,1.43 -1.17,3.01 -1.54,4.69 2.54,0.14 5,0.2 7.25,0.2 6.94,0 12,-0.52 12,-0.52 -3.64,-1.07 -10.95,-2.74 -17.7,-4.38z"/>
    <path class="fil25" d="M77.58 17.25c-6.94,0 -12,-0.52 -12,-0.52 3.64,-1.07 10.95,-2.74 17.7,-4.38 0.64,1.43 1.17,3.01 1.54,4.69 -2.54,0.14 -5,0.2 -7.25,0.2zm-38.57 0c-2.25,0 -4.71,-0.05 -7.25,-0.2 0.37,-1.68 0.9,-3.27 1.54,-4.69 6.76,1.63 14.06,3.31 17.7,4.38 0,0 -5.05,0.52 -12,0.52z"/>
   </g>
   <path class="fil26" d="M54.76 59.31c-0.16,0.04 -0.83,0.48 -0.87,0.58 -0.04,0.1 1.18,0.46 2.94,0.41 5.94,-0.19 9.64,-1.81 10.33,-2.17 0.68,-0.36 0.39,-0.71 0.25,-0.77 -0.15,-0.06 -1.17,-0.16 -1.47,-0.07 -0.31,0.09 -0.47,0.87 -1,1.08 -0.54,0.2 -3.87,1.38 -8.03,1.69 -0.94,0.07 -2.11,-0.25 -2.07,-0.36 0.04,-0.12 0.08,-0.42 -0.07,-0.38z"/>
   <path class="fil27" d="M59.09 53.79c1.39,0 2.5,-1.25 2.6,-1.88 -0.43,0.18 -1.68,0.72 -2.6,0.72 -0.92,0 -2.17,-0.53 -2.6,-0.72 0.1,0.63 1.21,1.88 2.6,1.88z"/>
  </g>
 </g>
</svg>
