<svg xmlns="http://www.w3.org/2000/svg" xmlns:xlink="http://www.w3.org/1999/xlink" width="1212.84" height="473.85" viewBox="0 0 1212.84 473.85"><defs><style>.cls-1,.cls-2{fill:none;}.cls-2{clip-rule:evenodd;}.cls-3{isolation:isolate;}.cls-4{clip-path:url(#clip-path);}.cls-5{clip-path:url(#clip-path-2);}.cls-6,.cls-7{fill:#57578d;}.cls-10,.cls-100,.cls-101,.cls-102,.cls-103,.cls-104,.cls-105,.cls-106,.cls-107,.cls-108,.cls-109,.cls-11,.cls-110,.cls-111,.cls-112,.cls-113,.cls-114,.cls-115,.cls-116,.cls-117,.cls-118,.cls-119,.cls-12,.cls-120,.cls-121,.cls-122,.cls-123,.cls-124,.cls-125,.cls-126,.cls-127,.cls-128,.cls-129,.cls-13,.cls-130,.cls-131,.cls-132,.cls-133,.cls-134,.cls-135,.cls-136,.cls-137,.cls-138,.cls-139,.cls-14,.cls-140,.cls-141,.cls-142,.cls-143,.cls-144,.cls-145,.cls-146,.cls-147,.cls-148,.cls-149,.cls-15,.cls-150,.cls-151,.cls-152,.cls-153,.cls-155,.cls-156,.cls-158,.cls-16,.cls-160,.cls-161,.cls-162,.cls-163,.cls-164,.cls-165,.cls-166,.cls-169,.cls-17,.cls-170,.cls-171,.cls-172,.cls-173,.cls-174,.cls-175,.cls-176,.cls-177,.cls-178,.cls-179,.cls-18,.cls-180,.cls-181,.cls-182,.cls-183,.cls-184,.cls-185,.cls-186,.cls-187,.cls-188,.cls-189,.cls-19,.cls-190,.cls-191,.cls-192,.cls-193,.cls-194,.cls-195,.cls-196,.cls-197,.cls-198,.cls-199,.cls-20,.cls-200,.cls-201,.cls-202,.cls-203,.cls-204,.cls-205,.cls-206,.cls-21,.cls-22,.cls-23,.cls-24,.cls-25,.cls-26,.cls-27,.cls-28,.cls-29,.cls-30,.cls-31,.cls-32,.cls-33,.cls-34,.cls-35,.cls-36,.cls-37,.cls-38,.cls-39,.cls-40,.cls-41,.cls-42,.cls-43,.cls-57,.cls-60,.cls-62,.cls-63,.cls-64,.cls-66,.cls-67,.cls-68,.cls-7,.cls-70,.cls-71,.cls-72,.cls-74,.cls-75,.cls-76,.cls-77,.cls-78,.cls-79,.cls-8,.cls-80,.cls-81,.cls-82,.cls-83,.cls-84,.cls-85,.cls-86,.cls-87,.cls-88,.cls-89,.cls-9,.cls-90,.cls-91,.cls-92,.cls-93,.cls-94,.cls-95,.cls-96,.cls-97,.cls-98,.cls-99{fill-rule:evenodd;}.cls-8{fill:#57588e;}.cls-9{fill:#57588f;}.cls-10{fill:#585990;}.cls-11{fill:#585a91;}.cls-12{fill:#585b92;}.cls-13{fill:#585b93;}.cls-14{fill:#585c94;}.cls-15{fill:#595d95;}.cls-16{fill:#595e96;}.cls-17{fill:#595e97;}.cls-18{fill:#595f98;}.cls-19{fill:#5a6099;}.cls-20{fill:#5a619a;}.cls-21{fill:#5a619b;}.cls-22{fill:#5a629c;}.cls-23{fill:#5a639d;}.cls-24{fill:#5b649e;}.cls-25{fill:#5b649f;}.cls-26{fill:#5b65a0;}.cls-27{fill:#5b66a1;}.cls-28{fill:#5b66a2;}.cls-29{fill:#5c67a3;}.cls-30{fill:#5c68a4;}.cls-31{fill:#5c69a5;}.cls-32{fill:#5c69a6;}.cls-33{fill:#5d6aa7;}.cls-34{fill:#5d6ba8;}.cls-35{fill:#5d6ca9;}.cls-36{fill:#5d6caa;}.cls-37{fill:#5d6dab;}.cls-38{fill:#5e6ead;}.cls-39{fill:#5e6fae;}.cls-40{fill:#5e6faf;}.cls-41{fill:#5e70b0;}.cls-42{fill:#5e71b1;}.cls-43{fill:#5f72b2;}.cls-44{fill:#5f72b3;}.cls-45{fill:#5f73b4;}.cls-46{fill:#5f74b5;}.cls-47{fill:#6075b6;}.cls-48{fill:#6075b7;}.cls-49{fill:#6076b8;}.cls-50{fill:#6077b9;}.cls-51{fill:#6077ba;}.cls-52{fill:#6178bb;}.cls-53{fill:#6179bc;}.cls-54{fill:#617abd;}.cls-55{fill:#617abe;}.cls-56{fill:#617bbf;}.cls-57{fill:#627cc0;}.cls-58{fill:#627dc1;}.cls-59{fill:#627dc2;}.cls-60{fill:#627ec3;}.cls-61{fill:#637fc4;}.cls-62{fill:#6380c5;}.cls-63{fill:#6380c6;}.cls-64{fill:#6381c7;}.cls-65{fill:#6382c8;}.cls-66{fill:#6483c9;}.cls-67{fill:#6483ca;}.cls-68{fill:#6484cb;}.cls-164,.cls-69,.cls-70{fill:#4c4580;}.cls-70{opacity:0.5;}.cls-71{fill:url(#Áåçûìÿííûé_ãðàäèåíò_99);}.cls-72{fill:url(#Áåçûìÿííûé_ãðàäèåíò_88);}.cls-73{clip-path:url(#clip-path-3);}.cls-74{fill:#58598f;}.cls-75{fill:#585a90;}.cls-76{fill:#595a91;}.cls-77{fill:#595b92;}.cls-78{fill:#595c93;}.cls-79{fill:#5a5d94;}.cls-80{fill:#5a5e95;}.cls-81{fill:#5b5f96;}.cls-82{fill:#5b6097;}.cls-83{fill:#5c6098;}.cls-84{fill:#5c6199;}.cls-85{fill:#5c629a;}.cls-86{fill:#5d639b;}.cls-87{fill:#5d649c;}.cls-88{fill:#5e659d;}.cls-89{fill:#5e669e;}.cls-90{fill:#5e669f;}.cls-91{fill:#5f67a0;}.cls-92{fill:#5f68a1;}.cls-93{fill:#6069a2;}.cls-94{fill:#606aa3;}.cls-95{fill:#606ba4;}.cls-96{fill:#616ca5;}.cls-97{fill:#616ca6;}.cls-98{fill:#626da7;}.cls-99{fill:#626ea8;}.cls-100{fill:#636fa9;}.cls-101{fill:#6370aa;}.cls-102{fill:#6371ab;}.cls-103{fill:#6472ac;}.cls-104{fill:#6472ad;}.cls-105{fill:#6573ae;}.cls-106{fill:#6574af;}.cls-107{fill:#6575b0;}.cls-108{fill:#6676b1;}.cls-109{fill:#6677b2;}.cls-110{fill:#6778b3;}.cls-111{fill:#6778b4;}.cls-112{fill:#6779b5;}.cls-113{fill:#687ab6;}.cls-114{fill:#687bb7;}.cls-115{fill:#697cb8;}.cls-116{fill:#697db9;}.cls-117{fill:#6a7ebb;}.cls-118{fill:#6a7ebc;}.cls-119{fill:#6a7fbd;}.cls-120{fill:#6b80be;}.cls-121{fill:#6b81bf;}.cls-122{fill:#6c82c0;}.cls-123{fill:#6c83c1;}.cls-124{fill:#6c83c2;}.cls-125{fill:#6d84c3;}.cls-126{fill:#6d85c4;}.cls-127{fill:#6e86c5;}.cls-128{fill:#6e87c6;}.cls-129{fill:#6e88c7;}.cls-130{fill:#6f89c8;}.cls-131{fill:#6f89c9;}.cls-132{fill:#708aca;}.cls-133{fill:#708bcb;}.cls-134{fill:#708ccc;}.cls-135{fill:#718dcd;}.cls-136{fill:#718ece;}.cls-137{fill:#728fcf;}.cls-138{fill:#728fd0;}.cls-139{fill:#7390d1;}.cls-140{fill:#7391d2;}.cls-141{fill:#7392d3;}.cls-142{fill:#7493d4;}.cls-143{fill:#7494d5;}.cls-144{fill:#7595d6;}.cls-145{fill:#7595d7;}.cls-146{fill:#7596d8;}.cls-147{fill:#7697d9;}.cls-148{fill:#7698da;}.cls-149{fill:#7799db;}.cls-150{fill:#779adc;}.cls-151{fill:#779bdd;}.cls-152{fill:#789bde;}.cls-153{fill:#789cdf;}.cls-154{fill:#799de0;}.cls-155{fill:#799ee1;}.cls-156{fill:#7a9fe2;}.cls-157{fill:#7aa0e3;}.cls-158{fill:#7aa1e4;}.cls-159{fill:#7ba1e5;}.cls-160{fill:#7ba2e6;}.cls-161{fill:#7ca3e7;}.cls-162{fill:#7ca4e8;}.cls-163{fill:url(#Áåçûìÿííûé_ãðàäèåíò_137);}.cls-165{fill:#615b92;}.cls-166{fill:#6174b0;}.cls-167{fill:#626a9f;}.cls-168{fill:#505994;}.cls-169{fill:#5d578c;}.cls-169,.cls-170{opacity:0.2;}.cls-170{fill:#6d6898;}.cls-171,.cls-189{fill:#301845;}.cls-171{opacity:0.22;}.cls-172{fill:url(#Áåçûìÿííûé_ãðàäèåíò_148);}.cls-173{fill:url(#Áåçûìÿííûé_ãðàäèåíò_148-2);}.cls-174{fill:url(#Áåçûìÿííûé_ãðàäèåíò_148-3);}.cls-175{fill:url(#Áåçûìÿííûé_ãðàäèåíò_148-4);}.cls-176{fill:url(#Áåçûìÿííûé_ãðàäèåíò_170);}.cls-177{fill:url(#Áåçûìÿííûé_ãðàäèåíò_170-2);}.cls-178{fill:url(#Áåçûìÿííûé_ãðàäèåíò_170-3);}.cls-179{fill:url(#Áåçûìÿííûé_ãðàäèåíò_170-4);}.cls-180{fill:#6b70c4;opacity:0.74;}.cls-181{fill:url(#Áåçûìÿííûé_ãðàäèåíò_171);}.cls-182{fill:url(#Áåçûìÿííûé_ãðàäèåíò_183);}.cls-183,.cls-184,.cls-185,.cls-186,.cls-187,.cls-188,.cls-195,.cls-196,.cls-197,.cls-198,.cls-199,.cls-200,.cls-201,.cls-202{mix-blend-mode:screen;}.cls-183{fill:url(#Áåçûìÿííûé_ãðàäèåíò_15);}.cls-184{fill:url(#Áåçûìÿííûé_ãðàäèåíò_15-2);}.cls-185{fill:url(#Áåçûìÿííûé_ãðàäèåíò_15-3);}.cls-186{fill:url(#Áåçûìÿííûé_ãðàäèåíò_15-4);}.cls-187{fill:url(#Áåçûìÿííûé_ãðàäèåíò_15-5);}.cls-188{fill:url(#Áåçûìÿííûé_ãðàäèåíò_15-6);}.cls-189{opacity:0.38;}.cls-190{fill:#907c9f;}.cls-191{fill:url(#Áåçûìÿííûé_ãðàäèåíò_37);}.cls-192{fill:url(#Áåçûìÿííûé_ãðàäèåíò_37-2);}.cls-193{fill:url(#Áåçûìÿííûé_ãðàäèåíò_56);}.cls-194{fill:#fff;}.cls-195,.cls-196,.cls-197,.cls-198{opacity:0.4;}.cls-195{fill:url(#Áåçûìÿííûé_ãðàäèåíò_203);}.cls-196{fill:url(#Áåçûìÿííûé_ãðàäèåíò_203-2);}.cls-197{fill:url(#Áåçûìÿííûé_ãðàäèåíò_203-3);}.cls-198{fill:url(#Áåçûìÿííûé_ãðàäèåíò_203-4);}.cls-199{fill:url(#Áåçûìÿííûé_ãðàäèåíò_15-7);}.cls-200{fill:url(#Áåçûìÿííûé_ãðàäèåíò_15-8);}.cls-201{fill:url(#Áåçûìÿííûé_ãðàäèåíò_15-9);}.cls-202{fill:url(#Áåçûìÿííûé_ãðàäèåíò_15-10);}.cls-203{fill:#b3bae0;}.cls-204{fill:#705683;}.cls-205{fill:#453251;}.cls-206{fill:#2b1a38;}</style><clipPath id="clip-path" transform="translate(7.71 58.01)"><rect class="cls-1" width="1200" height="400"/></clipPath><clipPath id="clip-path-2" transform="translate(7.71 58.01)"><polygon class="cls-2" points="0 15.87 800.96 59.12 967.69 0 0 0 0 15.87"/></clipPath><radialGradient id="Áåçûìÿííûé_ãðàäèåíò_99" cx="281.59" cy="183.88" r="193.1" gradientTransform="matrix(-1, 0, 0, 1, 1287.41, 58.01)" gradientUnits="userSpaceOnUse"><stop offset="0" stop-color="#6484cb"/><stop offset="1" stop-color="#7572a7"/></radialGradient><radialGradient id="Áåçûìÿííûé_ãðàäèåíò_88" cx="879.22" cy="184.05" r="307.14" gradientTransform="matrix(-1, 0, 0, 1, 1287.41, 58.01)" gradientUnits="userSpaceOnUse"><stop offset="0" stop-color="#b0cfff"/><stop offset="1" stop-color="#8c8cce"/></radialGradient><clipPath id="clip-path-3" transform="translate(7.71 58.01)"><polygon class="cls-2" points="0 352.24 796.21 351.44 1200 359.86 1200 400 0 400 0 352.24"/></clipPath><radialGradient id="Áåçûìÿííûé_ãðàäèåíò_137" cx="873.51" cy="42.94" r="288.82" gradientTransform="matrix(-1, 0, 0, 1, 1287.41, 58.01)" gradientUnits="userSpaceOnUse"><stop offset="0" stop-color="#96b6ed"/><stop offset="1" stop-color="#7380bf"/></radialGradient><radialGradient id="Áåçûìÿííûé_ãðàäèåíò_148" cx="305.44" cy="89.52" r="35.79" gradientUnits="userSpaceOnUse"><stop offset="0" stop-color="#dbeae3"/><stop offset="1" stop-color="#a2dfff"/></radialGradient><radialGradient id="Áåçûìÿííûé_ãðàäèåíò_148-2" cx="408.2" cy="97.81" r="35.79" xlink:href="#Áåçûìÿííûé_ãðàäèåíò_148"/><radialGradient id="Áåçûìÿííûé_ãðàäèåíò_148-3" cx="509.41" cy="105.58" r="35.86" xlink:href="#Áåçûìÿííûé_ãðàäèåíò_148"/><radialGradient id="Áåçûìÿííûé_ãðàäèåíò_148-4" cx="609.23" cy="113.05" r="35.79" xlink:href="#Áåçûìÿííûé_ãðàäèåíò_148"/><radialGradient id="Áåçûìÿííûé_ãðàäèåíò_170" cx="609.23" cy="116.35" r="35.31" gradientUnits="userSpaceOnUse"><stop offset="0.01" stop-color="#95bcf2"/><stop offset="1" stop-color="#77b4ff"/></radialGradient><radialGradient id="Áåçûìÿííûé_ãðàäèåíò_170-2" cx="509.41" cy="108.88" r="35.36" xlink:href="#Áåçûìÿííûé_ãðàäèåíò_170"/><radialGradient id="Áåçûìÿííûé_ãðàäèåíò_170-3" cx="408.2" cy="101.06" r="35.31" xlink:href="#Áåçûìÿííûé_ãðàäèåíò_170"/><radialGradient id="Áåçûìÿííûé_ãðàäèåíò_170-4" cx="305.44" cy="92.76" r="35.32" xlink:href="#Áåçûìÿííûé_ãðàäèåíò_170"/><radialGradient id="Áåçûìÿííûé_ãðàäèåíò_171" cx="409.43" cy="403.4" r="284.1" gradientTransform="matrix(1, 0, 0, 1, 0, 0)" xlink:href="#Áåçûìÿííûé_ãðàäèåíò_137"/><radialGradient id="Áåçûìÿííûé_ãðàäèåíò_183" cx="1002.52" cy="409.98" r="145.2" gradientUnits="userSpaceOnUse"><stop offset="0" stop-color="#505988"/><stop offset="1" stop-color="#57578d"/></radialGradient><radialGradient id="Áåçûìÿííûé_ãðàäèåíò_15" cx="293.5" cy="120.17" r="45.83" gradientTransform="matrix(0.01, -0.76, 1.49, 0.02, 313.72, 269.93)" gradientUnits="userSpaceOnUse"><stop offset="0" stop-color="#003b8e"/><stop offset="1"/></radialGradient><radialGradient id="Áåçûìÿííûé_ãðàäèåíò_15-2" cx="292.87" cy="145.74" r="20.09" gradientTransform="matrix(0.01, -0.76, 2.7, 0.03, 99.16, 266.71)" xlink:href="#Áåçûìÿííûé_ãðàäèåíò_15"/><radialGradient id="Áåçûìÿííûé_ãðàäèåíò_15-3" cx="289.67" cy="186.29" r="45.83" xlink:href="#Áåçûìÿííûé_ãðàäèåíò_15"/><radialGradient id="Áåçûìÿííûé_ãðàäèåíò_15-4" cx="289.04" cy="182.23" r="20.09" gradientTransform="matrix(0.01, -0.76, 2.7, 0.03, 99.16, 266.71)" xlink:href="#Áåçûìÿííûé_ãðàäèåíò_15"/><radialGradient id="Áåçûìÿííûé_ãðàäèåíò_15-5" cx="306.74" cy="53.99" r="45.83" xlink:href="#Áåçûìÿííûé_ãðàäèåíò_15"/><radialGradient id="Áåçûìÿííûé_ãðàäèåíò_15-6" cx="306.12" cy="109.21" r="20.09" gradientTransform="matrix(0.01, -0.76, 2.7, 0.03, 99.16, 266.71)" xlink:href="#Áåçûìÿííûé_ãðàäèåíò_15"/><radialGradient id="Áåçûìÿííûé_ãðàäèåíò_37" cx="730.96" cy="8.16" r="10.71" gradientUnits="userSpaceOnUse"><stop offset="0.01" stop-color="#c5c5df"/><stop offset="1" stop-color="#9d93c7"/></radialGradient><radialGradient id="Áåçûìÿííûé_ãðàäèåíò_37-2" cx="734.18" cy="17.65" r="35.67" gradientTransform="translate(-220.53) scale(1.3 1)" xlink:href="#Áåçûìÿííûé_ãðàäèåíò_37"/><radialGradient id="Áåçûìÿííûé_ãðàäèåíò_56" cx="734.18" cy="26.35" r="35.6" gradientTransform="translate(-220.53) scale(1.3 1)" gradientUnits="userSpaceOnUse"><stop offset="0" stop-color="#dbeae3"/><stop offset="1" stop-color="#d3c5e8"/></radialGradient><linearGradient id="Áåçûìÿííûé_ãðàäèåíò_203" x1="873.63" y1="458.01" x2="873.63" y2="415.4" gradientUnits="userSpaceOnUse"><stop offset="0"/><stop offset="0.34" stop-color="#2c3b55"/><stop offset="1" stop-color="#84b1ff"/></linearGradient><linearGradient id="Áåçûìÿííûé_ãðàäèåíò_203-2" x1="1006.7" y1="458.01" x2="1006.7" y2="417.61" xlink:href="#Áåçûìÿííûé_ãðàäèåíò_203"/><linearGradient id="Áåçûìÿííûé_ãðàäèåíò_203-3" x1="158.21" y1="456.14" x2="158.21" y2="417.52" xlink:href="#Áåçûìÿííûé_ãðàäèåíò_203"/><linearGradient id="Áåçûìÿííûé_ãðàäèåíò_203-4" x1="1119.18" y1="458.29" x2="1119.18" y2="419.66" xlink:href="#Áåçûìÿííûé_ãðàäèåíò_203"/><radialGradient id="Áåçûìÿííûé_ãðàäèåíò_15-7" cx="319.56" cy="279" r="56.07" gradientTransform="matrix(0.01, -0.95, 2.31, 0.03, 84.23, 330.52)" xlink:href="#Áåçûìÿííûé_ãðàäèåíò_15"/><radialGradient id="Áåçûìÿííûé_ãðàäèåíò_15-8" cx="319.48" cy="233.26" r="24.58" gradientTransform="matrix(0.01, -0.95, 4.19, 0.05, -247.71, 326.18)" xlink:href="#Áåçûìÿííûé_ãðàäèåíò_15"/><radialGradient id="Áåçûìÿííûé_ãðàäèåíò_15-9" cx="-71.25" cy="274.85" r="56.07" gradientTransform="matrix(0.01, -0.42, 1.56, 0.02, 290.08, 356.66)" xlink:href="#Áåçûìÿííûé_ãðàäèåíò_15"/><radialGradient id="Áåçûìÿííûé_ãðàäèåíò_15-10" cx="-70.85" cy="230.9" r="24.58" gradientTransform="matrix(0.01, -0.42, 2.83, 0.04, 66.1, 353.94)" xlink:href="#Áåçûìÿííûé_ãðàäèåíò_15"/></defs><g class="cls-3"><g id="layer1"><g class="cls-4"><g class="cls-5"><rect class="cls-6" x="7.71" y="58.01" width="967.69" height="59.12"/><path class="cls-7" d="M336.78,60.12H696.23v2c6.26-2.14,12-4.33,17.12-6.56,20.54-8.92,31.81-18.48,31.59-28.25S733.06,8.44,712.15.43c-5.23-2-11-3.95-17.39-5.82V-1H44.44V-7.55C26-3.94,9.28-.07-5.36,4H-1v56.1Z" transform="translate(7.71 58.01)"/><path class="cls-8" d="M336.75,60.12H690.41v1.55q9.24-3.16,16.84-6.45c20.21-8.78,31.29-18.19,31.08-27.8S726.65,8.89,706.07,1Q698.34-2,689-4.72V-1H49.13V-6.84C31-3.29,14.54.52.13,4.54c-1.8.5-3.57,1-5.3,1.51H-1V60.12Z" transform="translate(7.71 58.01)"/><path class="cls-9" d="M336.73,60.12H684.58v1.14c6.06-2.08,11.6-4.2,16.57-6.36C721,46.27,731.93,37,731.73,27.56S720.23,9.34,700,1.58Q692.4-1.33,683.16-4V-1H53.82V-6.14C36-2.65,19.8,1.1,5.63,5.06c-3.55,1-7,2-10.26,3H-1V60.12Z" transform="translate(7.71 58.01)"/><path class="cls-10" d="M336.7,60.12H659.35v6.7a279.79,279.79,0,0,0,35.7-12.23C714.6,46.1,725.32,37,725.12,27.71S713.81,9.78,693.91,2.16Q686.44-.7,677.36-3.37V-1H58.51V-5.43C40.94-2,25.06,1.69,11.12,5.58c-3.48,1-6.85,2-10.08,2.95q-2.43.75-4.76,1.5H-1V60.12Z" transform="translate(7.71 58.01)"/><path class="cls-11" d="M336.68,60.12H653.86V66.3a277.14,277.14,0,0,0,35.09-12c19.22-8.34,29.76-17.29,29.56-26.43S707.4,10.23,687.83,2.73A276.85,276.85,0,0,0,652.25-7.75V-1H63.2V-4.72c-17.27,3.37-32.89,7-46.59,10.81Q6.34,9-2.47,12H-1V60.12Z" transform="translate(7.71 58.01)"/><path class="cls-12" d="M336.65,60.12H648.37v5.66A271.34,271.34,0,0,0,682.85,54c18.89-8.2,29.25-17,29-26S701,10.68,681.75,3.31a270.69,270.69,0,0,0-35-10.3v6H67.89V-4C50.92-.7,35.57,2.86,22.11,6.61Q12,9.43,3.36,12.39c-2.88,1-5.64,2-8.26,3H-1V60.12Z" transform="translate(7.71 58.01)"/><path class="cls-13" d="M336.63,60.12H642.87v5.14a266.76,266.76,0,0,0,33.88-11.6C695.31,45.6,705.49,37,705.29,28.14s-10.73-17-29.62-24.25A266.42,266.42,0,0,0,641.32-6.23V-1H72.58V-3.31c-33.36,6.51-60.3,14-78.86,22H-1V60.12Z" transform="translate(7.71 58.01)"/><path class="cls-14" d="M336.6,60.12H637.38v4.62a260.58,260.58,0,0,0,33.28-11.4c18.22-7.91,28.21-16.39,28-25.06s-10.54-16.7-29.1-23.82a261.5,261.5,0,0,0-33.74-9.93V-1H77.27V-2.61C44.51,3.79,18,11.13-.18,19.05c-2.28,1-4.43,2-6.45,3H-1V60.12Z" transform="translate(7.71 58.01)"/><path class="cls-15" d="M336.58,60.12H631.89v4.1A256.35,256.35,0,0,0,664.56,53c17.89-7.77,27.7-16.09,27.52-24.6S681.73,12,663.51,5a256.94,256.94,0,0,0-33.13-9.75V-1H82v-.9C49.8,4.38,23.81,11.59,5.92,19.36A112.3,112.3,0,0,0-6,25.28h5V60.12Z" transform="translate(7.71 58.01)"/><path class="cls-16" d="M336.55,60.12H626.39V63.7a251.78,251.78,0,0,0,32.07-11c17.56-7.62,27.19-15.8,27-24.15s-10.16-16.1-28-22.95A252.07,252.07,0,0,0,624.92-4v3H86.65v-.2C55.08,5,29.58,12.05,12,19.67A110.76,110.76,0,0,0,.36,25.49q-2.53,1.47-4.66,3H-1v27.4H-7.62C-2.86,59.7,4.1,63.35,13,66.77V60.12Z" transform="translate(7.71 58.01)"/><path class="cls-17" d="M336.53,60.12H620.9v3.06a246.53,246.53,0,0,0,31.46-10.77c17.23-7.48,26.68-15.5,26.5-23.7s-10-15.79-27.51-22.52a247.63,247.63,0,0,0-31.9-9.39V-1H115.66V-4.85Q103-2.76,91.34-.49c-31,6.05-56,13-73.23,20.47C9.5,23.72,2.83,27.6-1.67,31.56H-1V55.49h-.15c4.67,3.76,11.5,7.34,20.27,10.71V60.12Z" transform="translate(7.71 58.01)"/><path class="cls-18" d="M336.5,60.12H615.4v2.54A242,242,0,0,0,646.26,52.1c16.9-7.34,26.17-15.2,26-23.24s-9.77-15.49-27-22.09A242,242,0,0,0,614-2.44V-1H145.76V-8C127.87-5.5,111.22-2.75,96,.21,35.27,12.08-2.13,27.46-1.78,43.53c.18,8,9.77,15.5,27,22.09v-5.5Z" transform="translate(7.71 58.01)"/><path class="cls-19" d="M336.48,60.12H609.91v2a239.2,239.2,0,0,0,30.25-10.36c16.57-7.2,25.66-14.91,25.48-22.79S656.06,13.81,639.2,7.35a237.4,237.4,0,0,0-30.68-9V-1h-459V-7.12C131.94-4.68,115.62-2,100.72.92,41.16,12.55,4.49,27.63,4.83,43.39,5,51.27,14.41,58.58,31.28,65V60.12Z" transform="translate(7.71 58.01)"/><path class="cls-20" d="M336.45,60.12h268v1.51a231.72,231.72,0,0,0,29.64-10.16c16.24-7,25.14-14.6,25-22.32s-9.39-14.89-25.92-21.22A234.13,234.13,0,0,0,603.06-.93q-8.79-2-18.74-3.9V-1H153.19V-6.25C136-3.86,120-1.22,105.41,1.63,47,13,11.1,27.8,11.44,43.25,11.6,51,20.83,58.13,37.36,64.47V60.12Z" transform="translate(7.71 58.01)"/><path class="cls-21" d="M336.43,60.12H598.92v1a230,230,0,0,0,29.05-10c15.9-6.9,24.62-14.3,24.46-21.87C652.1,14.16,616.3,1.23,558.68-7.44V-1H156.9V-5.38C140.07-3,124.4-.46,110.1,2.33,52.92,13.5,17.72,28,18,43.1c.17,7.57,9.2,14.58,25.4,20.79V60.12Z" transform="translate(7.71 58.01)"/><path class="cls-22" d="M336.4,60.12h257v.47a224.21,224.21,0,0,0,28.44-9.74c15.57-6.76,24.11-14,24-21.42C645.5,14.62,610.44,2,554-6.53V-1H160.62V-4.52C144.14-2.23,128.79.3,114.79,3,58.8,14,24.33,28.14,24.65,43c.16,7.41,9,14.27,24.86,20.35V60.12Z" transform="translate(7.71 58.01)"/><path class="cls-23" d="M336.38,60.12H570.53v4.37q9.24-2.14,17.41-4.42a218.41,218.41,0,0,0,27.83-9.53c15.24-6.62,23.6-13.71,23.44-21-.31-14.5-34.62-26.89-89.84-35.2V-1h-385V-3.65c-16.13,2.24-31.14,4.72-44.85,7.39C64.68,14.44,31,28.31,31.26,42.81c.16,7.25,8.82,14,24.33,19.93V60.12Z" transform="translate(7.71 58.01)"/><path class="cls-24" d="M336.36,60.12h229v3.76c6-1.4,11.72-2.85,17-4.33a216,216,0,0,0,27.23-9.32c14.91-6.48,23.09-13.42,22.93-20.51-.3-14.19-33.87-26.3-87.88-34.43V-1H168.05V-2.78c-15.78,2.19-30.47,4.61-43.87,7.23-53.62,10.47-86.62,24-86.31,38.22.15,7.09,8.62,13.67,23.8,19.49v-2Z" transform="translate(7.71 58.01)"/><path class="cls-25" d="M336.33,60.12h224v3.14Q569.14,61.21,577,59a208.48,208.48,0,0,0,26.62-9.12c14.58-6.32,22.58-13.11,22.43-20C625.69,16,592.88,4.14,540.06-3.8V-1h-319V-7.62c-34.73,3.29-66,7.65-92.18,12.77C76.45,15.39,44.18,28.66,44.48,42.53c.15,6.93,8.43,13.36,23.27,19V60.12Z" transform="translate(7.71 58.01)"/><path class="cls-26" d="M336.31,60.12H536.92v6.41c51.23-10,82.76-23,82.47-36.52S587,4.87,535.41-2.89V-1H223.65V-6.63C189.71-3.4,159.17.86,133.56,5.86c-51.23,10-82.77,23-82.47,36.52.14,6.78,8.23,13.06,22.74,18.62v-.88Z" transform="translate(7.71 58.01)"/><path class="cls-27" d="M336.28,60.12h196v5.71c50-9.77,80.84-22.44,80.55-35.68S581.17,5.6,530.75-2v1H226.24V-5.63c-33.15,3.15-63,7.31-88,12.19C88.21,16.33,57.41,29,57.69,42.24c.15,6.62,8,12.76,22.22,18.19v-.31Z" transform="translate(7.71 58.01)"/><path class="cls-28" d="M336.26,60.12H527.54v5c48.84-9.54,78.91-21.9,78.63-34.82s-30.86-24-80.07-31.37V-1H228.84V-4.64c-32.37,3.08-61.48,7.14-85.9,11.91C94.09,16.81,64,29.17,64.3,42.09c.14,6.47,7.86,12.46,21.69,17.76q5.19,2,11.5,3.84V60.12Z" transform="translate(7.71 58.01)"/><path class="cls-29" d="M336.23,60.12H522.85v4.3c47.65-9.31,77-21.37,76.71-34S569.45,7.06,521.44-.16C509.44-2,496.3-3.55,482.2-4.89V-1H231.43V-3.64c-31.57,3-60,7-83.8,11.61-47.66,9.31-77,21.37-76.72,34,.14,6.31,7.66,12.15,21.16,17.32a189.46,189.46,0,0,0,24.54,7.23V60.12Z" transform="translate(7.71 58.01)"/><path class="cls-30" d="M336.21,60.12h182v3.59c46.46-9.07,75.06-20.83,74.79-33.13S563.6,7.79,516.79.74C493.38-2.78,465.54-5.43,434.66-7v6H234V-2.65C203.24.28,175.55,4.14,152.32,8.68c-46.47,9.07-75.07,20.83-74.8,33.13C77.65,48,85,53.65,98.15,58.7a184.82,184.82,0,0,0,23.92,7V60.12Z" transform="translate(7.71 58.01)"/><path class="cls-31" d="M336.18,60.12H513.47V63c45.27-8.84,73.14-20.3,72.88-32.28S557.74,8.52,512.13,1.65c-22.81-3.43-49.93-6-80-7.56V-1H334.29V-7.19C195.61-4.17,83.6,17.7,84.13,41.66c.13,6,7.28,11.55,20.1,16.46A179.79,179.79,0,0,0,127.54,65V60.12Z" transform="translate(7.71 58.01)"/><path class="cls-32" d="M336.16,60.12H508.78V62.3c44.08-8.61,71.21-19.76,71-31.43S551.89,9.24,507.48,2.56,401.83-7.51,334.32-6C199.28-3.1,90.23,18.19,90.73,41.52c.13,5.83,7.09,11.24,19.58,16A176.7,176.7,0,0,0,133,64.23V60.12Z" transform="translate(7.71 58.01)"/><path class="cls-33" d="M336.13,60.12h168v1.47c42.88-8.37,69.29-19.22,69-30.57C572.64,8.32,465.73-7.76,334.34-4.9S96.85,18.68,97.34,41.38c.13,5.67,6.9,10.93,19,15.59a172.08,172.08,0,0,0,22.08,6.5V60.12Z" transform="translate(7.71 58.01)"/><path class="cls-34" d="M336.11,60.12H499.4v.77c41.69-8.14,67.36-18.7,67.12-29.73C566,9.09,462.1-6.54,334.37-3.76S103.47,19.16,104,41.23c.12,5.52,6.71,10.63,18.52,15.16a165.92,165.92,0,0,0,21.47,6.32V60.12Z" transform="translate(7.71 58.01)"/><path class="cls-35" d="M336.08,60.12H494.71v.06c40.5-7.91,65.44-18.16,65.2-28.88C559.45,9.87,458.48-5.32,334.39-2.62S110.09,19.65,110.56,41.09c.23,10.72,25.59,19.87,66.4,26v-7Z" transform="translate(7.71 58.01)"/><path class="cls-36" d="M336.06,60.12H457.84v4.66c11.57-1.61,22.35-3.38,32.17-5.3,39.32-7.68,63.52-17.63,63.3-28C552.85,10.64,454.85-4.1,334.42-1.48S116.71,20.14,117.17,40.94c.22,10.41,24.84,19.29,64.45,25.25V60.12Z" transform="translate(7.71 58.01)"/><path class="cls-37" d="M336,60.12h118.1v3.79c11.22-1.55,21.66-3.28,31.19-5.14,38.13-7.44,61.6-17.09,61.38-27.18C546.26,11.42,451.23-2.88,334.44-.34s-211.1,21-210.66,41.14c.21,10.09,24.08,18.71,62.49,24.48V60.12Z" transform="translate(7.71 58.01)"/><path class="cls-38" d="M336,60.12h79.67v6.95c24.47-2.33,46.49-5.4,64.95-9,36.94-7.21,59.67-16.56,59.46-26.33C539.66,12.19,447.6-1.66,334.47.81S130,21.11,130.38,40.66c.22,9.77,23.34,18.12,60.55,23.71V60.12Z" transform="translate(7.71 58.01)"/><path class="cls-39" d="M336,60.12h77.11v5.95c23.68-2.25,45-5.22,62.85-8.71,35.74-7,57.75-16,57.54-25.48C533.07,13,444-.44,334.49,2S136.58,21.6,137,40.51c.21,9.46,22.58,17.54,58.59,23V60.12Z" transform="translate(7.71 58.01)"/><path class="cls-40" d="M336,60.12h74.53v5c22.9-2.18,43.49-5,60.76-8.42C505.8,49.91,527.07,41.17,526.87,32,526.48,13.74,440.35.78,334.52,3.09S143.2,22.08,143.6,40.37c.2,9.14,21.83,17,56.64,22.19V60.12Z" transform="translate(7.71 58.01)"/><path class="cls-41" d="M335.93,60.12h72v4c22.1-2.1,42-4.87,58.66-8.13,33.36-6.51,53.9-15,53.71-23.78C519.88,14.51,436.73,2,334.54,4.23s-184.72,18.34-184.33,36c.19,8.83,21.07,16.37,54.68,21.43V60.12Z" transform="translate(7.71 58.01)"/><path class="cls-42" d="M335.91,67C434.45,64.87,514,49.33,513.66,32.31S433.1,3.23,334.57,5.37,156.45,23.06,156.82,40.08c.18,8.51,20.32,15.78,52.73,20.66v-.62H335.91Z" transform="translate(7.71 58.01)"/><path class="cls-43" d="M335.88,65.88c94.89-2.07,171.53-17,171.17-33.43s-77.57-28-172.46-25.94-171.52,17-171.17,33.43c.18,8.19,19.57,15.19,50.78,19.89S288.44,66.91,335.88,65.88Z" transform="translate(7.71 58.01)"/><ellipse class="cls-44" cx="335.24" cy="36.2" rx="165.24" ry="28.55" transform="translate(7 65.31) rotate(-1.25)"/><ellipse class="cls-45" cx="335.24" cy="36.2" rx="158.63" ry="27.41" transform="translate(7 65.31) rotate(-1.25)"/><ellipse class="cls-46" cx="335.24" cy="36.2" rx="152.02" ry="26.26" transform="translate(7 65.31) rotate(-1.25)"/><ellipse class="cls-47" cx="335.24" cy="36.2" rx="145.41" ry="25.12" transform="translate(7 65.31) rotate(-1.25)"/><ellipse class="cls-48" cx="335.24" cy="36.2" rx="138.8" ry="23.98" transform="translate(7 65.31) rotate(-1.25)"/><ellipse class="cls-49" cx="335.24" cy="36.2" rx="132.19" ry="22.84" transform="translate(7 65.31) rotate(-1.25)"/><ellipse class="cls-50" cx="335.24" cy="36.2" rx="125.58" ry="21.7" transform="translate(7 65.31) rotate(-1.25)"/><ellipse class="cls-51" cx="335.24" cy="36.2" rx="118.98" ry="20.55" transform="translate(7 65.31) rotate(-1.25)"/><ellipse class="cls-52" cx="335.24" cy="36.2" rx="112.37" ry="19.41" transform="translate(7 65.31) rotate(-1.25)"/><ellipse class="cls-53" cx="335.24" cy="36.2" rx="105.76" ry="18.27" transform="translate(7 65.31) rotate(-1.25)"/><ellipse class="cls-54" cx="335.24" cy="36.2" rx="99.15" ry="17.13" transform="translate(7 65.31) rotate(-1.25)"/><ellipse class="cls-55" cx="335.24" cy="36.2" rx="92.54" ry="15.99" transform="translate(7 65.31) rotate(-1.25)"/><ellipse class="cls-56" cx="335.24" cy="36.2" rx="85.93" ry="14.84" transform="translate(7 65.31) rotate(-1.25)"/><path class="cls-57" d="M335.53,49.9c43.8-1,79.17-7.86,79-15.43s-35.8-12.93-79.59-12-79.17,7.86-79,15.42S291.74,50.85,335.53,49.9Z" transform="translate(7.71 58.01)"/><ellipse class="cls-58" cx="335.24" cy="36.2" rx="72.71" ry="12.56" transform="translate(7 65.31) rotate(-1.25)"/><ellipse class="cls-59" cx="335.24" cy="36.2" rx="66.1" ry="11.42" transform="matrix(1, -0.02, 0.02, 1, 7, 65.31)"/><path class="cls-60" d="M335.46,46.47c32.85-.71,59.37-5.89,59.25-11.57s-26.85-9.69-59.7-9-59.37,5.9-59.25,11.57S302.61,47.19,335.46,46.47Z" transform="translate(7.71 58.01)"/><ellipse class="cls-61" cx="335.24" cy="36.2" rx="52.88" ry="9.14" transform="translate(7 65.31) rotate(-1.25)"/><path class="cls-62" d="M335.41,44.19c25.55-.56,46.18-4.59,46.08-9s-20.88-7.54-46.43-7-46.18,4.59-46.08,9S309.86,44.74,335.41,44.19Z" transform="translate(7.71 58.01)"/><path class="cls-63" d="M335.39,43.05c21.89-.48,39.58-3.93,39.5-7.72s-17.91-6.46-39.8-6-39.58,3.93-39.5,7.71S313.49,43.52,335.39,43.05Z" transform="translate(7.71 58.01)"/><path class="cls-64" d="M335.36,41.9c18.25-.39,33-3.27,32.92-6.42s-14.92-5.39-33.17-5-33,3.27-32.91,6.42S317.11,42.3,335.36,41.9Z" transform="translate(7.71 58.01)"/><ellipse class="cls-65" cx="335.24" cy="36.2" rx="26.44" ry="4.57" transform="translate(7 65.31) rotate(-1.25)"/><path class="cls-66" d="M335.31,39.62c10.95-.24,19.79-2,19.75-3.86s-8.95-3.23-19.9-3-19.79,2-19.75,3.86S324.36,39.86,335.31,39.62Z" transform="translate(7.71 58.01)"/><path class="cls-67" d="M335.29,38.48c7.3-.16,13.19-1.31,13.16-2.57s-6-2.16-13.26-2S322,35.22,322,36.48,328,38.64,335.29,38.48Z" transform="translate(7.71 58.01)"/><path class="cls-68" d="M335.26,37.34c3.65-.08,6.6-.66,6.58-1.29s-3-1.08-6.63-1-6.6.66-6.58,1.29S331.61,37.42,335.26,37.34Z" transform="translate(7.71 58.01)"/></g><path class="cls-69" d="M813.66,54.89h0L96.19.25l0-.5h87.53L604.6,36.37,618,32.58h0L709.16,40l2,3.76,101.21,6.48L945.12-.25h24l-1.37.49ZM102.78.25,813.59,54.38,966.23.25h-21L812.41,50.73h0l-101.54-6.5-2-3.76L618,33.08l-13.39,3.79h0L183.71.25Z" transform="translate(7.71 58.01)"/><polygon class="cls-70" points="952.88 58.01 820.09 108.48 718.69 101.98 716.72 98.23 625.72 90.84 612.34 94.63 191.45 58.01 103.92 58.01 821.34 112.64 975.4 58.01 952.88 58.01"/><polygon class="cls-70" points="438.31 58.01 842.48 89.52 873.81 77.7 873.81 69.36 901.85 58.01 438.31 58.01"/><rect class="cls-69" x="669.91" y="28.73" width="28.82" height="0.5" transform="translate(115.2 456.3) rotate(-35.05)"/><rect class="cls-69" x="615.38" y="24.37" width="28.26" height="0.5" transform="translate(110.76 428.63) rotate(-35.55)"/><rect class="cls-69" x="706.89" y="31.85" width="33.33" height="0.5" transform="translate(84.12 415.31) rotate(-29.22)"/><polygon class="cls-69" points="865.76 91.36 842.46 89.77 842.5 89.27 865.79 90.87 865.76 91.36"/><polygon class="cls-69" points="893.42 80.84 873.77 77.95 873.84 77.45 893.49 80.35 893.42 80.84"/><polygon class="cls-71" points="1207.71 58.01 975.4 58.01 808.68 117.13 803.92 409.45 1207.71 425.77 1207.71 58.01"/><polygon class="cls-72" points="7.71 73.87 808.68 117.13 803.92 409.45 7.71 410.24 7.71 73.87"/><g class="cls-73"><rect class="cls-6" x="7.71" y="409.45" width="1200" height="48.56"/><path class="cls-7" d="M412.93,401H909.14v3.83c6.64-5.86,10.07-11.86,9.93-17.92-.26-12.11-14.73-23.35-40.66-33.29q-9.74-3.74-21.57-7.21v4H50.42v-6.71q-17.18,3.36-32.66,6.95-7.73,1.8-15,3.64c-2.43.62-4.81,1.24-7.16,1.87H-1V401Z" transform="translate(7.71 58.01)"/><path class="cls-8" d="M412.91,401H903.66v3.75c6.57-5.79,10-11.72,9.83-17.71-.26-12-14.57-23.1-40.22-32.93-6.41-2.46-13.54-4.84-21.33-7.13v3.46H54.38v-6.11c-22.65,4.42-43.12,9.17-61.08,14.18H-1V401Z" transform="translate(7.71 58.01)"/><path class="cls-74" d="M412.89,401h485.3v3.68c6.5-5.73,9.85-11.6,9.72-17.52-.26-11.86-14.41-22.84-39.78-32.57q-9.51-3.64-21.08-7v2.89H58.34v-5.51C36,349.3,15.7,354-2.06,359H-1V401Z" transform="translate(7.71 58.01)"/><path class="cls-75" d="M412.87,401H892.72v3.6c6.42-5.67,9.73-11.46,9.61-17.32-.26-11.72-14.25-22.59-39.33-32.2-6.27-2.4-13.24-4.73-20.85-7v2.33H62.3v-4.92c-22.14,4.33-42.16,9-59.72,13.87-2.19.61-4.35,1.23-6.46,1.85H-1V401Z" transform="translate(7.71 58.01)"/><path class="cls-76" d="M412.84,401h474.4v3.53c6.35-5.61,9.63-11.34,9.5-17.13-.25-11.59-14.08-22.33-38.88-31.83q-9.3-3.57-20.61-6.89v1.76h-771v-4.32c-21.9,4.27-41.68,8.86-59,13.71q-6.51,1.82-12.56,3.68H-1V401Z" transform="translate(7.71 58.01)"/><path class="cls-77" d="M412.82,401h469v3.45c6.28-5.54,9.51-11.2,9.39-16.93-.25-11.45-13.92-22.07-38.44-31.46-6.12-2.35-12.93-4.63-20.37-6.82v1.2H70.23v-3.73c-21.64,4.23-41.2,8.77-58.36,13.56-4.29,1.19-8.43,2.41-12.42,3.63-2,.62-3.95,1.24-5.86,1.86H-1V401Z" transform="translate(7.71 58.01)"/><path class="cls-78" d="M412.8,401H876.29v3.38c6.21-5.48,9.41-11.08,9.29-16.74-.25-11.32-13.76-21.81-38-31.1a342.43,342.43,0,0,0-44.06-13v6.87H74.19v-3.13C52.8,351.49,33.47,356,16.51,360.7Q3.79,364.26-7.11,368H-1v33Z" transform="translate(7.71 58.01)"/><path class="cls-79" d="M412.78,401h458v3.3c6.13-5.41,9.3-10.94,9.17-16.54-.24-11.18-13.6-21.55-37.54-30.73a336.68,336.68,0,0,0-43.54-12.82v6.23H78.15v-2.53c-21.13,4.12-40.24,8.56-57,13.23Q8.58,364.65-2.2,368.33H-1V401Z" transform="translate(7.71 58.01)"/><path class="cls-80" d="M412.76,401H865.35v3.23c6.06-5.35,9.18-10.82,9.06-16.34-.24-11.06-13.44-21.3-37.09-30.37a333.48,333.48,0,0,0-43-12.67v5.59H82.12V348.5c-20.89,4.08-39.77,8.46-56.33,13.08Q13.37,365,2.72,368.69q-5.31,1.81-10.15,3.67H-1V401Z" transform="translate(7.71 58.01)"/><path class="cls-81" d="M412.74,401H859.87v3.15c6-5.28,9.08-10.68,9-16.14-.24-10.92-13.28-21.05-36.65-30a329.81,329.81,0,0,0-42.5-12.52v4.95H86.08V349.1c-20.63,4-39.29,8.35-55.65,12.92q-12.27,3.42-22.79,7-5.25,1.8-10,3.63H-1V401Z" transform="translate(7.71 58.01)"/><path class="cls-82" d="M412.72,401H854.4v3.08c5.91-5.22,9-10.56,8.84-15.95-.23-10.79-13.11-20.79-36.2-29.64a325.77,325.77,0,0,0-42-12.36v4.31H90v-.75c-40.76,8-73.69,17.1-96.37,26.95H-1V401Z" transform="translate(7.71 58.01)"/><path class="cls-83" d="M412.7,401H848.93v3c5.84-5.15,8.85-10.42,8.73-15.75-.23-10.65-12.95-20.53-35.75-29.27a322.29,322.29,0,0,0-41.47-12.21v3.67H94v-.15c-40.27,7.86-72.79,16.89-95.19,26.61H-1V401Z" transform="translate(7.71 58.01)"/><path class="cls-84" d="M412.68,401H843.45v2.92c5.77-5.08,8.74-10.29,8.63-15.55-.23-10.52-12.79-20.27-35.31-28.9a317,317,0,0,0-40.95-12.06v3H129.18v-5.15Q112.89,348,98,350.89c-39.76,7.76-71.88,16.67-94,26.27-2.76,1.2-5.37,2.42-7.82,3.64H-1V401Z" transform="translate(7.71 58.01)"/><path class="cls-85" d="M412.66,401H838v2.85c5.69-5,8.63-10.16,8.52-15.36-.23-10.38-12.63-20-34.86-28.53a311.76,311.76,0,0,0-40.43-11.91v2.39H132.75V346q-16.08,2.66-30.82,5.53C62.68,359.15,31,368,9.12,377.43a136.64,136.64,0,0,0-14.49,7.23H-1V401Z" transform="translate(7.71 58.01)"/><path class="cls-86" d="M412.63,401H832.5v2.77c5.63-5,8.52-10,8.41-15.15-.22-10.26-12.46-19.77-34.41-28.18a309.3,309.3,0,0,0-39.91-11.75v1.75H136.32v-3.82q-15.88,2.61-30.43,5.46c-38.75,7.57-70,16.25-91.61,25.61A135.16,135.16,0,0,0,0,384.83q-3.11,1.82-5.72,3.65H-1V401Z" transform="translate(7.71 58.01)"/><path class="cls-87" d="M412.61,401H827v2.7c5.55-4.9,8.41-9.9,8.3-15-.22-10.12-12.3-19.51-34-27.81A305.63,305.63,0,0,0,762,349.33v1.11H139.88v-3.15q-15.66,2.58-30,5.38C71.61,360.14,40.71,368.72,19.43,378,8.79,382.57.55,387.36-5,392.25h4V401Z" transform="translate(7.71 58.01)"/><path class="cls-88" d="M412.59,401h409v2.62c5.47-4.83,8.29-9.77,8.19-14.76-.22-10-12.15-19.25-33.52-27.44A300.55,300.55,0,0,0,757.35,350v.47H143.45V348q-15.47,2.55-29.63,5.32c-37.75,7.37-68.24,15.83-89.24,25S-7.93,397.1-7.71,407.09L-1,401Z" transform="translate(7.71 58.01)"/><path class="cls-89" d="M412.57,401H816.08v2.55c5.4-4.77,8.19-9.64,8.08-14.57-.21-9.85-12-19-33.07-27.07a295.11,295.11,0,0,0-38.35-11.3q-11.21-2.61-23.91-5v4.81H178.74v-6.62c-21.93,3-42.34,6.41-61,10.05C43.3,368.41-2.56,387.26-2.13,407L-1,401Z" transform="translate(7.71 58.01)"/><path class="cls-90" d="M412.55,401H810.61v2.47c5.33-4.7,8.08-9.51,8-14.37-.21-9.72-11.82-18.73-32.63-26.71a294.72,294.72,0,0,0-37.83-11.14q-11.05-2.56-23.58-4.91v4.1H181.87v-5.89c-21.62,3-41.76,6.33-60.13,9.91C48.27,368.81,3,387.41,3.46,406.85V401Z" transform="translate(7.71 58.01)"/><path class="cls-91" d="M412.53,401h392.6v2.4c5.26-4.64,8-9.38,7.87-14.18-.21-9.58-11.66-18.47-32.18-26.34a289.64,289.64,0,0,0-37.32-11c-7.26-1.69-15-3.31-23.26-4.84v3.39H185v-5.16c-21.33,3-41.19,6.24-59.3,9.78C53.24,369.21,8.62,387.55,9,406.73V401Z" transform="translate(7.71 58.01)"/><path class="cls-92" d="M412.51,401H799.66v2.32c5.18-4.57,7.86-9.25,7.75-14-.41-18.92-45.15-35.07-117.15-45.9v7H188.15V346c-21,2.92-40.61,6.15-58.48,9.63-71.46,14-115.46,32.05-115,51V401Z" transform="translate(7.71 58.01)"/><path class="cls-93" d="M412.49,401h381.7v2.25c5.11-4.51,7.74-9.12,7.64-13.78-.41-18.65-44.52-34.57-115.51-45.25v6.22h-495v-3.69c-20.74,2.88-40,6.06-57.66,9.5C63.17,370,19.8,387.84,20.2,406.48V401Z" transform="translate(7.71 58.01)"/><path class="cls-94" d="M412.47,401H788.71v2.17c5-4.44,7.64-9,7.54-13.58-.4-18.38-43.88-34.08-113.86-44.6v5.45h-488v-3c-20.44,2.84-39.47,6-56.84,9.37C68.14,370.41,25.39,388,25.79,406.36V401Z" transform="translate(7.71 58.01)"/><path class="cls-95" d="M412.45,401H783.24v2.1c5-4.38,7.52-8.86,7.42-13.39-.39-18.11-43.24-33.58-112.2-44v4.69H197.57v-2.23c-20.15,2.8-38.9,5.89-56,9.23C73.11,370.81,31,388.13,31.37,406.24V401Z" transform="translate(7.71 58.01)"/><path class="cls-96" d="M412.42,401H777.77v2c4.89-4.31,7.41-8.73,7.31-13.19-.39-17.84-42.61-33.09-110.55-43.31v3.92H200.71v-1.5c-19.85,2.76-38.33,5.81-55.19,9.1C78.08,371.21,36.57,388.27,37,406.12V401Z" transform="translate(7.71 58.01)"/><path class="cls-97" d="M412.4,401H772.29V403c4.82-4.26,7.3-8.6,7.21-13-.38-17.58-42-32.59-108.91-42.66v3.15H203.85v-.77c-19.56,2.72-37.76,5.72-54.37,9C83.05,371.61,42.15,388.42,42.54,406v-5Z" transform="translate(7.71 58.01)"/><path class="cls-98" d="M412.38,401H766.82v1.87c4.74-4.19,7.19-8.47,7.1-12.8-.38-17.31-41.34-32.1-107.26-42v2.38H207v0c-19.26,2.67-37.19,5.63-53.54,8.82C88,372,47.74,388.56,48.12,405.88V401Z" transform="translate(7.71 58.01)"/><path class="cls-99" d="M412.36,401h349v1.8c4.68-4.13,7.09-8.34,7-12.6-.37-17.05-40.7-31.61-105.6-41.37v1.61h-392v-6.31c-42.68,4.05-81.08,9.41-113.29,15.7C93,372.41,53.33,388.71,53.7,405.76V401Z" transform="translate(7.71 58.01)"/><path class="cls-100" d="M412.34,401H755.87v1.72c4.6-4.06,7-8.21,6.88-12.4-.37-16.78-40.07-31.12-104-40.73v.85H272.89V345c-42,4-79.81,9.26-111.52,15.45C98,372.81,58.92,388.85,59.29,405.63V401Z" transform="translate(7.71 58.01)"/><path class="cls-101" d="M412.32,401H750.4v1.64c4.52-4,6.86-8.07,6.77-12.2-.36-16.51-39.43-30.62-102.31-40.08v.08H275.08v-4.63c-41.35,3.93-78.54,9.12-109.75,15.21-62.4,12.18-100.82,28-100.46,44.49V401Z" transform="translate(7.71 58.01)"/><path class="cls-102" d="M412.3,401H744.92v1.57c4.46-3.93,6.75-7.95,6.66-12-.35-16.25-38.79-30.13-100.65-39.43-15.47-2.33-32.4-4.37-50.56-6.09v5.4H277.27v-3.79c-40.68,3.86-77.28,9-108,15-61.4,12-99.2,27.52-98.85,43.77V401Z" transform="translate(7.71 58.01)"/><path class="cls-103" d="M412.28,401H739.45v1.49c4.38-3.86,6.64-7.81,6.55-11.81-.35-16-38.16-29.63-99-38.78-15.22-2.29-31.87-4.3-49.74-6v4.53H279.47v-2.95c-40,3.8-76,8.83-106.21,14.72C112.87,374,75.69,389.29,76,405.27V401Z" transform="translate(7.71 58.01)"/><path class="cls-104" d="M412.26,401H734v1.42c4.31-3.8,6.53-7.69,6.45-11.62-.34-15.71-37.52-29.13-97.36-38.13-15-2.26-31.33-4.23-48.9-5.89v3.66H281.66v-2.11c-39.35,3.74-74.75,8.68-104.44,14.48-59.38,11.59-95.94,26.62-95.6,42.34V401Z" transform="translate(7.71 58.01)"/><path class="cls-105" d="M412.24,401H728.5v1.34c4.24-3.73,6.42-7.55,6.33-11.41-.33-15.45-36.88-28.65-95.7-37.5-29.41-4.42-64.39-7.76-103.19-9.75v6.76H283.85v-1.27c-38.68,3.68-73.48,8.53-102.67,14.23-58.38,11.4-94.32,26.18-94,41.63v-4Z" transform="translate(7.71 58.01)"/><path class="cls-106" d="M412.21,401H723v1.27c4.16-3.67,6.3-7.43,6.22-11.22-.33-15.18-36.25-28.15-94-36.85-28.91-4.35-63.28-7.63-101.41-9.58v5.82H286V350c-38,3.62-72.21,8.39-100.89,14-57.38,11.2-92.7,25.72-92.37,40.9V401Z" transform="translate(7.71 58.01)"/><path class="cls-107" d="M412.19,401H717.55v1.19c4.09-3.6,6.2-7.29,6.12-11-.33-14.92-35.62-27.66-92.41-36.2-28.39-4.27-62.16-7.49-99.63-9.41v4.88H409.84V344c-172.67,3.76-312.12,31-311.47,60.82V401Z" transform="translate(7.71 58.01)"/><path class="cls-108" d="M412.17,401H712.08v1.12c4-3.55,6.08-7.17,6-10.83-.32-14.65-35-27.16-90.76-35.55-27.89-4.2-61.06-7.36-97.85-9.25v3.95H409.86v-5.51C240.27,348.62,103.31,375.36,104,404.66V401Z" transform="translate(7.71 58.01)"/><path class="cls-109" d="M412.15,401H706.61v1c3.94-3.48,6-7,5.89-10.63-.31-14.38-34.34-26.67-89.1-34.91s-130.26-12.42-213.52-10.61c-166.5,3.63-301,29.88-300.35,58.65V401Z" transform="translate(7.71 58.01)"/><path class="cls-110" d="M412.13,401h289v1c3.87-3.42,5.87-6.91,5.79-10.44-.31-14.11-33.71-26.17-87.46-34.26S491.62,345.08,409.9,346.86c-163.42,3.55-295.4,29.33-294.78,57.56V401Z" transform="translate(7.71 58.01)"/><path class="cls-111" d="M412.11,401H695.66v.89c3.79-3.35,5.75-6.77,5.68-10.24-.61-27.7-131.08-47.32-291.41-43.83S120.1,376.6,120.7,404.3V401Z" transform="translate(7.71 58.01)"/><path class="cls-112" d="M412.09,401H690.18v.82c3.73-3.29,5.65-6.65,5.57-10-.59-27.17-128.55-46.42-285.8-43S125.69,377,126.28,404.18V401Z" transform="translate(7.71 58.01)"/><path class="cls-113" d="M412.07,401H684.71v.74c3.65-3.22,5.53-6.51,5.46-9.84-.58-26.64-126-45.51-280.2-42.15s-278.68,27.67-278.1,54.3V401Z" transform="translate(7.71 58.01)"/><path class="cls-114" d="M412.05,401H679.24v.67c3.57-3.16,5.42-6.39,5.35-9.65-.57-26.1-123.51-44.6-274.6-41.31s-273.11,27.12-272.54,53.22V401Z" transform="translate(7.71 58.01)"/><path class="cls-115" d="M412,401H673.76v.59c3.51-3.09,5.31-6.25,5.24-9.45-.55-25.57-121-43.68-269-40.46s-267.53,26.56-267,52.13V401Z" transform="translate(7.71 58.01)"/><path class="cls-116" d="M412,401H668.29v.51c3.43-3,5.2-6.12,5.13-9.25-.54-25-118.47-42.77-263.39-39.62s-262,26-261.42,51.05V401Z" transform="translate(7.71 58.01)"/><path class="cls-117" d="M412,401H662.81v.44c3.36-3,5.09-6,5-9.06-.54-24.5-116-41.86-257.79-38.77s-256.39,25.45-255.85,50V401Z" transform="translate(7.71 58.01)"/><path class="cls-118" d="M412,401H657.34v.36c3.29-2.89,5-5.86,4.91-8.85-.52-24-113.42-41-252.18-37.94s-250.81,24.9-250.29,48.88V401Z" transform="translate(7.71 58.01)"/><path class="cls-119" d="M411.94,401H651.87v.29c3.21-2.83,4.87-5.73,4.8-8.66-.51-23.44-110.91-40.05-246.58-37.09s-245.24,24.35-244.73,47.78V401Z" transform="translate(7.71 58.01)"/><path class="cls-120" d="M411.92,401H646.39v.21c3.14-2.77,4.76-5.6,4.7-8.46-.5-22.91-108.39-39.14-241-36.25S170.45,380.3,171,403.2V401Z" transform="translate(7.71 58.01)"/><path class="cls-121" d="M411.9,401h229v.14c3.07-2.71,4.65-5.47,4.59-8.27-.49-22.37-105.87-38.22-235.37-35.4S176,380.71,176.53,403.08V401Z" transform="translate(7.71 58.01)"/><path class="cls-122" d="M411.88,401H635.45v.06c3-2.64,4.53-5.34,4.47-8.07-.47-21.84-103.34-37.31-229.76-34.56s-228.52,22.69-228,44.53v-2Z" transform="translate(7.71 58.01)"/><path class="cls-123" d="M411.86,401H624.55v3.81A34.68,34.68,0,0,0,630,401c2.92-2.58,4.43-5.21,4.37-7.88-.46-21.3-100.82-36.4-224.16-33.72S187.23,381.53,187.7,402.84V401Z" transform="translate(7.71 58.01)"/><path class="cls-124" d="M411.84,401H619.21v3.63a33.3,33.3,0,0,0,5.29-3.72c2.84-2.51,4.31-5.08,4.26-7.67-.46-20.78-98.31-35.5-218.56-32.88s-217.37,21.58-216.92,42.36V401Z" transform="translate(7.71 58.01)"/><path class="cls-125" d="M411.82,401h195v7c10.64-4.62,16.47-9.57,16.36-14.63-.44-20.25-95.78-34.59-212.95-32s-211.8,21-211.36,41.27V401Z" transform="translate(7.71 58.01)"/><path class="cls-126" d="M411.79,401H601.66v6.72c10.36-4.49,16-9.31,15.93-14.24-.43-19.71-93.26-33.68-207.35-31.19S204,382.76,204.45,402.47V401Z" transform="translate(7.71 58.01)"/><path class="cls-127" d="M411.77,401H596.51v6.46c10.08-4.38,15.6-9.07,15.5-13.86-.42-19.18-90.74-32.76-201.75-30.35S209.61,383.17,210,402.35V401Z" transform="translate(7.71 58.01)"/><path class="cls-128" d="M411.75,401h179.6v6.2c9.8-4.26,15.18-8.82,15.07-13.48-.4-18.64-88.22-31.85-196.14-29.5s-195.07,19.37-194.67,38V401Z" transform="translate(7.71 58.01)"/><path class="cls-129" d="M411.73,401H586.2v5.93c9.52-4.13,14.74-8.56,14.64-13.09-.39-18.11-85.7-30.94-190.54-28.66S220.8,384,221.19,402.11V401Z" transform="translate(7.71 58.01)"/><path class="cls-130" d="M411.71,401H581.05v5.67c9.24-4,14.3-8.31,14.21-12.71-.38-17.57-83.18-30-184.94-27.81S226.39,384.41,226.78,402v-1Z" transform="translate(7.71 58.01)"/><path class="cls-131" d="M411.69,401H575.9v5.41c9-3.89,13.87-8.06,13.78-12.32-.38-17-80.66-29.13-179.33-27s-178.36,17.71-178,34.76V401Z" transform="translate(7.71 58.01)"/><path class="cls-132" d="M411.67,401H570.74v5.14c8.68-3.77,13.44-7.8,13.35-11.93C583.73,377.69,506,366,410.37,368.08s-172.79,17.15-172.43,33.66V401Z" transform="translate(7.71 58.01)"/><path class="cls-133" d="M411.65,401H565.59v4.88c8.4-3.65,13-7.56,12.92-11.55-.35-16-75.62-27.3-168.12-25.29s-167.21,16.6-166.86,32.58V401Z" transform="translate(7.71 58.01)"/><path class="cls-134" d="M411.63,401H560.44v4.62c8.12-3.53,12.57-7.31,12.49-11.17-.34-15.45-73.1-26.39-162.52-24.45s-161.64,16.05-161.3,31.5V401Z" transform="translate(7.71 58.01)"/><path class="cls-135" d="M411.61,401H555.29v4.35c7.84-3.4,12.13-7.05,12.05-10.78-.32-14.91-70.57-25.48-156.91-23.6s-156.06,15.49-155.74,30.41V401Z" transform="translate(7.71 58.01)"/><path class="cls-136" d="M411.58,401H550.13v4.09c7.56-3.28,11.71-6.8,11.63-10.4-.31-14.38-68.06-24.57-151.31-22.76S260,386.88,260.28,401.26V401Z" transform="translate(7.71 58.01)"/><path class="cls-137" d="M411.56,401H545v3.83c7.28-3.17,11.27-6.55,11.2-10-.3-13.85-65.54-23.67-145.71-21.92s-144.91,14.39-144.61,28.24V401Z" transform="translate(7.71 58.01)"/><path class="cls-138" d="M411.54,401H539.83v3.56c7-3,10.84-6.29,10.76-9.62-.29-13.32-63-22.76-140.1-21.08S271.15,387.7,271.44,401h140.1Z" transform="translate(7.71 58.01)"/><path class="cls-139" d="M411.52,401H534.68v3.3c6.72-2.92,10.4-6.05,10.33-9.24-.28-12.79-60.49-21.84-134.5-20.23S276.75,388.11,277,400.89c0,1.6,1,3.14,2.83,4.61V401Z" transform="translate(7.71 58.01)"/><path class="cls-140" d="M411.5,401h118v3c6.44-2.79,10-5.79,9.91-8.85-.27-12.25-58-20.93-128.9-19.39s-128.19,12.73-127.92,25c0,1.53,1,3,2.7,4.42V401Z" transform="translate(7.71 58.01)"/><path class="cls-141" d="M411.48,401H524.37v2.77c6.16-2.67,9.54-5.54,9.47-8.47-.25-11.72-55.45-20-123.28-18.54s-122.62,12.17-122.37,23.89c0,1.46.92,2.88,2.59,4.22V401Z" transform="translate(7.71 58.01)"/><path class="cls-142" d="M411.46,401H519.22v2.51c5.88-2.55,9.1-5.29,9-8.09-.24-11.18-52.93-19.11-117.68-17.7s-117,11.62-116.81,22.81c0,1.4.88,2.74,2.47,4V401Z" transform="translate(7.71 58.01)"/><path class="cls-143" d="M411.44,401H514.07v2.24c5.6-2.43,8.67-5,8.61-7.7-.23-10.65-50.41-18.2-112.08-16.85s-111.48,11.06-111.24,21.72c.05,2.66,3.23,5.13,8.94,7.31V401Z" transform="translate(7.71 58.01)"/><path class="cls-144" d="M411.42,401h97.49v2c5.32-2.31,8.24-4.78,8.19-7.31-.22-10.12-47.9-17.3-106.48-16s-105.9,10.51-105.68,20.64c.06,2.53,3.08,4.87,8.49,6.95V401Z" transform="translate(7.71 58.01)"/><path class="cls-145" d="M411.4,401h92.36v1.72c5-2.19,7.8-4.54,7.75-6.93-.21-9.59-45.37-16.38-100.87-15.18s-100.33,10-100.12,19.55c.06,2.4,2.92,4.62,8.05,6.59V401Z" transform="translate(7.71 58.01)"/><path class="cls-146" d="M411.37,401h87.24v1.45c4.76-2.06,7.37-4.28,7.32-6.54-.2-9.06-42.85-15.47-95.27-14.33S315.91,391,316.11,400c.05,2.27,2.75,4.37,7.59,6.22V401Z" transform="translate(7.71 58.01)"/><path class="cls-147" d="M411.35,401h63.07v6.51c16.1-3.14,26-7.22,25.93-11.48-.19-8.52-40.33-14.56-89.67-13.49s-89.18,8.86-89,17.38c.05,2.13,2.59,4.11,7.15,5.85V401Z" transform="translate(7.71 58.01)"/><path class="cls-148" d="M411.33,401h59.13v5.92c15.1-2.95,24.39-6.77,24.3-10.77-.17-8-37.81-13.65-84.06-12.64s-83.6,8.3-83.43,16.29c.05,2,2.43,3.85,6.71,5.49V401Z" transform="translate(7.71 58.01)"/><path class="cls-149" d="M411.31,401h55.18v5.32c14.1-2.75,22.77-6.32,22.69-10.05-.16-7.45-35.29-12.74-78.46-11.8s-78,7.75-77.86,15.21c0,1.86,2.26,3.59,6.25,5.12V401Z" transform="translate(7.71 58.01)"/><path class="cls-150" d="M411.29,401h51.24v4.72c13.09-2.55,21.14-5.86,21.07-9.32-.15-6.93-32.77-11.84-72.86-11s-72.45,7.19-72.3,14.12c.07,3.46,8.27,6.42,21.45,8.4v-7Z" transform="translate(7.71 58.01)"/><path class="cls-151" d="M411.27,401h47.3v4.13c12.08-2.36,19.51-5.42,19.44-8.61-.13-6.4-30.24-10.92-67.24-10.12s-66.89,6.64-66.75,13c.07,3.2,7.63,5.93,19.8,7.76V401Z" transform="translate(7.71 58.01)"/><path class="cls-152" d="M411.25,401h43.36v3.53c11.07-2.16,17.89-5,17.82-7.89-.13-5.86-27.73-10-61.64-9.27s-61.31,6.08-61.19,11.94c.07,2.93,7,5.44,18.16,7.11V401Z" transform="translate(7.71 58.01)"/><path class="cls-153" d="M411.23,407.62c30.83-.67,55.73-5.53,55.62-10.86s-25.21-9.1-56-8.43-55.74,5.53-55.62,10.86c.06,2.66,6.36,4.94,16.5,6.47V401h39.54Z" transform="translate(7.71 58.01)"/><ellipse class="cls-154" cx="411.02" cy="397.98" rx="50.26" ry="8.68" transform="translate(-0.85 67.05) rotate(-1.25)"/><path class="cls-155" d="M411.19,405.69c24.66-.53,44.58-4.43,44.49-8.69s-20.16-7.28-44.83-6.74-44.59,4.43-44.5,8.69S386.52,406.23,411.19,405.69Z" transform="translate(7.71 58.01)"/><path class="cls-156" d="M411.16,404.73c21.59-.47,39-3.88,38.94-7.61s-17.65-6.37-39.23-5.9-39,3.88-38.93,7.61S389.58,405.2,411.16,404.73Z" transform="translate(7.71 58.01)"/><ellipse class="cls-157" cx="411.02" cy="397.98" rx="33.51" ry="5.79" transform="translate(-0.85 67.05) rotate(-1.25)"/><path class="cls-158" d="M411.12,402.8c15.42-.34,27.87-2.77,27.81-5.43s-12.6-4.55-28-4.22-27.87,2.77-27.81,5.43S395.71,403.13,411.12,402.8Z" transform="translate(7.71 58.01)"/><ellipse class="cls-159" cx="411.02" cy="397.98" rx="22.34" ry="3.86" transform="translate(-0.85 67.05) rotate(-1.25)"/><path class="cls-160" d="M411.08,400.87c9.25-.2,16.72-1.66,16.69-3.26s-7.56-2.73-16.82-2.53-16.72,1.66-16.68,3.26S401.83,401.07,411.08,400.87Z" transform="translate(7.71 58.01)"/><path class="cls-161" d="M411.06,399.9c6.17-.13,11.15-1.1,11.12-2.17s-5-1.82-11.2-1.68-11.15,1.1-11.13,2.17S404.89,400,411.06,399.9Z" transform="translate(7.71 58.01)"/><path class="cls-162" d="M411,398.94c3.08-.07,5.57-.55,5.56-1.09s-2.52-.91-5.6-.84-5.58.55-5.57,1.09S408,399,411,398.94Z" transform="translate(7.71 58.01)"/></g><polygon class="cls-163" points="820.09 113.08 808.24 143.89 7.71 87.57 7.71 58.01 92.45 58.01 820.09 113.08"/><polygon class="cls-164" points="804.74 138.07 812.3 118.47 682.46 107.88 675.04 128.79 804.74 138.07"/><polygon class="cls-165" points="681.82 109.68 810.56 119.33 803.69 138 804.74 138.07 812.3 118.47 682.46 107.88 681.82 109.68"/><polygon class="cls-166" points="689.67 108.48 681.7 129.26 683.36 129.36 690.79 108.58 689.67 108.48"/><polygon class="cls-165" points="681.7 129.26 678.52 129.06 685.34 109.95 689.67 108.48 681.7 129.26"/><polygon class="cls-166" points="702.71 109.54 694.81 130.2 696.46 130.3 703.83 109.63 702.71 109.54"/><polygon class="cls-165" points="694.81 130.2 691.67 130 698.44 111 702.71 109.54 694.81 130.2"/><polygon class="cls-166" points="715.61 110.58 707.78 131.13 709.41 131.23 716.72 110.68 715.61 110.58"/><polygon class="cls-165" points="707.78 131.13 704.68 130.93 711.38 112.04 715.61 110.58 707.78 131.13"/><polygon class="cls-166" points="728.37 111.62 720.61 132.05 722.22 132.15 729.46 111.71 728.37 111.62"/><polygon class="cls-165" points="720.61 132.05 717.54 131.85 724.18 113.06 728.37 111.62 720.61 132.05"/><polygon class="cls-166" points="740.98 112.64 733.28 132.96 734.88 133.06 742.06 112.73 740.98 112.64"/><polygon class="cls-165" points="733.28 132.96 730.25 132.76 736.93 113.81 740.98 112.64 733.28 132.96"/><polygon class="cls-166" points="753.45 113.65 745.82 133.85 747.39 133.95 754.51 113.74 753.45 113.65"/><polygon class="cls-165" points="745.82 133.85 742.82 133.67 749.44 114.84 753.45 113.65 745.82 133.85"/><polygon class="cls-166" points="765.78 114.65 758.21 134.74 759.77 134.84 766.83 114.74 765.78 114.65"/><polygon class="cls-165" points="758.21 134.74 755.25 134.56 761.88 115.64 765.78 114.65 758.21 134.74"/><polygon class="cls-166" points="777.97 115.64 770.47 135.62 772.01 135.72 779.01 115.73 777.97 115.64"/><polygon class="cls-165" points="770.47 135.62 767.54 135.44 773.89 116.58 777.97 115.64 770.47 135.62"/><polygon class="cls-166" points="790.03 116.62 782.6 136.49 784.12 136.59 791.06 116.7 790.03 116.62"/><polygon class="cls-165" points="782.6 136.49 779.69 136.31 786.25 117.51 790.03 116.62 782.6 136.49"/><polygon class="cls-166" points="801.96 117.58 794.59 137.35 796.09 137.45 802.98 117.67 801.96 117.58"/><polygon class="cls-165" points="794.59 137.35 791.72 137.17 798.22 118.47 801.96 117.58 794.59 137.35"/><polygon class="cls-164" points="231.31 95.45 242.96 72.8 103.15 60.9 93.34 84.97 231.31 95.45"/><polygon class="cls-165" points="102.3 62.99 240.89 73.81 230.19 95.36 231.31 95.45 242.96 72.8 103.15 60.9 102.3 62.99"/><polygon class="cls-166" points="110.84 61.57 100.35 85.49 102.11 85.6 112.04 61.67 110.84 61.57"/><polygon class="cls-165" points="100.35 85.49 97 85.26 106.05 63.29 110.84 61.57 100.35 85.49"/><polygon class="cls-166" points="124.78 62.75 114.19 86.54 115.94 86.66 125.98 62.85 124.78 62.75"/><polygon class="cls-165" points="114.19 86.54 110.88 86.32 120.02 64.46 124.78 62.75 114.19 86.54"/><polygon class="cls-166" points="138.6 63.92 127.91 87.58 129.64 87.7 139.78 64.02 138.6 63.92"/><polygon class="cls-165" points="127.91 87.58 124.62 87.36 133.87 65.62 138.6 63.92 127.91 87.58"/><polygon class="cls-166" points="152.28 65.07 141.5 88.62 143.21 88.73 153.45 65.17 152.28 65.07"/><polygon class="cls-165" points="141.5 88.62 138.24 88.4 147.57 66.77 152.28 65.07 141.5 88.62"/><polygon class="cls-166" points="165.84 66.22 154.95 89.64 156.65 89.76 167 66.32 165.84 66.22"/><polygon class="cls-165" points="154.95 89.64 151.73 89.43 161.29 67.6 165.84 66.22 154.95 89.64"/><polygon class="cls-166" points="179.26 67.36 168.29 90.66 169.97 90.77 180.41 67.46 179.26 67.36"/><polygon class="cls-165" points="168.29 90.66 165.09 90.45 174.74 68.76 179.26 67.36 168.29 90.66"/><polygon class="cls-166" points="192.56 68.48 181.5 91.67 183.16 91.78 193.7 68.58 192.56 68.48"/><polygon class="cls-165" points="181.5 91.67 178.33 91.45 188.17 69.65 192.56 68.48 181.5 91.67"/><polygon class="cls-166" points="205.74 69.6 194.59 92.66 196.24 92.77 206.87 69.69 205.74 69.6"/><polygon class="cls-165" points="194.59 92.66 191.45 92.45 201.14 70.71 205.74 69.6 194.59 92.66"/><polygon class="cls-166" points="218.8 70.7 207.56 93.65 209.19 93.76 219.91 70.8 218.8 70.7"/><polygon class="cls-165" points="207.56 93.65 204.45 93.44 214.51 71.75 218.8 70.7 207.56 93.65"/><polygon class="cls-166" points="231.73 71.8 220.41 94.63 222.03 94.74 232.84 71.89 231.73 71.8"/><polygon class="cls-165" points="220.41 94.63 217.33 94.42 227.48 72.84 231.73 71.8 220.41 94.63"/><rect class="cls-167" x="399.32" y="-246.62" width="0.5" height="799.91" transform="translate(236.69 603.85) rotate(-87.5)"/><polygon class="cls-167" points="750.7 215.77 578.67 207.04 571.83 183.16 393.66 171.81 369.41 199.47 369.29 199.47 7.7 178.63 7.73 178.13 369.19 198.96 393.45 171.3 572.22 182.69 579.05 206.56 750.72 215.27 750.7 215.77"/><rect class="cls-167" x="701.48" y="124.95" width="86.29" height="0.5" transform="translate(589.53 920.52) rotate(-87.09)"/><rect class="cls-167" x="457.4" y="91.56" width="56.05" height="0.5" transform="translate(373.99 629.26) rotate(-86.75)"/><rect class="cls-167" x="536.91" y="96.87" width="55.6" height="0.5" transform="translate(467.63 718.46) rotate(-89.22)"/><polygon class="cls-167" points="806.85 308.89 699.18 303.29 699.11 303.19 674.9 266.92 422.66 258.26 403.66 291.94 403.51 291.93 310.02 289.46 310.03 288.96 403.37 291.43 422.37 257.75 422.52 257.76 675.18 266.43 675.25 266.53 699.46 302.81 806.88 308.39 806.85 308.89"/><rect class="cls-167" x="201.08" y="250.18" width="202.04" height="0.5" transform="translate(55.83 607.56) rotate(-89.32)"/><rect class="cls-167" x="150.86" y="95.48" width="0.5" height="302.36" transform="translate(-92.26 448.29) rotate(-88.28)"/><polygon class="cls-167" points="230.87 363.18 230.75 363.18 7.71 362.67 7.71 362.17 230.63 362.68 256.17 330.58 309.81 330.58 309.81 331.08 256.41 331.08 230.87 363.18"/><rect class="cls-167" x="131.57" y="328.33" width="47.5" height="0.5" transform="translate(-177.69 513.07) rotate(-85.07)"/><rect class="cls-167" x="194.34" y="362.85" width="0.5" height="46.61"/><polygon class="cls-167" points="572.67 409.86 572.17 409.85 574.62 263.23 575.12 263.24 572.67 409.86"/><rect class="cls-167" x="498.66" y="278.7" width="147.51" height="0.5" transform="translate(285.6 901.52) rotate(-88.43)"/><rect class="cls-167" x="767.39" y="248.79" width="0.5" height="102.71" transform="translate(-6.51 97.28) rotate(-2.9)"/><path class="cls-167" d="M308.18,154.93a1.6,1.6,0,1,1,1.6-1.6A1.6,1.6,0,0,1,308.18,154.93Zm0-2.69a1.1,1.1,0,1,0,1.1,1.09A1.09,1.09,0,0,0,308.18,152.24Z" transform="translate(7.71 58.01)"/><path class="cls-167" d="M388.79,119.25a1.6,1.6,0,1,1,1.6-1.6A1.6,1.6,0,0,1,388.79,119.25Zm0-2.7a1.1,1.1,0,1,0,1.1,1.1A1.11,1.11,0,0,0,388.79,116.55Z" transform="translate(7.71 58.01)"/><path class="cls-167" d="M359.82,137.13a1.6,1.6,0,1,1,1.6-1.6A1.6,1.6,0,0,1,359.82,137.13Zm0-2.7a1.1,1.1,0,1,0,1.1,1.1A1.1,1.1,0,0,0,359.82,134.43Z" transform="translate(7.71 58.01)"/><path class="cls-167" d="M479.74,117.9a1.6,1.6,0,1,1,1.59-1.6A1.6,1.6,0,0,1,479.74,117.9Zm0-2.69a1.1,1.1,0,1,0,1.09,1.09A1.09,1.09,0,0,0,479.74,115.21Z" transform="translate(7.71 58.01)"/><path class="cls-167" d="M417.59,206.82a1.6,1.6,0,1,1,1.6-1.59A1.6,1.6,0,0,1,417.59,206.82Zm0-2.69a1.1,1.1,0,1,0,1.1,1.1A1.1,1.1,0,0,0,417.59,204.13Z" transform="translate(7.71 58.01)"/><path class="cls-167" d="M308.18,226.91a1.6,1.6,0,1,1,1.6-1.59A1.6,1.6,0,0,1,308.18,226.91Zm0-2.69a1.1,1.1,0,1,0,1.1,1.1A1.1,1.1,0,0,0,308.18,224.22Z" transform="translate(7.71 58.01)"/><path class="cls-167" d="M297.66,231.27a1.6,1.6,0,1,1,1.6-1.6A1.6,1.6,0,0,1,297.66,231.27Zm0-2.69a1.1,1.1,0,1,0,1.1,1.09A1.1,1.1,0,0,0,297.66,228.58Z" transform="translate(7.71 58.01)"/><path class="cls-167" d="M299,256.87a1.6,1.6,0,1,1,1.6-1.59A1.6,1.6,0,0,1,299,256.87Zm0-2.69a1.1,1.1,0,1,0,1.1,1.1A1.1,1.1,0,0,0,299,254.18Z" transform="translate(7.71 58.01)"/><path class="cls-167" d="M564.31,210.89a1.6,1.6,0,1,1,1.6-1.6A1.59,1.59,0,0,1,564.31,210.89Zm0-2.69a1.1,1.1,0,1,0,1.1,1.09A1.09,1.09,0,0,0,564.31,208.2Z" transform="translate(7.71 58.01)"/><path class="cls-167" d="M664.94,213.59a1.6,1.6,0,1,1,1.59-1.6A1.6,1.6,0,0,1,664.94,213.59Zm0-2.7A1.1,1.1,0,1,0,666,212,1.1,1.1,0,0,0,664.94,210.89Z" transform="translate(7.71 58.01)"/><path class="cls-167" d="M670.43,206.82a1.6,1.6,0,1,1,1.6-1.59A1.6,1.6,0,0,1,670.43,206.82Zm0-2.69a1.1,1.1,0,1,0,1.1,1.1A1.1,1.1,0,0,0,670.43,204.13Z" transform="translate(7.71 58.01)"/><path class="cls-167" d="M579.11,212.24a1.6,1.6,0,1,1,1.59-1.6A1.6,1.6,0,0,1,579.11,212.24Zm0-2.7a1.1,1.1,0,1,0,1.09,1.1A1.1,1.1,0,0,0,579.11,209.54Z" transform="translate(7.71 58.01)"/><path class="cls-167" d="M747.53,156.28a1.6,1.6,0,1,1,1.6-1.6A1.6,1.6,0,0,1,747.53,156.28Zm0-2.7a1.1,1.1,0,1,0,1.1,1.1A1.09,1.09,0,0,0,747.53,153.58Z" transform="translate(7.71 58.01)"/><path class="cls-168" d="M804.58,126.79a1.6,1.6,0,1,1,1.6-1.59A1.59,1.59,0,0,1,804.58,126.79Zm0-2.69a1.1,1.1,0,1,0,1.1,1.1A1.09,1.09,0,0,0,804.58,124.1Z" transform="translate(7.71 58.01)"/><path class="cls-168" d="M1098.6,126.51a1.6,1.6,0,1,1,1.6-1.59A1.6,1.6,0,0,1,1098.6,126.51Zm0-2.69a1.1,1.1,0,1,0,1.1,1.1A1.1,1.1,0,0,0,1098.6,123.82Z" transform="translate(7.71 58.01)"/><path class="cls-168" d="M1087.56,132.79a1.6,1.6,0,1,1,1.6-1.6A1.6,1.6,0,0,1,1087.56,132.79Zm0-2.7a1.1,1.1,0,1,0,0,2.2,1.1,1.1,0,0,0,0-2.2Z" transform="translate(7.71 58.01)"/><path class="cls-168" d="M1099.21,136.72a1.6,1.6,0,1,1,1.6-1.59A1.6,1.6,0,0,1,1099.21,136.72Zm0-2.69a1.1,1.1,0,1,0,1.1,1.1A1.1,1.1,0,0,0,1099.21,134Z" transform="translate(7.71 58.01)"/><path class="cls-168" d="M1086.21,259.19a1.6,1.6,0,1,1,1.6-1.6A1.6,1.6,0,0,1,1086.21,259.19Zm0-2.7a1.1,1.1,0,1,0,1.1,1.1A1.1,1.1,0,0,0,1086.21,256.49Z" transform="translate(7.71 58.01)"/><path class="cls-168" d="M1027.27,301.75a1.6,1.6,0,1,1,1.6-1.6A1.6,1.6,0,0,1,1027.27,301.75Zm0-2.7a1.1,1.1,0,1,0,1.1,1.1A1.1,1.1,0,0,0,1027.27,299.05Z" transform="translate(7.71 58.01)"/><path class="cls-168" d="M1016.41,301.75a1.6,1.6,0,1,1,1.6-1.6A1.6,1.6,0,0,1,1016.41,301.75Zm0-2.7a1.1,1.1,0,0,0,0,2.2,1.1,1.1,0,1,0,0-2.2Z" transform="translate(7.71 58.01)"/><path class="cls-168" d="M1086.21,249.67a1.6,1.6,0,1,1,1.6-1.6A1.6,1.6,0,0,1,1086.21,249.67Zm0-2.7a1.1,1.1,0,1,0,1.1,1.1A1.1,1.1,0,0,0,1086.21,247Z" transform="translate(7.71 58.01)"/><path class="cls-168" d="M1095.32,251a1.6,1.6,0,1,1,1.59-1.59A1.59,1.59,0,0,1,1095.32,251Zm0-2.69a1.1,1.1,0,1,0,1.09,1.1A1.1,1.1,0,0,0,1095.32,248.32Z" transform="translate(7.71 58.01)"/><path class="cls-168" d="M1023.06,245.8a1.6,1.6,0,1,1,1.6-1.6A1.6,1.6,0,0,1,1023.06,245.8Zm0-2.7a1.1,1.1,0,1,0,1.1,1.1A1.1,1.1,0,0,0,1023.06,243.1Z" transform="translate(7.71 58.01)"/><path class="cls-168" d="M929.23,217.27a1.6,1.6,0,1,1,1.6-1.6A1.6,1.6,0,0,1,929.23,217.27Zm0-2.69a1.1,1.1,0,1,0,1.1,1.09A1.1,1.1,0,0,0,929.23,214.58Z" transform="translate(7.71 58.01)"/><path class="cls-168" d="M804.58,137.5a1.6,1.6,0,1,1,1.6-1.59A1.59,1.59,0,0,1,804.58,137.5Zm0-2.69a1.1,1.1,0,1,0,1.1,1.1A1.09,1.09,0,0,0,804.58,134.81Z" transform="translate(7.71 58.01)"/><path class="cls-168" d="M929.23,208.2a1.6,1.6,0,1,1,1.6-1.6A1.6,1.6,0,0,1,929.23,208.2Zm0-2.7a1.1,1.1,0,0,0,0,2.2,1.1,1.1,0,1,0,0-2.2Z" transform="translate(7.71 58.01)"/><path class="cls-168" d="M967.69,97.33a1.6,1.6,0,1,1,1.59-1.59A1.6,1.6,0,0,1,967.69,97.33Zm0-2.69a1.1,1.1,0,1,0,1.09,1.1A1.1,1.1,0,0,0,967.69,94.64Z" transform="translate(7.71 58.01)"/><path class="cls-167" d="M306.83,237.58a1.6,1.6,0,1,1,1.6-1.6A1.6,1.6,0,0,1,306.83,237.58Zm0-2.7a1.1,1.1,0,1,0,0,2.2,1.1,1.1,0,1,0,0-2.2Z" transform="translate(7.71 58.01)"/><path class="cls-167" d="M250.81,277.63a1.6,1.6,0,1,1,1.6-1.6A1.6,1.6,0,0,1,250.81,277.63Zm0-2.7a1.1,1.1,0,1,0,0,2.2,1.1,1.1,0,1,0,0-2.2Z" transform="translate(7.71 58.01)"/><path class="cls-167" d="M489.13,117.9a1.6,1.6,0,1,1,1.59-1.6A1.6,1.6,0,0,1,489.13,117.9Zm0-2.69a1.1,1.1,0,1,0,1.09,1.09A1.09,1.09,0,0,0,489.13,115.21Z" transform="translate(7.71 58.01)"/><path class="cls-167" d="M570.36,126.51a1.6,1.6,0,0,1,0-3.19,1.6,1.6,0,1,1,0,3.19Zm0-2.69a1.1,1.1,0,1,0,1.1,1.1A1.09,1.09,0,0,0,570.36,123.82Z" transform="translate(7.71 58.01)"/><path class="cls-167" d="M561.62,131.44a1.6,1.6,0,1,1,1.6-1.6A1.6,1.6,0,0,1,561.62,131.44Zm0-2.69a1.1,1.1,0,1,0,1.1,1.09A1.09,1.09,0,0,0,561.62,128.75Z" transform="translate(7.71 58.01)"/><path class="cls-167" d="M574.46,147.14a1.6,1.6,0,0,1,0-3.19,1.6,1.6,0,1,1,0,3.19Zm0-2.69a1.1,1.1,0,1,0,1.1,1.1A1.09,1.09,0,0,0,574.46,144.45Z" transform="translate(7.71 58.01)"/><path class="cls-167" d="M738.1,154.93a1.6,1.6,0,1,1,1.6-1.6A1.6,1.6,0,0,1,738.1,154.93Zm0-2.69a1.1,1.1,0,1,0,1.1,1.09A1.09,1.09,0,0,0,738.1,152.24Z" transform="translate(7.71 58.01)"/><path class="cls-167" d="M299,154.93a1.6,1.6,0,1,1,1.6-1.6A1.6,1.6,0,0,1,299,154.93Zm0-2.69a1.1,1.1,0,1,0,1.1,1.09A1.09,1.09,0,0,0,299,152.24Z" transform="translate(7.71 58.01)"/><rect class="cls-167" x="665.57" y="218.41" width="265.59" height="0.5" transform="translate(574.99 1071.53) rotate(-89.11)"/><polygon class="cls-168" points="803.93 399.55 803.92 399.05 947.03 396.02 960.29 362.68 960.46 362.68 1207.71 357.91 1207.72 358.41 960.63 363.18 947.37 396.52 947.2 396.52 803.93 399.55"/><rect class="cls-168" x="941.06" y="150.88" width="302.29" height="0.5" transform="translate(935.91 1299.48) rotate(-89.32)"/><rect class="cls-168" x="1092.3" y="127.13" width="107.83" height="0.5" transform="translate(1.59 138.96) rotate(-4.03)"/><polygon class="cls-168" points="1029.68 361.6 1029.18 361.6 1029.18 308.88 981.69 266.07 981.68 265.96 977.64 58.01 978.14 58 982.18 265.84 1029.68 308.66 1029.68 361.6"/><rect class="cls-168" x="1055.83" y="217.59" width="0.5" height="68.77" transform="translate(774.92 1356.56) rotate(-87.99)"/><polygon class="cls-168" points="807.55 189.44 807.46 188.95 979.81 158.55 979.89 159.04 807.55 189.44"/><rect class="cls-168" x="797.71" y="181.25" width="176.44" height="0.5" transform="translate(-7.76 166.77) rotate(-6.96)"/><rect class="cls-168" x="933.17" y="234.63" width="0.5" height="161.93"/><rect class="cls-168" x="925.63" y="209.72" width="48.68" height="0.5" transform="translate(-6.31 136.65) rotate(-4.71)"/><polygon class="cls-169" points="1098.15 311.18 1029.43 308.77 981.93 265.96 977.89 58.01 1101.68 58.01 1098.15 311.18"/><polygon class="cls-169" points="806.08 250.25 803.92 399.3 933.42 396.56 933.42 234.63 806.08 250.25"/><polygon class="cls-170" points="310.94 207.43 310.02 289.21 403.52 291.68 422.51 258.01 675.04 266.67 699.32 303.05 806.86 308.64 806.86 228.77 310.94 207.43"/><polygon class="cls-170" points="194.59 409.45 196.12 362.85 230.75 362.93 256.29 330.83 309.81 330.83 308.67 409.45 194.59 409.45"/><polygon class="cls-170" points="7.71 178.38 369.3 199.22 393.56 171.56 491.56 177.8 494.71 121.83 7.71 87.57 7.71 178.38"/><polygon class="cls-168" points="1207.71 414.42 800.04 410.08 7.71 410.49 7.71 409.99 800.04 409.58 1207.72 413.92 1207.71 414.42"/><polygon class="cls-168" points="7.72 436.74 7.71 436.24 674.55 426.3 636.71 423.03 636.73 422.53 867.02 418.18 1207.72 425.52 1207.71 426.02 867.02 418.68 641.48 422.94 679.51 426.23 679.5 426.73 7.72 436.74"/><rect class="cls-168" x="912.69" y="357.92" width="157.09" height="0.5" transform="translate(-6.76 100.92) rotate(-2.46)"/><polygon class="cls-168" points="7.72 445.53 7.71 445.03 1041.17 433.48 1212.84 436.24 1212.84 436.74 1041.17 433.98 7.72 445.53"/><rect class="cls-168" x="508.25" y="337.23" width="0.5" height="107.71" transform="translate(46.4 885.91) rotate(-80.48)"/><rect class="cls-168" x="737.93" y="306.88" width="0.5" height="133.18" transform="translate(318 1139.51) rotate(-85.69)"/><path class="cls-171" d="M0,73.12S629.44,72,804.58,137.25l-2.14,213.69L0,352.24v6.28l837.12-2.13L1200,359.86V0H0Z" transform="translate(7.71 58.01)"/><polygon class="cls-172" points="256.29 95.69 265.76 77.41 354.6 84.33 347.02 101.62 256.29 95.69"/><polygon class="cls-173" points="359.04 103.99 368.51 85.71 457.35 92.62 449.77 109.91 359.04 103.99"/><polygon class="cls-174" points="460.26 111.35 469.73 93.07 558.56 99.98 550.63 118.08 460.26 111.35"/><polygon class="cls-175" points="560.08 119.23 569.55 100.95 658.38 107.87 650.81 125.16 560.08 119.23"/><polygon class="cls-176" points="654.21 107.54 648.71 120.91 562.67 114.22 560.08 119.23 650.81 125.16 658.38 107.87 654.21 107.54"/><polygon class="cls-177" points="554.58 99.67 548.29 112.96 462.23 107.54 460.26 111.35 550.63 118.08 558.56 99.98 554.58 99.67"/><polygon class="cls-178" points="457.35 92.62 452.04 92.21 447.18 105.58 361.28 99.67 359.04 103.99 449.77 109.91 457.35 92.62"/><polygon class="cls-179" points="354.6 84.33 349.11 83.9 343.91 97.81 258.38 91.67 256.29 95.69 347.02 101.62 354.6 84.33"/><polygon class="cls-180" points="648.71 120.91 650.81 125.16 658.38 107.87 654.21 107.54 648.71 120.91"/><polygon class="cls-180" points="554.58 99.67 548.29 112.96 550.63 118.08 558.56 99.98 554.58 99.67"/><polygon class="cls-180" points="452.04 92.21 447.18 105.58 449.77 109.91 457.35 92.62 452.04 92.21"/><polygon class="cls-180" points="349.11 83.9 343.91 97.81 347.02 101.62 354.6 84.33 349.11 83.9"/><rect class="cls-167" x="400.01" y="-343.53" width="0.5" height="802.51" transform="translate(322.31 510.96) rotate(-85.98)"/><rect class="cls-167" x="450.58" y="-335.05" width="0.5" height="725.18" transform="translate(396.85 532.98) rotate(-85.64)"/><rect class="cls-167" x="433.9" y="44.31" width="35.53" height="0.5" transform="translate(237.68 498.6) rotate(-66.39)"/><polygon class="cls-167" points="663.29 133.75 662.82 133.6 673.21 101.91 673.69 102.06 663.29 133.75"/><polygon class="cls-69" points="842.52 89.77 842.46 89.77 438.29 58.26 438.33 57.76 842.45 89.26 873.56 77.53 873.56 69.2 873.71 69.13 901.76 57.78 901.94 58.24 874.06 69.53 874.06 77.88 842.52 89.77"/><polygon class="cls-181" points="7.71 396.56 803.92 402.08 811.16 409.86 7.71 410.24 7.71 396.56"/><polygon class="cls-182" points="803.92 402.08 1207.71 403.4 1207.71 417.87 797.32 409.86 803.92 402.08"/><path class="cls-183" d="M496.85,15.29C533.7,15.72,563.32,31.66,563,51c-.37,19.55-31.07,35.13-68.51,34.63S427.6,68.83,428.57,49.35C429.52,30,460.07,14.85,496.85,15.29Z" transform="translate(7.71 58.01)"/><path class="cls-184" d="M496.47,35.05c29.26.36,52.86,7.48,52.66,16s-24.51,15.25-54.25,14.86-53.17-7.68-52.49-16.22S467.25,34.69,496.47,35.05Z" transform="translate(7.71 58.01)"/><path class="cls-185" d="M595.41,19.45c36.84.43,66.46,16.37,66.1,35.74-.37,19.55-31.07,35.13-68.51,34.63S526.15,73,527.12,53.51C528.07,34.19,558.62,19,595.41,19.45Z" transform="translate(7.71 58.01)"/><path class="cls-186" d="M595,39.21c29.26.36,52.86,7.48,52.66,16s-24.51,15.25-54.25,14.86-53.17-7.68-52.49-16.22S565.8,38.85,595,39.21Z" transform="translate(7.71 58.01)"/><path class="cls-187" d="M398.3,4c36.85.43,66.47,16.37,66.11,35.75C464,59.31,433.34,74.88,395.9,74.38S329.05,57.56,330,38.07C331,18.76,361.52,3.58,398.3,4Z" transform="translate(7.71 58.01)"/><path class="cls-188" d="M397.92,23.78c29.26.36,52.86,7.48,52.66,16S426.07,55,396.33,54.62s-53.17-7.68-52.49-16.22S368.7,23.42,397.92,23.78Z" transform="translate(7.71 58.01)"/><polygon class="cls-189" points="1130.24 325.57 1068.59 285.02 1050.01 413.09 1207.71 417.87 1207.71 322.57 1130.24 325.57"/><path class="cls-190" d="M731.68,5.14,731-56.67s.91-2.2,1.57-1V4.64Z" transform="translate(7.71 58.01)"/><path class="cls-191" d="M716.38,11.7v-5s17.78-4.83,28.31-1.34l.86,6.94A180,180,0,0,0,716.38,11.7Z" transform="translate(7.71 58.01)"/><path class="cls-192" d="M665.67,24.2s59.59-29.45,129.57,0C795.24,24.2,740.2,12.47,665.67,24.2Z" transform="translate(7.71 58.01)"/><path class="cls-190" d="M665.67,24.2v4s52.85-12.2,129.57-.93V24.2S739.67,9.05,665.67,24.2Z" transform="translate(7.71 58.01)"/><path class="cls-193" d="M665.67,28.24s57.77,9.44,129.57-.93C795.24,27.31,728.4,11.44,665.67,28.24Z" transform="translate(7.71 58.01)"/><path class="cls-194" d="M701.08,30.17s31.1-7.22,60.87,0C762,30.17,736.49,33.39,701.08,30.17Z" transform="translate(7.71 58.01)"/><path class="cls-194" d="M701.28,24.63s31.1-8.49,60.87,0C762.15,24.63,736.69,28.42,701.28,24.63Z" transform="translate(7.71 58.01)"/><path class="cls-194" d="M755.09,27.79s18-6.86,32.07-.34C787.16,27.45,773.16,31.6,755.09,27.79Z" transform="translate(7.71 58.01)"/><path class="cls-194" d="M674.42,27.79s18-6.86,32.07-.34C706.49,27.45,692.49,31.6,674.42,27.79Z" transform="translate(7.71 58.01)"/><polygon class="cls-195" points="798.19 416.18 949.04 415.4 949.08 458.01 798.19 458.01 798.19 416.18"/><polygon class="cls-196" points="987.69 417.61 1024.3 417.61 1025.71 458.01 989.29 458.01 987.69 417.61"/><polygon class="cls-197" points="134.37 417.52 182.05 417.52 179.04 456.14 135.72 456.14 134.37 417.52"/><polygon class="cls-198" points="1091.38 419.66 1146.99 419.66 1145.18 458.29 1092.72 458.29 1091.38 419.66"/><path class="cls-199" d="M734.75-20.74c69.85.83,126.08,25.61,125.47,55.56-.6,30.23-58.73,54.17-129.71,53.23S603.71,61.74,605.45,31.61C607.18,1.76,665-21.58,734.75-20.74Z" transform="translate(7.71 58.01)"/><path class="cls-200" d="M734.11,9.82c55.48.68,100.24,11.8,99.9,24.93s-46.4,23.48-102.78,22.74S630.41,45.38,631.65,32.18,678.72,9.13,734.11,9.82Z" transform="translate(7.71 58.01)"/><path class="cls-201" d="M719.65,368.14c47.16.58,85.2,11.61,84.88,24.74S765,416.45,717.11,415.82,631.42,403.9,632.5,390.7,672.56,367.56,719.65,368.14Z" transform="translate(7.71 58.01)"/><path class="cls-202" d="M719.3,381.53c37.46.47,67.73,5.48,67.53,11.24s-31.25,10.15-69.32,9.66-68.12-5.62-67.32-11.41S681.9,381.06,719.3,381.53Z" transform="translate(7.71 58.01)"/><polygon class="cls-203" points="991.48 131.17 992.78 157.27 1144.37 164.69 1145.33 140.62 991.48 131.17"/><polygon class="cls-190" points="991.48 131.17 990.06 132.17 991.6 158.78 992.78 157.27 991.48 131.17"/><polygon class="cls-204" points="991.6 158.78 1141.41 165.79 1144.37 164.69 992.78 157.27 991.6 158.78"/><polygon class="cls-205" points="998.47 151.21 1001.72 153.62 1135.63 160.29 1139.36 157.9 1140.18 148.06 1135.86 144.06 1002.74 136.26 997.99 139.14 998.47 151.21"/><polygon class="cls-206" points="1002.74 136.26 1001.8 136.84 1135.73 144.85 1139.12 147.93 1138.76 158.28 1139.36 157.9 1140.18 148.06 1135.86 144.06 1002.74 136.26"/></g></g></g></svg>