<?xml version="1.0" encoding="UTF-8"?>
<!DOCTYPE svg PUBLIC "-//W3C//DTD SVG 1.1//EN" "http://www.w3.org/Graphics/SVG/1.1/DTD/svg11.dtd">
<!-- Creator: CorelDRAW 2021 (64-Bit) -->
<svg xmlns="http://www.w3.org/2000/svg" xml:space="preserve" width="10.9632in" height="9.83311in" version="1.1" style="shape-rendering:geometricPrecision; text-rendering:geometricPrecision; image-rendering:optimizeQuality; fill-rule:evenodd; clip-rule:evenodd"
viewBox="0 0 421.87 378.38"
 xmlns:xlink="http://www.w3.org/1999/xlink"
 xmlns:xodm="http://www.corel.com/coreldraw/odm/2003">
 <defs>
  <style type="text/css">
   <![CDATA[
    .str0 {stroke:#4D4D4D;stroke-width:0.26;stroke-linecap:round;stroke-linejoin:round;stroke-miterlimit:2.61313}
    .fil2 {fill:none}
    .fil9 {fill:#FADEC7}
    .fil42 {fill:#BFC1C3}
    .fil41 {fill:#9CA3A3}
    .fil11 {fill:#919191}
    .fil40 {fill:#818686}
    .fil43 {fill:#818686}
    .fil10 {fill:#444545}
    .fil28 {fill:#28569B}
    .fil3 {fill:#212121}
    .fil26 {fill:#4678F9}
    .fil5 {fill:#4D4D4D}
    .fil8 {fill:#6498EB}
    .fil0 {fill:#6BB0FF}
    .fil6 {fill:#EB6363}
    .fil7 {fill:#EBB064}
    .fil45 {fill:#FF4747}
    .fil47 {fill:#FF4747}
    .fil46 {fill:white}
    .fil13 {fill:#FEFEFE;fill-rule:nonzero}
    .fil15 {fill:#F9D4B2;fill-rule:nonzero}
    .fil16 {fill:#EFA07D;fill-rule:nonzero}
    .fil21 {fill:#F1F1F5;fill-rule:nonzero}
    .fil30 {fill:#E2896A;fill-rule:nonzero}
    .fil44 {fill:#BF6858;fill-rule:nonzero}
    .fil31 {fill:#C5B4A2;fill-rule:nonzero}
    .fil12 {fill:#545454;fill-rule:nonzero}
    .fil14 {fill:#282929;fill-rule:nonzero}
    .fil37 {fill:#303234;fill-rule:nonzero}
    .fil33 {fill:#303234;fill-rule:nonzero}
    .fil32 {fill:#30363C;fill-rule:nonzero}
    .fil24 {fill:#28569B;fill-rule:nonzero}
    .fil25 {fill:#2EFF7E;fill-rule:nonzero}
    .fil4 {fill:#33CC33;fill-rule:nonzero}
    .fil48 {fill:#E6E6E6;fill-rule:nonzero}
    .fil1 {fill:#FFDE55}
    .fil20 {fill:url(#id1)}
    .fil18 {fill:url(#id2)}
    .fil23 {fill:url(#id3)}
    .fil19 {fill:url(#id4)}
    .fil17 {fill:url(#id5)}
    .fil38 {fill:url(#id6)}
    .fil34 {fill:url(#id7)}
    .fil35 {fill:url(#id8)}
    .fil29 {fill:url(#id9)}
    .fil36 {fill:url(#id10)}
    .fil22 {fill:url(#id11)}
    .fil27 {fill:url(#id12)}
    .fil39 {fill:url(#id13)}
   ]]>
  </style>
   <clipPath id="id0">
    <path d="M-0 0l421.87 0 0 378.38 -421.87 0 0 -378.38z"/>
   </clipPath>
  <linearGradient id="id1" gradientUnits="userSpaceOnUse" x1="205.06" y1="151.04" x2="205.06" y2="86.77">
   <stop offset="0" style="stop-opacity:1; stop-color:#F9D4B2"/>
   <stop offset="1" style="stop-opacity:1; stop-color:#EFA07D"/>
  </linearGradient>
  <linearGradient id="id2" gradientUnits="userSpaceOnUse" x1="205.05" y1="230.32" x2="205.05" y2="170.2">
   <stop offset="0" style="stop-opacity:1; stop-color:#F4BB96"/>
   <stop offset="1" style="stop-opacity:1; stop-color:#EFA07D"/>
  </linearGradient>
  <linearGradient id="id3" gradientUnits="userSpaceOnUse" x1="205.05" y1="238.19" x2="205.05" y2="263.88">
   <stop offset="0" style="stop-opacity:1; stop-color:#FEFEFE"/>
   <stop offset="1" style="stop-opacity:1; stop-color:#E4EAF1"/>
  </linearGradient>
  <linearGradient id="id4" gradientUnits="userSpaceOnUse" xlink:href="#id2" x1="205.05" y1="230.32" x2="205.05" y2="170.2">
  </linearGradient>
  <linearGradient id="id5" gradientUnits="userSpaceOnUse" xlink:href="#id1" x1="205.05" y1="230.32" x2="205.05" y2="170.2">
  </linearGradient>
  <linearGradient id="id6" gradientUnits="userSpaceOnUse" x1="202.75" y1="88.37" x2="202.75" y2="140.89">
   <stop offset="0" style="stop-opacity:1; stop-color:#33373C"/>
   <stop offset="1" style="stop-opacity:1; stop-color:#434A50"/>
  </linearGradient>
  <linearGradient id="id7" gradientUnits="userSpaceOnUse" x1="204.9" y1="157.54" x2="204.9" y2="103.86">
   <stop offset="0" style="stop-opacity:1; stop-color:#E0A884"/>
   <stop offset="1" style="stop-opacity:1; stop-color:#D7815F"/>
  </linearGradient>
  <linearGradient id="id8" gradientUnits="userSpaceOnUse" xlink:href="#id7" x1="205.53" y1="150.86" x2="205.53" y2="85.38">
  </linearGradient>
  <linearGradient id="id9" gradientUnits="userSpaceOnUse" x1="205.05" y1="230.32" x2="205.05" y2="170.2">
   <stop offset="0" style="stop-opacity:1; stop-color:#B98D78"/>
   <stop offset="1" style="stop-opacity:1; stop-color:#B46E57"/>
  </linearGradient>
  <linearGradient id="id10" gradientUnits="userSpaceOnUse" xlink:href="#id6" x1="205.52" y1="88.37" x2="205.52" y2="140.89">
  </linearGradient>
  <linearGradient id="id11" gradientUnits="userSpaceOnUse" x1="204.29" y1="84.74" x2="204.29" y2="130.36">
   <stop offset="0" style="stop-opacity:1; stop-color:#41464C"/>
   <stop offset="1" style="stop-opacity:1; stop-color:#525A60"/>
  </linearGradient>
  <linearGradient id="id12" gradientUnits="userSpaceOnUse" xlink:href="#id9" x1="205.05" y1="230.32" x2="205.05" y2="170.2">
  </linearGradient>
  <linearGradient id="id13" gradientUnits="userSpaceOnUse" xlink:href="#id11" x1="202.76" y1="88.37" x2="202.76" y2="140.89">
  </linearGradient>
 </defs>
 <g id="Layer_x0020_1">
  <metadata id="CorelCorpID_0Corel-Layer"/>
  <polygon class="fil0" points="-0,0 421.87,0 421.87,378.38 -0,378.38 "/>
  <g style="clip-path:url(#id0)">
   <g id="_2501917791904">
    <path id="_1" class="fil1" d="M426.95 383.46l0 -157.77c0,0 12.03,-183.99 -135.59,-85.05 0,0 -55.06,-92.35 -94.94,-10.57 -39.88,81.77 -124.74,85.89 -124.74,85.89 0,0 -154.66,-16.88 -94.79,128.64 59.87,145.51 193.74,116.41 193.74,116.41l236.98 -30.77 19.34 -46.78z"/>
   </g>
  </g>
  <polygon class="fil2" points="-0,0 421.87,0 421.87,378.38 -0,378.38 "/>
  <g id="_2501917793584">
   <rect class="fil3" transform="matrix(0.991742 0.128249 -0.128249 0.991742 222.623 159.435)" width="182.22" height="49.01" rx="8.35" ry="8.35"/>
   <path class="fil4" d="M242.86 191.52l-1 -0.14 0.03 -0.21c-0.41,0 -0.82,0 -1.23,-0.01 -0.51,-0.01 -0.91,-0.03 -1.21,-0.07 -0.56,-0.07 -0.8,-0.41 -0.72,-1l0.36 -2.63c0.08,-0.59 0.4,-0.85 0.93,-0.78l2.45 0.33 0.31 -2.25 -2.2 -0.3 -0.17 1.27 -0.98 -0.13 0.17 -1.25c0.08,-0.58 0.39,-0.83 0.93,-0.76l2.47 0.34c0.59,0.08 0.85,0.42 0.77,1l-0.9 6.58zm-0.86 -1.06l0.36 -2.65 -2.28 -0.31 -0.36 2.68 2.28 0.28z"/>
   <polygon id="_1_0" class="fil4" points="245.62,191.85 244.62,191.72 246.26,179.72 247.26,179.86 "/>
   <path id="_2" class="fil4" d="M251.63 191.77c-0.09,0.58 -0.42,0.82 -1.01,0.75l-2.37 -0.32c-0.59,-0.08 -0.85,-0.42 -0.77,-1.01l0.77 -5.69c0.09,-0.59 0.42,-0.85 1.01,-0.77l2.37 0.32c0.59,0.08 0.85,0.42 0.77,1.01l-0.36 2.66 -0.39 0.31 -2.82 -0.39 -0.37 2.69 2.19 0.3 0.19 -1.36 0.98 0.13 -0.18 1.35zm-0.51 -3.62l0.31 -2.25 -2.19 -0.3 -0.31 2.25 2.19 0.3z"/>
   <path id="_3" class="fil4" d="M257.81 188.35l-1 -0.14 0.21 -1.55 -1.9 -0.19 -0.88 6.49 -1.01 -0.14 1.02 -7.46 1.01 0.14 -0.03 0.21c0.34,-0.01 0.69,-0.01 1.04,-0.03 0.42,-0.01 0.76,0.01 1.03,0.04 0.56,0.08 0.8,0.41 0.72,1.01l-0.22 1.61z"/>
   <path id="_4" class="fil4" d="M261.1 193.87l-1.41 -0.19c-0.59,-0.08 -0.85,-0.42 -0.77,-1.01l0.77 -5.67 -0.9 -0.12 0.12 -0.9 0.9 0.12 0.32 -2.33 1 0.14 -0.32 2.33 1.3 0.18 -0.12 0.9 -1.3 -0.18 -0.77 5.66 1.3 0.18 -0.12 0.9z"/>
   <path id="_5" class="fil4" d="M265 195.94l-0.93 -0.13c-0.98,-2.23 -1.31,-4.57 -0.98,-7.02 0.34,-2.45 1.28,-4.62 2.83,-6.51l0.93 0.13 -0.01 0.08c-0.78,1.04 -1.37,2.06 -1.78,3.04 -0.42,1 -0.72,2.14 -0.89,3.41 -0.17,1.27 -0.19,2.44 -0.06,3.52 0.13,1.05 0.44,2.19 0.91,3.4l-0.01 0.08z"/>
   <path id="_6" class="fil4" d="M271.66 183.03l-1.24 3.67 -0.7 -0.09 0.8 -3.73 1.14 0.16zm-2.22 -0.3l-1.24 3.67 -0.7 -0.09 0.82 -3.73 1.13 0.15z"/>
   <path id="_7" class="fil4" d="M275.66 194.86c-0.08,0.59 -0.42,0.85 -1.01,0.77l-2.36 -0.32c-0.59,-0.08 -0.85,-0.42 -0.77,-1.01l0.77 -5.69c0.08,-0.59 0.42,-0.84 1.01,-0.77l2.36 0.32c0.59,0.08 0.85,0.42 0.77,1.01l-0.2 1.47 -1 -0.14 0.2 -1.46 -2.12 -0.29 -0.77 5.66 2.12 0.29 0.23 -1.66 1 0.14 -0.23 1.68z"/>
   <path id="_8" class="fil4" d="M281.6 195.63c-0.09,0.59 -0.42,0.85 -1.01,0.77l-2.5 -0.34c-0.59,-0.08 -0.84,-0.42 -0.77,-1.01l0.77 -5.69c0.09,-0.59 0.42,-0.85 1.01,-0.77l2.5 0.34c0.59,0.08 0.84,0.42 0.77,1.01l-0.77 5.69zm-1.01 -0.15l0.77 -5.66 -2.25 -0.31 -0.77 5.66 2.25 0.31z"/>
   <path id="_9" class="fil4" d="M287.39 197.28l-1.01 -0.14 0.03 -0.21c-1.11,0.02 -1.72,0.02 -1.84,0.01 -0.44,-0.06 -0.77,-0.26 -1,-0.59 -0.23,-0.33 -0.31,-0.72 -0.25,-1.16l0.59 -4.34c0.06,-0.46 0.27,-0.83 0.61,-1.09 0.35,-0.27 0.75,-0.37 1.21,-0.3l1.66 0.22 0.62 -4.53 1.01 0.14 -1.64 12zm-0.89 -1.06l0.77 -5.64 -1.41 -0.19c-0.56,-0.07 -0.88,0.17 -0.96,0.75l-0.54 3.98c-0.08,0.57 0.16,0.9 0.73,0.97 0.13,0.02 0.6,0.06 1.42,0.13z"/>
   <path id="_10" class="fil4" d="M293.36 197.17c-0.09,0.58 -0.42,0.82 -1.01,0.75l-2.37 -0.32c-0.59,-0.08 -0.85,-0.42 -0.77,-1.01l0.77 -5.69c0.09,-0.59 0.42,-0.85 1.01,-0.77l2.37 0.32c0.59,0.08 0.85,0.42 0.77,1.01l-0.36 2.66 -0.39 0.31 -2.82 -0.39 -0.37 2.69 2.19 0.3 0.19 -1.36 0.98 0.13 -0.18 1.35zm-0.51 -3.62l0.31 -2.25 -2.19 -0.3 -0.31 2.25 2.19 0.3z"/>
   <path id="_11" class="fil4" d="M302.3 198.3c-0.08,0.59 -0.42,0.85 -1.01,0.77l-2.36 -0.32c-0.59,-0.08 -0.85,-0.42 -0.77,-1.01l0.77 -5.69c0.08,-0.59 0.42,-0.84 1.01,-0.77l2.36 0.32c0.59,0.08 0.85,0.42 0.77,1.01l-0.2 1.47 -1 -0.14 0.2 -1.46 -2.12 -0.29 -0.77 5.66 2.12 0.29 0.23 -1.66 1 0.14 -0.23 1.68z"/>
   <path id="_12" class="fil4" d="M308.25 199.07c-0.09,0.59 -0.42,0.85 -1.01,0.77l-2.5 -0.34c-0.59,-0.08 -0.84,-0.42 -0.77,-1.01l0.77 -5.69c0.09,-0.59 0.42,-0.85 1.01,-0.77l2.5 0.34c0.59,0.08 0.84,0.42 0.77,1.01l-0.77 5.69zm-1.01 -0.15l0.77 -5.66 -2.25 -0.31 -0.77 5.66 2.25 0.31z"/>
   <path id="_13" class="fil4" d="M317.28 201.17l-1.01 -0.14 0.9 -6.56 -2.23 -0.23 -0.88 6.48 -1.01 -0.14 0.9 -6.56 -2.23 -0.23 -0.88 6.48 -1.01 -0.14 1.02 -7.46 1.01 0.14 -0.03 0.22c0.4,-0 0.8,-0.01 1.19,-0.01 0.48,0 0.88,0.02 1.19,0.06 0.34,0.05 0.57,0.18 0.7,0.4 0.43,-0 0.85,-0 1.28,-0.01 0.56,-0 0.97,0.02 1.25,0.06 0.59,0.08 0.85,0.42 0.77,1.01l-0.9 6.62z"/>
   <path id="_14" class="fil4" d="M323.48 200.3c-0.06,0.46 -0.27,0.83 -0.62,1.09 -0.35,0.26 -0.75,0.37 -1.21,0.3l-2.68 -0.37 1.64 -12 1.01 0.14 -0.65 4.74c0.4,0 0.81,0.01 1.21,0.01 0.51,0 0.91,0.02 1.2,0.06 0.59,0.08 0.85,0.4 0.77,0.96l-0.69 5.06zm-0.99 -0.29l0.65 -4.8 -2.26 -0.24 -0.77 5.59 1.41 0.19c0.56,0.07 0.88,-0.17 0.96,-0.75z"/>
   <path id="_15" class="fil4" d="M329.13 202.68l-1 -0.14 0.03 -0.21c-0.41,0 -0.82,0 -1.23,-0.01 -0.51,-0.01 -0.91,-0.03 -1.21,-0.07 -0.56,-0.07 -0.8,-0.41 -0.72,-1l0.36 -2.63c0.08,-0.59 0.4,-0.85 0.93,-0.78l2.45 0.33 0.31 -2.25 -2.2 -0.3 -0.17 1.27 -0.98 -0.13 0.17 -1.25c0.08,-0.58 0.39,-0.83 0.93,-0.76l2.47 0.34c0.59,0.08 0.85,0.42 0.77,1l-0.9 6.58zm-0.86 -1.06l0.36 -2.65 -2.28 -0.31 -0.36 2.68 2.28 0.28z"/>
   <path id="_16" class="fil4" d="M333.49 203.23l-1.41 -0.19c-0.59,-0.08 -0.85,-0.42 -0.77,-1.01l0.77 -5.67 -0.9 -0.12 0.12 -0.9 0.9 0.12 0.32 -2.33 1 0.14 -0.32 2.33 1.3 0.18 -0.12 0.9 -1.3 -0.18 -0.77 5.66 1.3 0.18 -0.12 0.9z"/>
   <path id="_17" class="fil4" d="M340.22 194.83l-1.03 -0.14 0.18 -1.3 1.03 0.14 -0.18 1.3zm-1.26 9.09l-1 -0.14 1.02 -7.46 1 0.14 -1.02 7.46z"/>
   <path id="_18" class="fil4" d="M344.82 203.8c-0.08,0.59 -0.42,0.84 -1.01,0.77l-2.28 -0.31c-0.59,-0.09 -0.85,-0.42 -0.77,-1.01l0.22 -1.66 1 0.14 -0.22 1.66 2.06 0.28 0.2 -1.48 -2.36 -2.55c-0.23,-0.24 -0.32,-0.52 -0.27,-0.85l0.17 -1.22c0.08,-0.59 0.42,-0.84 1.01,-0.77l2.24 0.31c0.59,0.09 0.85,0.42 0.77,1.01l-0.2 1.46 -0.98 -0.13 0.2 -1.46 -2.06 -0.28 -0.17 1.3 2.38 2.55c0.22,0.23 0.31,0.52 0.26,0.86l-0.19 1.39z"/>
   <path id="_19" class="fil4" d="M353.69 204.95c-0.08,0.59 -0.42,0.85 -1.01,0.77l-2.36 -0.32c-0.59,-0.08 -0.85,-0.42 -0.77,-1.01l0.77 -5.69c0.08,-0.59 0.42,-0.84 1.01,-0.77l2.36 0.32c0.59,0.08 0.85,0.42 0.77,1.01l-0.2 1.47 -1 -0.14 0.2 -1.46 -2.12 -0.29 -0.77 5.66 2.12 0.29 0.23 -1.66 1 0.14 -0.23 1.68z"/>
   <path id="_20" class="fil4" d="M359.64 205.72c-0.09,0.59 -0.42,0.85 -1.01,0.77l-2.5 -0.34c-0.59,-0.08 -0.84,-0.42 -0.77,-1.01l0.77 -5.69c0.09,-0.59 0.42,-0.85 1.01,-0.77l2.5 0.34c0.59,0.08 0.84,0.42 0.77,1.01l-0.77 5.69zm-1.01 -0.15l0.77 -5.66 -2.25 -0.31 -0.77 5.66 2.25 0.31z"/>
   <path id="_21" class="fil4" d="M365.6 206.49c-0.09,0.59 -0.42,0.85 -1.01,0.77l-2.5 -0.34c-0.59,-0.08 -0.84,-0.42 -0.77,-1.01l0.77 -5.69c0.09,-0.59 0.42,-0.85 1.01,-0.77l2.5 0.34c0.59,0.08 0.84,0.42 0.77,1.01l-0.77 5.69zm-1.01 -0.15l0.77 -5.66 -2.25 -0.31 -0.77 5.66 2.25 0.31z"/>
   <polygon id="_22" class="fil4" points="368.22,207.71 367.22,207.57 368.86,195.57 369.85,195.71 "/>
   <path id="_23" class="fil4" d="M375.05 196.4l-1.24 3.67 -0.7 -0.09 0.8 -3.73 1.14 0.16zm-2.22 -0.3l-1.24 3.67 -0.7 -0.09 0.82 -3.73 1.13 0.15z"/>
   <path id="_24" class="fil4" d="M377.99 203.66c-0.33,2.45 -1.27,4.62 -2.83,6.51l-0.9 -0.12 0.01 -0.08c0.78,-1.04 1.37,-2.06 1.77,-3.04 0.42,-1 0.72,-2.14 0.89,-3.41 0.17,-1.27 0.19,-2.44 0.05,-3.52 -0.13,-1.05 -0.43,-2.19 -0.9,-3.4l0.01 -0.08 0.9 0.12c0.99,2.23 1.31,4.57 0.98,7.03z"/>
  </g>
  <g id="_2501917794256">
   <rect class="fil5 str0" transform="matrix(1.46735 -0.155945 0.172166 1.61998 35.0338 66.2265)" width="110" height="64.1" rx="5.03" ry="5.03"/>
   <path class="fil3" d="M41.6 79.61l151.24 -16.07c0.52,-0.05 0.99,0.32 1.04,0.84l8.18 76.94c0.46,4.34 -2.71,8.27 -7.05,8.73l-137.34 14.6c-4.34,0.46 -8.27,-2.71 -8.73,-7.05l-8.18 -76.94c-0.06,-0.52 0.32,-0.99 0.84,-1.04z"/>
   <path class="fil4" d="M61.76 92.51c0.05,0.48 -0.17,0.75 -0.65,0.8l-1.93 0.21c-0.48,0.05 -0.75,-0.17 -0.8,-0.65l-0.49 -4.62c-0.05,-0.48 0.17,-0.75 0.65,-0.8l1.94 -0.21c0.48,-0.05 0.75,0.17 0.8,0.65l0.13 1.19 -0.82 0.09 -0.13 -1.18 -1.72 0.18 0.49 4.6 1.72 -0.18 -0.14 -1.35 0.82 -0.09 0.14 1.36z"/>
   <path id="_1_1" class="fil4" d="M66.6 92c0.05,0.48 -0.17,0.75 -0.65,0.8l-2.05 0.22c-0.48,0.05 -0.75,-0.16 -0.8,-0.65l-0.49 -4.62c-0.05,-0.48 0.17,-0.75 0.65,-0.8l2.05 -0.22c0.48,-0.05 0.74,0.16 0.8,0.65l0.49 4.62zm-0.84 0.08l-0.49 -4.6 -1.83 0.2 0.49 4.6 1.83 -0.2z"/>
   <path id="_2_2" class="fil4" d="M71.52 92.21l-0.84 0.09 -0.57 -5.32 -1.82 0.25 0.56 5.27 -0.84 0.09 -0.65 -6.07 0.84 -0.09 0.02 0.17c0.32,-0.08 0.64,-0.16 0.97,-0.24 0.39,-0.09 0.72,-0.15 0.97,-0.18 0.46,-0.05 0.72,0.17 0.77,0.65l0.57 5.38z"/>
   <path id="_3_3" class="fil4" d="M76.06 90.99c0.05,0.48 -0.16,0.75 -0.65,0.8l-1.88 0.2c-0.48,0.05 -0.75,-0.17 -0.8,-0.65l-0.14 -1.36 0.82 -0.09 0.15 1.36 1.68 -0.18 -0.13 -1.21 -2.37 -1.54c-0.23,-0.15 -0.35,-0.35 -0.38,-0.62l-0.11 -0.99c-0.05,-0.48 0.16,-0.74 0.65,-0.8l1.86 -0.2c0.48,-0.05 0.75,0.17 0.8,0.65l0.13 1.19 -0.81 0.09 -0.13 -1.2 -1.68 0.18 0.11 1.06 2.39 1.54c0.22,0.14 0.35,0.35 0.38,0.63l0.12 1.13z"/>
   <path id="_4_4" class="fil4" d="M80.87 90.48c0.05,0.48 -0.17,0.75 -0.65,0.8l-2.05 0.22c-0.48,0.05 -0.75,-0.16 -0.8,-0.65l-0.49 -4.62c-0.05,-0.48 0.17,-0.75 0.65,-0.8l2.05 -0.22c0.48,-0.05 0.74,0.16 0.8,0.65l0.49 4.62zm-0.84 0.08l-0.49 -4.6 -1.83 0.2 0.49 4.6 1.83 -0.2z"/>
   <polygon id="_5_5" class="fil4" points="83.17,90.97 82.35,91.06 81.31,81.28 82.13,81.19 "/>
   <path id="_6_6" class="fil4" d="M87.91 89.75c0.05,0.47 -0.17,0.73 -0.65,0.79l-1.96 0.21c-0.48,0.05 -0.75,-0.16 -0.8,-0.65l-0.49 -4.62c-0.05,-0.48 0.17,-0.75 0.65,-0.8l1.96 -0.21c0.48,-0.05 0.75,0.16 0.8,0.65l0.23 2.16 -0.25 0.32 -2.32 0.25 0.23 2.2 1.79 -0.19 -0.12 -1.12 0.81 -0.09 0.12 1.11zm-1.11 -2.76l-0.19 -1.83 -1.79 0.19 0.2 1.83 1.79 -0.19z"/>
   <polygon id="_7_7" class="fil4" points="90.21,90.22 89.26,90.32 89.14,89.23 90.09,89.13 "/>
   <polygon id="_8_8" class="fil4" points="92.34,89.99 91.52,90.08 90.48,80.31 91.31,80.22 "/>
   <path id="_9_9" class="fil4" d="M97.17 88.75c0.05,0.48 -0.17,0.75 -0.65,0.8l-2.05 0.22c-0.48,0.05 -0.75,-0.16 -0.8,-0.65l-0.49 -4.62c-0.05,-0.48 0.17,-0.75 0.65,-0.8l2.05 -0.22c0.48,-0.05 0.74,0.16 0.8,0.65l0.49 4.62zm-0.84 0.08l-0.49 -4.6 -1.83 0.2 0.49 4.6 1.83 -0.2z"/>
   <path id="_10_10" class="fil4" d="M102.21 90.54c0.05,0.48 -0.17,0.75 -0.65,0.8l-1.95 0.21c-0.48,0.05 -0.74,-0.17 -0.8,-0.65 -0.01,-0.09 -0.02,-0.22 -0.03,-0.4 -0.01,-0.18 -0.02,-0.3 -0.03,-0.38l0.82 -0.09 0.08 0.8 1.74 -0.18 -0.17 -1.59 -1.36 0.15c-0.37,0.04 -0.69,-0.05 -0.97,-0.28 -0.27,-0.22 -0.43,-0.52 -0.47,-0.9l-0.38 -3.54c-0.04,-0.36 0.04,-0.67 0.23,-0.93 0.19,-0.26 0.46,-0.41 0.82,-0.45 0.1,-0.01 0.6,0.01 1.5,0.05l-0.02 -0.17 0.82 -0.09 0.81 7.65zm-1.07 -2.22l-0.49 -4.58c-0.66,0.03 -1.05,0.05 -1.16,0.06 -0.46,0.05 -0.66,0.31 -0.61,0.77l0.34 3.25c0.05,0.47 0.3,0.67 0.76,0.62l1.15 -0.12z"/>
   <path id="_11_11" class="fil4" d="M105.81 89.84l-0.76 0.08c-1.21,-1.57 -1.92,-3.36 -2.13,-5.35 -0.21,-2 0.11,-3.89 0.96,-5.68l0.76 -0.08 0.01 0.07c-0.41,0.97 -0.68,1.89 -0.81,2.74 -0.13,0.87 -0.15,1.83 -0.04,2.86 0.11,1.03 0.32,1.96 0.64,2.79 0.31,0.81 0.77,1.64 1.37,2.51l0.01 0.07z"/>
   <path id="_12_12" class="fil4" d="M108.56 78.38l-0.28 3.14 -0.57 0.06 -0.08 -3.1 0.93 -0.1zm-1.8 0.19l-0.27 3.14 -0.57 0.06 -0.08 -3.1 0.91 -0.1z"/>
   <polygon id="_13_13" class="fil4" points="114.89,87.6 114.03,87.69 113.53,83 111.18,83.24 111.68,87.94 110.81,88.03 109.78,78.26 110.64,78.16 111.09,82.46 113.45,82.21 112.99,77.91 113.85,77.82 "/>
   <path id="_14_14" class="fil4" d="M119.7 86.37c0.05,0.47 -0.17,0.73 -0.65,0.79l-1.96 0.21c-0.48,0.05 -0.75,-0.16 -0.8,-0.65l-0.49 -4.62c-0.05,-0.48 0.17,-0.75 0.65,-0.8l1.96 -0.21c0.48,-0.05 0.75,0.16 0.8,0.65l0.23 2.16 -0.25 0.32 -2.32 0.25 0.23 2.2 1.79 -0.19 -0.12 -1.12 0.81 -0.09 0.12 1.11zm-1.11 -2.76l-0.2 -1.83 -1.79 0.19 0.2 1.83 1.79 -0.19z"/>
   <polygon id="_15_15" class="fil4" points="122.01,86.84 121.19,86.93 120.15,77.15 120.97,77.07 "/>
   <polygon id="_16_16" class="fil4" points="124.29,86.6 123.46,86.69 122.43,76.91 123.25,76.82 "/>
   <path id="_17_17" class="fil4" d="M129.11 85.35c0.05,0.48 -0.17,0.75 -0.65,0.8l-2.05 0.22c-0.48,0.05 -0.75,-0.16 -0.8,-0.65l-0.49 -4.62c-0.05,-0.48 0.17,-0.75 0.65,-0.8l2.05 -0.22c0.48,-0.05 0.74,0.16 0.8,0.65l0.49 4.62zm-0.84 0.08l-0.49 -4.6 -1.83 0.2 0.49 4.6 1.83 -0.2z"/>
   <path id="_18_18" class="fil4" d="M158.01 73.13l-0.28 3.14 -0.57 0.06 -0.08 -3.1 0.93 -0.1zm-1.8 0.19l-0.27 3.14 -0.57 0.06 -0.08 -3.1 0.91 -0.1z"/>
   <path id="_19_19" class="fil4" d="M161.74 78.31c0.21,2 -0.11,3.89 -0.96,5.68l-0.73 0.08 -0.01 -0.07c0.41,-0.97 0.68,-1.89 0.81,-2.74 0.14,-0.87 0.15,-1.83 0.04,-2.86 -0.11,-1.03 -0.32,-1.96 -0.64,-2.79 -0.31,-0.81 -0.76,-1.64 -1.36,-2.51l-0.01 -0.07 0.73 -0.08c1.21,1.57 1.92,3.35 2.13,5.35z"/>
   <path id="_20_20" class="fil4" d="M137.95 75.26l-0.28 9.94 -0.71 0.08 -1.84 -7.23c-0.02,-0.13 -0.05,-0.32 -0.08,-0.57 0.01,0.13 0.03,0.32 0.03,0.57l-0.29 7.46 -0.71 0.08 -2.37 -9.66 0.86 -0.09 1.57 6.94c0.02,0.16 0.05,0.39 0.1,0.69 -0.02,-0.16 -0.04,-0.39 -0.05,-0.7l0.27 -7.13 0.75 -0.08 1.75 6.92c0.02,0.16 0.06,0.39 0.1,0.69 -0.02,-0.16 -0.03,-0.39 -0.04,-0.7l0.09 -7.12 0.85 -0.09z"/>
   <path id="_21_21" class="fil4" d="M143.47 83.83c0.05,0.48 -0.17,0.75 -0.65,0.8l-2.05 0.22c-0.48,0.05 -0.75,-0.16 -0.8,-0.65l-0.49 -4.62c-0.05,-0.48 0.17,-0.75 0.65,-0.8l2.05 -0.22c0.48,-0.05 0.74,0.16 0.8,0.65l0.49 4.62zm-0.84 0.08l-0.49 -4.6 -1.83 0.2 0.49 4.6 1.83 -0.2z"/>
   <path id="_22_22" class="fil4" d="M147.65 80.01l-0.82 0.09 -0.13 -1.26 -1.52 0.21 0.56 5.27 -0.84 0.09 -0.65 -6.07 0.84 -0.09 0.02 0.17c0.27,-0.07 0.54,-0.15 0.82,-0.22 0.33,-0.09 0.6,-0.14 0.82,-0.17 0.46,-0.05 0.71,0.17 0.77,0.65l0.14 1.32z"/>
   <polygon id="_23_23" class="fil4" points="150,83.87 149.18,83.95 148.14,74.18 148.97,74.09 "/>
   <path id="_24_24" class="fil4" d="M154.85 83.35l-0.82 0.09 -0.02 -0.17c-0.88,0.23 -1.36,0.35 -1.46,0.36 -0.36,0.04 -0.65,-0.05 -0.9,-0.27 -0.24,-0.22 -0.38,-0.51 -0.42,-0.87l-0.37 -3.54c-0.04,-0.38 0.05,-0.7 0.27,-0.98 0.22,-0.28 0.52,-0.43 0.89,-0.47l1.36 -0.15 -0.39 -3.7 0.82 -0.09 1.04 9.77zm-0.9 -0.67l-0.49 -4.58 -1.15 0.12c-0.46,0.05 -0.66,0.31 -0.61,0.78l0.34 3.24c0.05,0.47 0.3,0.68 0.76,0.63 0.11,-0.01 0.49,-0.07 1.14,-0.19z"/>
   <circle class="fil6" transform="matrix(1.46735 -0.155945 0.155945 1.46735 55.6128 71.6127)" r="2.48"/>
   <circle class="fil7" transform="matrix(1.46735 -0.155945 0.155945 1.46735 65.7594 70.5344)" r="2.48"/>
   <circle class="fil8" transform="matrix(1.46735 -0.155945 0.155945 1.46735 75.3858 69.5113)" r="2.48"/>
  </g>
  <g id="_2501917797952">
   <g>
    <circle class="fil9" cx="188.27" cy="151.87" r="11.27"/>
    <g>
     <path class="fil10" d="M188.26 148.05c-2.14,0 -3.87,1.71 -3.87,3.83 0,0.52 0.11,1.02 0.3,1.47 0.06,0.16 0.14,0.31 0.22,0.46l0.02 0.01c0.67,1.13 1.92,1.88 3.34,1.88 1.51,0 2.82,-0.86 3.46,-2.11l0.05 -0.02c0.13,-0.29 0.23,-0.59 0.3,-0.9 0.05,-0.25 0.08,-0.52 0.07,-0.79 -0,-0.02 -0,-0.05 -0.01,-0.07 -0.04,-2.08 -1.75,-3.76 -3.87,-3.76z"/>
     <path class="fil11" d="M189.04 148.12c-0.26,-0.05 -0.54,-0.08 -0.82,-0.08 -2.14,0.03 -3.84,1.8 -3.81,3.95 0.01,0.67 0.2,1.28 0.5,1.82 0.6,0.19 1.24,0.36 1.92,0.5 0.38,0.08 0.78,0.14 1.19,0.2 1.18,-0.01 2.51,-0.35 3.75,-0.94 0.13,-0.29 0.23,-0.59 0.3,-0.9 -0.06,0.32 -0.17,0.62 -0.3,0.9 -1.24,0.58 -2.57,0.93 -3.75,0.94 -0.41,-0.05 -0.8,-0.12 -1.19,-0.2 -0.68,-0.14 -1.32,-0.31 -1.92,-0.5 -0.26,-0.48 -0.44,-1.02 -0.48,-1.6 0.06,0.01 0.12,0.03 0.18,0.04 0.71,0.14 1.41,0.22 2.08,0.25 -0.06,-0.17 -0.09,-0.35 -0.1,-0.54 -0.01,-0.93 0.73,-1.7 1.65,-1.71 0.12,-0 0.24,0.01 0.36,0.03 0.76,0.15 1.34,0.82 1.35,1.63 0,0.13 -0.01,0.25 -0.04,0.37 0.92,-0.16 1.68,-0.37 2.21,-0.55 0,0.05 0.02,0.1 0.02,0.15 -0.03,-1.87 -1.35,-3.41 -3.1,-3.76z"/>
     <path class="fil12" d="M186.6 151.96c-0.01,-0.93 0.73,-1.7 1.65,-1.71 0.93,-0.01 1.69,0.73 1.7,1.67 0.01,0.93 -0.73,1.7 -1.66,1.72 -0.93,0.01 -1.69,-0.73 -1.7,-1.67z"/>
     <path class="fil13" d="M187.29 150.66c0.16,0.43 -0.13,0.94 -0.66,1.14 -0.53,0.2 -1.08,0.01 -1.24,-0.42 -0.16,-0.43 0.13,-0.94 0.66,-1.14 0.53,-0.2 1.08,-0.01 1.24,0.42z"/>
     <path class="fil14" d="M189.92 152.29c-0.93,0.16 -2.03,0.27 -3.23,0.22 0.2,0.55 0.67,0.98 1.25,1.09 0.11,0.02 0.23,0.03 0.35,0.03 0.8,-0.01 1.46,-0.59 1.62,-1.34z"/>
    </g>
   </g>
   <g>
    <circle class="fil9" cx="222.14" cy="151.72" r="11.27"/>
    <g>
     <path class="fil10" d="M222.14 147.89c-2.14,0 -3.87,1.71 -3.87,3.83 0,0.52 0.11,1.02 0.3,1.47 0.06,0.16 0.14,0.31 0.22,0.46l0.02 0.01c0.67,1.13 1.92,1.88 3.34,1.88 1.51,0 2.82,-0.86 3.46,-2.11l0.05 -0.02c0.13,-0.29 0.23,-0.59 0.3,-0.9 0.05,-0.25 0.08,-0.52 0.07,-0.79 -0,-0.02 -0,-0.05 -0.01,-0.07 -0.04,-2.08 -1.75,-3.76 -3.87,-3.76z"/>
     <path class="fil11" d="M222.91 147.96c-0.26,-0.05 -0.54,-0.08 -0.82,-0.08 -2.14,0.03 -3.84,1.8 -3.81,3.95 0.01,0.67 0.2,1.28 0.5,1.82 0.6,0.19 1.24,0.36 1.92,0.5 0.38,0.08 0.78,0.14 1.19,0.2 1.18,-0.01 2.51,-0.35 3.75,-0.94 0.13,-0.29 0.23,-0.59 0.3,-0.9 -0.06,0.32 -0.17,0.62 -0.3,0.9 -1.24,0.58 -2.57,0.93 -3.75,0.94 -0.41,-0.05 -0.8,-0.12 -1.19,-0.2 -0.68,-0.14 -1.32,-0.31 -1.92,-0.5 -0.26,-0.48 -0.44,-1.02 -0.48,-1.6 0.06,0.01 0.12,0.03 0.18,0.04 0.71,0.14 1.41,0.22 2.08,0.25 -0.06,-0.17 -0.09,-0.35 -0.1,-0.54 -0.01,-0.93 0.73,-1.7 1.65,-1.71 0.12,-0 0.24,0.01 0.36,0.03 0.76,0.15 1.34,0.82 1.35,1.63 0,0.13 -0.01,0.25 -0.04,0.37 0.92,-0.16 1.68,-0.37 2.21,-0.55 0,0.05 0.02,0.1 0.02,0.15 -0.03,-1.87 -1.35,-3.41 -3.1,-3.76z"/>
     <path class="fil12" d="M220.47 151.81c-0.01,-0.93 0.73,-1.7 1.65,-1.71 0.93,-0.01 1.69,0.73 1.7,1.67 0.01,0.93 -0.73,1.7 -1.66,1.72 -0.93,0.01 -1.69,-0.73 -1.7,-1.67z"/>
     <path class="fil13" d="M221.16 150.51c0.16,0.43 -0.13,0.94 -0.66,1.14 -0.53,0.2 -1.08,0.01 -1.24,-0.42 -0.16,-0.43 0.13,-0.94 0.66,-1.14 0.53,-0.2 1.08,-0.01 1.24,0.42z"/>
     <path class="fil14" d="M223.79 152.13c-0.93,0.16 -2.03,0.27 -3.23,0.22 0.2,0.55 0.67,0.98 1.25,1.09 0.11,0.02 0.23,0.03 0.35,0.03 0.8,-0.01 1.46,-0.59 1.62,-1.34z"/>
    </g>
   </g>
   <path class="fil15" d="M240.8 147.16c1.19,-3.34 6.06,-6.46 8.1,-5.27 2.04,1.19 3.18,7.03 2.33,10.71 -0.85,3.68 -4.25,10.31 -5.44,11.62 -1.19,1.3 -5.61,3.97 -8.33,3.23l3.34 -20.29z"/>
   <path class="fil16" d="M242 145.11c-0.52,0.65 -0.94,1.34 -1.19,2.05l-3.34 20.29c1.76,0.48 4.22,-0.47 6.06,-1.54l-1.53 -20.79z"/>
   <path class="fil15" d="M169.3 147.16c-1.19,-3.34 -6.06,-6.46 -8.1,-5.27 -2.04,1.19 -3.17,7.03 -2.32,10.71 0.85,3.68 4.25,10.31 5.44,11.62 1.19,1.3 5.61,3.97 8.33,3.23l-3.34 -20.29z"/>
   <path class="fil16" d="M168.11 145.11c0.52,0.65 0.94,1.34 1.19,2.05l3.34 20.29c-1.76,0.48 -4.21,-0.47 -6.06,-1.54l1.53 -20.79z"/>
   <path class="fil17" d="M205.05 284.66c-38.74,0 -70.65,-19.16 -73.82,-23.35 -0.55,-0.73 3.86,-10.2 5.56,-13.6 1.61,-3.23 3.23,-5.12 6.96,-8.11 3.94,4.45 19.73,22.15 25.87,27.04 7.04,5.61 35.43,14.62 35.43,14.62l0 -7.65c-12.95,-11.45 -24.56,-31.24 -30.76,-42.96 16.35,7.44 30.76,11.47 30.76,11.47 0,0 14.41,-4.03 30.76,-11.47 -6.2,11.71 -17.8,31.51 -30.76,42.95l0 7.65c0,0 28.39,-9.01 35.44,-14.62 6.14,-4.89 21.93,-22.6 25.87,-27.04 3.74,2.99 5.35,4.89 6.96,8.11 1.7,3.4 6.11,12.87 5.56,13.6 -3.17,4.2 -35.09,23.35 -73.82,23.35zm0 -50.75c0,0 -15.4,-2.28 -32.43,-6.46 -1.97,-3.86 -3.08,-6.27 -3.08,-6.27 0.02,-0.02 0.05,-0.04 0.08,-0.06 0,-0 0.01,-0.01 0.01,-0.01 0.02,-0.01 0.04,-0.03 0.06,-0.04 0.01,-0 0.01,-0.01 0.02,-0.01 0.02,-0.02 0.04,-0.03 0.06,-0.04 0,-0 0.01,-0.01 0.01,-0.01 0.02,-0.01 0.04,-0.03 0.06,-0.05 0.01,-0 0.01,-0.01 0.02,-0.01 0.02,-0.02 0.04,-0.03 0.06,-0.05 0,-0 0.01,-0 0.01,-0.01 0.02,-0.02 0.05,-0.04 0.07,-0.05 0,-0 0,-0 0,-0 4.03,-3.04 6.73,-5.87 8.52,-8.65 0,0 0,-0 0,-0 0.01,-0.01 0.02,-0.03 0.03,-0.05 0,-0 0,-0.01 0,-0.01 0.01,-0.02 0.02,-0.03 0.03,-0.05 0,-0 0,-0 0,-0.01 0.01,-0.02 0.02,-0.03 0.03,-0.05 0,-0 0,-0.01 0.01,-0.01 0.01,-0.02 0.02,-0.03 0.03,-0.05 0,-0 0,-0 0,-0.01 0.01,-0.02 0.02,-0.03 0.03,-0.05 0,-0 0,-0 0,-0.01 0.02,-0.03 0.04,-0.07 0.07,-0.1 0,-0 0,-0 0,-0.01 0.01,-0.02 0.02,-0.03 0.03,-0.04 0,-0 0.01,-0.01 0.01,-0.01 0.01,-0.01 0.01,-0.03 0.02,-0.04 0,-0.01 0.01,-0.01 0.01,-0.01 0.01,-0.01 0.02,-0.03 0.02,-0.04 0,-0.01 0.01,-0.01 0.01,-0.02 0.01,-0.01 0.01,-0.02 0.02,-0.03 0,-0.01 0.01,-0.01 0.01,-0.02 0.01,-0.01 0.01,-0.02 0.02,-0.03 0,-0.01 0.01,-0.02 0.01,-0.02 0,-0.01 0.01,-0.02 0.02,-0.03 0.01,-0.01 0.01,-0.02 0.01,-0.02 0.01,-0.01 0.01,-0.02 0.01,-0.03 0.01,-0.01 0.01,-0.02 0.01,-0.03 0.01,-0.01 0.01,-0.01 0.01,-0.02 0.01,-0.02 0.02,-0.04 0.03,-0.06 0,-0.01 0.01,-0.01 0.01,-0.02 0.01,-0.01 0.01,-0.02 0.02,-0.03 0,-0.01 0.01,-0.01 0.01,-0.02 0.01,-0.01 0.01,-0.02 0.02,-0.03 0,-0.01 0.01,-0.01 0.01,-0.02 0.01,-0.01 0.01,-0.02 0.02,-0.03 0,-0.01 0.01,-0.01 0.01,-0.02 0.01,-0.01 0.01,-0.02 0.02,-0.03 0,-0.01 0.01,-0.01 0.01,-0.01 0.01,-0.01 0.01,-0.02 0.02,-0.04 0,-0 0.01,-0.01 0.01,-0.01 0.01,-0.01 0.01,-0.03 0.02,-0.04 0,-0 0,-0 0,-0.01 2.18,-3.93 2.67,-7.83 2.67,-12.21 -0,-2.09 -0.11,-4.3 -0.21,-6.67 -0.09,-2.38 -0.26,-5.29 -0.46,-8.41 3.15,3.58 6.44,6.12 9.29,8.52 6.32,5.33 10.73,7.03 14.55,7.03 3.82,0 8.23,-1.7 14.55,-7.03 2.85,-2.4 6.13,-4.94 9.29,-8.52 -0.2,3.12 -0.36,6.03 -0.46,8.41 -0.36,9.14 -1.01,15.82 5.59,23.21 0,0 0,0 0,0 0.01,0.01 0.03,0.03 0.04,0.04 0,0 0.01,0.01 0.01,0.01 0.01,0.01 0.02,0.03 0.04,0.04 0,0.01 0.01,0.01 0.01,0.01 0.01,0.01 0.02,0.03 0.03,0.04 0,0.01 0.01,0.01 0.01,0.01 0.01,0.01 0.02,0.03 0.04,0.04 0,0 0.01,0.01 0.01,0.01 0.01,0.01 0.02,0.03 0.04,0.04 0,0 0,0.01 0.01,0.01 0.02,0.03 0.05,0.05 0.07,0.08 0,0 0.01,0.01 0.01,0.01 0.01,0.01 0.01,0.02 0.02,0.03 0.01,0.01 0.02,0.02 0.03,0.03 0.01,0.01 0.01,0.02 0.02,0.02 0.01,0.01 0.02,0.02 0.03,0.03 0.01,0.01 0.01,0.01 0.02,0.02 0.01,0.01 0.02,0.02 0.03,0.03 0.01,0.01 0.01,0.01 0.02,0.02 0.01,0.01 0.02,0.02 0.03,0.04 0,0 0.01,0.01 0.01,0.02 0.01,0.01 0.02,0.03 0.04,0.04 0,0 0.01,0.01 0.01,0.01 0.01,0.02 0.03,0.03 0.04,0.05 0,0 0,0 0,0 1.48,1.57 3.3,3.17 5.52,4.83 0,0 0,0 0,0 0.02,0.02 0.05,0.04 0.07,0.05 0,0 0.01,0.01 0.01,0.01 0.02,0.02 0.04,0.03 0.06,0.05 0,0 0.01,0.01 0.01,0.01 0.02,0.01 0.04,0.03 0.06,0.05 0,0 0.01,0.01 0.01,0.01 0.02,0.02 0.04,0.03 0.06,0.05 0,0 0.01,0.01 0.01,0.01 0.03,0.02 0.05,0.04 0.08,0.06 0,0 -1.11,2.41 -3.08,6.27 -17.02,4.19 -32.43,6.46 -32.43,6.46z"/>
   <path class="fil18" d="M205.05 242.12c0,0 -14.41,-4.03 -30.76,-11.47 -0.61,-1.15 -1.17,-2.22 -1.67,-3.2 17.02,4.19 32.43,6.46 32.43,6.46 0,0 15.41,-2.28 32.43,-6.46 -0.5,0.98 -1.06,2.05 -1.67,3.21 -16.35,7.44 -30.76,11.47 -30.76,11.47z"/>
   <path class="fil19" d="M219.6 201.45c2.73,-3.02 5.86,-6.21 8.89,-10.62 0.54,-11.86 2.43,-33.92 2.43,-33.92l-51.75 0c0,0 1.89,22.06 2.43,33.92 3.03,4.41 6.16,7.6 8.89,10.62 6.32,7.01 10.73,9.24 14.55,9.24 3.82,0 8.23,-2.23 14.55,-9.24z"/>
   <path class="fil20" d="M205.06 199.3c-3.82,0 -8.23,-1.7 -14.55,-7.03 -2.85,-2.4 -6.13,-4.94 -9.29,-8.52 -3.37,-3.83 -6.59,-8.87 -8.96,-16.22 -0.34,-1.04 -0.65,-2.12 -0.95,-3.25 -1.48,-5.61 -2.61,-10.71 -3.47,-15.46 0,-0 0,0 0,-0l2.5 -17.09c14.31,-34.3 15.92,-29.29 52.83,-20.33l10.26 7.54c0,0 4.36,13.89 4.42,14.11 0.4,0.85 1.93,2.44 1.93,2.44l2.5 13.33c0,0 0,0 0,0 -0.86,4.75 -1.99,9.84 -3.47,15.46 -0.3,1.13 -0.61,2.22 -0.95,3.26 -2.37,7.35 -5.59,12.39 -8.96,16.22 -3.15,3.58 -6.44,6.12 -9.29,8.52 -6.32,5.33 -10.73,7.03 -14.55,7.03zm17.82 -54.15c-3.06,0.65 -6.49,3.11 -8.25,6.06 1.24,2.11 3.88,2.67 9.34,2.29 5.38,-2.39 8.37,-5.45 8.54,-6.89 -1.38,-0.81 -5.23,-1.76 -9.63,-1.46zm-35.52 0.09c3.06,0.65 6.49,3.11 8.25,6.06 -1.24,2.11 -3.88,2.67 -9.34,2.29 -5.38,-2.39 -8.37,-5.45 -8.54,-6.89 1.38,-0.81 5.23,-1.76 9.63,-1.46z"/>
   <path class="fil21" d="M247.13 100.82c-0.19,-0.29 -0.36,-0.53 -0.5,-0.7 0.14,0.17 0.31,0.41 0.5,0.7z"/>
   <path class="fil22" d="M160.66 104.53c0.57,-0.69 1.08,-1.31 1.49,-1.81 -0.41,0.5 -0.92,1.12 -1.49,1.81zm-3.92 -6.39zm0 0l-0 0zm0 0c0,-0 0,-0 0,-0 0,0 0,0 0,0z"/>
   <path class="fil23" d="M255.08 229.91c-2.15,-1.5 -4.59,-3.21 -7.34,-5.19 -20.53,8.74 -42.68,13.58 -42.68,13.58 0,0 -22.15,-4.84 -42.68,-13.58 -2.75,1.97 -5.19,3.69 -7.34,5.19l50.02 46.76 50.02 -46.76z"/>
   <path class="fil24" d="M266.57 235.25c-1.85,-1.45 -4.27,-0.35 -7.6,-2.65 -1.17,-0.81 -2.47,-1.7 -3.89,-2.69l-50.02 46.76 -50.02 -46.76c-1.41,0.98 -2.71,1.87 -3.87,2.68 -3.35,2.31 -5.76,3.98 -7.62,5.43 -4.38,3.43 -14.47,5.99 -23.04,18.18 -9.79,14.32 -20.4,43.68 -24.48,61.25 -5.03,21.61 4.84,27.64 28.14,53.5l158.71 1.54c25.47,-36.64 34.31,-38.25 27.9,-59.32 -9.3,-30.55 -29.96,-63.78 -44.19,-77.91z"/>
   <path class="fil25" d="M225.46 313.02l0 -42.98 -6.12 0 0 43.95c2.07,-0.24 4.11,-0.64 6.12,-0.97z"/>
   <path class="fil25" d="M184.65 311.91c2.01,0.33 2.81,0.9 4.88,1.14l1.24 -43.02 -6.12 0 0 41.88z"/>
   <path class="fil26" d="M205.05 281.26c0,0 -28.39,-9.01 -35.43,-14.62 -6.14,-4.89 -21.93,-22.59 -25.87,-27.04 -0.58,-0.65 -0.9,-1.02 -0.9,-1.02 0,0 -1.52,-6.77 1.88,-11.03 3.4,-4.26 6.8,-6.47 9.35,-11.57 2.55,-5.1 7.51,-10.88 12.51,-14.62 5,-3.74 15.09,-9.18 15.09,-9.18 0.09,2.37 0.21,4.58 0.21,6.67 0,4.38 -0.49,8.28 -2.67,12.21 2.72,-4.89 2.81,-9.73 2.6,-15.52 -3.66,3.78 -9.82,10.46 -11.08,13.76 -1.81,4.76 -1.19,11.9 -1.19,11.9 0,0 1.1,2.41 3.08,6.27 0.5,0.98 1.06,2.05 1.67,3.2 6.2,11.71 17.81,31.51 30.76,42.96l0 7.65zm-35.43 -60.13c0.01,-0 0.01,-0.01 0.01,-0.01 -0,0 -0.01,0.01 -0.01,0.01zm0.08 -0.06c0.01,-0 0.01,-0.01 0.02,-0.01 -0.01,0 -0.01,0.01 -0.02,0.01zm0.08 -0.06c0,-0 0.01,-0.01 0.01,-0.01 -0.01,0 -0.01,0.01 -0.01,0.01zm0.08 -0.06c0.01,-0 0.01,-0.01 0.02,-0.01 -0.01,0 -0.01,0.01 -0.02,0.01zm0.08 -0.06c0,-0 0.01,-0 0.01,-0.01 -0,0 -0.01,0 -0.01,0.01zm0.08 -0.06c0,-0 0,-0 0,-0 -0,0 -0,0 -0,0zm8.52 -8.66c0,0 0,-0 0,-0 0,0 -0,0 -0,0zm0.03 -0.05c0,-0 0,-0.01 0,-0.01 -0,0 -0,0 -0,0.01zm0.03 -0.05c0,-0 0,-0 0,-0.01 -0,0 -0,0 -0,0.01zm0.03 -0.05c0,-0 0,-0.01 0.01,-0.01 -0,0 -0,0.01 -0.01,0.01zm0.04 -0.05c0,-0 0,-0 0,-0.01 -0,0 -0,0 -0,0.01zm0.03 -0.05c0,-0 0,-0 0,-0.01 0,0 -0,0 -0,0.01zm0.07 -0.11c0,-0 0,-0 0,-0.01 0,0 -0,0.01 -0,0.01zm0.03 -0.05c0,-0 0.01,-0.01 0.01,-0.01 -0,0 -0.01,0.01 -0.01,0.01zm0.03 -0.05c0,-0.01 0.01,-0.01 0.01,-0.01 -0,0.01 -0.01,0.01 -0.01,0.01zm0.03 -0.05c0,-0.01 0.01,-0.01 0.01,-0.02 -0,0.01 -0.01,0.01 -0.01,0.02zm0.03 -0.05c0,-0.01 0.01,-0.01 0.01,-0.02 -0,0.01 -0.01,0.01 -0.01,0.02zm0.03 -0.05c0,-0.01 0.01,-0.01 0.01,-0.02 -0.01,0.01 -0.01,0.01 -0.01,0.02zm0.03 -0.05c0.01,-0.01 0.01,-0.02 0.01,-0.02 -0.01,0.01 -0.01,0.01 -0.01,0.02zm0.03 -0.05c0.01,-0.01 0.01,-0.02 0.01,-0.03 -0,0.01 -0.01,0.02 -0.01,0.03zm0.03 -0.05c0.01,-0.02 0.02,-0.04 0.03,-0.06 -0.01,0.02 -0.02,0.04 -0.03,0.06zm0.04 -0.08c0.01,-0.01 0.01,-0.02 0.02,-0.03 -0.01,0.01 -0.01,0.02 -0.02,0.03zm0.03 -0.05c0.01,-0.01 0.01,-0.02 0.02,-0.03 -0.01,0.01 -0.01,0.02 -0.02,0.03zm0.03 -0.05c0.01,-0.01 0.01,-0.02 0.02,-0.03 -0.01,0.01 -0.01,0.02 -0.02,0.03zm0.03 -0.05c0.01,-0.01 0.01,-0.02 0.02,-0.03 -0.01,0.01 -0.01,0.02 -0.02,0.03zm0.03 -0.05c0.01,-0.01 0.01,-0.02 0.02,-0.04 -0.01,0.01 -0.01,0.02 -0.02,0.04zm0.03 -0.05c0.01,-0.01 0.01,-0.03 0.02,-0.04 -0.01,0.01 -0.02,0.03 -0.02,0.04z"/>
   <path class="fil27" d="M169.55 221.18c0.02,-0.02 0.05,-0.04 0.08,-0.06 -0.03,0.02 -0.05,0.04 -0.08,0.06zm0.09 -0.07c0.02,-0.01 0.04,-0.03 0.06,-0.04 -0.02,0.02 -0.04,0.03 -0.06,0.04zm0.08 -0.06c0.02,-0.02 0.04,-0.03 0.06,-0.04 -0.02,0.01 -0.04,0.03 -0.06,0.04zm0.07 -0.06c0.02,-0.01 0.04,-0.03 0.06,-0.05 -0.02,0.02 -0.04,0.03 -0.06,0.05zm0.08 -0.06c0.02,-0.02 0.04,-0.03 0.06,-0.05 -0.02,0.02 -0.04,0.03 -0.06,0.05zm0.07 -0.05c0.02,-0.02 0.05,-0.04 0.07,-0.05 -0.02,0.02 -0.05,0.04 -0.07,0.05zm0.07 -0.06c4.03,-3.04 6.73,-5.87 8.52,-8.65 -1.79,2.79 -4.48,5.61 -8.52,8.65zm8.52 -8.66c0.01,-0.01 0.02,-0.03 0.03,-0.05 -0.01,0.01 -0.02,0.03 -0.03,0.05zm0.04 -0.05c0.01,-0.02 0.02,-0.03 0.03,-0.05 -0.01,0.02 -0.02,0.03 -0.03,0.05zm0.03 -0.05c0.01,-0.02 0.02,-0.03 0.03,-0.05 -0.01,0.01 -0.02,0.03 -0.03,0.05zm0.03 -0.05c0.01,-0.01 0.02,-0.03 0.03,-0.05 -0.01,0.01 -0.02,0.03 -0.03,0.05zm0.03 -0.05c0.01,-0.02 0.02,-0.03 0.03,-0.05 -0.01,0.02 -0.02,0.03 -0.03,0.05zm0.03 -0.05c0.02,-0.03 0.04,-0.07 0.07,-0.1 -0.02,0.04 -0.04,0.07 -0.07,0.1zm0.07 -0.11c0.01,-0.02 0.02,-0.03 0.03,-0.04 -0.01,0.01 -0.02,0.03 -0.03,0.04zm0.04 -0.06c0.01,-0.01 0.01,-0.03 0.02,-0.04 -0.01,0.01 -0.02,0.03 -0.02,0.04zm0.03 -0.05c0.01,-0.01 0.02,-0.02 0.02,-0.04 -0.01,0.01 -0.01,0.02 -0.02,0.04zm0.03 -0.05c0.01,-0.01 0.01,-0.02 0.02,-0.03 -0.01,0.01 -0.01,0.02 -0.02,0.03zm0.03 -0.05c0.01,-0.01 0.01,-0.02 0.02,-0.03 -0.01,0.01 -0.01,0.02 -0.02,0.03zm0.03 -0.05c0.01,-0.01 0.01,-0.02 0.02,-0.03 -0.01,0.01 -0.01,0.02 -0.02,0.03zm0.03 -0.05c0.01,-0.01 0.01,-0.02 0.01,-0.03 -0.01,0.01 -0.01,0.02 -0.01,0.03zm0.03 -0.05c0,-0.01 0.01,-0.01 0.01,-0.02 -0,0.01 -0.01,0.01 -0.01,0.02zm0.05 -0.08c0,-0.01 0.01,-0.01 0.01,-0.02 -0,0.01 -0.01,0.01 -0.01,0.02zm0.03 -0.05c0,-0.01 0.01,-0.01 0.01,-0.02 -0,0.01 -0.01,0.01 -0.01,0.02zm0.03 -0.05c0,-0.01 0.01,-0.01 0.01,-0.02 -0,0.01 -0.01,0.01 -0.01,0.02zm0.03 -0.05c0,-0.01 0.01,-0.01 0.01,-0.02 -0,0.01 -0.01,0.01 -0.01,0.02zm0.03 -0.05c0,-0.01 0.01,-0.01 0.01,-0.01 -0,0 -0.01,0.01 -0.01,0.01zm0.03 -0.05c0,-0 0.01,-0.01 0.01,-0.01 -0,0 -0,0.01 -0.01,0.01zm0.03 -0.05c0,-0 0,-0 0,-0.01 -0,0 -0,0 -0,0.01z"/>
   <path class="fil28" d="M169.55 221.18c-0,-0.05 -0.62,-7.14 1.19,-11.9 1.26,-3.3 7.41,-9.97 11.08,-13.76 0.21,5.78 0.12,10.63 -2.6,15.52 -0,0 -0,0 -0,0.01 -0.01,0.01 -0.02,0.03 -0.02,0.04 -0,0 -0,0.01 -0.01,0.01 -0.01,0.01 -0.01,0.02 -0.02,0.04 -0,0 -0.01,0.01 -0.01,0.01 -0.01,0.01 -0.01,0.02 -0.02,0.03 -0,0.01 -0.01,0.01 -0.01,0.02 -0.01,0.01 -0.01,0.02 -0.02,0.03 -0,0.01 -0.01,0.01 -0.01,0.02 -0.01,0.01 -0.01,0.02 -0.02,0.03 -0,0.01 -0.01,0.01 -0.01,0.02 -0.01,0.01 -0.01,0.02 -0.02,0.03 -0,0.01 -0.01,0.01 -0.01,0.02 -0.01,0.02 -0.02,0.04 -0.03,0.06 -0,0.01 -0.01,0.01 -0.01,0.02 -0,0.01 -0.01,0.02 -0.01,0.03 -0.01,0.01 -0.01,0.02 -0.01,0.03 -0,0.01 -0.01,0.02 -0.01,0.02 -0.01,0.01 -0.01,0.02 -0.02,0.03 -0.01,0.01 -0.01,0.01 -0.01,0.02 -0.01,0.01 -0.01,0.02 -0.02,0.03 -0,0.01 -0.01,0.01 -0.01,0.02 -0.01,0.01 -0.01,0.02 -0.02,0.03 -0,0.01 -0.01,0.01 -0.01,0.02 -0.01,0.01 -0.01,0.02 -0.02,0.04 -0,0.01 -0.01,0.01 -0.01,0.01 -0.01,0.01 -0.02,0.03 -0.02,0.04 -0,0 -0.01,0.01 -0.01,0.01 -0.01,0.01 -0.02,0.03 -0.03,0.04 0,0 -0,0.01 -0,0.01 -0.02,0.04 -0.04,0.07 -0.07,0.1 0,0 -0,0 -0,0.01 -0.01,0.02 -0.02,0.03 -0.03,0.05 -0,0 -0,0 -0,0.01 -0.01,0.01 -0.02,0.03 -0.03,0.05 -0,0 -0,0.01 -0.01,0.01 -0.01,0.01 -0.02,0.03 -0.03,0.05 -0,0 -0,0 -0,0.01 -0.01,0.02 -0.02,0.03 -0.03,0.05 -0,0 -0,0 -0,0.01 -0.01,0.01 -0.02,0.03 -0.03,0.05 -1.79,2.79 -4.49,5.62 -8.52,8.66 -0.03,0.02 -0.05,0.04 -0.07,0.06 -0,0 -0.01,0 -0.01,0.01 -0.02,0.01 -0.04,0.03 -0.06,0.05 -0.01,0 -0.01,0.01 -0.02,0.01 -0.02,0.02 -0.04,0.03 -0.06,0.05 -0.01,0 -0.01,0.01 -0.01,0.01 -0.02,0.01 -0.04,0.03 -0.06,0.04 -0.01,0 -0.01,0.01 -0.02,0.01 -0.02,0.02 -0.04,0.03 -0.06,0.04 -0.01,0.01 -0.01,0.01 -0.01,0.01 -0.03,0.02 -0.05,0.04 -0.08,0.06z"/>
   <path class="fil26" d="M205.05 281.26l0 -7.65c12.96,-11.45 24.56,-31.24 30.76,-42.95 0.61,-1.15 1.17,-2.23 1.67,-3.21 1.97,-3.86 3.08,-6.27 3.08,-6.27 0,0 0.62,-7.14 -1.19,-11.9 -1.26,-3.3 -7.41,-9.97 -11.07,-13.76 -0.27,7.48 -0.04,13.39 5.73,19.85 -6.61,-7.4 -5.96,-14.08 -5.59,-23.21 0,0 10.09,5.44 15.09,9.18 5,3.74 9.96,9.52 12.51,14.62 2.55,5.1 5.95,7.31 9.35,11.57 3.4,4.26 1.88,11.03 1.88,11.03 0,0 -0.32,0.37 -0.9,1.02 -3.94,4.45 -19.73,22.15 -25.87,27.04 -7.04,5.61 -35.44,14.62 -35.44,14.62zm35.43 -60.13c-0,-0 -0.01,-0.01 -0.01,-0.01 0,0 0.01,0.01 0.01,0.01zm-0.08 -0.06c-0,-0 -0.01,-0.01 -0.01,-0.01 0,0 0.01,0.01 0.01,0.01zm-0.08 -0.06c-0,-0 -0.01,-0.01 -0.01,-0.01 0,0 0.01,0.01 0.01,0.01zm-0.08 -0.06c-0,-0 -0.01,-0.01 -0.01,-0.01 0,0 0.01,0.01 0.01,0.01zm-0.08 -0.06c0,-0 -0,-0 -0,-0 0,0 0,0 0,0zm-5.52 -4.84c-0,-0 -0,-0 -0,-0 0,0 0,0 0,0zm-0.05 -0.05c-0,-0 -0.01,-0.01 -0.01,-0.01 0,0 0.01,0.01 0.01,0.01zm-0.05 -0.05c-0.01,-0.01 -0.01,-0.01 -0.01,-0.02 0,0 0.01,0.01 0.01,0.02zm-0.05 -0.05c-0.01,-0.01 -0.01,-0.01 -0.02,-0.02 0.01,0.01 0.01,0.01 0.02,0.02zm-0.05 -0.05c-0.01,-0.01 -0.01,-0.01 -0.02,-0.02 0.01,0.01 0.01,0.01 0.02,0.02zm-0.05 -0.05c-0.01,-0.01 -0.01,-0.02 -0.02,-0.02 0.01,0.01 0.01,0.02 0.02,0.02zm-0.05 -0.05c-0.01,-0.01 -0.01,-0.02 -0.02,-0.03 0.01,0.01 0.01,0.02 0.02,0.03zm-0.04 -0.04c-0.02,-0.03 -0.05,-0.05 -0.07,-0.08 0.02,0.03 0.05,0.05 0.07,0.08zm-0.08 -0.08c-0.01,-0.01 -0.02,-0.03 -0.04,-0.04 0.01,0.01 0.02,0.03 0.04,0.04zm-0.05 -0.05c-0.01,-0.01 -0.02,-0.03 -0.04,-0.04 0.01,0.01 0.02,0.03 0.04,0.04zm-0.05 -0.05c-0.01,-0.01 -0.02,-0.02 -0.03,-0.04 0.01,0.01 0.02,0.03 0.03,0.04zm-0.04 -0.05c-0.01,-0.01 -0.02,-0.03 -0.04,-0.04 0.01,0.01 0.02,0.03 0.04,0.04zm-0.04 -0.05c-0.01,-0.01 -0.03,-0.03 -0.04,-0.04 0.01,0.01 0.03,0.03 0.04,0.04z"/>
   <path class="fil29" d="M240.56 221.18c-0.03,-0.02 -0.05,-0.04 -0.08,-0.06 0.02,0.02 0.05,0.04 0.08,0.06zm-0.09 -0.06c-0.02,-0.02 -0.04,-0.03 -0.06,-0.05 0.02,0.02 0.04,0.03 0.06,0.05zm-0.08 -0.06c-0.02,-0.01 -0.04,-0.03 -0.06,-0.05 0.02,0.01 0.04,0.03 0.06,0.05zm-0.08 -0.06c-0.02,-0.02 -0.04,-0.03 -0.06,-0.05 0.02,0.02 0.04,0.03 0.06,0.05zm-0.08 -0.06c-0.02,-0.02 -0.05,-0.04 -0.07,-0.05 0.02,0.02 0.05,0.04 0.07,0.05zm-0.07 -0.06c-2.22,-1.67 -4.03,-3.27 -5.52,-4.83 1.48,1.56 3.3,3.17 5.52,4.83zm-5.52 -4.84c-0.02,-0.02 -0.03,-0.03 -0.04,-0.05 0.01,0.02 0.03,0.03 0.04,0.05zm-0.06 -0.06c-0.01,-0.01 -0.03,-0.03 -0.04,-0.04 0.01,0.01 0.02,0.03 0.04,0.04zm-0.05 -0.06c-0.01,-0.01 -0.02,-0.02 -0.03,-0.04 0.01,0.01 0.02,0.02 0.03,0.04zm-0.05 -0.06c-0.01,-0.01 -0.02,-0.02 -0.03,-0.03 0.01,0.01 0.02,0.02 0.03,0.03zm-0.05 -0.05c-0.01,-0.01 -0.02,-0.02 -0.03,-0.03 0.01,0.01 0.02,0.02 0.03,0.03zm-0.05 -0.05c-0.01,-0.01 -0.02,-0.02 -0.03,-0.03 0.01,0.01 0.02,0.02 0.03,0.03zm-0.05 -0.05c-0,-0 -0.01,-0.01 -0.01,-0.01 0,0.01 0.01,0.01 0.01,0.01zm-0.09 -0.09c-0,-0 -0,-0.01 -0.01,-0.01 0,0 0,0.01 0.01,0.01zm-0.04 -0.05c-0,-0 -0.01,-0.01 -0.01,-0.01 0,0 0.01,0.01 0.01,0.01zm-0.04 -0.05c-0,-0 -0.01,-0.01 -0.01,-0.01 0,0.01 0.01,0.01 0.01,0.01zm-0.04 -0.05c-0,-0 -0.01,-0.01 -0.01,-0.01 0,0 0.01,0.01 0.01,0.01zm-0.05 -0.05c-0,-0 -0,-0.01 -0.01,-0.01 0,0 0.01,0.01 0.01,0.01zm-0.05 -0.05c0,-0 -0,-0 -0,-0 0,0 0,0 0,0z"/>
   <path class="fil28" d="M240.56 221.18c-0.03,-0.02 -0.05,-0.04 -0.08,-0.06 -0,-0 -0.01,-0.01 -0.01,-0.01 -0.02,-0.02 -0.04,-0.03 -0.06,-0.05 -0.01,-0 -0.01,-0.01 -0.01,-0.01 -0.02,-0.01 -0.04,-0.03 -0.06,-0.05 -0,-0 -0.01,-0.01 -0.01,-0.01 -0.02,-0.02 -0.04,-0.03 -0.06,-0.05 -0,-0 -0.01,-0 -0.01,-0.01 -0.02,-0.02 -0.05,-0.04 -0.07,-0.05 0,-0 -0,-0 -0,-0 -2.22,-1.67 -4.03,-3.27 -5.52,-4.83 0,-0 -0,-0 -0,-0 -0.02,-0.02 -0.03,-0.03 -0.04,-0.05 -0,-0 -0.01,-0.01 -0.01,-0.01 -0.01,-0.01 -0.02,-0.03 -0.04,-0.04 -0.01,-0.01 -0.01,-0.01 -0.01,-0.02 -0.01,-0.01 -0.02,-0.02 -0.03,-0.04 -0.01,-0.01 -0.01,-0.01 -0.02,-0.02 -0.01,-0.01 -0.02,-0.02 -0.03,-0.03 -0.01,-0.01 -0.01,-0.01 -0.02,-0.02 -0.01,-0.01 -0.02,-0.02 -0.03,-0.03 -0.01,-0.01 -0.01,-0.02 -0.02,-0.02 -0.01,-0.01 -0.02,-0.02 -0.03,-0.03 -0.01,-0.01 -0.01,-0.02 -0.02,-0.03 -0.01,-0 -0.01,-0.01 -0.01,-0.01 -0.02,-0.03 -0.05,-0.05 -0.07,-0.08 -0,-0 -0,-0.01 -0.01,-0.01 -0.01,-0.01 -0.02,-0.03 -0.04,-0.04 -0,-0 -0.01,-0.01 -0.01,-0.01 -0.01,-0.01 -0.02,-0.03 -0.04,-0.04 -0,-0 -0.01,-0.01 -0.01,-0.01 -0.01,-0.01 -0.02,-0.02 -0.03,-0.04 -0,-0 -0.01,-0.01 -0.01,-0.01 -0.01,-0.01 -0.02,-0.03 -0.04,-0.04 -0,-0 -0,-0.01 -0.01,-0.01 -0.01,-0.01 -0.03,-0.03 -0.04,-0.04 0,-0 -0,-0 -0,-0 -5.77,-6.46 -6,-12.37 -5.73,-19.85 3.66,3.78 9.82,10.46 11.07,13.76 1.81,4.76 1.19,11.9 1.19,11.9z"/>
   <path class="fil30" d="M205.75 175.42c2.25,0 4.04,-2.03 4.2,-3.04 -0.69,0.3 -2.71,1.16 -4.2,1.16 -1.49,0 -3.51,-0.86 -4.2,-1.16 0.16,1.01 1.95,3.04 4.2,3.04z"/>
   <path class="fil31" d="M218.15 149.72c-0,-0 -0,-0.01 -0,-0.01 -0.08,-0.35 -0.11,-0.71 -0.11,-1.05 0,0.35 0.04,0.7 0.11,1.05 0,0 0,0.01 0,0.01z"/>
   <path class="fil32" d="M213.68 151.77c0,0 4.54,-5.32 9.71,-6.02 6.74,-0.16 8.74,1.35 8.74,1.35 0,0.32 -0.16,1.24 -0.16,1.24 0,0 1.71,-1.67 2.38,-2.77 -3.73,-0.99 -7.22,-1.4 -11.79,-0.96 -4.57,0.43 -8.74,2.76 -8.74,2.76 0,0 2.82,-1.04 5.24,-1.41 -1.56,0.93 -4.54,3.37 -5.37,5.8z"/>
   <path class="fil16" d="M218.07 153.37c0.39,0.21 7.01,1.27 12.27,-3.78 -0.31,1.18 -1.35,2.27 -3.01,3.27 -2.1,1.27 -5.23,1.97 -9.26,0.51z"/>
   <path class="fil16" d="M217.18 144.26c0,0 4.26,-1.46 10.35,-1.05 -3.16,-0.89 -7.47,-0.38 -7.85,-0.35 -0.38,0.03 -1.76,0.68 -2.5,1.41z"/>
   <path class="fil33" d="M234.35 137.47c0,0 -0.22,-0.02 -0.6,-0.04l-0.04 -0.16c0.41,0.12 0.65,0.2 0.65,0.2z"/>
   <path class="fil34" d="M175.46 137.47c0,0 0.41,-0.14 1.1,-0.32 -0.03,0.09 -0.05,0.18 -0.08,0.27 -0.64,0.03 -1.03,0.06 -1.03,0.06z"/>
   <g>
    <path class="fil32" d="M212.6 137.94c0,0 1.29,2.12 2.72,2.08 1.42,-0.03 9.3,-2.31 12.06,-3.24 2.77,-0.94 5.57,-1.38 6.2,-1.47 -1.46,-0.25 -3.74,-0.91 -7.04,-0.71 -3.75,0.23 -8.28,1.87 -13.94,3.34z"/>
    <path class="fil32" d="M198.05 137.94c0,0 -1.29,2.12 -2.72,2.08 -1.42,-0.03 -9.3,-2.31 -12.06,-3.24 -2.77,-0.94 -5.57,-1.38 -6.2,-1.47 1.46,-0.25 3.74,-0.91 7.04,-0.71 3.75,0.23 8.28,1.87 13.94,3.34z"/>
   </g>
   <path class="fil31" d="M192.09 149.81c0,-0 0,-0.01 0,-0.01 0.08,-0.35 0.11,-0.71 0.11,-1.05 -0,0.35 -0.04,0.7 -0.11,1.05 -0,0 -0,0.01 -0,0.01z"/>
   <path class="fil32" d="M196.56 151.86c0,0 -4.54,-5.32 -9.71,-6.02 -6.74,-0.16 -8.74,1.35 -8.74,1.35 0,0.32 0.16,1.24 0.16,1.24 0,0 -1.71,-1.67 -2.38,-2.77 3.73,-0.99 7.22,-1.4 11.79,-0.96 4.57,0.43 8.74,2.76 8.74,2.76 0,0 -2.82,-1.04 -5.24,-1.41 1.56,0.93 4.54,3.37 5.37,5.8z"/>
   <path class="fil16" d="M192.17 153.46c-0.39,0.21 -7.01,1.27 -12.27,-3.78 0.31,1.18 1.35,2.27 3.01,3.27 2.1,1.27 5.23,1.97 9.26,0.51z"/>
   <path class="fil16" d="M193.06 144.35c0,0 -4.26,-1.46 -10.35,-1.05 3.16,-0.89 7.47,-0.38 7.85,-0.35 0.38,0.03 1.76,0.68 2.5,1.41z"/>
   <g>
    <path class="fil35" d="M236.55 133.53c-3.85,-0.88 -13.19,-3.41 -19.27,-8.42 -3.95,-3.25 -8.7,-8.99 -12.67,-13.94 0.73,0.03 1.48,0.08 2.24,0.13 4.31,4.1 9.21,8.54 13.17,11.04 4.63,2.92 10.67,4.46 15.24,5.25 -0.03,0.6 -0.05,1.09 -0.05,1.4 0,0.6 0.54,2.33 1.33,4.54zm-61.35 -13.98c-0.15,-1.88 -0.28,-3.28 -0.28,-3.28l8.48 -1.08 -8.21 4.37zm8.25 -4.43c0.04,-0.06 0.08,-0.13 0.12,-0.19 -0.04,0.07 -0.08,0.13 -0.12,0.19z"/>
    <path class="fil36" d="M242.36 148.32c0,0 -3.74,-9 -5.81,-14.79 -0.79,-2.21 -1.33,-3.94 -1.33,-4.54 0,-0.31 0.02,-0.8 0.05,-1.4 3.89,0.68 6.71,0.82 6.71,0.82l6.71 -3.91 -2.49 20.25 -3.68 3.42 -0.16 0.15zm-73.66 0l-0.16 -0.15 -3.68 -3.42 -1.78 -14.5 11.63 -14.07 8.7 -1 -8.48 1.08c0,0 0.12,1.4 0.28,3.28 0.27,3.29 0.64,8.07 0.64,9.44 0,2.16 -7.14,19.33 -7.14,19.33z"/>
    <path class="fil37" d="M218.03 101.13l-33.19 0 0 11.16 0.01 -0.02c0,0 15.02,-3.02 33.19,0.48l0 -11.62z"/>
    <path class="fil37" d="M235.22 128.99c0,0.15 0.04,0.39 0.11,0.68 1.64,-0.09 5.12,-0.37 6.66,-1.27l-6.59 -2.74c-0.1,1.48 -0.17,2.73 -0.17,3.32z"/>
    <path class="fil38" d="M163.07 130.25c-1.43,-6.34 -6.75,-25.05 -6.75,-25.05 5.24,-6.74 11.06,-10.48 19.3,-12.23 3.33,-5.99 9.65,-12.97 21.12,-16.97 13.64,1.16 50.84,19.71 51.95,21.29 0.33,0.47 0.47,3.08 0.49,6.52 0,-0.16 -0,-0.31 -0,-0.47 -6.73,2.17 -19.58,5.74 -31.3,5.74 -0.37,0 -0.74,-0 -1.11,-0.01 0,0 8.96,3.58 22.1,3.58 3.19,0 6.62,-0.21 10.23,-0.73 -0.14,6.44 -0.41,12.57 -0.41,12.57l-6.71 3.91c0,0 -2.83,-0.14 -6.71,-0.82 -4.57,-0.79 -10.61,-2.33 -15.24,-5.25 -3.96,-2.5 -8.86,-6.94 -13.17,-11.04 -5.01,-4.77 -9.22,-9.07 -10.2,-9.34 -0.05,-0.01 -0.11,-0.02 -0.17,-0.02 -1.72,0 -7.19,5.46 -10.89,10.2 -0.77,0.98 -1.46,1.93 -2.02,2.79 -0.04,0.07 -0.08,0.13 -0.12,0.19 -0.01,0.02 -0.03,0.05 -0.04,0.07l-8.7 1 -11.63 14.07 -0 0z"/>
    <path class="fil21" d="M249.1 111.93c0.06,-2.8 0.1,-5.66 0.08,-8.11 0.02,2.45 -0.02,5.31 -0.08,8.11l0 0z"/>
    <path class="fil39" d="M238.87 112.66c-13.15,0 -22.1,-3.58 -22.1,-3.58 0.37,0.01 0.74,0.01 1.11,0.01 11.72,0 24.57,-3.57 31.3,-5.74 0,0.15 0,0.31 0,0.47 0.02,2.45 -0.02,5.31 -0.08,8.11 -3.61,0.52 -7.04,0.73 -10.23,0.73z"/>
    <path class="fil37" d="M182.24 112.14c0,0 2.79,-10.27 7.09,-13.81 0,0 -3.95,8.48 -7.09,13.81z"/>
    <path class="fil37" d="M180.88 106.1c0,0 1.13,-7.1 3.47,-12 0,0 -1.47,8 -3.47,12z"/>
    <path class="fil37" d="M178.99 98.86c0,0 0.49,-4.26 1.89,-7.4 0,0 -0.42,3.96 -1.89,7.4z"/>
   </g>
   <g>
    <path class="fil40" d="M121.26 374.81l-7.71 -95.63c0,0 0.77,-3.85 5.38,-3.85 4.62,0 170.39,0 170.39,0 0,0 5.38,-1.15 4.62,8.08 -0.77,9.23 -7.24,89.08 -7.24,89.08 -0.4,2.14 -1.43,4.66 -4.26,5.54l-157.97 0c-1.2,0.17 -2.51,-1.53 -3.21,-3.21z"/>
    <path class="fil41" d="M124.7 378.03l-7.31 -95c0,0 -0.77,-6.54 8.08,-6.54 8.85,0 161.15,0 161.15,0 0,0 3.85,0 3.46,7.69 -0.38,7.69 -7.69,93.85 -7.69,93.85l-157.69 0z"/>
    <path class="fil42" d="M118.93 286.49l0 -5c0,0 1.15,-3.08 2.69,-3.08 1.54,0 163.08,0 163.08,0 0,0 2.31,1.15 2.31,2.69 0,1.54 0,5.38 0,5.38 0,0 -3.46,-5.38 -5.38,-5.77 -1.92,-0.38 -157.31,0 -157.31,0 0,0 -3.46,0 -5.38,5.77z"/>
    <g>
     <ellipse class="fil43" cx="203.93" cy="329.76" rx="9.62" ry="10.19"/>
     <ellipse class="fil42" cx="203.74" cy="329.18" rx="9.42" ry="9.23"/>
    </g>
   </g>
   <path class="fil44" d="M199.23 182.22c0,0 0.04,0.04 0.12,0.11 0.08,0.06 0.17,0.15 0.32,0.27 0.17,0.11 0.35,0.26 0.59,0.4 0.25,0.13 0.51,0.32 0.85,0.46 0.34,0.13 0.68,0.32 1.1,0.44 0.41,0.11 0.83,0.29 1.31,0.36 0.47,0.07 0.95,0.2 1.46,0.23 0.51,0.03 1.03,0.06 1.54,0.09 0.53,-0.03 1.05,-0.06 1.57,-0.09 0.27,-0 0.5,-0.07 0.74,-0.11 0.24,-0.04 0.47,-0.09 0.7,-0.13 0.46,-0.07 0.89,-0.25 1.3,-0.36 0.42,-0.11 0.76,-0.31 1.1,-0.44 0.34,-0.14 0.6,-0.32 0.85,-0.45 0.24,-0.14 0.43,-0.29 0.59,-0.4 0.15,-0.11 0.26,-0.22 0.33,-0.28 0.06,-0.06 0.09,-0.09 0.09,-0.09l0.03 -0.03c0.23,-0.23 0.67,-0.28 0.97,-0.1 0.3,0.18 0.36,0.51 0.12,0.75l-0.07 0.06c0,0 -0.06,0.04 -0.17,0.13 -0.11,0.07 -0.26,0.17 -0.46,0.3 -0.21,0.11 -0.45,0.26 -0.74,0.41 -0.31,0.13 -0.63,0.31 -1.01,0.45 -0.39,0.13 -0.79,0.32 -1.25,0.42 -0.23,0.06 -0.47,0.12 -0.71,0.18 -0.24,0.06 -0.48,0.13 -0.75,0.16 -0.52,0.07 -1.08,0.19 -1.6,0.22 -0.54,0.03 -1.09,0.05 -1.63,0.08 -0.55,-0.03 -1.11,-0.06 -1.66,-0.08 -0.55,-0.03 -1.07,-0.15 -1.59,-0.22 -0.26,-0.03 -0.5,-0.1 -0.74,-0.16 -0.24,-0.06 -0.48,-0.12 -0.71,-0.18 -0.47,-0.11 -0.86,-0.29 -1.25,-0.42 -0.38,-0.14 -0.71,-0.32 -1.01,-0.45 -0.3,-0.14 -0.53,-0.29 -0.74,-0.41 -0.2,-0.13 -0.37,-0.24 -0.48,-0.31 -0.09,-0.07 -0.14,-0.1 -0.14,-0.1 -0.28,-0.2 -0.29,-0.54 -0.03,-0.75 0.26,-0.21 0.7,-0.22 0.98,-0.02l0.06 0.05 0.02 0.01z"/>
  </g>
  <g id="_2501919983888">
   <rect class="fil45" transform="matrix(0.85646 0.516213 -0.516213 0.85646 279.771 123.817)" width="39.41" height="25.04" rx="6.73" ry="6.73"/>
   <path class="fil46" d="M293.07 138.83c0,0 0.16,-4.59 -3.28,-5.39 -3.44,-0.8 -9.36,2.52 -7.55,8.49 1.81,5.97 4.19,8.35 3.25,9.91l7.58 -13.01z"/>
   <path class="fil46" d="M293.1 138.78c0,0 4.35,-2.04 6.67,0.63 2.31,2.67 2.15,9.46 -3.98,10.64 -6.12,1.19 -9.23,0.3 -10.28,1.75l5.85 -11.16 1.74 -1.87z"/>
   <path class="fil47" d="M270.63 146.92c0,0 -0.02,3.47 -2.77,4 0,0 2.26,1.94 7.91,-0.27l1.29 -1.34 -6.43 -2.39z"/>
  </g>
  <polygon class="fil48" points="218.08,53.13 212.12,51.58 216.95,32.94 218.62,33.37 214.17,50.55 218.46,51.66 "/>
  <polygon id="_1_25" class="fil48" points="226.45,55.33 220.34,53.74 225.17,35.1 231.21,36.66 230.83,38.13 226.46,37 224.66,43.94 228.65,44.98 228.26,46.47 224.27,45.43 222.38,52.71 226.83,53.86 "/>
  <path id="_2_26" class="fil48" d="M236.6 57.99l-1.64 -0.43 0.41 -4.31 -3.73 -0.97 -1.73 3.97 -1.59 -0.41 0.01 -0.05 8.17 -17.78 1.64 0.43 -1.53 19.55zm-1.06 -6.26l0.98 -10.53 -4.28 9.67 3.3 0.85z"/>
  <path id="_3_27" class="fil48" d="M246.76 60.66l-1.74 -0.45 -0.9 -10.9 0.31 -0.27 2.96 0.76 1.78 -6.85 -4.24 -1.1 -4.45 17.18 -1.67 -0.43 4.83 -18.64 6.2 1.6c0.4,0.11 0.7,0.32 0.89,0.65 0.19,0.32 0.23,0.69 0.13,1.09l-1.8 6.96c-0.24,0.92 -0.96,1.22 -2.17,0.91 -0.12,-0.03 -0.29,-0.08 -0.52,-0.15 -0.23,-0.07 -0.39,-0.12 -0.5,-0.15 0.31,3.26 0.61,6.52 0.9,9.79z"/>
  <polygon id="_4_28" class="fil48" points="256.92,63.33 255.77,63.03 254.33,48.03 250.78,61.74 249.22,61.34 254.05,42.7 255.29,43.02 256.69,57.76 260.19,44.28 261.75,44.69 "/>
  <path id="_5_29" class="fil48" d="M280.6 49.63l-7.37 18.03 -1.34 -0.35 1.6 -14.53c0.06,-0.24 0.14,-0.61 0.24,-1.1 -0.07,0.25 -0.18,0.61 -0.33,1.08l-5.65 13.48 -1.34 -0.35 2.32 -19.34 1.64 0.43 -1.91 13.82c-0.07,0.3 -0.17,0.75 -0.3,1.34 0.07,-0.3 0.2,-0.74 0.39,-1.32l5.4 -12.91 1.41 0.37 -1.55 13.9c-0.06,0.31 -0.16,0.75 -0.3,1.34 0.08,-0.3 0.22,-0.74 0.41,-1.31l5.03 -13 1.64 0.43z"/>
  <polygon id="_6_30" class="fil48" points="285.85,70.94 284.19,70.5 286.51,61.54 282.02,60.37 279.69,69.34 278.02,68.91 282.85,50.27 284.52,50.7 282.4,58.88 286.9,60.05 289.02,51.86 290.68,52.3 "/>
  <polygon id="_7_31" class="fil48" points="290.57,72.2 288.9,71.77 293.74,53.13 295.4,53.56 "/>
  <polygon id="_8_32" class="fil48" points="299.62,74.56 293.66,73.02 298.49,54.38 300.16,54.81 295.71,71.98 300,73.1 "/>
  <polygon id="_9_33" class="fil48" points="307.99,76.76 301.88,75.18 306.71,56.54 312.75,58.1 312.37,59.57 308,58.43 306.2,65.38 310.19,66.42 309.8,67.91 305.81,66.87 303.93,74.14 308.37,75.3 "/>
  <path id="_10_34" class="fil48" d="M325.04 71.86c-0.1,0.4 -0.32,0.7 -0.64,0.89 -0.33,0.19 -0.69,0.23 -1.1,0.13l-4.35 -1.13 -1.92 7.4 -1.67 -0.43 4.83 -18.64 6.02 1.56c0.4,0.1 0.7,0.32 0.89,0.64 0.19,0.33 0.24,0.69 0.13,1.1l-2.2 8.48zm-1.64 -0.54l2.15 -8.28 -4.07 -1.05 -2.15 8.28 4.07 1.05z"/>
  <polygon id="_11_35" class="fil48" points="331.34,82.9 325.38,81.36 330.21,62.72 331.87,63.15 327.42,80.32 331.72,81.44 "/>
  <path id="_12_36" class="fil48" d="M341.15 85.47l-1.64 -0.43 0.41 -4.31 -3.73 -0.97 -1.73 3.97 -1.59 -0.41 0.01 -0.05 8.17 -17.78 1.64 0.43 -1.53 19.55zm-1.06 -6.26l0.98 -10.53 -4.28 9.67 3.3 0.85z"/>
  <path id="_13_37" class="fil48" d="M355.68 69.5l-4.23 6.95c-0.48,0.68 -1.19,1.84 -2.12,3.48l-1.87 7.22 -1.67 -0.43 1.87 -7.22c0.04,-0.64 0.04,-1.31 -0.02,-2.04 -0.09,-1.24 -0.13,-1.92 -0.14,-2.03l-0.32 -8.13c0,-0.01 0.01,-0.05 0.03,-0.11l1.69 0.44 0.15 9.99 4.98 -8.66 1.67 0.43c-0.02,0.05 -0.02,0.09 -0.03,0.11z"/>
  <polygon id="_14_38" class="fil48" points="354.64,89.04 352.97,88.61 357.8,69.97 359.47,70.4 "/>
  <polygon id="_15_39" class="fil48" points="365.43,91.86 364.28,91.56 362.85,76.56 359.29,90.27 357.73,89.86 362.56,71.22 363.8,71.54 365.2,86.28 368.7,72.81 370.26,73.22 "/>
  <path id="_16_40" class="fil48" d="M376.3 93.24c-0.11,0.41 -0.32,0.71 -0.64,0.9 -0.33,0.19 -0.69,0.23 -1.1,0.13l-4.79 -1.24c-0.4,-0.1 -0.7,-0.32 -0.89,-0.64 -0.19,-0.32 -0.23,-0.69 -0.13,-1.1l4.11 -15.87c0.11,-0.41 0.32,-0.71 0.64,-0.9 0.33,-0.19 0.69,-0.23 1.1,-0.13l4.79 1.24c0.4,0.1 0.7,0.32 0.89,0.64 0.19,0.32 0.23,0.69 0.13,1.1l-1.11 4.27 -1.67 -0.43 1.09 -4.19 -4.22 -1.09 -4.07 15.71 4.22 1.09 1.67 -6.44 -2 -0.52 0.38 -1.44 3.66 0.95 -2.06 7.96z"/>
  <path id="_17_41" class="fil48" d="M385.59 77.27l-4.12 14.35 -1.1 -0.28 3.37 -14.54 1.84 0.48zm-4.86 18.63l-1.79 -0.46 0.55 -2.1 1.79 0.46 -0.55 2.1z"/>
 </g>
</svg>
