<?xml version="1.0" encoding="UTF-8"?>
<!DOCTYPE svg PUBLIC "-//W3C//DTD SVG 1.1//EN" "http://www.w3.org/Graphics/SVG/1.1/DTD/svg11.dtd">
<!-- Creator: CorelDRAW 2021 (64-Bit) -->
<svg xmlns="http://www.w3.org/2000/svg" xml:space="preserve" width="3.11957in" height="3.15133in" version="1.1" style="shape-rendering:geometricPrecision; text-rendering:geometricPrecision; image-rendering:optimizeQuality; fill-rule:evenodd; clip-rule:evenodd"
viewBox="0 0 46.59 47.06"
 xmlns:xlink="http://www.w3.org/1999/xlink"
 xmlns:xodm="http://www.corel.com/coreldraw/odm/2003">
 <defs>
  <style type="text/css">
   <![CDATA[
    .fil33 {fill:none}
    .fil29 {fill:#1B4887}
    .fil0 {fill:#212121}
    .fil32 {fill:#355C8C}
    .fil31 {fill:#6BB0FF}
    .fil34 {fill:#6BB0FF}
    .fil35 {fill:#D4E8FF}
    .fil4 {fill:#03244D;fill-rule:nonzero}
    .fil12 {fill:#112A46;fill-rule:nonzero}
    .fil1 {fill:#1B4887;fill-rule:nonzero}
    .fil30 {fill:#3D9EFF;fill-rule:nonzero}
    .fil13 {fill:#4678F9;fill-rule:nonzero}
    .fil14 {fill:#4678F9;fill-rule:nonzero}
    .fil2 {fill:#6699FF;fill-rule:nonzero}
    .fil3 {fill:#A5B6C6;fill-rule:nonzero}
    .fil8 {fill:#C3D3DD;fill-rule:nonzero}
    .fil11 {fill:#D3835D;fill-rule:nonzero}
    .fil6 {fill:#FFBC93;fill-rule:nonzero}
    .fil15 {fill:#C6BAA3;fill-rule:nonzero}
    .fil9 {fill:url(#id2);fill-rule:nonzero}
    .fil5 {fill:url(#id3);fill-rule:nonzero}
    .fil10 {fill:url(#id4);fill-rule:nonzero}
    .fil7 {fill:url(#id5);fill-rule:nonzero}
    .fil28 {fill:url(#id6);fill-rule:nonzero}
    .fil26 {fill:url(#id7);fill-rule:nonzero}
    .fil18 {fill:url(#id8);fill-rule:nonzero}
    .fil20 {fill:url(#id9);fill-rule:nonzero}
    .fil25 {fill:url(#id10);fill-rule:nonzero}
    .fil21 {fill:url(#id11);fill-rule:nonzero}
    .fil23 {fill:url(#id12);fill-rule:nonzero}
    .fil19 {fill:url(#id13);fill-rule:nonzero}
    .fil16 {fill:url(#id14);fill-rule:nonzero}
    .fil17 {fill:url(#id15);fill-rule:nonzero}
    .fil24 {fill:url(#id16);fill-rule:nonzero}
    .fil22 {fill:url(#id17);fill-rule:nonzero}
    .fil27 {fill:url(#id18);fill-rule:nonzero}
   ]]>
  </style>
    <clipPath id="id0">
     <path d="M7 41.03l0 -0.69 -2.36 0 0 4.2c0,0.2 0.05,0.4 0.15,0.58 0.1,0.18 0.24,0.31 0.42,0.41 0.21,0.12 0.44,0.16 0.68,0.16l1.12 0 0 -0.68 -0.44 0c-0.07,0 -0.14,0 -0.21,0 -0.18,0 -0.46,-0.01 -0.61,-0.1 -0.2,-0.12 -0.23,-0.44 -0.23,-0.65l0 -3.33 0.15 0 1.34 0.1zm3.44 0.05c-0.06,-0.25 -0.2,-0.44 -0.4,-0.6 -0.23,-0.18 -0.52,-0.23 -0.81,-0.23l-0.39 0c-0.23,0 -0.47,0.04 -0.68,0.16 -0.18,0.1 -0.32,0.23 -0.42,0.41 -0.1,0.18 -0.15,0.37 -0.15,0.57l0 3.25c0,0.2 0.05,0.4 0.15,0.57 0.1,0.18 0.24,0.31 0.42,0.41 0.21,0.11 0.44,0.16 0.68,0.16l0.39 0c0.24,0 0.47,-0.04 0.68,-0.16 0.18,-0.1 0.32,-0.23 0.42,-0.41 0.1,-0.18 0.15,-0.37 0.15,-0.57l0 -3.27c0,-0.05 -0.01,-0.1 -0.01,-0.14 -0.01,-0.04 -0.01,-0.09 -0.03,-0.13l-0 -0 -0 -0zm-0.84 0.93l0 2.01c0,0.19 -0,0.39 -0.02,0.58 -0.01,0.13 -0.05,0.28 -0.15,0.37 -0.1,0.1 -0.26,0.12 -0.39,0.12 -0.14,0 -0.29,-0.02 -0.39,-0.12 -0.1,-0.09 -0.14,-0.24 -0.15,-0.37 -0.02,-0.19 -0.02,-0.39 -0.02,-0.59l0 -2.01c0,-0.19 0,-0.39 0.02,-0.58 0.01,-0.13 0.05,-0.28 0.15,-0.37 0.1,-0.09 0.25,-0.11 0.39,-0.11 0.13,0 0.28,0.02 0.39,0.12 0.1,0.09 0.14,0.24 0.15,0.37 0.02,0.19 0.02,0.39 0.02,0.58zm1.7 -1.66l0 5.34 1.69 0c0.23,0 0.47,-0.04 0.68,-0.16 0.18,-0.1 0.32,-0.23 0.42,-0.41 0.1,-0.18 0.15,-0.37 0.15,-0.57l0 -3.06c0,-0.2 -0.05,-0.4 -0.15,-0.58 -0.1,-0.18 -0.24,-0.31 -0.42,-0.41 -0.21,-0.12 -0.44,-0.16 -0.68,-0.16l-1.69 0zm0.88 4.66l0 -3.98 0.13 -0c0.07,-0 0.14,-0 0.21,-0 0.18,0 0.46,0.01 0.61,0.1 0.2,0.12 0.23,0.42 0.23,0.63l0 2.54c0,0.21 -0.03,0.51 -0.23,0.63 -0.16,0.09 -0.43,0.1 -0.61,0.1 -0.07,0 -0.14,-0 -0.21,-0l-0.13 -0zm5.46 -3.97l0 -0.69 -2.63 0 0 2.97 -0.36 0 0.36 0.81 0 1.56 1.01 -0 1.62 0 0 -0.69 -1.76 0.11 0 -1.19 1.76 0.11 0 -0.69 -1.76 0 0 -2.39 1.76 0.11zm4.9 -0l0 -0.69 -2.36 0 0 4.2c0,0.2 0.05,0.4 0.15,0.58 0.1,0.18 0.24,0.31 0.42,0.41 0.21,0.12 0.44,0.16 0.68,0.16l1.12 0 0 -0.68 -0.44 0c-0.07,0 -0.14,0 -0.21,0 -0.18,0 -0.46,-0.01 -0.61,-0.1 -0.2,-0.12 -0.23,-0.44 -0.23,-0.65l0 -3.33 0.15 0 1.34 0.1zm3.44 0.05c-0.06,-0.25 -0.2,-0.44 -0.4,-0.6 -0.23,-0.18 -0.52,-0.23 -0.81,-0.23l-0.39 0c-0.23,0 -0.47,0.04 -0.68,0.16 -0.18,0.1 -0.32,0.23 -0.42,0.41 -0.1,0.18 -0.15,0.37 -0.15,0.57l0 3.25c0,0.2 0.05,0.4 0.15,0.57 0.1,0.18 0.24,0.31 0.42,0.41 0.21,0.11 0.44,0.16 0.68,0.16l0.39 0c0.24,0 0.47,-0.04 0.68,-0.16 0.18,-0.1 0.32,-0.23 0.42,-0.41 0.1,-0.18 0.15,-0.37 0.15,-0.57l0 -3.27c0,-0.05 -0.01,-0.1 -0.01,-0.14 -0.01,-0.04 -0.01,-0.09 -0.03,-0.13l-0 -0 -0 -0zm-0.84 0.93l0 2.01c0,0.19 -0,0.39 -0.02,0.58 -0.01,0.13 -0.05,0.28 -0.15,0.37 -0.1,0.1 -0.26,0.12 -0.39,0.12 -0.14,0 -0.29,-0.02 -0.39,-0.12 -0.1,-0.09 -0.14,-0.24 -0.15,-0.37 -0.02,-0.19 -0.02,-0.39 -0.02,-0.59l0 -2.01c0,-0.19 0,-0.39 0.02,-0.58 0.01,-0.13 0.05,-0.28 0.15,-0.37 0.1,-0.09 0.25,-0.11 0.39,-0.11 0.13,0 0.28,0.02 0.39,0.12 0.1,0.09 0.14,0.24 0.15,0.37 0.02,0.19 0.02,0.39 0.02,0.58zm5.16 -1.66l-1.13 1.11 -1.12 -1.11 -1.21 0 0 5.34 0.87 0 0 -4.65 1.02 1.12 0 3.53 0.88 0 0 -3.53 1.02 -1.12 0 4.65 0.88 0 0 -5.34 -1.21 0zm2.08 0l0 5.34 1.76 0c0.23,0 0.47,-0.04 0.68,-0.16 0.18,-0.1 0.32,-0.23 0.42,-0.41 0.1,-0.18 0.15,-0.37 0.15,-0.57l0 -1.31c-0.14,-0.13 -0.28,-0.25 -0.42,-0.37l-0.13 -0.11 0.13 -0.11c0.14,-0.12 0.29,-0.24 0.42,-0.37l0 -0.81c0,-0.2 -0.05,-0.4 -0.15,-0.58 -0.1,-0.18 -0.24,-0.31 -0.42,-0.41 -0.21,-0.12 -0.44,-0.16 -0.68,-0.16l-1.76 0zm1.16 0.68c0.06,-0 0.11,-0 0.17,-0 0.18,0 0.44,0.01 0.6,0.08 0.22,0.1 0.26,0.36 0.27,0.57l0 0.18 0 0.12 -0.05 0.04c-0.34,0.29 -0.7,0.56 -1.07,0.82l-0.21 0.14 0 -1.94 0.29 0zm0.74 2.29c0.09,0.07 0.17,0.14 0.26,0.21l0.05 0.04 0 0.37c0,0.19 -0,0.37 -0.02,0.56 -0.01,0.13 -0.04,0.27 -0.14,0.37 -0.09,0.09 -0.21,0.13 -0.33,0.14 -0.14,0.01 -0.28,0.02 -0.43,0.02l-0.42 0 0 -1.1 0.06 -0.04c0.27,-0.18 0.54,-0.37 0.8,-0.57l0.08 -0.06 0.08 0.06zm1.61 0.01l0.35 0.81 0 1.56 0.88 0 0 -1.77 0.14 0 1.1 0.07 0 1.7 0.88 0 0 -5.34 -1.76 0c-0.23,0 -0.47,0.04 -0.68,0.16 -0.18,0.1 -0.32,0.23 -0.42,0.41 -0.1,0.18 -0.15,0.37 -0.15,0.58l0 1.83 -0.35 0zm2.34 -2.3l0.14 0 0 2.3 -1.24 0 0 -1.58c0,-0.21 0.03,-0.52 0.24,-0.64 0.15,-0.08 0.4,-0.09 0.57,-0.09 0.1,0 0.2,0 0.3,0.01zm4.31 -0.68l-2.77 0 0 0.68 0.97 -0.11 0 4.77 0.88 0 0 -4.75 0.92 0.09 0 -0.68z"/>
    </clipPath>
    <clipPath id="id1">
     <path d="M6.82 40.83l0 -0.3 -1.99 0 0 1.41 0.5 0 0 -1.18 0.34 0 1.15 0.08zm3.44 0.3c-0.05,-0.21 -0.16,-0.37 -0.33,-0.49 -0.2,-0.15 -0.45,-0.2 -0.7,-0.2l-0.39 0c-0.2,0 -0.41,0.03 -0.59,0.13 -0.15,0.08 -0.26,0.19 -0.35,0.34 -0.08,0.15 -0.12,0.31 -0.12,0.48l0 0.55 0.5 0c0,-0.18 0,-0.35 0.02,-0.53 0.02,-0.18 0.07,-0.37 0.22,-0.49 0.14,-0.13 0.33,-0.16 0.51,-0.16 0.18,0 0.37,0.04 0.51,0.16 0.14,0.13 0.2,0.31 0.21,0.49 0.02,0.18 0.02,0.35 0.02,0.53l0.51 0 0 -0.57c0,-0.04 -0.01,-0.08 -0.01,-0.12 -0,-0.03 -0.01,-0.07 -0.02,-0.11l-0 -0.01 -0 -0.01zm1.23 -0.6l0 1.41 0.51 0 0 -1.09 0.31 -0.01c0.07,-0 0.14,-0 0.21,-0 0.22,0 0.51,0.01 0.71,0.13 0.27,0.16 0.32,0.5 0.32,0.79l0 0.19 0.51 0 0 -0.45c0,-0.17 -0.04,-0.33 -0.12,-0.48 -0.08,-0.15 -0.2,-0.26 -0.35,-0.34 -0.18,-0.1 -0.39,-0.13 -0.59,-0.13l-1.5 0zm5.97 0.31l0 -0.31 -2.26 0 0 1.41 0.5 0 0 -1.2 1.76 0.11zm4.9 -0l0 -0.3 -1.99 0 0 1.41 0.5 0 0 -1.18 0.34 0 1.15 0.08zm3.44 0.3c-0.05,-0.21 -0.16,-0.37 -0.33,-0.49 -0.2,-0.15 -0.45,-0.2 -0.7,-0.2l-0.39 0c-0.2,0 -0.41,0.03 -0.59,0.13 -0.15,0.08 -0.26,0.19 -0.35,0.34 -0.08,0.15 -0.12,0.31 -0.12,0.48l0 0.55 0.5 0c0,-0.18 0,-0.35 0.02,-0.53 0.02,-0.18 0.07,-0.37 0.22,-0.49 0.14,-0.13 0.33,-0.16 0.51,-0.16 0.18,0 0.37,0.04 0.51,0.16 0.14,0.13 0.2,0.31 0.21,0.49 0.02,0.18 0.02,0.35 0.02,0.53l0.51 0 0 -0.57c0,-0.04 -0.01,-0.08 -0.01,-0.12 -0,-0.03 -0.01,-0.07 -0.02,-0.11l-0 -0.01 -0 -0.01zm4.58 -0.6l-1.2 1.18 -1.2 -1.18 -0.94 0 0 1.41 0.5 0 0 -1.38 1.26 1.38 0.77 0 1.26 -1.38 0 1.38 0.51 0 0 -1.41 -0.95 0zm2.19 0l0 1.41 0.5 0 0 -1.1 0.47 0c0.06,-0 0.12,-0 0.18,-0 0.21,0 0.49,0.01 0.68,0.09 0.29,0.13 0.37,0.44 0.38,0.73l0 0.19 0 0.09 0.42 0 0 -0.45c0,-0.17 -0.04,-0.33 -0.12,-0.48 -0.08,-0.15 -0.2,-0.26 -0.35,-0.34 -0.18,-0.1 -0.38,-0.13 -0.59,-0.13l-1.57 0zm6.5 1.41l0 -1.41 -1.57 0c-0.2,0 -0.41,0.03 -0.59,0.13 -0.15,0.08 -0.27,0.19 -0.35,0.34 -0.09,0.15 -0.12,0.31 -0.12,0.48l0 0.45 0.51 0 0 -0.2c0,-0.29 0.05,-0.65 0.34,-0.8 0.18,-0.1 0.45,-0.11 0.65,-0.11 0.1,0 0.2,0 0.31,0.01l0.32 0 0 1.1 0.51 0zm3.3 -1.41l-2.4 0 0 0.29 0.97 -0.11 0 1.23 0.51 0 0 -1.21 0.92 0.09 0 -0.29z"/>
    </clipPath>
  <linearGradient id="id2" gradientUnits="userSpaceOnUse" x1="13.08" y1="2.52" x2="13.08" y2="44.78">
   <stop offset="0" style="stop-opacity:1; stop-color:#2D5D8C"/>
   <stop offset="0.509804" style="stop-opacity:1; stop-color:#11467C"/>
   <stop offset="1" style="stop-opacity:1; stop-color:#03244D"/>
  </linearGradient>
  <linearGradient id="id3" gradientUnits="userSpaceOnUse" xlink:href="#id2" x1="33.5" y1="2.52" x2="33.5" y2="44.78">
  </linearGradient>
  <linearGradient id="id4" gradientUnits="userSpaceOnUse" xlink:href="#id2" x1="18.97" y1="22.66" x2="18.97" y2="15.37">
  </linearGradient>
  <linearGradient id="id5" gradientUnits="userSpaceOnUse" xlink:href="#id2" x1="27.62" y1="22.66" x2="27.62" y2="15.37">
  </linearGradient>
  <linearGradient id="id6" gradientUnits="userSpaceOnUse" x1="22.45" y1="32.11" x2="24.19" y2="34.71">
   <stop offset="0" style="stop-opacity:1; stop-color:#3887FD"/>
   <stop offset="1" style="stop-opacity:1; stop-color:#8238E9"/>
  </linearGradient>
  <linearGradient id="id7" gradientUnits="userSpaceOnUse" x1="20" y1="26.68" x2="30.42" y2="45.42">
   <stop offset="0" style="stop-opacity:1; stop-color:#DBE8EF"/>
   <stop offset="1" style="stop-opacity:1; stop-color:#A5B6C6"/>
  </linearGradient>
  <radialGradient id="id8" gradientUnits="userSpaceOnUse" gradientTransform="matrix(0.892489 -0 -0 0.892501 3 2)" cx="29.03" cy="20.4" r="3.14" fx="29.03" fy="20.4">
   <stop offset="0" style="stop-opacity:1; stop-color:#2D5D8C"/>
   <stop offset="0.521569" style="stop-opacity:1; stop-color:#11467C"/>
   <stop offset="1" style="stop-opacity:1; stop-color:black"/>
  </radialGradient>
  <radialGradient id="id9" gradientUnits="userSpaceOnUse" gradientTransform="matrix(0.751119 -0 -0 0.751112 9 8)" xlink:href="#id8" cx="35.73" cy="31.14" r="2.2" fx="35.73" fy="31.14">
  </radialGradient>
  <radialGradient id="id10" gradientUnits="userSpaceOnUse" gradientTransform="matrix(-0.751119 -9.19855E-17 9.19846E-17 -0.751112 19 55)" xlink:href="#id8" cx="10.86" cy="31.14" r="2.2" fx="10.86" fy="31.14">
  </radialGradient>
  <radialGradient id="id11" gradientUnits="userSpaceOnUse" gradientTransform="matrix(-0.950673 -1.16424E-16 1.16424E-16 -0.950676 33 25)" xlink:href="#id8" cx="17.07" cy="12.98" r="3.54" fx="17.07" fy="12.98">
  </radialGradient>
  <radialGradient id="id12" gradientUnits="userSpaceOnUse" gradientTransform="matrix(-0.892489 -1.09298E-16 1.093E-16 -0.892501 33 39)" xlink:href="#id8" cx="17.55" cy="20.4" r="3.14" fx="17.55" fy="20.4">
  </radialGradient>
  <radialGradient id="id13" gradientUnits="userSpaceOnUse" gradientTransform="matrix(0.890653 -0 -0 0.89065 4 2)" xlink:href="#id8" cx="38.66" cy="19.06" r="4.48" fx="38.66" fy="19.06">
  </radialGradient>
  <radialGradient id="id14" gradientUnits="userSpaceOnUse" gradientTransform="matrix(0.950673 -0 -0 0.950676 1 1)" xlink:href="#id8" cx="29.51" cy="12.98" r="3.54" fx="29.51" fy="12.98">
  </radialGradient>
  <radialGradient id="id15" gradientUnits="userSpaceOnUse" gradientTransform="matrix(0.903455 -0 -0 0.903459 3 0)" xlink:href="#id8" cx="27.54" cy="3.33" r="2.1" fx="27.54" fy="3.33">
  </radialGradient>
  <radialGradient id="id16" gradientUnits="userSpaceOnUse" gradientTransform="matrix(-0.890653 -1.09074E-16 1.09073E-16 -0.89065 15 36)" xlink:href="#id8" cx="7.93" cy="19.06" r="4.48" fx="7.93" fy="19.06">
  </radialGradient>
  <radialGradient id="id17" gradientUnits="userSpaceOnUse" gradientTransform="matrix(-0.903455 -1.10641E-16 1.10642E-16 -0.903459 36 6)" xlink:href="#id8" cx="19.04" cy="3.33" r="2.1" fx="19.04" fy="3.33">
  </radialGradient>
  <linearGradient id="id18" gradientUnits="userSpaceOnUse" x1="23.29" y1="25.75" x2="23.29" y2="26.5">
   <stop offset="0" style="stop-opacity:1; stop-color:#9EA1C4"/>
   <stop offset="1" style="stop-opacity:1; stop-color:#112A46"/>
  </linearGradient>
 </defs>
 <g id="Layer_x0020_1">
  <metadata id="CorelCorpID_0Corel-Layer"/>
  <g id="_2491693712672">
   <path class="fil0" d="M2.87 34.51c-1.88,-3.43 -2.87,-7.3 -2.87,-11.21 0,-12.84 10.45,-23.29 23.29,-23.29 12.84,0 23.29,10.45 23.29,23.29 0,2.29 -0.34,4.57 -1,6.75l0 -0c0,0 -0.03,0.09 -0.08,0.26 -0.46,1.46 -1.06,2.87 -1.8,4.21 -0.38,0.68 -1.15,1.95 -1.93,2.17 -0.33,0.26 -0.68,0.46 -1.05,0.59 -3.1,1.09 -5.78,0.27 -5.78,0.27l-0.24 1.56c0.26,0.05 0.51,0.14 0.75,0.27 0.13,0.07 0.26,0.16 0.37,0.25 0.11,-0.09 0.24,-0.18 0.37,-0.25 0.4,-0.23 0.85,-0.32 1.31,-0.32l6.35 0 0 3.4 -0.92 -0.09 0 4.61 -7.97 0 0 -0.11c-0.26,0.08 -0.54,0.11 -0.82,0.11l-8.58 0 0 -0.01c-0.25,0.07 -0.52,0.1 -0.79,0.1l-0.39 0c-0.25,0 -0.49,-0.03 -0.73,-0.09l-2.23 0c-0.46,0 -0.91,-0.09 -1.31,-0.32 -0.39,-0.22 -0.7,-0.52 -0.92,-0.91 -0.13,-0.23 -0.22,-0.48 -0.27,-0.74l0 1.96 -2.91 0 -2.3 0.01 0 -0.09c-0.24,0.06 -0.48,0.09 -0.73,0.09l-2.98 0 0 -0.01c-0.25,0.07 -0.52,0.1 -0.78,0.1l-0.39 0c-0.25,0 -0.49,-0.03 -0.73,-0.09l-2.23 0c-0.46,0 -0.91,-0.09 -1.31,-0.32 -0.39,-0.22 -0.7,-0.52 -0.92,-0.91 -0.21,-0.37 -0.31,-0.78 -0.31,-1.21l0 -5.49 3.24 0c0,0 0.36,-0.82 -0.91,-1.26 -1.28,-0.44 -2.8,-3.28 -2.8,-3.28z"/>
   <path class="fil1" d="M4.94 34.71c-0.49,0 -0.94,-0.27 -1.18,-0.7 -1.8,-3.27 -2.75,-6.97 -2.75,-10.72 0,-12.28 9.99,-22.27 22.27,-22.27 12.28,0 22.27,9.99 22.27,22.27 0,3.75 -0.95,7.46 -2.75,10.72 -0.24,0.43 -0.69,0.7 -1.18,0.7l-36.7 0z"/>
   <path class="fil2" d="M41.64 33.37c1.64,-2.99 2.58,-6.42 2.58,-10.08 0,-11.56 -9.37,-20.93 -20.93,-20.93 -11.56,0 -20.93,9.37 -20.93,20.93 0,3.65 0.94,7.09 2.58,10.08l36.7 0z"/>
   <path class="fil3" d="M41.76 22.55c-0.92,-2.86 -2.03,-4.94 -3.82,-6.42 -1.3,-1.07 -3.22,-1.68 -4.18,-1.93 -0.36,-0.09 -0.59,-0.14 -0.59,-0.14 -0.02,-1.59 -0.09,-3.26 -0.18,-3.84 -0.18,-1.07 -1.94,-3.92 -3.08,-5.67 -1.14,-1.74 -3.96,-3.24 -6.62,-3.24 -2.65,0 -5.48,1.5 -6.62,3.24 -1.14,1.75 -2.9,4.6 -3.08,5.67 -0.09,0.58 -0.17,2.24 -0.18,3.84 0,0 -0.23,0.04 -0.59,0.14 -0.96,0.25 -2.88,0.86 -4.18,1.93 -1.79,1.48 -2.9,3.57 -3.82,6.42 -0.92,2.86 -2.01,9.37 -1.95,10.54 0.07,1.16 0.62,3.11 3.8,3.81 1.93,0.43 3.71,0.41 4.82,0.32 0.72,-0.05 1.15,-0.13 1.15,-0.13l1.83 0.36c0.19,0.09 0.48,-0.23 0.53,-0.59 0.24,0.2 0.47,0.41 0.83,0.51 0.64,0.18 1.6,0.02 2.42,0.05 0.82,0.03 2.03,1.06 2.34,1.06 0.31,0 2.03,-0.95 1.94,-1.11l0.76 0 0.76 0c-0.08,0.16 1.63,1.11 1.94,1.11 0.31,0 1.53,-1.03 2.34,-1.06 0.82,-0.03 1.78,0.13 2.42,-0.05 0.36,-0.1 0.59,-0.32 0.83,-0.51 0.05,0.36 0.35,0.68 0.53,0.59l1.83 -0.36c0,0 0.43,0.08 1.15,0.13 1.11,0.08 2.89,0.1 4.82,-0.32 3.18,-0.7 3.73,-2.65 3.8,-3.81 0.07,-1.16 -1.02,-7.68 -1.95,-10.54zm-31.86 7.81l0 0 0.54 -1.59 0.84 -2.49 0.21 4.41c-0.51,-0.14 -1.04,-0.26 -1.58,-0.33zm25.21 0.33l0 0 0.21 -4.41 0.84 2.49 0.54 1.59c-0.53,0.07 -1.07,0.18 -1.58,0.33z"/>
   <path class="fil4" d="M33.89 30.02c-0.01,0.66 -0.02,1.1 -0.02,1.1 -0.38,0.17 -0.71,0.35 -0.96,0.54 -1.02,0.78 -0.99,1.63 -0.99,1.67l0 0c-0.5,0.3 -1.27,0.76 -1.29,0.87 -0.21,0.03 -0.57,0.08 -0.98,0.13l0 -0c0,0 1.74,-1.66 2.09,-2.06 0.35,-0.4 0.6,-1.08 1.17,-1.59 0.37,-0.33 0.76,-0.55 0.98,-0.66z"/>
   <path class="fil4" d="M33.89 30.02c0.03,-1.99 0.13,-6.01 0.38,-6.08 0.34,-0.1 1.04,2.33 1.04,2.33l-0.21 4.41c-0.44,0.12 -0.86,0.27 -1.23,0.43 0,0 0,-0.44 0.02,-1.1z"/>
   <path class="fil5" d="M31.92 33.33c-0,-0.04 -0.03,-0.89 0.99,-1.67 0.25,-0.19 0.58,-0.37 0.96,-0.54 0.37,-0.16 0.79,-0.31 1.23,-0.43 0.51,-0.14 1.04,-0.26 1.58,-0.33 0.56,-0.08 1.11,-0.11 1.61,-0.08l-2.15 -1.51 -0 0 -0.84 -2.49c0,0 -0.71,-2.43 -1.04,-2.33 -0.25,0.08 -0.35,4.09 -0.38,6.08 -0.22,0.11 -0.61,0.33 -0.98,0.66 -0.57,0.51 -0.82,1.19 -1.17,1.59 -0.35,0.4 -2.09,2.06 -2.09,2.06l0 0c-0.98,0.14 -2.25,0.32 -2.55,0.43 -0.5,0.17 -2.97,2.44 -3.05,2.6l-0.76 0 0 -14.41c0.28,-0.1 4.1,-1.5 5.92,-3.23 1.28,-1.22 2.09,-2.26 2.51,-3.1 0.31,0.47 0.23,1.68 0.23,1.68 0.43,-0.81 0.48,-1.54 0.42,-2.14 -0.01,-0.13 -0.12,-0.32 -0.3,-0.54 -0.44,-0.57 -1.3,-1.39 -2.09,-2.04 -0.24,-0.2 -0.48,-0.39 -0.7,-0.55 -0.12,-0.09 -0.23,-0.16 -0.33,-0.23 -0.07,-0.05 -0.14,-0.09 -0.23,-0.15 -1.35,-0.84 -4.61,-2.45 -5.45,-2.45l0 -8.91c2.65,0 5.48,1.5 6.62,3.24 1.14,1.75 2.9,4.6 3.08,5.67 0.09,0.58 0.17,2.24 0.18,3.84 0.02,1.38 -0.01,2.71 -0.09,3.23 -0.18,1.13 -2,3.22 -3.86,4.02 0,0 2.03,-0.42 4.04,-2.31 1.69,-1.59 0.82,-4.06 0.5,-4.8 0.96,0.25 2.88,0.86 4.18,1.93 1.79,1.48 2.9,3.57 3.82,6.42 0.92,2.86 2.01,9.37 1.95,10.54 -0.07,1.16 -0.62,3.11 -3.8,3.81 -1.93,0.43 -3.71,0.41 -4.82,0.32 -0.31,-1.42 -1.59,-2.6 -1.59,-2.6 0.57,0.92 0.44,2.47 0.44,2.47l-1.83 0.36c0.13,-0.06 0.21,-0.33 0.1,-0.94 0,0 -0.07,-0.54 -0.32,-1.23 -0.24,-0.69 -1.06,-1.1 -1.06,-1.1 0,0 -0.08,0.01 -0.21,0.03 0.03,-0.11 0.79,-0.58 1.29,-0.87l0 -0z"/>
   <path class="fil6" d="M31.9 35.27c0.24,0.69 0.32,1.23 0.32,1.23 -0.26,0.07 -0.45,0.2 -0.63,0.35 -0.24,0.2 -0.47,0.41 -0.83,0.51 -0.64,0.18 -1.6,0.02 -2.42,0.05 -0.82,0.03 -2.03,1.06 -2.34,1.06 -0.31,0 -2.03,-0.95 -1.94,-1.11 0.08,-0.16 2.55,-2.43 3.05,-2.6 0.3,-0.1 1.57,-0.29 2.55,-0.43 0.41,-0.06 0.77,-0.11 0.98,-0.13 0.13,-0.02 0.21,-0.03 0.21,-0.03 0,0 0.82,0.4 1.06,1.1z"/>
   <path class="fil4" d="M36.15 28.76l2.15 1.51c-0.5,-0.03 -1.06,0 -1.61,0.08l-0.54 -1.59 0 0z"/>
   <path class="fil4" d="M33.5 34.61c0,0 1.28,1.18 1.59,2.6 -0.72,-0.05 -1.15,-0.13 -1.15,-0.13 0,0 0.13,-1.55 -0.44,-2.47z"/>
   <path class="fil4" d="M32.11 37.45c-0.19,0.09 -0.48,-0.23 -0.53,-0.59 0.18,-0.15 0.37,-0.28 0.63,-0.35 0.11,0.61 0.03,0.88 -0.1,0.94z"/>
   <path class="fil7" d="M31.73 16.63c-0.43,0.84 -1.24,1.87 -2.51,3.1 -1.82,1.74 -5.65,3.14 -5.92,3.23l0 -0.01c0.15,-0.11 1.31,-1 2.2,-2.3 0.25,-0.36 0.47,-0.75 0.65,-1.16l1.92 -1.46c-0,0.89 -0.57,2.2 -0.57,2.2 1.76,-0.77 1.8,-3.02 1.8,-3.02 0.48,-0.29 1.14,-1.85 1.14,-1.85 0.84,0.14 1.5,0.81 1.5,0.81 -0.06,0.15 -0.12,0.3 -0.21,0.47z"/>
   <path class="fil8" d="M23.29 21.07c1.25,-0 2,-0.31 2.2,-0.42 -0.89,1.3 -2.05,2.19 -2.2,2.3l0 -1.89z"/>
   <path class="fil4" d="M12.7 30.02c0.01,0.66 0.02,1.1 0.02,1.1 0.38,0.17 0.71,0.35 0.96,0.54 1.02,0.78 0.99,1.63 0.99,1.67l0 0c0.5,0.3 1.27,0.76 1.29,0.87 0.21,0.03 0.57,0.08 0.98,0.13l0 -0c0,0 -1.74,-1.66 -2.09,-2.06 -0.35,-0.4 -0.6,-1.08 -1.17,-1.59 -0.37,-0.33 -0.76,-0.55 -0.98,-0.66z"/>
   <path class="fil4" d="M12.7 30.02c-0.03,-1.99 -0.13,-6.01 -0.38,-6.08 -0.34,-0.1 -1.04,2.33 -1.04,2.33l0.21 4.41c0.44,0.12 0.86,0.27 1.23,0.43 0,0 -0,-0.44 -0.02,-1.1z"/>
   <path class="fil9" d="M14.67 33.33c0,-0.04 0.03,-0.89 -0.99,-1.67 -0.25,-0.19 -0.58,-0.37 -0.96,-0.54 -0.37,-0.16 -0.79,-0.31 -1.23,-0.43 -0.51,-0.14 -1.04,-0.26 -1.58,-0.33 -0.56,-0.08 -1.11,-0.11 -1.61,-0.08l2.15 -1.51 0 0 0.84 -2.49c0,0 0.71,-2.43 1.04,-2.33 0.25,0.08 0.35,4.09 0.38,6.08 0.22,0.11 0.61,0.33 0.98,0.66 0.57,0.51 0.82,1.19 1.17,1.59 0.35,0.4 2.09,2.06 2.09,2.06l0 0c0.98,0.14 2.25,0.32 2.55,0.43 0.5,0.17 2.97,2.44 3.05,2.6l0.76 0 0 -14.41c-0.28,-0.1 -4.1,-1.5 -5.92,-3.23 -1.28,-1.22 -2.09,-2.26 -2.51,-3.1 -0.31,0.47 -0.23,1.68 -0.23,1.68 -0.43,-0.81 -0.48,-1.54 -0.42,-2.14 0.01,-0.13 0.12,-0.32 0.3,-0.54 0.44,-0.57 1.3,-1.39 2.09,-2.04 0.24,-0.2 0.48,-0.39 0.7,-0.55 0.12,-0.09 0.23,-0.16 0.33,-0.23 0.07,-0.05 0.14,-0.09 0.23,-0.15 1.35,-0.84 4.61,-2.45 5.45,-2.45l0 -8.91c-2.65,0 -5.48,1.5 -6.62,3.24 -1.14,1.75 -2.9,4.6 -3.08,5.67 -0.09,0.58 -0.17,2.24 -0.18,3.84 -0.02,1.38 0.01,2.71 0.09,3.23 0.18,1.13 2,3.22 3.86,4.02 0,0 -2.03,-0.42 -4.04,-2.31 -1.69,-1.59 -0.82,-4.06 -0.5,-4.8 -0.96,0.25 -2.88,0.86 -4.18,1.93 -1.79,1.48 -2.9,3.57 -3.82,6.42 -0.92,2.86 -2.01,9.37 -1.95,10.54 0.07,1.16 0.62,3.11 3.8,3.81 1.93,0.43 3.71,0.41 4.82,0.32 0.31,-1.42 1.59,-2.6 1.59,-2.6 -0.57,0.92 -0.44,2.47 -0.44,2.47l1.83 0.36c-0.13,-0.06 -0.21,-0.33 -0.1,-0.94 0,0 0.07,-0.54 0.32,-1.23 0.24,-0.69 1.06,-1.1 1.06,-1.1 0,0 0.08,0.01 0.21,0.03 -0.03,-0.11 -0.79,-0.58 -1.29,-0.87l0 -0z"/>
   <path class="fil6" d="M14.69 35.27c-0.24,0.69 -0.32,1.23 -0.32,1.23 0.26,0.07 0.45,0.2 0.63,0.35 0.24,0.2 0.47,0.41 0.83,0.51 0.64,0.18 1.6,0.02 2.42,0.05 0.82,0.03 2.03,1.06 2.34,1.06 0.31,0 2.03,-0.95 1.94,-1.11 -0.08,-0.16 -2.55,-2.43 -3.05,-2.6 -0.3,-0.1 -1.57,-0.29 -2.55,-0.43 -0.41,-0.06 -0.77,-0.11 -0.98,-0.13 -0.13,-0.02 -0.21,-0.03 -0.21,-0.03 0,0 -0.82,0.4 -1.06,1.1z"/>
   <path class="fil4" d="M10.44 28.76l-2.15 1.51c0.5,-0.03 1.06,0 1.61,0.08l0.54 -1.59 -0 0z"/>
   <path class="fil4" d="M13.09 34.61c0,0 -1.28,1.18 -1.59,2.6 0.72,-0.05 1.15,-0.13 1.15,-0.13 0,0 -0.13,-1.55 0.44,-2.47z"/>
   <path class="fil4" d="M12.83 14.2c-0.32,0.75 -1.19,3.21 0.5,4.8 2.01,1.9 4.04,2.31 4.04,2.31 -1.86,-0.8 -3.68,-2.9 -3.86,-4.02 -0.09,-0.52 -0.11,-1.85 -0.09,-3.23 0,0 -0.23,0.04 -0.59,0.14z"/>
   <path class="fil4" d="M14.48 37.45c0.19,0.09 0.48,-0.23 0.53,-0.59 -0.18,-0.15 -0.37,-0.28 -0.63,-0.35 -0.11,0.61 -0.03,0.88 0.1,0.94z"/>
   <path class="fil10" d="M14.86 16.63c0.43,0.84 1.24,1.87 2.51,3.1 1.82,1.74 5.65,3.14 5.92,3.23l0 -0.01c-0.15,-0.11 -1.31,-1 -2.2,-2.3 -0.25,-0.36 -0.47,-0.75 -0.65,-1.16l-1.92 -1.46c0,0.89 0.57,2.2 0.57,2.2 -1.76,-0.77 -1.8,-3.02 -1.8,-3.02 -0.48,-0.29 -1.14,-1.85 -1.14,-1.85 -0.84,0.14 -1.5,0.81 -1.5,0.81 0.06,0.15 0.12,0.3 0.21,0.47z"/>
   <path class="fil8" d="M23.29 21.07c-1.25,-0 -2,-0.31 -2.2,-0.42 0.89,1.3 2.05,2.19 2.2,2.3l0 -1.89z"/>
   <g>
    <path class="fil4" d="M26.15 19.5c0.09,-0.2 0.16,-0.4 0.22,-0.61l0 -0c0.56,-0.45 0.99,-0.92 1.25,-1.22 0.43,-0.49 0.7,-1.46 0.86,-2.41 0.33,0.35 1.22,-0.18 1.39,-0.63 0.13,-0.35 0.13,-0.84 0.12,-1.02 0.79,0.66 1.65,1.47 2.09,2.04 -0.03,0.16 -0.08,0.34 -0.15,0.53 0,0 -0.66,-0.67 -1.5,-0.81 0,0 -0.67,1.56 -1.14,1.85 0,0 -0.04,2.25 -1.8,3.02 0,0 0.56,-1.31 0.57,-2.2l-1.92 1.46z"/>
    <path class="fil11" d="M26.37 18.88c-0.06,0.21 -0.14,0.41 -0.22,0.61 -0.18,0.41 -0.41,0.8 -0.65,1.16 -0.21,0.1 -0.95,0.41 -2.2,0.42l0 -0.96c1.23,0 2.28,-0.59 3.08,-1.23l0 0z"/>
    <path class="fil4" d="M33.76 14.2c0.32,0.75 1.19,3.21 -0.5,4.8 -2.01,1.9 -4.04,2.31 -4.04,2.31 1.86,-0.8 3.68,-2.9 3.86,-4.02 0.09,-0.52 0.11,-1.85 0.09,-3.23 0,0 0.23,0.04 0.59,0.14z"/>
    <path class="fil4" d="M32.38 16.18c0.06,0.6 0.01,1.32 -0.42,2.14 0,0 0.08,-1.21 -0.23,-1.68 0.08,-0.16 0.15,-0.32 0.21,-0.47 0.07,-0.19 0.12,-0.36 0.15,-0.53 0.17,0.23 0.28,0.41 0.3,0.54z"/>
    <path class="fil4" d="M20.44 19.5c-0.09,-0.2 -0.16,-0.4 -0.22,-0.61l0 -0c-0.56,-0.45 -0.99,-0.92 -1.25,-1.22 -0.43,-0.49 -0.7,-1.46 -0.86,-2.41 -0.33,0.35 -1.22,-0.18 -1.39,-0.63 -0.13,-0.35 -0.13,-0.84 -0.12,-1.02 -0.79,0.66 -1.65,1.47 -2.09,2.04 0.03,0.16 0.08,0.34 0.15,0.53 0,0 0.66,-0.67 1.5,-0.81 0,0 0.67,1.56 1.14,1.85 0,0 0.04,2.25 1.8,3.02 0,0 -0.56,-1.31 -0.57,-2.2l1.92 1.46z"/>
    <path class="fil11" d="M20.22 18.88c0.06,0.21 0.14,0.41 0.22,0.61 0.18,0.41 0.41,0.8 0.65,1.16 0.21,0.1 0.95,0.41 2.2,0.42l0 -0.96c-1.23,0 -2.28,-0.59 -3.08,-1.23l0 0z"/>
    <path class="fil4" d="M14.21 16.18c-0.06,0.6 -0.01,1.32 0.42,2.14 0,0 -0.08,-1.21 0.23,-1.68 -0.08,-0.16 -0.15,-0.32 -0.21,-0.47 -0.07,-0.19 -0.12,-0.36 -0.15,-0.53 -0.17,0.23 -0.28,0.41 -0.3,0.54z"/>
    <path class="fil6" d="M29.99 13.6c0.01,0.18 0.02,0.67 -0.12,1.02 -0.17,0.45 -1.06,0.97 -1.39,0.63 0.02,-0.12 0.04,-0.23 0.06,-0.35 0.34,-0 0.74,-1.32 0.76,-1.85 0.22,0.16 0.45,0.35 0.7,0.55z"/>
    <path class="fil12" d="M28.97 12.82c0.1,0.07 0.21,0.15 0.33,0.23 -0.02,0.53 -0.42,1.84 -0.76,1.85 0.07,-0.5 0.12,-0.98 0.15,-1.38 0.01,-0.18 0.02,-0.33 0.03,-0.47 0.01,-0.17 0.01,-0.3 0.02,-0.38 0.08,0.05 0.16,0.1 0.23,0.15z"/>
    <path class="fil13" d="M27.82 13.82l-0.44 1.81c-0.05,0.21 -0.24,0.35 -0.45,0.35l-2 0c-0.2,0 -0.38,-0.13 -0.44,-0.32l-0.51 -1.59c-0.01,-0.03 -0.01,-0.05 -0.01,-0.08 0,-0.05 0.01,-0.1 0.04,-0.14 0.04,-0.06 0.1,-0.11 0.17,-0.12 0.31,-0.08 0.99,-0.23 1.75,-0.23 0.67,0 1.33,0.08 1.71,0.13 0.1,0.01 0.17,0.1 0.18,0.2z"/>
    <path class="fil6" d="M16.59 13.6c-0.01,0.18 -0.01,0.67 0.12,1.02 0.17,0.45 1.06,0.97 1.39,0.63 -0.02,-0.12 -0.04,-0.23 -0.06,-0.35 -0.34,-0 -0.74,-1.32 -0.76,-1.85 -0.22,0.16 -0.45,0.35 -0.7,0.55z"/>
    <path class="fil12" d="M17.62 12.82c-0.1,0.07 -0.21,0.15 -0.33,0.23 0.02,0.53 0.42,1.84 0.76,1.85 -0.07,-0.5 -0.12,-0.98 -0.15,-1.38 -0.01,-0.18 -0.02,-0.33 -0.03,-0.47 -0.01,-0.17 -0.01,-0.3 -0.02,-0.38 -0.08,0.05 -0.16,0.1 -0.23,0.15z"/>
    <path class="fil6" d="M23.29 10.22c-0.84,0 -4.1,1.61 -5.45,2.45 0,0.08 0.01,0.21 0.02,0.38l0.7 0.37 0 0c0.09,-0.09 0.2,-0.14 0.33,-0.16 0.39,-0.05 1.06,-0.13 1.76,-0.13 0.81,0 1.51,0.16 1.84,0.24 0.16,0.04 0.3,0.14 0.39,0.29l0.4 0 0.4 0c0.09,-0.14 0.23,-0.24 0.39,-0.29 0.33,-0.08 1.03,-0.24 1.84,-0.24 0.7,0 1.37,0.08 1.76,0.13 0.13,0.02 0.24,0.08 0.33,0.16l0 0 0.7 -0.37c0.01,-0.17 0.01,-0.3 0.02,-0.38 -1.35,-0.84 -4.61,-2.45 -5.45,-2.45zm4.45 5.5l0 0c-0.09,0.38 -0.43,0.64 -0.81,0.64l-2 0c-0.36,0 -0.69,-0.24 -0.8,-0.58l-0.49 -1.54 -0.35 0 -0.35 0 -0.49 1.54c-0.11,0.35 -0.43,0.58 -0.8,0.58l-2 0c-0.39,0 -0.72,-0.26 -0.81,-0.64l-0.45 -1.86 -0.5 -0.34c0.03,0.39 0.08,0.88 0.15,1.38 0.02,0.12 0.04,0.23 0.06,0.35 0.16,0.96 0.43,1.92 0.86,2.41 0.27,0.3 0.69,0.78 1.25,1.22 0.79,0.64 1.85,1.23 3.08,1.23 1.23,0 2.28,-0.59 3.08,-1.23 0.56,-0.45 0.99,-0.92 1.25,-1.22 0.43,-0.49 0.7,-1.46 0.86,-2.41 0.02,-0.12 0.04,-0.23 0.06,-0.35 0.07,-0.5 0.12,-0.98 0.15,-1.38l-0.5 0.34 -0.45 1.86z"/>
    <path class="fil14" d="M18.77 13.82l0.44 1.81c0.05,0.21 0.24,0.35 0.45,0.35l2 0c0.2,0 0.38,-0.13 0.44,-0.32l0.51 -1.59c0.01,-0.03 0.01,-0.05 0.01,-0.08 0,-0.05 -0.01,-0.1 -0.04,-0.14 -0.04,-0.06 -0.1,-0.11 -0.17,-0.12 -0.31,-0.08 -0.99,-0.23 -1.75,-0.23 -0.67,0 -1.33,0.08 -1.71,0.13 -0.1,0.01 -0.17,0.1 -0.18,0.2z"/>
    <path class="fil12" d="M28.02 13.42l-0 0c-0.09,-0.09 -0.2,-0.14 -0.33,-0.16 -0.39,-0.05 -1.06,-0.13 -1.76,-0.13 -0.81,0 -1.51,0.16 -1.84,0.24 -0.16,0.04 -0.3,0.14 -0.39,0.29l-0.4 0 -0.4 0c-0.09,-0.14 -0.23,-0.24 -0.39,-0.29 -0.33,-0.08 -1.03,-0.24 -1.84,-0.24 -0.7,0 -1.37,0.08 -1.76,0.13 -0.13,0.02 -0.24,0.08 -0.33,0.16l-0 0 -0.7 -0.37c0.01,0.13 0.02,0.29 0.03,0.47l0.5 0.34 0.45 1.86c0.09,0.38 0.43,0.64 0.81,0.64l2 0c0.36,0 0.69,-0.24 0.8,-0.58l0.49 -1.54 0.35 0 0.35 0 0.49 1.54c0.11,0.35 0.43,0.58 0.8,0.58l2 0c0.39,0 0.72,-0.26 0.81,-0.64l0.45 -1.86 0.5 -0.34c0.01,-0.18 0.02,-0.33 0.03,-0.47l-0.7 0.37zm-5.42 0.65l0 0 -0.51 1.59c-0.06,0.19 -0.24,0.32 -0.44,0.32l-2 0c-0.21,0 -0.4,-0.15 -0.45,-0.35l-0.44 -1.81c0.01,-0.1 0.08,-0.18 0.18,-0.2 0.38,-0.05 1.03,-0.13 1.71,-0.13 0.76,0 1.44,0.15 1.75,0.23 0.07,0.02 0.13,0.06 0.17,0.12 0.03,0.04 0.04,0.09 0.04,0.14 0,0.03 -0,0.05 -0.01,0.08zm4.77 1.56l0 0c-0.05,0.21 -0.24,0.35 -0.45,0.35l-2 0c-0.2,0 -0.38,-0.13 -0.44,-0.32l-0.51 -1.59c-0.01,-0.03 -0.01,-0.05 -0.01,-0.08 0,-0.05 0.01,-0.1 0.04,-0.14 0.04,-0.06 0.1,-0.11 0.17,-0.12 0.31,-0.08 0.99,-0.23 1.75,-0.23 0.67,0 1.33,0.08 1.71,0.13 0.1,0.01 0.17,0.1 0.18,0.2l-0.44 1.81z"/>
    <path class="fil12" d="M18.08 12.53c0.55,-0.08 0.89,-0.27 0.89,-0.27l-0.2 0.41c0.92,0 2.21,-0.58 2.21,-0.58l-0.76 0.58c3.22,-0.38 4.65,-1.19 5.26,-1.7 -0.95,-0.43 -1.81,-0.75 -2.19,-0.75 -0.79,0 -3.76,1.45 -5.22,2.31z"/>
    <g>
     <path class="fil11" d="M23.92 18.48c-0,0.25 -1.29,0.25 -1.29,-0 -0.02,-0 -0.02,-0.07 0,-0.07 0.43,-0.07 0.86,-0.08 1.29,-0 0.02,0 0.02,0.07 0,0.07z"/>
     <path class="fil11" d="M23.93 16.82c-0.2,0.12 -0.44,0.25 -0.68,0.25 -0.24,-0 -0.48,-0.13 -0.68,-0.25 -0.02,-0.01 0.01,-0.07 0.03,-0.06 0.22,0.05 0.44,0.06 0.66,0.06 0.22,0 0.43,-0.02 0.66,-0.06 0.02,-0 0.04,0.06 0.03,0.07z"/>
     <path class="fil11" d="M22.44 17.92c-0.28,-0.04 -0.55,-0.1 -0.8,-0.18 -0.04,-0.01 0.01,-0.09 0.05,-0.08 0.27,0.04 0.54,0.06 0.8,0.07 0.27,0.02 0.54,0.02 0.8,0.02 0.13,0 0.27,-0 0.4,-0.01 0.13,-0.01 0.27,-0.01 0.4,-0.02l0.2 -0.01 0.2 -0.02 0.1 -0.01 0.1 -0.01c0.07,-0.01 0.13,-0.01 0.2,-0.02 0.05,-0 0.09,0.07 0.05,0.08l-0.19 0.06c-0.03,0.01 -0.06,0.02 -0.1,0.03l-0.1 0.02 -0.2 0.04c-0.07,0.01 -0.14,0.02 -0.21,0.03 -0.14,0.02 -0.28,0.03 -0.42,0.05 -0.14,0.01 -0.29,0.02 -0.43,0.01 -0.29,-0 -0.57,-0.02 -0.85,-0.06z"/>
     <g>
      <path class="fil11" d="M29.77 13.52c-0.01,-0.01 -0.02,-0.01 -0.03,-0.01 -0.22,0.04 -0.51,0.29 -0.56,0.51 -0.01,0.05 -0.02,0.11 -0,0.16 0.02,0.05 0.05,0.09 0.08,0.14 0.03,0.06 0.02,0.14 -0.01,0.2 -0.03,0.06 -0.1,0.1 -0.17,0.11 -0.03,0 -0.05,0 -0.08,0.01 -0.03,0 -0.05,0.01 -0.07,0.04 -0.08,0.11 0.17,0.14 0.22,0.14 0.09,0 0.17,-0.02 0.24,-0.07 0.06,-0.05 0.1,-0.12 0.11,-0.2 0.03,-0.17 -0.06,-0.31 -0.05,-0.48 0.01,-0.17 0.09,-0.33 0.21,-0.45 0.03,-0.03 0.06,-0.05 0.09,-0.07 0.01,-0.01 0.02,-0.02 0.01,-0.04z"/>
      <path class="fil11" d="M16.82 13.52c0.01,-0.01 0.02,-0.01 0.03,-0.01 0.22,0.04 0.51,0.29 0.56,0.51 0.01,0.05 0.02,0.11 0,0.16 -0.02,0.05 -0.05,0.09 -0.08,0.14 -0.03,0.06 -0.02,0.14 0.01,0.2 0.03,0.06 0.1,0.1 0.17,0.11 0.03,0 0.05,0 0.08,0.01 0.03,0 0.05,0.01 0.07,0.04 0.08,0.11 -0.17,0.14 -0.22,0.14 -0.09,0 -0.17,-0.02 -0.24,-0.07 -0.06,-0.05 -0.1,-0.12 -0.11,-0.2 -0.03,-0.17 0.06,-0.31 0.05,-0.48 -0.01,-0.17 -0.09,-0.33 -0.21,-0.45 -0.03,-0.03 -0.06,-0.05 -0.09,-0.07 -0.01,-0.01 -0.02,-0.02 -0.01,-0.04z"/>
     </g>
    </g>
    <path class="fil15" d="M23.29 11.39c1.02,0 4.87,1.63 6.7,2.58 0.01,-0.16 0.01,-0.29 0,-0.37 -0.24,-0.2 -0.48,-0.39 -0.7,-0.55 -0.12,-0.09 -0.23,-0.16 -0.33,-0.23 -0.07,-0.05 -0.14,-0.09 -0.23,-0.15 -1.35,-0.84 -4.61,-2.45 -5.45,-2.45 -0.84,0 -4.1,1.61 -5.45,2.45 -0.08,0.05 -0.16,0.1 -0.23,0.15 -0.1,0.07 -0.21,0.15 -0.33,0.23 -0.22,0.16 -0.45,0.35 -0.7,0.55 -0,0.08 -0.01,0.22 0,0.37 1.83,-0.95 5.68,-2.58 6.7,-2.58z"/>
   </g>
   <g>
    <g>
     <g>
      <path class="fil16" d="M26.59 10.7c0.58,0.22 1.14,0.51 1.67,0.83 0.54,0.32 1.05,0.68 1.54,1.06 0.49,0.39 0.95,0.81 1.38,1.27 0.43,0.45 0.81,0.96 1.13,1.49 -0.43,-0.45 -0.86,-0.89 -1.32,-1.3 -0.23,-0.2 -0.46,-0.41 -0.69,-0.61l-0.35 -0.3 -0.36 -0.29c-0.96,-0.76 -1.97,-1.47 -3.01,-2.16z"/>
     </g>
     <g>
      <path class="fil17" d="M25.81 2.25c0.34,0.05 0.68,0.15 1,0.29 0.32,0.13 0.63,0.3 0.92,0.49 0.29,0.19 0.56,0.4 0.82,0.64 0.25,0.23 0.49,0.49 0.68,0.78 -0.29,-0.19 -0.56,-0.39 -0.84,-0.58 -0.28,-0.19 -0.56,-0.38 -0.84,-0.56 -0.28,-0.18 -0.56,-0.36 -0.85,-0.54 -0.29,-0.18 -0.58,-0.34 -0.88,-0.52z"/>
     </g>
     <g>
      <path class="fil18" d="M31.52 18.67c-0.31,0.41 -0.68,0.78 -1.07,1.12 -0.39,0.34 -0.8,0.65 -1.23,0.94 -0.21,0.14 -0.44,0.28 -0.66,0.41 -0.23,0.12 -0.45,0.25 -0.68,0.36 -0.46,0.23 -0.94,0.42 -1.44,0.56 0.44,-0.27 0.88,-0.52 1.31,-0.79 0.43,-0.26 0.86,-0.54 1.28,-0.82 0.42,-0.28 0.84,-0.57 1.25,-0.86 0.41,-0.3 0.82,-0.6 1.23,-0.91z"/>
     </g>
     <path class="fil4" d="M24.53 22.75c1.9,-0.18 3.63,-0.95 3.63,-0.95 0,0 -0.4,0.59 -1.56,0.89 -1.16,0.31 -2.06,0.06 -2.06,0.06z"/>
     <g>
      <path class="fil19" d="M36.06 15.5c0.39,0.04 0.74,0.23 1.06,0.45 0.32,0.22 0.62,0.47 0.89,0.75 0.55,0.55 1.02,1.16 1.45,1.8 0.42,0.65 0.79,1.33 1.08,2.04 0.29,0.71 0.53,1.45 0.61,2.22 -0.22,-0.73 -0.52,-1.43 -0.85,-2.11 -0.33,-0.68 -0.71,-1.33 -1.12,-1.97 -0.41,-0.63 -0.86,-1.24 -1.36,-1.81 -0.25,-0.28 -0.51,-0.55 -0.8,-0.79 -0.29,-0.24 -0.6,-0.46 -0.96,-0.58z"/>
     </g>
     <g>
      <path class="fil20" d="M33.99 31.53c0.27,-0.16 0.55,-0.29 0.83,-0.4 0.28,-0.11 0.57,-0.21 0.87,-0.29 0.6,-0.16 1.24,-0.21 1.85,-0.09 -0.3,0.08 -0.6,0.13 -0.89,0.19 -0.29,0.06 -0.58,0.14 -0.87,0.22 -0.29,0.08 -0.58,0.15 -0.88,0.22 -0.3,0.07 -0.6,0.12 -0.91,0.15z"/>
     </g>
     <path class="fil4" d="M38 30.27c1.23,0.04 3.04,0.77 3.04,0.77 0,0 -1.36,-0.73 -2.19,-0.87 -0.83,-0.15 -0.86,0.11 -0.86,0.11z"/>
     <path class="fil4" d="M37.46 30.12c0.66,-0.39 2.29,-0.3 2.29,-0.3l-1.42 0.39c0,0 -0.46,0.01 -0.6,0 -0.14,-0.01 -0.26,-0.09 -0.26,-0.09z"/>
    </g>
    <g>
     <g>
      <path class="fil21" d="M19.99 10.7c-1.03,0.69 -2.04,1.39 -3.01,2.16l-0.36 0.29 -0.35 0.3c-0.24,0.2 -0.46,0.4 -0.69,0.61 -0.46,0.41 -0.88,0.86 -1.32,1.3 0.32,-0.53 0.7,-1.04 1.13,-1.49 0.43,-0.46 0.89,-0.88 1.38,-1.27 0.49,-0.38 1,-0.74 1.54,-1.06 0.54,-0.32 1.09,-0.61 1.67,-0.83z"/>
     </g>
     <g>
      <path class="fil22" d="M20.78 2.25c-0.3,0.18 -0.59,0.34 -0.88,0.52 -0.29,0.17 -0.57,0.35 -0.85,0.54 -0.28,0.18 -0.56,0.37 -0.84,0.56 -0.28,0.19 -0.55,0.39 -0.84,0.58 0.19,-0.29 0.43,-0.55 0.68,-0.78 0.25,-0.24 0.53,-0.45 0.82,-0.64 0.29,-0.19 0.6,-0.35 0.92,-0.49 0.32,-0.14 0.65,-0.23 1,-0.29z"/>
     </g>
     <g>
      <path class="fil23" d="M15.06 18.67c0.41,0.31 0.82,0.61 1.23,0.91 0.41,0.29 0.83,0.59 1.25,0.86 0.42,0.28 0.85,0.55 1.28,0.82 0.43,0.27 0.87,0.52 1.31,0.79 -0.49,-0.14 -0.98,-0.33 -1.44,-0.56 -0.24,-0.11 -0.46,-0.24 -0.68,-0.36 -0.22,-0.13 -0.44,-0.27 -0.66,-0.41 -0.43,-0.29 -0.84,-0.6 -1.23,-0.94 -0.39,-0.34 -0.76,-0.7 -1.07,-1.12z"/>
     </g>
     <path class="fil4" d="M22.06 22.75c-1.9,-0.18 -3.63,-0.95 -3.63,-0.95 0,0 0.4,0.59 1.56,0.89 1.16,0.31 2.06,0.06 2.06,0.06z"/>
     <g>
      <path class="fil24" d="M10.52 15.5c-0.37,0.11 -0.68,0.34 -0.96,0.58 -0.29,0.24 -0.55,0.51 -0.8,0.79 -0.5,0.57 -0.95,1.17 -1.36,1.81 -0.41,0.63 -0.79,1.29 -1.12,1.97 -0.33,0.68 -0.63,1.38 -0.85,2.11 0.09,-0.76 0.32,-1.51 0.61,-2.22 0.29,-0.71 0.66,-1.39 1.08,-2.04 0.42,-0.64 0.9,-1.26 1.45,-1.8 0.27,-0.27 0.57,-0.53 0.89,-0.75 0.32,-0.21 0.68,-0.4 1.06,-0.45z"/>
     </g>
     <g>
      <path class="fil25" d="M12.6 31.53c-0.31,-0.03 -0.61,-0.08 -0.91,-0.15 -0.3,-0.07 -0.59,-0.14 -0.88,-0.22 -0.29,-0.08 -0.58,-0.15 -0.87,-0.22 -0.29,-0.06 -0.59,-0.12 -0.89,-0.19 0.61,-0.13 1.25,-0.08 1.85,0.09 0.3,0.08 0.59,0.18 0.87,0.29 0.28,0.11 0.56,0.24 0.83,0.4z"/>
     </g>
     <path class="fil4" d="M8.58 30.27c-1.23,0.04 -3.04,0.77 -3.04,0.77 0,0 1.36,-0.73 2.19,-0.87 0.83,-0.15 0.86,0.11 0.86,0.11z"/>
     <path class="fil4" d="M9.12 30.12c-0.66,-0.39 -2.29,-0.3 -2.29,-0.3l1.42 0.39c0,0 0.46,0.01 0.6,0 0.14,-0.01 0.26,-0.09 0.26,-0.09z"/>
    </g>
   </g>
   <g>
    <path class="fil26" d="M23.29 25.72l-11.86 0c-0.33,0 -0.58,0.28 -0.54,0.61l1.37 11.12 0.25 2.03 10.78 0 10.78 0 0.25 -2.03 1.37 -11.12c0.04,-0.32 -0.21,-0.61 -0.54,-0.61l-11.86 0z"/>
    <path class="fil27" d="M10.91 26.48c0.07,-0.22 0.27,-0.39 0.52,-0.39l11.86 0 11.86 0c0.25,0 0.45,0.16 0.52,0.39l0.02 -0.16c0.04,-0.32 -0.21,-0.61 -0.54,-0.61l-11.86 0 -11.86 0c-0.33,0 -0.58,0.28 -0.54,0.61l0.02 0.16z"/>
    <path class="fil28" d="M21.65 32l0.27 2.73 2.73 0 0.02 -0.19 0.25 -2.54 -3.28 0zm0.7 2.34l0 0 -0.12 -1.82 2.12 0 -0.12 1.82 -1.88 0z"/>
   </g>
   <path class="fil0" d="M34.68 44.5c-0.16,0.12 -0.33,0.23 -0.49,0.35l0.49 -0.35z"/>
   <path class="fil0" d="M33.3 44.38c0.01,-0.15 0.01,-0.31 0.01,-0.46l0 -0.13 -0.01 0.59z"/>
   <path class="fil29" d="M39.36 39.91l3.62 0 0 1.58 -0.92 -0.09 0 4.7 -1.73 0 0 -4.72 -0.65 0.08 0 4.64 -1.73 0 0 -1.73 -0.39 -0.03 0 1.76 -1.73 0 0 -1.9 -0.01 -0.03 0 0.36c0,0.28 -0.07,0.54 -0.2,0.79 -0.14,0.25 -0.34,0.44 -0.59,0.57 -0.27,0.15 -0.58,0.21 -0.88,0.21l-2.18 0 0 -6.19 2.18 0c0.31,0 0.61,0.06 0.88,0.21 0.25,0.14 0.45,0.33 0.59,0.57 0.14,0.24 0.2,0.51 0.2,0.79l0 0.99 -0.09 0.09c-0.07,0.07 -0.15,0.14 -0.22,0.2 0.05,0.04 0.09,0.08 0.14,0.13l0.18 0 0 -1.4c0,-0.28 0.06,-0.54 0.2,-0.79 0.14,-0.24 0.34,-0.43 0.58,-0.57 0.27,-0.15 0.58,-0.21 0.89,-0.21l1.86 0zm-12.93 1.2l0 -1.2 1.81 0 0.95 0.94 0.95 -0.94 1.81 0 0 6.19 -1.73 0 0 -3.97 -0.16 0.18 0 3.79 -1.73 0 0 -3.79 -0.16 -0.18 0 3.97 -1.73 0 0 -1.18c-0.03,0.17 -0.09,0.34 -0.18,0.49 -0.14,0.24 -0.34,0.43 -0.58,0.57 -0.27,0.15 -0.58,0.21 -0.89,0.21l-0.39 0c-0.31,0 -0.61,-0.06 -0.88,-0.21 -0.22,-0.12 -0.4,-0.28 -0.53,-0.49l0 0.61 -1.54 0c-0.31,0 -0.61,-0.06 -0.89,-0.21 -0.25,-0.14 -0.45,-0.33 -0.58,-0.57 -0.14,-0.24 -0.2,-0.51 -0.2,-0.78l0 -4.63 3.21 0 0 0.61c0.13,-0.21 0.31,-0.37 0.53,-0.49 0.27,-0.15 0.58,-0.21 0.88,-0.21l0.39 0c0.38,0 0.76,0.09 1.07,0.32 0.28,0.21 0.47,0.49 0.55,0.83 0.01,0.05 0.02,0.09 0.03,0.14zm-3.71 3.47l0 -3.11 -1.23 -0.09 0 2.88c0,0.06 0.01,0.22 0.03,0.29 0.09,0.03 0.3,0.04 0.38,0.04 0.06,0 0.13,-0 0.19,-0l0.01 -0 0.62 0zm-8.14 -3.61l0 -1.06 3.49 0 0 1.57 -1.76 -0.11 0 1.51 1.76 0 0 1.57 -1.76 -0.11 0 0.29 1.76 -0.11 0 1.57 -2.05 0 -1.44 0 0 -1.06c-0.03,0.09 -0.07,0.19 -0.12,0.28 -0.14,0.25 -0.34,0.44 -0.58,0.57 -0.27,0.15 -0.58,0.21 -0.89,0.21l-2.12 0 0 -1.16c-0.03,0.16 -0.09,0.32 -0.17,0.47 -0.14,0.24 -0.34,0.43 -0.58,0.57 -0.27,0.15 -0.58,0.21 -0.89,0.21l-0.39 0c-0.31,0 -0.61,-0.06 -0.88,-0.21 -0.22,-0.12 -0.4,-0.28 -0.53,-0.49l0 0.61 -1.54 0c-0.31,0 -0.61,-0.06 -0.89,-0.21 -0.25,-0.14 -0.45,-0.33 -0.58,-0.57 -0.14,-0.24 -0.2,-0.51 -0.2,-0.78l0 -4.63 3.21 0 0 0.61c0.13,-0.21 0.31,-0.37 0.53,-0.49 0.27,-0.15 0.58,-0.21 0.88,-0.21l0.39 0c0.38,0 0.76,0.09 1.07,0.32 0.28,0.21 0.47,0.49 0.55,0.83 0.01,0.04 0.02,0.08 0.03,0.12l0 -1.17 2.12 0c0.31,0 0.61,0.06 0.89,0.21 0.25,0.14 0.45,0.33 0.58,0.57 0.05,0.09 0.09,0.18 0.12,0.28zm-7.41 3.61l0 -3.11 -1.23 -0.09 0 2.88c0,0.06 0.01,0.22 0.03,0.29 0.09,0.03 0.3,0.04 0.38,0.04 0.06,0 0.13,-0 0.19,-0l0.01 -0 0.62 0zm1.96 -3.21c-0.03,-0.01 -0.08,-0.01 -0.1,-0.01 -0.02,0 -0.07,0 -0.1,0.01 -0.01,0.03 -0.02,0.07 -0.02,0.09 -0.02,0.18 -0.02,0.36 -0.02,0.54l0 2.01c0,0.18 -0,0.37 0.02,0.54 0,0.02 0.01,0.07 0.02,0.09 0.03,0.01 0.08,0.01 0.1,0.01 0.02,0 0.07,-0 0.1,-0.01 0.01,-0.03 0.01,-0.07 0.02,-0.09 0.02,-0.18 0.02,-0.37 0.02,-0.55l0 -2.01c0,-0.18 -0,-0.37 -0.02,-0.54 -0,-0.02 -0.01,-0.07 -0.02,-0.09zm3.47 3.21c0.1,-0 0.23,-0.01 0.29,-0.03 0.03,-0.06 0.03,-0.22 0.03,-0.27l0 -2.54c0,-0.05 -0.01,-0.21 -0.03,-0.27 -0.06,-0.02 -0.19,-0.03 -0.29,-0.03l0 3.14zm12.08 -3.21c-0.03,-0.01 -0.08,-0.01 -0.1,-0.01 -0.02,0 -0.07,0 -0.1,0.01 -0.01,0.03 -0.02,0.07 -0.02,0.09 -0.02,0.18 -0.02,0.36 -0.02,0.54l0 2.01c0,0.18 -0,0.37 0.02,0.54 0,0.02 0.01,0.07 0.02,0.09 0.03,0.01 0.08,0.01 0.1,0.01 0.02,0 0.07,-0 0.1,-0.01 0.01,-0.03 0.01,-0.07 0.02,-0.09 0.02,-0.18 0.02,-0.37 0.02,-0.55l0 -2.01c0,-0.18 -0,-0.37 -0.02,-0.54 -0,-0.02 -0.01,-0.07 -0.02,-0.09zm9.01 0.07l0 0.7c0.16,-0.12 0.32,-0.25 0.48,-0.38l-0 -0.09c-0,-0.04 -0.01,-0.15 -0.03,-0.19 -0.1,-0.03 -0.33,-0.04 -0.42,-0.04 -0.01,0 -0.02,0 -0.03,0zm0.48 2.36c-0.16,0.11 -0.32,0.23 -0.48,0.34l0 0.45c0.12,-0 0.25,-0 0.38,-0.01 0.02,-0 0.05,-0.01 0.07,-0.01 0.01,-0.03 0.02,-0.08 0.02,-0.1 0.01,-0.17 0.02,-0.35 0.02,-0.53l0 -0.13zm3.39 -0.91l0.39 0 0 -1.45c-0,0 -0.01,0 -0.01,0 -0.07,0 -0.26,0 -0.35,0.03 -0.03,0.06 -0.03,0.21 -0.03,0.27l0 1.15z"/>
   <path class="fil30" d="M5.66 41.07l-0 0 0 3.19c0,0.29 0.05,0.47 0.16,0.53 0.09,0.05 0.27,0.08 0.54,0.08 0.06,0 0.13,-0 0.2,-0l0.57 0 0 0.95 -1.25 0c-0.29,0 -0.54,-0.06 -0.74,-0.17 -0.21,-0.11 -0.36,-0.27 -0.47,-0.46 -0.11,-0.19 -0.16,-0.41 -0.16,-0.64l0 -4.34 2.63 0 0 0.97 -1.48 -0.11z"/>
   <path id="_1" class="fil30" d="M10.57 41.05c0.01,0.04 0.02,0.09 0.03,0.15 0.01,0.07 0.01,0.12 0.01,0.16l0 3.27c0,0.24 -0.05,0.45 -0.16,0.64 -0.11,0.19 -0.27,0.35 -0.47,0.46 -0.21,0.12 -0.45,0.17 -0.75,0.17l-0.39 0c-0.29,0 -0.54,-0.06 -0.74,-0.17 -0.21,-0.11 -0.36,-0.27 -0.47,-0.46 -0.11,-0.19 -0.16,-0.41 -0.16,-0.64l0 -3.25c0,-0.23 0.05,-0.45 0.16,-0.64 0.11,-0.19 0.26,-0.35 0.47,-0.46 0.21,-0.12 0.45,-0.17 0.74,-0.17l0.39 0c0.36,0 0.66,0.09 0.89,0.26 0.23,0.17 0.38,0.4 0.45,0.67zm-1.11 0.96c0,-0.24 -0.01,-0.44 -0.02,-0.57 -0.01,-0.14 -0.05,-0.23 -0.11,-0.28 -0.06,-0.05 -0.16,-0.08 -0.3,-0.08 -0.14,0 -0.24,0.03 -0.3,0.08 -0.06,0.05 -0.1,0.15 -0.11,0.28 -0.01,0.13 -0.02,0.33 -0.02,0.57l0 2.01c0,0.25 0.01,0.44 0.02,0.57 0.01,0.14 0.05,0.23 0.11,0.28 0.06,0.05 0.16,0.08 0.3,0.08 0.14,0 0.24,-0.03 0.3,-0.08 0.06,-0.05 0.09,-0.15 0.11,-0.28 0.01,-0.14 0.02,-0.33 0.02,-0.57l0 -2.01z"/>
   <path id="_2" class="fil30" d="M14.38 41.48l0 3.06c0,0.24 -0.05,0.45 -0.16,0.64 -0.11,0.19 -0.27,0.35 -0.47,0.46 -0.21,0.12 -0.45,0.17 -0.74,0.17l-1.83 0 0 -5.61 1.83 0c0.29,0 0.54,0.06 0.74,0.17 0.21,0.11 0.36,0.27 0.47,0.46 0.11,0.19 0.16,0.41 0.16,0.64zm-2.06 3.39c0.07,0 0.14,0 0.2,0 0.27,0 0.45,-0.03 0.54,-0.08 0.11,-0.06 0.16,-0.23 0.16,-0.51l0 -2.53c0,-0.28 -0.05,-0.45 -0.16,-0.51 -0.09,-0.05 -0.27,-0.08 -0.54,-0.08 -0.06,0 -0.13,0 -0.2,0l0 3.72z"/>
   <polygon id="_3" class="fil30" points="17.78,41.17 16.02,41.07 16.02,43.18 17.78,43.18 17.78,44.15 16.02,44.04 16.02,44.95 17.78,44.84 17.78,45.81 16.02,45.81 14.88,45.82 14.88,44.15 14.45,43.18 14.88,43.18 14.88,40.2 17.78,40.2 "/>
   <path id="_4" class="fil30" d="M21.2 41.07l-0 0 0 3.19c0,0.29 0.05,0.47 0.16,0.53 0.09,0.05 0.27,0.08 0.54,0.08 0.06,0 0.13,-0 0.2,-0l0.57 0 0 0.95 -1.25 0c-0.29,0 -0.54,-0.06 -0.74,-0.17 -0.21,-0.11 -0.36,-0.27 -0.47,-0.46 -0.11,-0.19 -0.16,-0.41 -0.16,-0.64l0 -4.34 2.63 0 0 0.97 -1.48 -0.11z"/>
   <path id="_5" class="fil30" d="M26.12 41.05c0.01,0.04 0.02,0.09 0.03,0.15 0.01,0.07 0.01,0.12 0.01,0.16l0 3.27c0,0.24 -0.05,0.45 -0.16,0.64 -0.11,0.19 -0.27,0.35 -0.47,0.46 -0.21,0.12 -0.45,0.17 -0.75,0.17l-0.39 0c-0.29,0 -0.54,-0.06 -0.74,-0.17 -0.21,-0.11 -0.36,-0.27 -0.47,-0.46 -0.11,-0.19 -0.16,-0.41 -0.16,-0.64l0 -3.25c0,-0.23 0.05,-0.45 0.16,-0.64 0.11,-0.19 0.26,-0.35 0.47,-0.46 0.21,-0.12 0.45,-0.17 0.74,-0.17l0.39 0c0.36,0 0.66,0.09 0.89,0.26 0.23,0.17 0.38,0.4 0.45,0.67zm-1.11 0.96c0,-0.24 -0.01,-0.44 -0.02,-0.57 -0.01,-0.14 -0.05,-0.23 -0.11,-0.28 -0.06,-0.05 -0.16,-0.08 -0.3,-0.08 -0.14,0 -0.24,0.03 -0.3,0.08 -0.06,0.05 -0.1,0.15 -0.11,0.28 -0.01,0.13 -0.02,0.33 -0.02,0.57l0 2.01c0,0.25 0.01,0.44 0.02,0.57 0.01,0.14 0.05,0.23 0.11,0.28 0.06,0.05 0.16,0.08 0.3,0.08 0.14,0 0.24,-0.03 0.3,-0.08 0.06,-0.05 0.09,-0.15 0.11,-0.28 0.01,-0.14 0.02,-0.33 0.02,-0.57l0 -2.01z"/>
   <polygon id="_6" class="fil30" points="30.26,40.2 31.66,40.2 31.66,45.82 30.51,45.82 30.51,41.38 29.76,42.2 29.76,45.82 28.61,45.82 28.61,42.2 27.87,41.38 27.87,45.82 26.72,45.82 26.72,40.2 28.12,40.2 29.19,41.26 "/>
   <path id="_7" class="fil30" d="M34.15 40.2c0.29,0 0.54,0.06 0.74,0.17 0.21,0.11 0.36,0.27 0.47,0.46 0.11,0.19 0.16,0.41 0.16,0.64l0 0.87c-0.14,0.13 -0.3,0.27 -0.47,0.41 0.17,0.14 0.33,0.28 0.47,0.41l0 1.37c0,0.24 -0.05,0.45 -0.16,0.64 -0.11,0.19 -0.27,0.35 -0.47,0.46 -0.21,0.12 -0.45,0.17 -0.74,0.17l-1.89 0 0 -5.61 1.89 0zm-0.74 0.95l0 1.55c0.32,-0.22 0.68,-0.49 1.06,-0.81l0 -0.05 -0 -0.18c-0.01,-0.25 -0.07,-0.39 -0.19,-0.45 -0.1,-0.05 -0.28,-0.07 -0.55,-0.07 -0.05,0 -0.11,0 -0.17,0l-0.15 0zm1.06 2.47c-0.08,-0.07 -0.17,-0.14 -0.25,-0.21 -0.31,0.22 -0.58,0.41 -0.81,0.57l0 0.89 0.28 0c0.16,0 0.3,-0.01 0.41,-0.02 0.11,-0.01 0.2,-0.04 0.25,-0.1 0.06,-0.06 0.09,-0.15 0.1,-0.28 0.01,-0.13 0.02,-0.31 0.02,-0.55l0 -0.31z"/>
   <path id="_8" class="fil30" d="M37.5 40.2l1.89 0 0 5.61 -1.15 0 0 -1.71 -0.97 -0.06 -0 0 0 1.77 -1.15 0 0 -1.67 -0.42 -0.97 0.42 0 0 -1.7c0,-0.24 0.05,-0.45 0.16,-0.64 0.11,-0.19 0.27,-0.35 0.47,-0.46 0.2,-0.12 0.45,-0.17 0.75,-0.17zm-0.23 2.97l0.97 0 0 -2.02 -0 0c-0.11,-0.01 -0.21,-0.01 -0.3,-0.01 -0.25,0 -0.41,0.02 -0.5,0.07 -0.11,0.06 -0.17,0.23 -0.17,0.52l0 1.45z"/>
   <polygon id="_9" class="fil30" points="42.69,40.2 42.69,41.17 41.78,41.08 41.78,45.82 40.63,45.82 40.63,41.06 39.65,41.17 39.65,40.2 "/>
   <path class="fil31" d="M7 41.03l0 -0.69 -2.36 0 0 4.2c0,0.2 0.05,0.4 0.15,0.58 0.1,0.18 0.24,0.31 0.42,0.41 0.21,0.12 0.44,0.16 0.68,0.16l1.12 0 0 -0.68 -0.44 0c-0.07,0 -0.14,0 -0.21,0 -0.18,0 -0.46,-0.01 -0.61,-0.1 -0.2,-0.12 -0.23,-0.44 -0.23,-0.65l0 -3.33 0.15 0 1.34 0.1zm3.44 0.05c-0.06,-0.25 -0.2,-0.44 -0.4,-0.6 -0.23,-0.18 -0.52,-0.23 -0.81,-0.23l-0.39 0c-0.23,0 -0.47,0.04 -0.68,0.16 -0.18,0.1 -0.32,0.23 -0.42,0.41 -0.1,0.18 -0.15,0.37 -0.15,0.57l0 3.25c0,0.2 0.05,0.4 0.15,0.57 0.1,0.18 0.24,0.31 0.42,0.41 0.21,0.11 0.44,0.16 0.68,0.16l0.39 0c0.24,0 0.47,-0.04 0.68,-0.16 0.18,-0.1 0.32,-0.23 0.42,-0.41 0.1,-0.18 0.15,-0.37 0.15,-0.57l0 -3.27c0,-0.05 -0.01,-0.1 -0.01,-0.14 -0.01,-0.04 -0.01,-0.09 -0.03,-0.13l-0 -0 -0 -0zm-0.84 0.93l0 2.01c0,0.19 -0,0.39 -0.02,0.58 -0.01,0.13 -0.05,0.28 -0.15,0.37 -0.1,0.1 -0.26,0.12 -0.39,0.12 -0.14,0 -0.29,-0.02 -0.39,-0.12 -0.1,-0.09 -0.14,-0.24 -0.15,-0.37 -0.02,-0.19 -0.02,-0.39 -0.02,-0.59l0 -2.01c0,-0.19 0,-0.39 0.02,-0.58 0.01,-0.13 0.05,-0.28 0.15,-0.37 0.1,-0.09 0.25,-0.11 0.39,-0.11 0.13,0 0.28,0.02 0.39,0.12 0.1,0.09 0.14,0.24 0.15,0.37 0.02,0.19 0.02,0.39 0.02,0.58zm1.7 -1.66l0 5.34 1.69 0c0.23,0 0.47,-0.04 0.68,-0.16 0.18,-0.1 0.32,-0.23 0.42,-0.41 0.1,-0.18 0.15,-0.37 0.15,-0.57l0 -3.06c0,-0.2 -0.05,-0.4 -0.15,-0.58 -0.1,-0.18 -0.24,-0.31 -0.42,-0.41 -0.21,-0.12 -0.44,-0.16 -0.68,-0.16l-1.69 0zm0.88 4.66l0 -3.98 0.13 -0c0.07,-0 0.14,-0 0.21,-0 0.18,0 0.46,0.01 0.61,0.1 0.2,0.12 0.23,0.42 0.23,0.63l0 2.54c0,0.21 -0.03,0.51 -0.23,0.63 -0.16,0.09 -0.43,0.1 -0.61,0.1 -0.07,0 -0.14,-0 -0.21,-0l-0.13 -0zm5.46 -3.97l0 -0.69 -2.63 0 0 2.97 -0.36 0 0.36 0.81 0 1.56 1.01 -0 1.62 0 0 -0.69 -1.76 0.11 0 -1.19 1.76 0.11 0 -0.69 -1.76 0 0 -2.39 1.76 0.11zm4.9 -0l0 -0.69 -2.36 0 0 4.2c0,0.2 0.05,0.4 0.15,0.58 0.1,0.18 0.24,0.31 0.42,0.41 0.21,0.12 0.44,0.16 0.68,0.16l1.12 0 0 -0.68 -0.44 0c-0.07,0 -0.14,0 -0.21,0 -0.18,0 -0.46,-0.01 -0.61,-0.1 -0.2,-0.12 -0.23,-0.44 -0.23,-0.65l0 -3.33 0.15 0 1.34 0.1zm3.44 0.05c-0.06,-0.25 -0.2,-0.44 -0.4,-0.6 -0.23,-0.18 -0.52,-0.23 -0.81,-0.23l-0.39 0c-0.23,0 -0.47,0.04 -0.68,0.16 -0.18,0.1 -0.32,0.23 -0.42,0.41 -0.1,0.18 -0.15,0.37 -0.15,0.57l0 3.25c0,0.2 0.05,0.4 0.15,0.57 0.1,0.18 0.24,0.31 0.42,0.41 0.21,0.11 0.44,0.16 0.68,0.16l0.39 0c0.24,0 0.47,-0.04 0.68,-0.16 0.18,-0.1 0.32,-0.23 0.42,-0.41 0.1,-0.18 0.15,-0.37 0.15,-0.57l0 -3.27c0,-0.05 -0.01,-0.1 -0.01,-0.14 -0.01,-0.04 -0.01,-0.09 -0.03,-0.13l-0 -0 -0 -0zm-0.84 0.93l0 2.01c0,0.19 -0,0.39 -0.02,0.58 -0.01,0.13 -0.05,0.28 -0.15,0.37 -0.1,0.1 -0.26,0.12 -0.39,0.12 -0.14,0 -0.29,-0.02 -0.39,-0.12 -0.1,-0.09 -0.14,-0.24 -0.15,-0.37 -0.02,-0.19 -0.02,-0.39 -0.02,-0.59l0 -2.01c0,-0.19 0,-0.39 0.02,-0.58 0.01,-0.13 0.05,-0.28 0.15,-0.37 0.1,-0.09 0.25,-0.11 0.39,-0.11 0.13,0 0.28,0.02 0.39,0.12 0.1,0.09 0.14,0.24 0.15,0.37 0.02,0.19 0.02,0.39 0.02,0.58zm5.16 -1.66l-1.13 1.11 -1.12 -1.11 -1.21 0 0 5.34 0.87 0 0 -4.65 1.02 1.12 0 3.53 0.88 0 0 -3.53 1.02 -1.12 0 4.65 0.88 0 0 -5.34 -1.21 0zm2.08 0l0 5.34 1.76 0c0.23,0 0.47,-0.04 0.68,-0.16 0.18,-0.1 0.32,-0.23 0.42,-0.41 0.1,-0.18 0.15,-0.37 0.15,-0.57l0 -1.31c-0.14,-0.13 -0.28,-0.25 -0.42,-0.37l-0.13 -0.11 0.13 -0.11c0.14,-0.12 0.29,-0.24 0.42,-0.37l0 -0.81c0,-0.2 -0.05,-0.4 -0.15,-0.58 -0.1,-0.18 -0.24,-0.31 -0.42,-0.41 -0.21,-0.12 -0.44,-0.16 -0.68,-0.16l-1.76 0zm1.16 0.68c0.06,-0 0.11,-0 0.17,-0 0.18,0 0.44,0.01 0.6,0.08 0.22,0.1 0.26,0.36 0.27,0.57l0 0.18 0 0.12 -0.05 0.04c-0.34,0.29 -0.7,0.56 -1.07,0.82l-0.21 0.14 0 -1.94 0.29 0zm0.74 2.29c0.09,0.07 0.17,0.14 0.26,0.21l0.05 0.04 0 0.37c0,0.19 -0,0.37 -0.02,0.56 -0.01,0.13 -0.04,0.27 -0.14,0.37 -0.09,0.09 -0.21,0.13 -0.33,0.14 -0.14,0.01 -0.28,0.02 -0.43,0.02l-0.42 0 0 -1.1 0.06 -0.04c0.27,-0.18 0.54,-0.37 0.8,-0.57l0.08 -0.06 0.08 0.06zm1.61 0.01l0.35 0.81 0 1.56 0.88 0 0 -1.77 0.14 0 1.1 0.07 0 1.7 0.88 0 0 -5.34 -1.76 0c-0.23,0 -0.47,0.04 -0.68,0.16 -0.18,0.1 -0.32,0.23 -0.42,0.41 -0.1,0.18 -0.15,0.37 -0.15,0.58l0 1.83 -0.35 0zm2.34 -2.3l0.14 0 0 2.3 -1.24 0 0 -1.58c0,-0.21 0.03,-0.52 0.24,-0.64 0.15,-0.08 0.4,-0.09 0.57,-0.09 0.1,0 0.2,0 0.3,0.01zm4.31 -0.68l-2.77 0 0 0.68 0.97 -0.11 0 4.77 0.88 0 0 -4.75 0.92 0.09 0 -0.68z"/>
   <g style="clip-path:url(#id0)">
    <g>
     <path id="_1_0" class="fil32" d="M2.55 43l41.41 0.01 0.29 3.81c0,0 -1.88,2.17 -3.99,2.26 -2.1,0.1 -37.55,-0.64 -37.55,-0.64l-0.16 -5.45z"/>
    </g>
   </g>
   <path class="fil33" d="M7 41.03l0 -0.69 -2.36 0 0 4.2c0,0.2 0.05,0.4 0.15,0.58 0.1,0.18 0.24,0.31 0.42,0.41 0.21,0.12 0.44,0.16 0.68,0.16l1.12 0 0 -0.68 -0.44 0c-0.07,0 -0.14,0 -0.21,0 -0.18,0 -0.46,-0.01 -0.61,-0.1 -0.2,-0.12 -0.23,-0.44 -0.23,-0.65l0 -3.33 0.15 0 1.34 0.1zm3.44 0.05c-0.06,-0.25 -0.2,-0.44 -0.4,-0.6 -0.23,-0.18 -0.52,-0.23 -0.81,-0.23l-0.39 0c-0.23,0 -0.47,0.04 -0.68,0.16 -0.18,0.1 -0.32,0.23 -0.42,0.41 -0.1,0.18 -0.15,0.37 -0.15,0.57l0 3.25c0,0.2 0.05,0.4 0.15,0.57 0.1,0.18 0.24,0.31 0.42,0.41 0.21,0.11 0.44,0.16 0.68,0.16l0.39 0c0.24,0 0.47,-0.04 0.68,-0.16 0.18,-0.1 0.32,-0.23 0.42,-0.41 0.1,-0.18 0.15,-0.37 0.15,-0.57l0 -3.27c0,-0.05 -0.01,-0.1 -0.01,-0.14 -0.01,-0.04 -0.01,-0.09 -0.03,-0.13l-0 -0 -0 -0zm-0.84 0.93l0 2.01c0,0.19 -0,0.39 -0.02,0.58 -0.01,0.13 -0.05,0.28 -0.15,0.37 -0.1,0.1 -0.26,0.12 -0.39,0.12 -0.14,0 -0.29,-0.02 -0.39,-0.12 -0.1,-0.09 -0.14,-0.24 -0.15,-0.37 -0.02,-0.19 -0.02,-0.39 -0.02,-0.59l0 -2.01c0,-0.19 0,-0.39 0.02,-0.58 0.01,-0.13 0.05,-0.28 0.15,-0.37 0.1,-0.09 0.25,-0.11 0.39,-0.11 0.13,0 0.28,0.02 0.39,0.12 0.1,0.09 0.14,0.24 0.15,0.37 0.02,0.19 0.02,0.39 0.02,0.58zm1.7 -1.66l0 5.34 1.69 0c0.23,0 0.47,-0.04 0.68,-0.16 0.18,-0.1 0.32,-0.23 0.42,-0.41 0.1,-0.18 0.15,-0.37 0.15,-0.57l0 -3.06c0,-0.2 -0.05,-0.4 -0.15,-0.58 -0.1,-0.18 -0.24,-0.31 -0.42,-0.41 -0.21,-0.12 -0.44,-0.16 -0.68,-0.16l-1.69 0zm0.88 4.66l0 -3.98 0.13 -0c0.07,-0 0.14,-0 0.21,-0 0.18,0 0.46,0.01 0.61,0.1 0.2,0.12 0.23,0.42 0.23,0.63l0 2.54c0,0.21 -0.03,0.51 -0.23,0.63 -0.16,0.09 -0.43,0.1 -0.61,0.1 -0.07,0 -0.14,-0 -0.21,-0l-0.13 -0zm5.46 -3.97l0 -0.69 -2.63 0 0 2.97 -0.36 0 0.36 0.81 0 1.56 1.01 -0 1.62 0 0 -0.69 -1.76 0.11 0 -1.19 1.76 0.11 0 -0.69 -1.76 0 0 -2.39 1.76 0.11zm4.9 -0l0 -0.69 -2.36 0 0 4.2c0,0.2 0.05,0.4 0.15,0.58 0.1,0.18 0.24,0.31 0.42,0.41 0.21,0.12 0.44,0.16 0.68,0.16l1.12 0 0 -0.68 -0.44 0c-0.07,0 -0.14,0 -0.21,0 -0.18,0 -0.46,-0.01 -0.61,-0.1 -0.2,-0.12 -0.23,-0.44 -0.23,-0.65l0 -3.33 0.15 0 1.34 0.1zm3.44 0.05c-0.06,-0.25 -0.2,-0.44 -0.4,-0.6 -0.23,-0.18 -0.52,-0.23 -0.81,-0.23l-0.39 0c-0.23,0 -0.47,0.04 -0.68,0.16 -0.18,0.1 -0.32,0.23 -0.42,0.41 -0.1,0.18 -0.15,0.37 -0.15,0.57l0 3.25c0,0.2 0.05,0.4 0.15,0.57 0.1,0.18 0.24,0.31 0.42,0.41 0.21,0.11 0.44,0.16 0.68,0.16l0.39 0c0.24,0 0.47,-0.04 0.68,-0.16 0.18,-0.1 0.32,-0.23 0.42,-0.41 0.1,-0.18 0.15,-0.37 0.15,-0.57l0 -3.27c0,-0.05 -0.01,-0.1 -0.01,-0.14 -0.01,-0.04 -0.01,-0.09 -0.03,-0.13l-0 -0 -0 -0zm-0.84 0.93l0 2.01c0,0.19 -0,0.39 -0.02,0.58 -0.01,0.13 -0.05,0.28 -0.15,0.37 -0.1,0.1 -0.26,0.12 -0.39,0.12 -0.14,0 -0.29,-0.02 -0.39,-0.12 -0.1,-0.09 -0.14,-0.24 -0.15,-0.37 -0.02,-0.19 -0.02,-0.39 -0.02,-0.59l0 -2.01c0,-0.19 0,-0.39 0.02,-0.58 0.01,-0.13 0.05,-0.28 0.15,-0.37 0.1,-0.09 0.25,-0.11 0.39,-0.11 0.13,0 0.28,0.02 0.39,0.12 0.1,0.09 0.14,0.24 0.15,0.37 0.02,0.19 0.02,0.39 0.02,0.58zm5.16 -1.66l-1.13 1.11 -1.12 -1.11 -1.21 0 0 5.34 0.87 0 0 -4.65 1.02 1.12 0 3.53 0.88 0 0 -3.53 1.02 -1.12 0 4.65 0.88 0 0 -5.34 -1.21 0zm2.08 0l0 5.34 1.76 0c0.23,0 0.47,-0.04 0.68,-0.16 0.18,-0.1 0.32,-0.23 0.42,-0.41 0.1,-0.18 0.15,-0.37 0.15,-0.57l0 -1.31c-0.14,-0.13 -0.28,-0.25 -0.42,-0.37l-0.13 -0.11 0.13 -0.11c0.14,-0.12 0.29,-0.24 0.42,-0.37l0 -0.81c0,-0.2 -0.05,-0.4 -0.15,-0.58 -0.1,-0.18 -0.24,-0.31 -0.42,-0.41 -0.21,-0.12 -0.44,-0.16 -0.68,-0.16l-1.76 0zm1.16 0.68c0.06,-0 0.11,-0 0.17,-0 0.18,0 0.44,0.01 0.6,0.08 0.22,0.1 0.26,0.36 0.27,0.57l0 0.18 0 0.12 -0.05 0.04c-0.34,0.29 -0.7,0.56 -1.07,0.82l-0.21 0.14 0 -1.94 0.29 0zm0.74 2.29c0.09,0.07 0.17,0.14 0.26,0.21l0.05 0.04 0 0.37c0,0.19 -0,0.37 -0.02,0.56 -0.01,0.13 -0.04,0.27 -0.14,0.37 -0.09,0.09 -0.21,0.13 -0.33,0.14 -0.14,0.01 -0.28,0.02 -0.43,0.02l-0.42 0 0 -1.1 0.06 -0.04c0.27,-0.18 0.54,-0.37 0.8,-0.57l0.08 -0.06 0.08 0.06zm1.61 0.01l0.35 0.81 0 1.56 0.88 0 0 -1.77 0.14 0 1.1 0.07 0 1.7 0.88 0 0 -5.34 -1.76 0c-0.23,0 -0.47,0.04 -0.68,0.16 -0.18,0.1 -0.32,0.23 -0.42,0.41 -0.1,0.18 -0.15,0.37 -0.15,0.58l0 1.83 -0.35 0zm2.34 -2.3l0.14 0 0 2.3 -1.24 0 0 -1.58c0,-0.21 0.03,-0.52 0.24,-0.64 0.15,-0.08 0.4,-0.09 0.57,-0.09 0.1,0 0.2,0 0.3,0.01zm4.31 -0.68l-2.77 0 0 0.68 0.97 -0.11 0 4.77 0.88 0 0 -4.75 0.92 0.09 0 -0.68z"/>
   <path class="fil34" d="M6.82 40.83l0 -0.3 -1.99 0 0 1.41 0.5 0 0 -1.18 0.34 0 1.15 0.08zm3.44 0.3c-0.05,-0.21 -0.16,-0.37 -0.33,-0.49 -0.2,-0.15 -0.45,-0.2 -0.7,-0.2l-0.39 0c-0.2,0 -0.41,0.03 -0.59,0.13 -0.15,0.08 -0.26,0.19 -0.35,0.34 -0.08,0.15 -0.12,0.31 -0.12,0.48l0 0.55 0.5 0c0,-0.18 0,-0.35 0.02,-0.53 0.02,-0.18 0.07,-0.37 0.22,-0.49 0.14,-0.13 0.33,-0.16 0.51,-0.16 0.18,0 0.37,0.04 0.51,0.16 0.14,0.13 0.2,0.31 0.21,0.49 0.02,0.18 0.02,0.35 0.02,0.53l0.51 0 0 -0.57c0,-0.04 -0.01,-0.08 -0.01,-0.12 -0,-0.03 -0.01,-0.07 -0.02,-0.11l-0 -0.01 -0 -0.01zm1.23 -0.6l0 1.41 0.51 0 0 -1.09 0.31 -0.01c0.07,-0 0.14,-0 0.21,-0 0.22,0 0.51,0.01 0.71,0.13 0.27,0.16 0.32,0.5 0.32,0.79l0 0.19 0.51 0 0 -0.45c0,-0.17 -0.04,-0.33 -0.12,-0.48 -0.08,-0.15 -0.2,-0.26 -0.35,-0.34 -0.18,-0.1 -0.39,-0.13 -0.59,-0.13l-1.5 0zm5.97 0.31l0 -0.31 -2.26 0 0 1.41 0.5 0 0 -1.2 1.76 0.11zm4.9 -0l0 -0.3 -1.99 0 0 1.41 0.5 0 0 -1.18 0.34 0 1.15 0.08zm3.44 0.3c-0.05,-0.21 -0.16,-0.37 -0.33,-0.49 -0.2,-0.15 -0.45,-0.2 -0.7,-0.2l-0.39 0c-0.2,0 -0.41,0.03 -0.59,0.13 -0.15,0.08 -0.26,0.19 -0.35,0.34 -0.08,0.15 -0.12,0.31 -0.12,0.48l0 0.55 0.5 0c0,-0.18 0,-0.35 0.02,-0.53 0.02,-0.18 0.07,-0.37 0.22,-0.49 0.14,-0.13 0.33,-0.16 0.51,-0.16 0.18,0 0.37,0.04 0.51,0.16 0.14,0.13 0.2,0.31 0.21,0.49 0.02,0.18 0.02,0.35 0.02,0.53l0.51 0 0 -0.57c0,-0.04 -0.01,-0.08 -0.01,-0.12 -0,-0.03 -0.01,-0.07 -0.02,-0.11l-0 -0.01 -0 -0.01zm4.58 -0.6l-1.2 1.18 -1.2 -1.18 -0.94 0 0 1.41 0.5 0 0 -1.38 1.26 1.38 0.77 0 1.26 -1.38 0 1.38 0.51 0 0 -1.41 -0.95 0zm2.19 0l0 1.41 0.5 0 0 -1.1 0.47 0c0.06,-0 0.12,-0 0.18,-0 0.21,0 0.49,0.01 0.68,0.09 0.29,0.13 0.37,0.44 0.38,0.73l0 0.19 0 0.09 0.42 0 0 -0.45c0,-0.17 -0.04,-0.33 -0.12,-0.48 -0.08,-0.15 -0.2,-0.26 -0.35,-0.34 -0.18,-0.1 -0.38,-0.13 -0.59,-0.13l-1.57 0zm6.5 1.41l0 -1.41 -1.57 0c-0.2,0 -0.41,0.03 -0.59,0.13 -0.15,0.08 -0.27,0.19 -0.35,0.34 -0.09,0.15 -0.12,0.31 -0.12,0.48l0 0.45 0.51 0 0 -0.2c0,-0.29 0.05,-0.65 0.34,-0.8 0.18,-0.1 0.45,-0.11 0.65,-0.11 0.1,0 0.2,0 0.31,0.01l0.32 0 0 1.1 0.51 0zm3.3 -1.41l-2.4 0 0 0.29 0.97 -0.11 0 1.23 0.51 0 0 -1.21 0.92 0.09 0 -0.29z"/>
   <g style="clip-path:url(#id1)">
    <g>
     <polygon id="_1_1" class="fil35" points="0.72,39.43 45.69,39.15 44.36,41.72 -0.67,42 "/>
    </g>
   </g>
   <path class="fil33" d="M6.82 40.83l0 -0.3 -1.99 0 0 1.41 0.5 0 0 -1.18 0.34 0 1.15 0.08zm3.44 0.3c-0.05,-0.21 -0.16,-0.37 -0.33,-0.49 -0.2,-0.15 -0.45,-0.2 -0.7,-0.2l-0.39 0c-0.2,0 -0.41,0.03 -0.59,0.13 -0.15,0.08 -0.26,0.19 -0.35,0.34 -0.08,0.15 -0.12,0.31 -0.12,0.48l0 0.55 0.5 0c0,-0.18 0,-0.35 0.02,-0.53 0.02,-0.18 0.07,-0.37 0.22,-0.49 0.14,-0.13 0.33,-0.16 0.51,-0.16 0.18,0 0.37,0.04 0.51,0.16 0.14,0.13 0.2,0.31 0.21,0.49 0.02,0.18 0.02,0.35 0.02,0.53l0.51 0 0 -0.57c0,-0.04 -0.01,-0.08 -0.01,-0.12 -0,-0.03 -0.01,-0.07 -0.02,-0.11l-0 -0.01 -0 -0.01zm1.23 -0.6l0 1.41 0.51 0 0 -1.09 0.31 -0.01c0.07,-0 0.14,-0 0.21,-0 0.22,0 0.51,0.01 0.71,0.13 0.27,0.16 0.32,0.5 0.32,0.79l0 0.19 0.51 0 0 -0.45c0,-0.17 -0.04,-0.33 -0.12,-0.48 -0.08,-0.15 -0.2,-0.26 -0.35,-0.34 -0.18,-0.1 -0.39,-0.13 -0.59,-0.13l-1.5 0zm5.97 0.31l0 -0.31 -2.26 0 0 1.41 0.5 0 0 -1.2 1.76 0.11zm4.9 -0l0 -0.3 -1.99 0 0 1.41 0.5 0 0 -1.18 0.34 0 1.15 0.08zm3.44 0.3c-0.05,-0.21 -0.16,-0.37 -0.33,-0.49 -0.2,-0.15 -0.45,-0.2 -0.7,-0.2l-0.39 0c-0.2,0 -0.41,0.03 -0.59,0.13 -0.15,0.08 -0.26,0.19 -0.35,0.34 -0.08,0.15 -0.12,0.31 -0.12,0.48l0 0.55 0.5 0c0,-0.18 0,-0.35 0.02,-0.53 0.02,-0.18 0.07,-0.37 0.22,-0.49 0.14,-0.13 0.33,-0.16 0.51,-0.16 0.18,0 0.37,0.04 0.51,0.16 0.14,0.13 0.2,0.31 0.21,0.49 0.02,0.18 0.02,0.35 0.02,0.53l0.51 0 0 -0.57c0,-0.04 -0.01,-0.08 -0.01,-0.12 -0,-0.03 -0.01,-0.07 -0.02,-0.11l-0 -0.01 -0 -0.01zm4.58 -0.6l-1.2 1.18 -1.2 -1.18 -0.94 0 0 1.41 0.5 0 0 -1.38 1.26 1.38 0.77 0 1.26 -1.38 0 1.38 0.51 0 0 -1.41 -0.95 0zm2.19 0l0 1.41 0.5 0 0 -1.1 0.47 0c0.06,-0 0.12,-0 0.18,-0 0.21,0 0.49,0.01 0.68,0.09 0.29,0.13 0.37,0.44 0.38,0.73l0 0.19 0 0.09 0.42 0 0 -0.45c0,-0.17 -0.04,-0.33 -0.12,-0.48 -0.08,-0.15 -0.2,-0.26 -0.35,-0.34 -0.18,-0.1 -0.38,-0.13 -0.59,-0.13l-1.57 0zm6.5 1.41l0 -1.41 -1.57 0c-0.2,0 -0.41,0.03 -0.59,0.13 -0.15,0.08 -0.27,0.19 -0.35,0.34 -0.09,0.15 -0.12,0.31 -0.12,0.48l0 0.45 0.51 0 0 -0.2c0,-0.29 0.05,-0.65 0.34,-0.8 0.18,-0.1 0.45,-0.11 0.65,-0.11 0.1,0 0.2,0 0.31,0.01l0.32 0 0 1.1 0.51 0zm3.3 -1.41l-2.4 0 0 0.29 0.97 -0.11 0 1.23 0.51 0 0 -1.21 0.92 0.09 0 -0.29z"/>
  </g>
 </g>
</svg>
