<?xml version="1.0" encoding="UTF-8"?>
<!DOCTYPE svg PUBLIC "-//W3C//DTD SVG 1.1//EN" "http://www.w3.org/Graphics/SVG/1.1/DTD/svg11.dtd">
<!-- Creator: CorelDRAW 2021 (64-Bit) -->
<svg xmlns="http://www.w3.org/2000/svg" xml:space="preserve" width="19.9575in" height="20.1607in" version="1.1" style="shape-rendering:geometricPrecision; text-rendering:geometricPrecision; image-rendering:optimizeQuality; fill-rule:evenodd; clip-rule:evenodd"
viewBox="0 0 2716.86 2744.51"
 xmlns:xlink="http://www.w3.org/1999/xlink"
 xmlns:xodm="http://www.corel.com/coreldraw/odm/2003">
 <defs>
  <style type="text/css">
   <![CDATA[
    .fil32 {fill:none}
    .fil28 {fill:#1B4887}
    .fil0 {fill:#212121}
    .fil31 {fill:#355C8C}
    .fil30 {fill:#6BB0FF}
    .fil33 {fill:#6BB0FF}
    .fil34 {fill:#D4E8FF}
    .fil3 {fill:#03244D;fill-rule:nonzero}
    .fil11 {fill:#112A46;fill-rule:nonzero}
    .fil1 {fill:#1B4887;fill-rule:nonzero}
    .fil29 {fill:#3D9EFF;fill-rule:nonzero}
    .fil12 {fill:#4678F9;fill-rule:nonzero}
    .fil13 {fill:#4678F9;fill-rule:nonzero}
    .fil2 {fill:#6699FF;fill-rule:nonzero}
    .fil8 {fill:#C3D3DD;fill-rule:nonzero}
    .fil10 {fill:#D3835D;fill-rule:nonzero}
    .fil6 {fill:#FFBC93;fill-rule:nonzero}
    .fil14 {fill:#C6BAA3;fill-rule:nonzero}
    .fil7 {fill:url(#id2);fill-rule:nonzero}
    .fil9 {fill:url(#id3);fill-rule:nonzero}
    .fil5 {fill:url(#id4);fill-rule:nonzero}
    .fil4 {fill:url(#id5);fill-rule:nonzero}
    .fil27 {fill:url(#id6);fill-rule:nonzero}
    .fil25 {fill:url(#id7);fill-rule:nonzero}
    .fil15 {fill:url(#id8);fill-rule:nonzero}
    .fil23 {fill:url(#id9);fill-rule:nonzero}
    .fil16 {fill:url(#id10);fill-rule:nonzero}
    .fil18 {fill:url(#id11);fill-rule:nonzero}
    .fil17 {fill:url(#id12);fill-rule:nonzero}
    .fil24 {fill:url(#id13);fill-rule:nonzero}
    .fil20 {fill:url(#id14);fill-rule:nonzero}
    .fil22 {fill:url(#id15);fill-rule:nonzero}
    .fil19 {fill:url(#id16);fill-rule:nonzero}
    .fil21 {fill:url(#id17);fill-rule:nonzero}
    .fil26 {fill:url(#id18);fill-rule:nonzero}
   ]]>
  </style>
   <clipPath id="id0">
    <path d="M408.32 2392.68l0 -40.14 -137.65 0 0 244.93c0,11.91 2.67,23.15 8.5,33.54 5.81,10.36 14.14,18.16 24.47,23.93 12.04,6.72 25.9,9.05 39.56,9.05l65.12 0 0 -39.4 -25.44 0c-4.02,0.14 -8.05,0.23 -12.07,0.23 -10.35,0 -26.73,-0.5 -35.83,-5.97 -11.86,-7.14 -13.21,-25.51 -13.21,-37.84l0 -193.91 8.46 0 78.09 5.57zm200.56 3c-3.64,-14.36 -11.5,-25.9 -23.3,-34.84 -13.56,-10.28 -30.43,-13.59 -47.13,-13.59l-22.61 0c-13.64,0 -27.46,2.36 -39.49,9.06 -10.35,5.76 -18.64,13.54 -24.47,23.87 -5.82,10.31 -8.49,21.54 -8.49,33.37l0 189.4c0,11.86 2.65,23.11 8.49,33.45 5.82,10.31 14.11,18.05 24.45,23.78 12.06,6.68 25.84,9.07 39.51,9.07l22.61 0c13.72,0 27.61,-2.31 39.72,-9.05 10.3,-5.74 18.63,-13.56 24.49,-23.83 5.89,-10.31 8.54,-21.55 8.54,-33.41l0 -190.72c0,-2.73 -0.4,-5.7 -0.78,-8.4 -0.35,-2.51 -0.75,-5.4 -1.47,-7.82l-0.05 -0.15 -0.04 -0.15zm-49 53.95l0 117.19c0,11.25 -0.06,22.86 -1.04,34.07 -0.69,7.77 -2.74,16.19 -8.69,21.68 -6.05,5.56 -14.94,6.85 -22.84,6.85 -7.93,0 -16.78,-1.27 -22.84,-6.85 -5.94,-5.46 -8.08,-13.85 -8.84,-21.6 -1.1,-11.19 -1.13,-22.9 -1.13,-34.15l0 -117.19c0,-11.21 0.03,-22.92 1.13,-34.07 0.77,-7.81 2.92,-16.35 9.02,-21.77 6.08,-5.41 14.82,-6.68 22.66,-6.68 7.81,0 16.58,1.29 22.57,6.74 6,5.45 8.15,13.97 8.88,21.74 1.05,11.18 1.13,22.81 1.13,34.03zm99.42 -97.09l0 311.45 98.49 0c13.7,0 27.48,-2.33 39.57,-9.06 10.38,-5.78 18.69,-13.62 24.56,-23.96 5.88,-10.37 8.56,-21.6 8.56,-33.51l0 -178.4c0,-11.93 -2.65,-23.18 -8.56,-33.59 -5.85,-10.31 -14.21,-18.12 -24.56,-23.88 -12.09,-6.73 -25.86,-9.06 -39.57,-9.06l-98.49 0zm51.25 271.77l0 -232.08 7.65 -0.28c3.99,-0.14 7.99,-0.24 11.98,-0.24 10.38,0 26.62,0.46 35.77,5.86 11.79,6.97 13.26,24.56 13.26,36.78l0 147.84c0,12.22 -1.46,29.74 -13.26,36.7 -9.18,5.42 -25.36,5.94 -35.77,5.94 -3.99,0 -7.99,-0.09 -11.98,-0.24l-7.65 -0.28zm318.68 -231.53l0 -40.23 -153.63 0 0 173.34 -20.72 0 20.72 47.07 0 91.01 58.95 -0.21 94.69 0 0 -40.23 -102.61 6.16 0 -69.65 102.61 6.16 0 -40.31 -102.61 0 0 -139.26 102.61 6.16zm285.77 -0.1l0 -40.14 -137.65 0 0 244.93c0,11.91 2.67,23.15 8.5,33.54 5.81,10.36 14.14,18.16 24.47,23.93 12.04,6.72 25.9,9.05 39.56,9.05l65.12 0 0 -39.4 -25.44 0c-4.02,0.14 -8.05,0.23 -12.07,0.23 -10.35,0 -26.73,-0.5 -35.83,-5.97 -11.86,-7.14 -13.21,-25.51 -13.21,-37.84l0 -193.91 8.46 0 78.09 5.57zm200.56 3c-3.64,-14.36 -11.5,-25.9 -23.3,-34.84 -13.56,-10.28 -30.43,-13.59 -47.13,-13.59l-22.61 0c-13.64,0 -27.46,2.36 -39.49,9.06 -10.35,5.76 -18.64,13.54 -24.47,23.87 -5.82,10.31 -8.49,21.54 -8.49,33.37l0 189.4c0,11.86 2.65,23.11 8.49,33.45 5.82,10.31 14.11,18.05 24.45,23.78 12.06,6.68 25.84,9.07 39.51,9.07l22.61 0c13.72,0 27.61,-2.31 39.72,-9.05 10.3,-5.74 18.63,-13.56 24.49,-23.83 5.89,-10.31 8.54,-21.55 8.54,-33.41l0 -190.72c0,-2.73 -0.4,-5.7 -0.78,-8.4 -0.35,-2.51 -0.75,-5.4 -1.47,-7.82l-0.04 -0.15 -0.04 -0.15zm-49 53.95l0 117.19c0,11.25 -0.06,22.86 -1.04,34.07 -0.69,7.77 -2.74,16.19 -8.69,21.68 -6.05,5.56 -14.94,6.85 -22.84,6.85 -7.93,0 -16.78,-1.27 -22.84,-6.85 -5.94,-5.46 -8.08,-13.85 -8.84,-21.6 -1.1,-11.19 -1.13,-22.9 -1.13,-34.15l0 -117.19c0,-11.21 0.03,-22.92 1.13,-34.07 0.77,-7.81 2.92,-16.35 9.02,-21.77 6.08,-5.41 14.82,-6.68 22.66,-6.68 7.81,0 16.58,1.29 22.57,6.74 6,5.45 8.15,13.97 8.88,21.74 1.05,11.18 1.13,22.81 1.13,34.03zm301.2 -97.09l-65.64 64.65 -65.55 -64.65 -70.36 0 0 311.45 51.02 0 0 -271.14 59.32 65.17 0 205.97 51.25 0 0 -205.97 59.31 -65.17 0 271.14 51.25 0 0 -311.45 -70.6 0zm121.26 0l0 311.45 102.39 0c13.67,0 27.43,-2.34 39.49,-9.06 10.39,-5.78 18.74,-13.58 24.64,-23.96 5.88,-10.37 8.56,-21.6 8.56,-33.51l0 -76.32c-8,-7.42 -16.29,-14.56 -24.71,-21.49l-7.49 -6.16 7.51 -6.13c8.41,-6.86 16.74,-13.89 24.68,-21.29l0 -47.02c0,-11.93 -2.65,-23.18 -8.56,-33.59 -5.87,-10.34 -14.27,-18.11 -24.64,-23.88 -12.06,-6.71 -25.82,-9.06 -39.49,-9.06l-102.39 0zm67.67 39.4c3.33,-0.15 6.67,-0.23 10,-0.23 10.31,0 25.75,0.34 35.28,4.59 12.61,5.61 15.36,20.78 15.63,33.13l0.24 10.77 0 6.77 -2.86 2.38c-20.08,16.75 -40.88,32.95 -62.55,47.58l-12.39 8.36 0 -113.33 16.66 0zm43.33 133.51c5.04,4.01 10.03,8.07 14.97,12.21l2.84 2.38 0 21.56c0,10.8 -0.13,21.8 -0.96,32.58 -0.58,7.6 -2.5,15.81 -8.07,21.38 -5.21,5.21 -12.35,7.37 -19.51,8.06 -8.22,0.79 -16.6,0.97 -24.86,0.97l-24.39 0 0 -64 3.48 -2.36c15.81,-10.75 31.4,-21.86 46.93,-33.02l4.88 -3.51 4.7 3.75zm93.96 0.43l20.53 47.09 0 91.03 51.25 0 0 -103.47 8.43 0 64.14 4.16 0 99.31 51.25 0 0 -311.45 -102.39 0c-13.67,0 -27.58,2.3 -39.63,9.05 -10.32,5.78 -18.64,13.56 -24.5,23.89 -5.91,10.41 -8.56,21.65 -8.56,33.59l0 106.81 -20.53 0zm136.37 -133.94l7.98 0 0 133.94 -72.57 0 0 -92.23c0,-12.49 1.57,-30.38 13.99,-37.09 8.66,-4.68 23.35,-5.09 33.01,-5.09 5.86,0 11.73,0.18 17.58,0.47zm251.6 -39.4l-161.58 0 0 39.75 56.84 -6.63 0 278.33 51.25 0 0 -277.03 53.49 5.46 0 -39.87z"/>
   </clipPath>
   <clipPath id="id1">
    <path d="M397.46 2381.02l0 -17.61 -115.92 0 0 81.94 29.37 0 0 -69.1 19.71 0 66.84 4.77zm200.89 17.33c-3.03,-11.98 -9.5,-21.4 -19.33,-28.85 -11.58,-8.78 -26.35,-11.39 -40.57,-11.39l-22.61 0c-11.73,0 -23.84,1.92 -34.21,7.69 -8.58,4.78 -15.45,11.13 -20.29,19.71 -4.9,8.67 -7.08,18.1 -7.08,28.03l0 31.82 29.37 0c0.02,-10.29 0.17,-20.61 1.18,-30.86 1.06,-10.72 4.31,-21.44 12.62,-28.82 8.23,-7.31 19.19,-9.43 29.88,-9.43 10.69,0 21.72,2.15 29.88,9.57 8.15,7.41 11.39,18.12 12.39,28.77 0.96,10.22 1.14,20.5 1.17,30.76l29.61 0 0 -33.14c0,-2.25 -0.36,-4.66 -0.67,-6.88 -0.28,-1.99 -0.55,-4.32 -1.12,-6.25l-0.11 -0.37 -0.09 -0.37zm71.81 -34.94l0 81.94 29.53 0 0 -63.6 18.12 -0.66c4.12,-0.15 8.25,-0.25 12.38,-0.25 12.92,0 30.01,0.7 41.3,7.37 15.78,9.32 18.6,29.44 18.6,46.13l0 11 29.53 0 0 -26.28c0,-10.04 -2.17,-19.46 -7.14,-28.22 -4.87,-8.58 -11.81,-14.98 -20.39,-19.75 -10.42,-5.8 -22.49,-7.69 -34.29,-7.69l-87.63 0zm348.2 17.84l0 -17.84 -131.91 0 0 81.94 29.29 0 0 -70.27 102.61 6.16zm285.77 -0.23l0 -17.61 -115.92 0 0 81.94 29.37 0 0 -69.1 19.71 0 66.84 4.77zm200.89 17.33c-3.03,-11.98 -9.5,-21.4 -19.33,-28.85 -11.58,-8.78 -26.35,-11.39 -40.57,-11.39l-22.61 0c-11.73,0 -23.84,1.92 -34.21,7.69 -8.58,4.78 -15.45,11.13 -20.29,19.71 -4.9,8.67 -7.08,18.1 -7.08,28.03l0 31.82 29.37 0c0.02,-10.29 0.17,-20.61 1.18,-30.86 1.06,-10.72 4.31,-21.44 12.61,-28.82 8.23,-7.31 19.19,-9.43 29.88,-9.43 10.69,0 21.72,2.15 29.88,9.57 8.15,7.41 11.39,18.12 12.39,28.77 0.96,10.22 1.14,20.5 1.17,30.76l29.61 0 0 -33.14c0,-2.25 -0.36,-4.66 -0.67,-6.88 -0.28,-1.99 -0.55,-4.32 -1.12,-6.25l-0.11 -0.37 -0.09 -0.37zm267.18 -34.94l-70.09 69.04 -70.01 -69.04 -55.04 0 0 81.94 29.29 0 0 -80.57 73.33 80.57 44.94 0 73.33 -80.57 0 80.57 29.53 0 0 -81.94 -55.28 0zm127.67 0l0 81.94 29.29 0 0 -64.27 27.28 0c3.41,-0.15 6.82,-0.23 10.24,-0.23 12.38,0 28.33,0.47 39.69,5.52 16.93,7.54 21.7,25.83 22.07,42.81l0.24 10.89 0 5.28 24.54 0 0 -26.28c0,-10.04 -2.17,-19.46 -7.14,-28.22 -4.88,-8.6 -11.87,-14.96 -20.47,-19.75 -10.39,-5.78 -22.44,-7.69 -34.21,-7.69l-91.53 0zm378.85 81.94l0 -81.94 -91.53 0c-11.74,0 -23.95,1.85 -34.32,7.66 -8.58,4.81 -15.49,11.18 -20.36,19.78 -4.97,8.76 -7.14,18.19 -7.14,28.22l0 26.28 29.53 0 0 -11.7c0,-17.11 3.04,-37.65 19.69,-46.64 10.68,-5.77 26.17,-6.39 38.18,-6.39 5.95,0 11.9,0.18 17.84,0.47l18.59 0 0 64.27 29.53 0zm192.36 -81.94l-139.86 0 0 16.68 56.84 -6.63 0 71.89 29.53 0 0 -70.42 53.49 5.46 0 -16.98z"/>
   </clipPath>
  <linearGradient id="id2" gradientUnits="userSpaceOnUse" x1="1612.65" y1="1320.89" x2="1612.65" y2="883.74">
   <stop offset="0" style="stop-opacity:1; stop-color:#2D5D8C"/>
   <stop offset="0.509804" style="stop-opacity:1; stop-color:#11467C"/>
   <stop offset="1" style="stop-opacity:1; stop-color:#03244D"/>
  </linearGradient>
  <linearGradient id="id3" gradientUnits="userSpaceOnUse" xlink:href="#id2" x1="1105.98" y1="1321.17" x2="1105.98" y2="890.53">
  </linearGradient>
  <linearGradient id="id4" gradientUnits="userSpaceOnUse" xlink:href="#id2" x1="762.57" y1="148.73" x2="762.57" y2="2612.78">
  </linearGradient>
  <linearGradient id="id5" gradientUnits="userSpaceOnUse" xlink:href="#id2" x1="1946.76" y1="147.2" x2="1946.76" y2="2611.23">
  </linearGradient>
  <linearGradient id="id6" gradientUnits="userSpaceOnUse" x1="1309.23" y1="1872.46" x2="1410.94" y2="2024.49">
   <stop offset="0" style="stop-opacity:1; stop-color:#3887FD"/>
   <stop offset="1" style="stop-opacity:1; stop-color:#8238E9"/>
  </linearGradient>
  <linearGradient id="id7" gradientUnits="userSpaceOnUse" x1="1166.56" y1="1555.81" x2="1774.22" y2="2648.76">
   <stop offset="0" style="stop-opacity:1; stop-color:#DBE8EF"/>
   <stop offset="1" style="stop-opacity:1; stop-color:#A5B6C6"/>
  </linearGradient>
  <radialGradient id="id8" gradientUnits="userSpaceOnUse" gradientTransform="matrix(0.950675 -0 -0 0.950668 85 37)" cx="1721.23" cy="757.17" r="32.27" fx="1721.23" fy="757.17">
   <stop offset="0" style="stop-opacity:1; stop-color:#2D5D8C"/>
   <stop offset="0.521569" style="stop-opacity:1; stop-color:#11467C"/>
   <stop offset="1" style="stop-opacity:1; stop-color:black"/>
  </radialGradient>
  <radialGradient id="id9" gradientUnits="userSpaceOnUse" gradientTransform="matrix(-0.890653 -1.09074E-16 1.09074E-16 -0.890654 874 2101)" xlink:href="#id8" cx="462.19" cy="1111.29" r="40.87" fx="462.19" fy="1111.29">
  </radialGradient>
  <radialGradient id="id10" gradientUnits="userSpaceOnUse" gradientTransform="matrix(0.90347 -0 -0 0.903455 155 19)" xlink:href="#id8" cx="1606.35" cy="193.99" r="19.18" fx="1606.35" fy="193.99">
  </radialGradient>
  <radialGradient id="id11" gradientUnits="userSpaceOnUse" gradientTransform="matrix(0.890653 -0 -0 0.890654 247 122)" xlink:href="#id8" cx="2254.66" cy="1111.29" r="40.87" fx="2254.66" fy="1111.29">
  </radialGradient>
  <radialGradient id="id12" gradientUnits="userSpaceOnUse" gradientTransform="matrix(0.892493 -0 -0 0.892496 182 128)" xlink:href="#id8" cx="1693.24" cy="1189.65" r="28.61" fx="1693.24" fy="1189.65">
  </radialGradient>
  <radialGradient id="id13" gradientUnits="userSpaceOnUse" gradientTransform="matrix(-0.751121 -9.19858E-17 9.19885E-17 -0.751143 1109 3180)" xlink:href="#id8" cx="633.19" cy="1815.79" r="20.04" fx="633.19" fy="1815.79">
  </radialGradient>
  <radialGradient id="id14" gradientUnits="userSpaceOnUse" gradientTransform="matrix(-0.950677 -1.16424E-16 1.16423E-16 -0.950668 1942 1477)" xlink:href="#id8" cx="995.63" cy="757.17" r="32.27" fx="995.63" fy="757.17">
  </radialGradient>
  <radialGradient id="id15" gradientUnits="userSpaceOnUse" gradientTransform="matrix(-0.892493 -1.09299E-16 1.09299E-16 -0.892496 1937 2251)" xlink:href="#id8" cx="1023.61" cy="1189.65" r="28.61" fx="1023.61" fy="1189.65">
  </radialGradient>
  <radialGradient id="id16" gradientUnits="userSpaceOnUse" gradientTransform="matrix(0.751121 -0 -0 0.751143 519 452)" xlink:href="#id8" cx="2083.67" cy="1815.79" r="20.04" fx="2083.67" fy="1815.79">
  </radialGradient>
  <radialGradient id="id17" gradientUnits="userSpaceOnUse" gradientTransform="matrix(-0.903458 -1.10642E-16 1.10641E-16 -0.903455 2114 369)" xlink:href="#id8" cx="1110.51" cy="193.99" r="19.18" fx="1110.51" fy="193.99">
  </radialGradient>
  <linearGradient id="id18" gradientUnits="userSpaceOnUse" x1="1358.43" y1="1501.83" x2="1358.43" y2="1545.61">
   <stop offset="0" style="stop-opacity:1; stop-color:#9EA1C4"/>
   <stop offset="1" style="stop-opacity:1; stop-color:#112A46"/>
  </linearGradient>
 </defs>
 <g id="Layer_x0020_1">
  <metadata id="CorelCorpID_0Corel-Layer"/>
  <path class="fil0" d="M167.61 2012.43c-109.92,-199.75 -167.61,-426 -167.61,-654 0,-749.07 609.35,-1358.43 1358.43,-1358.43 749.07,0 1358.43,609.35 1358.43,1358.43 0,133.45 -19.77,266.29 -58.2,393.58l0.01 -0c0,0 -1.55,5.38 -4.59,14.88 -26.7,84.92 -61.76,167.27 -104.83,245.54 -21.97,39.93 -67.16,113.96 -112.83,126.37 -19.37,14.94 -39.88,26.82 -61.52,34.46 -180.7,63.78 -336.95,15.94 -336.95,15.94l-14.02 91.01c15.17,2.88 29.83,7.94 43.59,15.6 7.76,4.32 15.03,9.25 21.75,14.79 6.64,-5.49 13.83,-10.4 21.51,-14.7 23.47,-13.15 49.68,-18.65 76.43,-18.65l370.05 0 0 198.54 -53.49 -5.46 0 268.96 -464.53 0 0 -6.67c-15.4,4.6 -31.49,6.67 -47.81,6.67l-500.5 0 0 -0.8c-14.79,4.16 -30.19,6.03 -45.79,6.03l-22.61 0c-14.46,0 -28.75,-1.64 -42.55,-5.22l-130.09 0c-26.69,0 -52.84,-5.52 -76.27,-18.61 -22.47,-12.55 -40.83,-30.35 -53.44,-52.85 -7.65,-13.64 -12.85,-28.19 -15.65,-43.29l0 114.51 -169.85 0 -134.37 0.47 0 -5.41c-13.77,3.56 -28.05,5.18 -42.51,5.18l-173.79 0 0 -0.74c-14.72,4.11 -30.04,5.96 -45.55,5.96l-22.61 0c-14.45,0 -28.75,-1.64 -42.55,-5.22l-130.09 0c-26.69,0 -52.84,-5.52 -76.27,-18.61 -22.48,-12.55 -40.83,-30.35 -53.44,-52.85 -12.13,-21.65 -18.11,-45.58 -18.11,-70.36l0 -320.22 188.73 0c0,0 21.26,-47.9 -53.15,-73.41 -74.41,-25.51 -163.35,-191.41 -163.35,-191.41z"/>
  <path class="fil1" d="M288.34 2024.27c-28.54,0 -54.81,-15.54 -68.58,-40.54 -104.83,-190.5 -160.24,-406.73 -160.24,-625.3 0,-716.22 582.68,-1298.9 1298.9,-1298.9 716.22,0 1298.9,582.68 1298.9,1298.9 0,218.58 -55.41,434.81 -160.24,625.3 -13.76,25.01 -40.04,40.54 -68.58,40.54l-2140.17 0z"/>
  <path class="fil2" d="M2428.52 1946c95.92,-174.31 150.54,-374.55 150.54,-587.57 0,-674.13 -546.49,-1220.63 -1220.63,-1220.63 -674.13,0 -1220.62,546.49 -1220.62,1220.63 0,213.02 54.62,413.26 150.53,587.57l2140.18 0z"/>
  <path class="fil3" d="M1976.41 1750.87c-0.7,38.43 -0.88,64 -0.88,64 -22.41,9.72 -41.67,20.4 -56.2,31.51 -59.62,45.44 -57.87,95.25 -57.78,97.62l0 0.09c-29.33,17.25 -73.8,44.39 -75.46,50.78 -12.43,1.57 -33.27,4.38 -57.08,7.79l0 -0.09c0,0 101.56,-97 121.95,-120.29 20.31,-23.28 34.93,-63.21 68.37,-92.71 21.71,-19.17 44.12,-32.04 57.08,-38.69z"/>
  <path class="fil3" d="M1976.41 1750.87c-1.38,-115.82 -7.47,-354.33 22.24,-360.38 19.61,-5.86 60.76,141.77 60.76,141.77l-12 257.3c-25.91,7.27 -50.34,15.85 -71.88,25.3 0,0 0.17,-25.56 0.88,-64z"/>
  <path class="fil4" d="M1861.55 1943.99c-0.09,-2.36 -1.84,-52.18 57.78,-97.62 14.53,-11.11 33.79,-21.8 56.2,-31.51 21.54,-9.46 45.96,-18.04 71.88,-25.3 29.5,-8.32 60.85,-14.88 92.01,-19.09 32.39,-4.38 64.52,-6.21 93.94,-4.64l-125.1 -88.33 -0.09 0 -48.76 -145.24c0,0 -41.15,-142 -60.76,-136.13 -14.71,4.38 -20.4,238.56 -22.24,354.74 -12.96,6.65 -35.37,19.52 -57.08,38.69 -33.44,29.5 -48.06,69.43 -68.37,92.71 -20.4,23.29 -121.95,120.29 -121.95,120.29l0 0.09c-56.99,7.88 -131.14,18.91 -148.48,24.86 -29.06,9.98 -173.34,142.44 -178.07,151.89l-49.99 -0.31 -1.66 -846.84c16.11,-5.77 240.66,-86.51 346.77,-187.89 74.59,-71.44 120.97,-132.38 146.01,-181.15 18.3,27.49 20.41,105.16 20.41,105.16 25.21,-47.37 28.19,-89.56 24.42,-124.58 -0.79,-7.44 -7.09,-18.39 -17.25,-31.61 -25.56,-33.44 -75.73,-80.98 -121.95,-119.23 -14.18,-11.73 -28.02,-22.59 -40.71,-31.87 -6.74,-4.99 -13.22,-9.54 -19.17,-13.57 -3.94,-2.63 -8.4,-5.52 -13.31,-8.49 -78.7,-48.94 -282.99,-141.25 -331.84,-141.25l11.5 -521.37c154.69,0.26 325.6,84.11 391.87,185.84 66.36,101.9 165.89,271.31 176.13,333.82 5.52,33.53 9.63,130.71 10.77,223.68 0.97,80.63 -0.44,158.1 -5.42,188.57 -10.68,65.66 -116.61,187.88 -225.17,234.54 0,0 118.45,-24.34 235.85,-134.91 98.58,-92.97 47.89,-236.55 29.07,-280.06 55.94,14.71 168.18,49.9 243.9,112.41 104.53,86.15 169.14,208.01 222.98,374.52 53.84,166.51 117.31,546.73 113.46,614.4 -3.85,67.67 -35.89,181.39 -221.49,222.36 -112.49,24.86 -216.59,23.72 -281.11,18.91 -18.03,-82.73 -92.8,-151.81 -92.8,-151.81 33.44,53.93 25.65,144.19 25.65,144.19l-106.72 21.01c7.62,-3.77 12,-19.52 5.87,-54.81 0,0 -4.2,-31.51 -18.38,-71.87 -14.18,-40.44 -62.07,-63.91 -62.07,-63.91 0,0 -4.38,0.52 -11.99,1.58 1.66,-6.39 46.14,-33.53 75.46,-50.78l0 -0.09z"/>
  <path class="fil5" d="M854.88 1945.54c0.09,-2.36 1.84,-52.18 -57.78,-97.62 -14.53,-11.11 -33.79,-21.8 -56.21,-31.51 -21.54,-9.46 -45.96,-18.04 -71.88,-25.3 -29.5,-8.32 -60.85,-14.88 -92.01,-19.09 -32.39,-4.38 -64.52,-6.21 -93.94,-4.64l125.1 -88.33 0.09 0 48.76 -145.24c0,0 41.15,-142 60.76,-136.13 14.71,4.38 20.4,238.56 22.24,354.74 12.96,6.65 35.37,19.52 57.08,38.69 33.44,29.5 48.06,69.43 68.37,92.71 20.4,23.29 121.95,120.29 121.95,120.29l0 0.09c56.99,7.88 131.14,18.91 148.48,24.86 29.07,9.98 173.34,142.44 178.07,151.89l44.04 0 0 -844.65c-16.11,-5.77 -229.61,-92.46 -335.72,-193.84 -74.59,-71.44 -131.34,-122.02 -156.37,-170.79 -18.3,27.49 -13.48,98.23 -13.48,98.23 -25.21,-47.37 -28.19,-89.56 -24.43,-124.58 0.79,-7.44 7.09,-18.39 17.25,-31.61 25.56,-33.44 75.73,-80.98 121.95,-119.23 14.18,-11.73 28.02,-22.59 40.71,-31.87 6.74,-4.99 13.22,-9.54 19.17,-13.57 3.94,-2.63 8.4,-5.52 13.31,-8.49 78.7,-48.94 268.76,-142.96 317.62,-142.96l0 -519.67c-154.69,0.26 -319.54,87.46 -385.81,189.19 -66.36,101.9 -169.23,267.97 -179.47,330.48 -5.51,33.53 -9.63,130.71 -10.77,223.68 -0.96,80.63 0.44,158.1 5.43,188.57 10.68,65.66 116.61,187.88 225.17,234.54 0,0 -118.45,-24.34 -235.85,-134.91 -98.58,-92.97 -47.89,-236.55 -29.06,-280.06 -55.94,14.71 -168.18,49.9 -243.9,112.41 -104.53,86.15 -169.14,208.01 -222.98,374.52 -53.84,166.51 -117.31,546.73 -113.46,614.4 3.86,67.67 35.89,181.39 221.49,222.36 112.5,24.86 216.59,23.72 281.11,18.91 18.03,-82.73 92.8,-151.81 92.8,-151.81 -33.44,53.93 -25.65,144.19 -25.65,144.19l106.72 21.01c-7.62,-3.77 -11.99,-19.52 -5.87,-54.81 0,0 4.2,-31.51 18.39,-71.87 14.18,-40.44 62.07,-63.91 62.07,-63.91 0,0 4.38,0.52 12,1.58 -1.66,-6.39 -46.14,-33.53 -75.46,-50.78l0 -0.09z"/>
  <path class="fil6" d="M1860.15 2057.19c14.18,40.36 18.38,71.87 18.38,71.87 -15.32,3.86 -26.35,11.73 -36.94,20.4 -14.01,11.47 -27.23,24.07 -48.33,29.94 -37.21,10.33 -93.32,1.23 -140.86,2.98 -47.54,1.84 -118.54,61.63 -136.57,61.63 -18.12,0 -118.1,-55.16 -113.37,-64.61 4.73,-9.45 149,-141.91 178.07,-151.89 17.33,-5.95 91.49,-16.99 148.48,-24.86 23.81,-3.41 44.65,-6.22 57.08,-7.79 7.62,-1.05 11.99,-1.58 11.99,-1.58 0,0 47.89,23.46 62.07,63.91z"/>
  <path class="fil3" d="M2108.26 1677.5l125.1 88.33c-29.42,-1.58 -61.54,0.26 -93.94,4.64l-31.25 -92.97 0.09 0z"/>
  <path class="fil3" d="M740.44 1750.87c-1.84,-116.17 -7.53,-350.36 -22.24,-354.74 -19.61,-5.86 -60.76,136.13 -60.76,136.13l11.99 257.3c25.91,7.27 50.34,15.85 71.88,25.3 0,0 -0.17,-25.56 -0.88,-64z"/>
  <path class="fil3" d="M1953.74 2018.67c0,0 74.76,69.07 92.8,151.81 -41.93,-2.98 -67.15,-7.62 -67.15,-7.62 0,0 7.79,-90.26 -25.65,-144.19z"/>
  <path class="fil3" d="M1872.67 2183.87c-10.85,5.25 -28.1,-13.4 -31.08,-34.41 10.59,-8.66 21.63,-16.54 36.94,-20.4 6.13,35.28 1.75,51.04 -5.87,54.81z"/>
  <path class="fil7" d="M1850.52 970.13c-25.04,48.77 -72.05,109.08 -146.64,180.52 -106.22,98.72 -329.36,182.58 -345.46,188.66l0 -0.44c8.93,-6.57 76.52,-58.57 128.43,-134.29 14.36,-20.84 27.58,-43.51 37.99,-67.5l122.51 -103.54c-0.26,51.65 -14.91,106.12 -14.91,106.12 59.13,-74.79 72.29,-149.86 72.29,-149.86 27.93,-16.9 70.49,-106.86 70.49,-106.86 48.76,8.14 91.59,47.64 91.59,47.64 0.74,9.67 -7.89,30.99 -16.3,39.55z"/>
  <path class="fil8" d="M1358.43 1228.83c73.19,-0.17 116.35,-18.3 128.43,-24.25 -51.92,75.73 -119.5,127.73 -128.43,134.29l0 -110.05z"/>
  <path class="fil3" d="M740.44 1750.87c0.7,38.43 0.88,64 0.88,64 22.41,9.72 41.67,20.4 56.21,31.51 59.62,45.44 57.87,95.25 57.78,97.62l0 0.09c29.33,17.25 73.8,44.39 75.46,50.78 12.43,1.57 33.27,4.38 57.08,7.79l0 -0.09c0,0 -101.56,-97 -121.95,-120.29 -20.31,-23.28 -34.93,-63.21 -68.37,-92.71 -21.71,-19.17 -44.12,-32.04 -57.08,-38.69z"/>
  <path class="fil6" d="M856.7 2057.19c-14.18,40.36 -18.39,71.87 -18.39,71.87 15.32,3.86 26.35,11.73 36.94,20.4 14.01,11.47 27.23,24.07 48.33,29.94 37.21,10.33 93.32,1.23 140.86,2.98 47.54,1.84 118.54,61.63 136.57,61.63 18.12,0 118.1,-55.16 113.37,-64.61 -4.73,-9.45 -149,-141.91 -178.07,-151.89 -17.33,-5.95 -91.48,-16.99 -148.48,-24.86 -23.81,-3.41 -44.65,-6.22 -57.08,-7.79 -7.62,-1.05 -12,-1.58 -12,-1.58 0,0 -47.89,23.46 -62.07,63.91z"/>
  <path class="fil3" d="M608.6 1677.5l-125.1 88.33c29.42,-1.58 61.54,0.26 93.94,4.64l31.25 -92.97 -0.09 0z"/>
  <path class="fil3" d="M763.12 2018.67c0,0 -74.77,69.07 -92.8,151.81 41.93,-2.98 67.15,-7.62 67.15,-7.62 0,0 -7.79,-90.26 25.65,-144.19z"/>
  <path class="fil3" d="M748.06 827.87c-18.82,43.51 -72.05,190.75 26.53,283.72 117.97,111.34 239.88,135.36 237.97,132.79 -108.56,-46.66 -214.07,-170.42 -224.75,-236.08 -4.99,-30.47 -6.39,-107.94 -5.43,-188.57 0,0 -13.13,2.62 -34.32,8.14z"/>
  <path class="fil3" d="M844.18 2183.87c10.86,5.25 28.1,-13.4 31.08,-34.41 -10.59,-8.66 -21.62,-16.54 -36.94,-20.4 -6.13,35.28 -1.75,51.04 5.87,54.81z"/>
  <path class="fil9" d="M866.33 970.13c25.04,48.77 72.05,109.08 146.64,180.52 106.11,101.38 329.35,182.89 345.46,188.66l0 -0.44c-8.93,-6.57 -76.51,-58.57 -128.43,-134.29 -14.36,-20.84 -29.83,-48.82 -40.25,-72.8l-112.85 -89.49c0.26,51.65 30.07,131.27 30.07,131.27 -102.6,-45.17 -93.46,-175.08 -93.46,-175.08 -27.93,-16.9 -71.88,-108.74 -71.88,-108.74 -48.76,8.14 -88.08,51.32 -88.08,51.32 3.13,9.01 7.93,19.76 12.79,29.06z"/>
  <path class="fil8" d="M1359.78 1228.83c-73.19,-0.17 -117.7,-18.29 -129.78,-24.24 51.92,75.73 119.5,127.73 128.43,134.29l1.35 -110.05z"/>
  <path class="fil3" d="M1524.85 1137.08c5.08,-11.64 9.45,-23.55 13.04,-35.81l0 -0.09c32.66,-26.18 57.61,-53.75 73.1,-71.44 25.21,-28.8 40.71,-85.01 50.25,-140.78 19.35,20.22 71.09,-10.5 81.07,-36.51 7.79,-20.66 7.53,-48.76 6.92,-59.53 46.22,38.25 97.25,86.92 122.82,120.36 -1.58,9.54 -4.57,19.5 -8.69,30.44 0,0 -39.37,-40.06 -88.13,-48.2 0,0 -38.78,91.22 -66.71,108.12 0,0 -2.45,131.14 -105.05,176.32 0,0 32.92,-76.52 33.18,-128.17l-111.8 85.27z"/>
  <path class="fil10" d="M1537.9 1101.28c-3.59,12.26 -7.97,24.17 -13.04,35.81 -10.42,23.99 -23.64,46.66 -37.99,67.5 -12.08,5.95 -55.24,24.07 -128.43,24.25l0 -55.94c71.53,0 133.16,-34.49 179.47,-71.7l0 0.09z"/>
  <path class="fil3" d="M1968.8 827.87c18.82,43.51 69.51,187.09 -29.07,280.06 -117.4,110.57 -235.85,134.91 -235.85,134.91 108.56,-46.66 214.49,-168.88 225.17,-234.54 4.99,-30.47 6.39,-107.94 5.42,-188.57 0,0 13.13,2.62 34.32,8.14z"/>
  <path class="fil3" d="M1888.43 943.78c3.76,35.02 10.46,85.45 -26.93,127.09 0,0 3.29,-69.22 -15,-96.71 4.81,-9.46 12.87,-22.5 16.11,-31.17 4.11,-10.94 7,-21.27 8.58,-30.81 10.15,13.22 16.46,24.16 17.25,31.61z"/>
  <path class="fil3" d="M1192 1137.08c-5.08,-11.64 -9.45,-23.55 -13.04,-35.81l0 -0.09c-32.66,-26.18 -57.61,-53.75 -73.1,-71.44 -25.21,-28.8 -40.71,-85.01 -50.25,-140.78 -19.35,20.22 -71.09,-10.5 -81.07,-36.51 -7.79,-20.66 -7.53,-48.76 -6.92,-59.53 -46.22,38.25 -97.28,86.96 -122.84,120.4 1.38,9.62 4.96,19.04 9.17,29.95 0,0 38.9,-39.6 87.66,-47.74 0,0 38.78,91.22 66.71,108.12 0,0 2.45,131.14 105.06,176.32 0,0 -32.92,-76.52 -33.18,-128.17l111.79 85.27z"/>
  <path class="fil10" d="M1178.96 1101.28c3.59,12.26 7.97,24.17 13.04,35.81 10.42,23.99 23.64,46.66 38,67.5 12.08,5.95 56.59,24.07 129.78,24.24l-1.35 -55.94c-71.52,0 -133.16,-34.49 -179.47,-71.7l0 0.09z"/>
  <path class="fil3" d="M828.43 943.78c-4.76,36.9 -1.75,81 24.43,126.54 0,0 -4.81,-72.7 13.48,-100.19 -4.82,-9.45 -8.84,-18.47 -12.08,-27.14 -4.12,-10.94 -7.01,-21.27 -8.58,-30.81 -10.16,13.22 -16.46,24.16 -17.25,31.61z"/>
  <path class="fil6" d="M1749.23 792.94c0.61,10.77 0.88,38.87 -6.92,59.53 -9.98,26 -61.72,56.73 -81.07,36.51 1.14,-6.74 2.19,-13.48 3.24,-20.22 19.79,-0.26 42.9,-76.78 44.03,-107.68 12.69,9.28 26.53,20.14 40.71,31.87z"/>
  <path class="fil11" d="M1689.35 747.5c5.95,4.03 12.43,8.58 19.17,13.57 -1.14,30.9 -24.25,107.42 -44.03,107.68 4.29,-29.24 7,-57.43 8.84,-80.36 0.7,-10.24 1.31,-19.52 1.75,-27.32 0.53,-9.72 0.79,-17.33 0.97,-22.06 4.9,2.98 9.37,5.87 13.31,8.49z"/>
  <path class="fil12" d="M1622.2 806.25l-25.65 105.32c-2.89,12.08 -13.75,20.57 -26.09,20.57l-116.61 0c-11.73,0 -22.06,-7.62 -25.65,-18.74l-29.59 -92.62c-0.52,-1.57 -0.79,-3.15 -0.79,-4.73 0,-2.88 0.88,-5.69 2.45,-8.23 2.28,-3.59 5.78,-6.13 9.89,-7.18 17.95,-4.64 57.69,-13.31 101.99,-13.31 39.31,0 77.48,4.38 99.63,7.44 5.78,0.79 10.07,5.6 10.42,11.47z"/>
  <path class="fil6" d="M967.62 792.94c-0.61,10.77 -0.87,38.87 6.92,59.53 9.98,26 61.72,56.73 81.07,36.51 -1.14,-6.74 -2.19,-13.48 -3.24,-20.22 -19.78,-0.26 -42.9,-76.78 -44.03,-107.68 -12.69,9.28 -26.53,20.14 -40.71,31.87z"/>
  <path class="fil11" d="M1027.51 747.5c-5.95,4.03 -12.43,8.58 -19.17,13.57 1.14,30.9 24.25,107.42 44.03,107.68 -4.29,-29.24 -7,-57.43 -8.84,-80.36 -0.7,-10.24 -1.31,-19.52 -1.75,-27.32 -0.52,-9.72 -0.79,-17.33 -0.96,-22.06 -4.9,2.98 -9.37,5.87 -13.31,8.49z"/>
  <path class="fil6" d="M1358.43 596.05c-48.85,0 -238.91,94.03 -317.62,142.96 0.17,4.73 0.44,12.35 0.96,22.06l40.97 21.54 0.09 0c4.99,-4.99 11.73,-8.4 19.26,-9.54 22.76,-3.15 61.72,-7.53 102.6,-7.62 47.1,0.09 88.33,9.1 107.42,14.01 9.45,2.37 17.68,8.4 22.94,16.63l23.38 0 23.38 0c5.25,-8.23 13.48,-14.27 22.94,-16.63 19.08,-4.9 60.32,-13.92 107.42,-14.01 40.88,0.09 79.84,4.46 102.6,7.62 7.53,1.14 14.27,4.55 19.26,9.54l0.09 0 40.97 -21.54c0.53,-9.72 0.79,-17.33 0.97,-22.06 -78.7,-48.94 -268.77,-142.96 -317.62,-142.96zm259.4 320.68l0 0c-5.34,21.89 -24.86,37.3 -47.36,37.3l-116.61 0c-21.19,0 -40.01,-13.75 -46.49,-33.97l-28.8 -89.83 -20.14 0 -20.14 0 -28.8 89.83c-6.48,20.22 -25.3,33.97 -46.49,33.97l-116.61 0c-22.5,0 -42.02,-15.41 -47.36,-37.3l-26.44 -108.47 -29.07 -19.87c1.84,22.93 4.55,51.12 8.84,80.36 1.05,6.74 2.1,13.49 3.24,20.22 9.54,55.77 25.04,111.97 50.25,140.78 15.49,17.68 40.44,45.26 73.1,71.44 46.31,37.21 107.95,71.7 179.47,71.7 71.53,0 133.16,-34.49 179.47,-71.7 32.66,-26.18 57.61,-53.75 73.1,-71.44 25.21,-28.8 40.71,-85.01 50.25,-140.78 1.14,-6.74 2.19,-13.48 3.24,-20.22 4.29,-29.24 7,-57.43 8.84,-80.36l-29.06 19.87 -26.44 108.47z"/>
  <path class="fil13" d="M1094.65 806.25l25.65 105.32c2.89,12.08 13.74,20.57 26.09,20.57l116.61 0c11.73,0 22.06,-7.62 25.65,-18.74l29.59 -92.62c0.52,-1.57 0.79,-3.15 0.79,-4.73 0,-2.88 -0.87,-5.69 -2.45,-8.23 -2.27,-3.59 -5.78,-6.13 -9.89,-7.18 -17.95,-4.64 -57.69,-13.31 -101.99,-13.31 -39.31,0 -77.48,4.38 -99.63,7.44 -5.78,0.79 -10.07,5.6 -10.42,11.47z"/>
  <path class="fil11" d="M1634.11 782.61l-0.09 0c-4.99,-4.99 -11.73,-8.4 -19.26,-9.54 -22.76,-3.15 -61.72,-7.53 -102.6,-7.62 -47.1,0.09 -88.33,9.1 -107.42,14.01 -9.45,2.37 -17.68,8.4 -22.94,16.63l-23.38 0 -23.38 0c-5.25,-8.23 -13.48,-14.27 -22.94,-16.63 -19.08,-4.9 -60.32,-13.92 -107.42,-14.01 -40.88,0.09 -79.84,4.46 -102.6,7.62 -7.53,1.14 -14.27,4.55 -19.26,9.54l-0.09 0 -40.97 -21.54c0.44,7.79 1.05,17.07 1.75,27.32l29.07 19.87 26.44 108.47c5.34,21.89 24.86,37.3 47.36,37.3l116.61 0c21.19,0 40.01,-13.75 46.49,-33.97l28.8 -89.83 20.14 0 20.14 0 28.8 89.83c6.48,20.22 25.3,33.97 46.49,33.97l116.61 0c22.5,0 42.02,-15.41 47.36,-37.3l26.44 -108.47 29.06 -19.87c0.7,-10.24 1.31,-19.52 1.75,-27.32l-40.97 21.54zm-315.86 38.17l0 0 -29.59 92.62c-3.59,11.12 -13.92,18.74 -25.65,18.74l-116.61 0c-12.34,0 -23.2,-8.49 -26.09,-20.57l-25.65 -105.32c0.35,-5.87 4.64,-10.68 10.42,-11.47 22.15,-3.07 60.32,-7.44 99.63,-7.44 44.3,0 84.04,8.66 101.99,13.31 4.12,1.05 7.62,3.59 9.89,7.18 1.58,2.54 2.45,5.34 2.45,8.23 0,1.58 -0.26,3.16 -0.79,4.73zm278.31 90.79l0 0c-2.89,12.08 -13.75,20.57 -26.09,20.57l-116.61 0c-11.73,0 -22.06,-7.62 -25.65,-18.74l-29.59 -92.62c-0.52,-1.57 -0.79,-3.15 -0.79,-4.73 0,-2.88 0.88,-5.69 2.45,-8.23 2.28,-3.59 5.78,-6.13 9.89,-7.18 17.95,-4.64 57.69,-13.31 101.99,-13.31 39.31,0 77.48,4.38 99.63,7.44 5.78,0.79 10.07,5.6 10.42,11.47l-25.65 105.32z"/>
  <path class="fil11" d="M1054.29 730.84c31.82,-4.5 52.05,-15.95 52.05,-15.95l-11.69 24.12c53.84,0 128.89,-33.63 128.89,-33.63l-44.58 33.63c187.66,-22.28 271.39,-69.21 306.9,-99.09 -55.64,-25.11 -105.62,-43.88 -127.43,-43.88 -46.26,0 -219.09,84.3 -304.14,134.79z"/>
  <path class="fil10" d="M1395.21 1077.92c-0.02,14.83 -75.22,14.79 -75.19,-0.04 -0.94,-0.17 -1.01,-3.85 0,-4.02 25.09,-3.98 50.11,-4.71 75.19,-0.09 1.01,0.17 0.94,3.98 0,4.15z"/>
  <path class="fil10" d="M1395.62 980.78c-11.85,6.96 -25.87,14.7 -39.84,14.53 -14.02,-0.04 -27.9,-7.57 -39.89,-14.57 -1,-0.56 0.56,-3.94 1.51,-3.72 12.81,2.72 25.74,3.72 38.41,3.63 12.72,0 25.26,-1.38 38.33,-3.76 1.08,-0.17 2.42,3.37 1.47,3.89z"/>
  <path class="fil10" d="M1308.94 1045.1c-16.18,-2.36 -31.88,-5.79 -46.72,-10.51 -2.38,-0.79 0.39,-5.08 2.72,-4.75 15.49,2.06 31.24,3.34 46.85,4.21 15.62,0.9 31.24,1.3 46.72,1.25 7.79,0.14 15.53,-0.24 23.32,-0.3 7.7,-0.46 15.53,-0.44 23.23,-1.09l11.68 -0.71 11.59 -1.06 5.88 -0.46 5.84 -0.71c3.89,-0.44 7.83,-0.87 11.77,-1.3 2.64,-0.27 5.15,4.21 2.77,4.95l-11.16 3.31c-1.9,0.54 -3.76,1.12 -5.71,1.63l-5.8 1.3 -11.81 2.58c-4.02,0.7 -8.05,1.3 -12.11,1.93 -8.05,1.39 -16.35,1.9 -24.61,2.72 -8.3,0.35 -16.66,0.9 -25,0.7 -16.66,-0.03 -33.31,-1.28 -49.45,-3.69z"/>
  <path class="fil10" d="M1736.14 788.6c-0.37,-0.42 -1.03,-0.39 -1.59,-0.3 -13.1,2.1 -29.48,17.1 -32.62,29.9 -0.76,3.1 -0.95,6.35 -0.03,9.42 0.93,3.08 3.18,5.12 4.41,8.04 1.59,3.77 1.33,8.28 -0.71,11.84 -2.03,3.56 -5.79,6.07 -9.84,6.61 -1.49,0.2 -3.01,0.14 -4.5,0.39 -1.48,0.25 -2.99,0.85 -3.88,2.07 -4.54,6.19 9.72,8.29 13.01,8.29 4.96,0 10,-0.99 14.05,-4.11 3.58,-2.75 5.74,-7.08 6.5,-11.53 1.65,-9.64 -3.6,-18.26 -2.85,-28.02 0.76,-9.82 5.07,-19.45 12.39,-26.12 1.63,-1.48 3.38,-2.83 4.98,-4.33 0.59,-0.56 1.2,-1.46 0.67,-2.14z"/>
  <path class="fil10" d="M980.72 788.6c0.37,-0.42 1.03,-0.39 1.59,-0.3 13.1,2.1 29.49,17.1 32.62,29.9 0.76,3.1 0.95,6.35 0.02,9.42 -0.93,3.08 -3.18,5.12 -4.41,8.04 -1.6,3.77 -1.33,8.28 0.71,11.84 2.03,3.56 5.78,6.07 9.84,6.61 1.49,0.2 3.01,0.14 4.49,0.39 1.48,0.25 2.99,0.85 3.88,2.07 4.54,6.19 -9.71,8.29 -13.01,8.29 -4.96,0 -10,-0.99 -14.05,-4.11 -3.58,-2.75 -5.74,-7.08 -6.5,-11.53 -1.65,-9.64 3.6,-18.26 2.85,-28.02 -0.76,-9.82 -5.07,-19.45 -12.39,-26.12 -1.63,-1.48 -3.38,-2.83 -4.98,-4.33 -0.59,-0.56 -1.2,-1.46 -0.67,-2.14z"/>
  <path class="fil14" d="M1358.43 663.96c59.55,0 283.87,95.22 390.74,150.75 0.49,-9.14 0.34,-17.12 0.07,-21.77 -14.18,-11.73 -28.02,-22.59 -40.71,-31.87 -6.74,-4.99 -13.22,-9.54 -19.17,-13.57 -3.94,-2.63 -8.4,-5.52 -13.31,-8.49 -78.7,-48.94 -268.77,-142.96 -317.62,-142.96 -48.85,0 -238.91,94.03 -317.62,142.96 -4.9,2.98 -9.37,5.87 -13.31,8.49 -5.95,4.03 -12.43,8.58 -19.17,13.57 -12.69,9.28 -26.53,20.14 -40.71,31.87 -0.26,4.65 -0.42,12.63 0.07,21.77 106.86,-55.53 331.19,-150.75 390.74,-150.75z"/>
  <g id="_2198793750944">
   <g>
    <g>
     <path class="fil15" d="M1550.92 624.22c33.97,13.05 66.3,29.98 97.54,48.57 31.29,18.58 61.14,39.55 89.89,61.95 28.68,22.5 55.57,47.34 80.55,73.91 25.06,26.5 47.2,55.82 65.97,86.89 -25.31,-26.18 -50.09,-52 -76.73,-76.05 -13.37,-11.91 -26.55,-24.04 -40.36,-35.43l-20.52 -17.31 -21.05 -16.67c-56.13,-44.56 -114.98,-85.51 -175.29,-125.86z"/>
    </g>
    <g>
     <path class="fil16" d="M1505.11 131.28c19.92,3.1 39.59,8.62 58.07,16.71 18.62,7.81 36.56,17.29 53.37,28.44 16.9,11.01 32.84,23.46 47.56,37.19 14.71,13.71 28.46,28.63 39.51,45.65 -16.8,-11.24 -32.92,-22.55 -49.08,-33.75 -16.13,-11.22 -32.43,-21.99 -48.7,-32.72 -16.28,-10.75 -32.75,-21.15 -49.53,-31.23 -16.67,-10.39 -33.96,-19.54 -51.2,-30.28z"/>
    </g>
    <g>
     <path class="fil17" d="M1838.32 1089.02c-18.27,23.97 -39.76,45.21 -62.32,65.03 -22.55,19.9 -46.59,38.08 -71.6,54.8 -12.54,8.31 -25.41,16.12 -38.34,23.79 -13.24,7.16 -26.19,14.8 -39.92,21.02 -26.91,13.4 -55.1,24.24 -83.92,32.68 25.58,-15.92 51.44,-30.37 76.59,-46.07 25.29,-15.4 50.22,-31.25 74.74,-47.69 24.77,-16.09 48.82,-33.25 72.95,-50.42 24.04,-17.33 47.87,-34.96 71.8,-53.13z"/>
    </g>
    <path class="fil3" d="M1430.53 1327.01c110.62,-10.58 211.49,-55.28 211.49,-55.28 0,0 -23.59,34.14 -91.1,52.03 -67.52,17.9 -120.39,3.26 -120.39,3.26z"/>
    <g>
     <path class="fil18" d="M2103.26 904.03c22.47,2.43 43.17,13.66 61.97,25.96 18.74,12.75 35.88,27.61 51.88,43.51 32.05,31.81 59.71,67.6 84.37,105.17 24.3,37.81 45.93,77.4 62.99,119.01 17.11,41.46 30.64,84.84 35.65,129.32 -12.99,-42.72 -30.18,-83.44 -49.56,-123.02 -19.53,-39.5 -41.41,-77.81 -65.47,-114.63 -23.82,-36.99 -50.13,-72.37 -79.04,-105.39 -14.61,-16.34 -29.8,-32.26 -46.58,-46.34 -16.75,-14 -34.82,-26.93 -56.22,-33.59z"/>
    </g>
    <g>
     <path class="fil19" d="M1982.03 1838.66c15.71,-9.25 32,-16.69 48.61,-23.32 16.61,-6.62 33.51,-12.54 50.94,-17.15 34.78,-9.52 72.36,-12.47 107.87,-5.08 -17.69,4.5 -35.13,7.59 -52.16,11.31 -17.04,3.71 -33.74,8.26 -50.71,12.69 -16.94,4.51 -34.08,8.91 -51.44,12.77 -17.37,3.86 -34.94,7.26 -53.11,8.79z"/>
    </g>
    <path class="fil3" d="M2216.29 1765.39c71.59,2.5 177.33,44.8 177.33,44.8 0,0 -79.17,-42.3 -127.44,-50.97 -48.26,-8.68 -49.9,6.17 -49.9,6.17z"/>
    <path class="fil3" d="M2184.84 1756.49c38.5,-22.77 133.4,-17.3 133.4,-17.3l-82.97 22.73c0,0 -27.11,0.54 -35.25,0 -8.13,-0.54 -15.18,-5.43 -15.18,-5.43z"/>
   </g>
   <g>
    <g>
     <path class="fil20" d="M1165.94 624.22c-60.31,40.35 -119.16,81.3 -175.29,125.86l-21.05 16.67 -20.52 17.31c-13.81,11.39 -26.99,23.51 -40.36,35.43 -26.64,24.05 -51.42,49.87 -76.73,76.05 18.77,-31.07 40.91,-60.39 65.97,-86.89 24.98,-26.57 51.88,-51.41 80.55,-73.91 28.75,-22.41 58.59,-43.38 89.89,-61.95 31.24,-18.59 63.57,-35.53 97.54,-48.57z"/>
    </g>
    <g>
     <path class="fil21" d="M1211.75 131.28c-17.24,10.74 -34.53,19.89 -51.2,30.28 -16.78,10.08 -33.25,20.48 -49.53,31.23 -16.28,10.73 -32.57,21.5 -48.7,32.72 -16.16,11.2 -32.28,22.5 -49.08,33.75 11.05,-17.01 24.79,-31.94 39.51,-45.65 14.73,-13.73 30.66,-26.18 47.57,-37.19 16.81,-11.15 34.75,-20.63 53.37,-28.44 18.47,-8.09 38.14,-13.61 58.07,-16.71z"/>
    </g>
    <g>
     <path class="fil22" d="M878.53 1089.02c23.93,18.17 47.76,35.8 71.8,53.13 24.13,17.17 48.18,34.33 72.96,50.42 24.53,16.44 49.46,32.29 74.74,47.69 25.15,15.7 51.01,30.16 76.58,46.07 -28.82,-8.44 -57.01,-19.28 -83.92,-32.68 -13.72,-6.22 -26.68,-13.86 -39.91,-21.02 -12.93,-7.67 -25.8,-15.48 -38.34,-23.79 -25.01,-16.72 -49.05,-34.9 -71.6,-54.8 -22.56,-19.83 -44.06,-41.06 -62.32,-65.03z"/>
    </g>
    <path class="fil3" d="M1286.33 1327.01c-110.62,-10.58 -211.49,-55.28 -211.49,-55.28 0,0 23.59,34.14 91.1,52.03 67.51,17.9 120.38,3.26 120.38,3.26z"/>
    <g>
     <path class="fil23" d="M613.59 904.03c-21.39,6.66 -39.47,19.59 -56.22,33.59 -16.77,14.08 -31.96,30 -46.58,46.34 -28.9,33.02 -55.22,68.41 -79.04,105.39 -24.07,36.82 -45.95,75.13 -65.47,114.63 -19.38,39.59 -36.57,80.3 -49.56,123.02 5.01,-44.49 18.54,-87.87 35.65,-129.32 17.06,-41.6 38.69,-81.19 62.99,-119.01 24.66,-37.57 52.33,-73.36 84.37,-105.17 15.99,-15.9 33.14,-30.77 51.88,-43.51 18.8,-12.3 39.5,-23.54 61.97,-25.96z"/>
    </g>
    <g>
     <path class="fil24" d="M734.83 1838.66c-18.17,-1.53 -35.74,-4.93 -53.11,-8.79 -17.37,-3.86 -34.51,-8.26 -51.45,-12.77 -16.97,-4.43 -33.68,-8.98 -50.71,-12.69 -17.03,-3.72 -34.47,-6.8 -52.16,-11.31 35.51,-7.39 73.09,-4.43 107.87,5.08 17.43,4.61 34.33,10.53 50.94,17.15 16.61,6.63 32.9,14.07 48.61,23.32z"/>
    </g>
    <path class="fil3" d="M500.56 1765.39c-71.58,2.5 -177.33,44.8 -177.33,44.8 0,0 79.17,-42.3 127.43,-50.97 48.26,-8.68 49.9,6.17 49.9,6.17z"/>
    <path class="fil3" d="M532.01 1756.49c-38.5,-22.77 -133.4,-17.3 -133.4,-17.3l82.97 22.73c0,0 27.11,0.54 35.25,0 8.13,-0.54 15.18,-5.43 15.18,-5.43z"/>
   </g>
  </g>
  <g id="_2201825565856">
   <path class="fil25" d="M1358.43 1499.74l-691.8 0c-18.97,0 -33.66,16.61 -31.34,35.44l80.03 648.68 14.59 118.22 628.52 0 628.52 0 14.59 -118.22 80.03 -648.68c2.32,-18.83 -12.36,-35.44 -31.34,-35.44l-691.8 0z"/>
   <path class="fil26" d="M636.44 1544.47c3.89,-12.86 15.78,-22.47 30.19,-22.47l691.8 0 691.8 0c14.41,0 26.3,9.6 30.19,22.47l1.15 -9.28c2.32,-18.83 -12.36,-35.44 -31.34,-35.44l-691.8 0 -691.8 0c-18.97,0 -33.66,16.61 -31.34,35.44l1.15 9.28z"/>
   <path class="fil27" d="M1262.87 1866.42l15.98 159.15 159.15 0 1.12 -11.09 14.87 -148.06 -191.11 0zm40.73 136.66l0 0 -7.14 -106.13 123.93 0 -7.14 106.13 -109.65 0z"/>
  </g>
  <path class="fil0" d="M2022.23 2595.06c-9.52,6.79 -19.07,13.54 -28.7,20.18l28.7 -20.18z"/>
  <path class="fil0" d="M1941.79 2588.43c0.68,-8.9 0.74,-17.9 0.74,-26.83l0 -7.58 -0.74 34.41z"/>
  <path class="fil28" d="M2295.48 2327.66l211.35 0 0 92.31 -53.49 -5.46 0 274.37 -101.02 0 0 -275.26 -37.85 4.41 0 270.85 -101.02 0 0 -100.87 -22.8 -1.48 0 102.35 -101.02 0 0 -110.72 -0.66 -1.51 0 20.82c0,16.22 -3.79,31.68 -11.8,45.79 -8.15,14.36 -19.79,25.41 -34.18,33.42 -15.84,8.82 -33.6,12.2 -51.59,12.2l-127.27 0 0 -361.22 127.27 0c17.99,0 35.75,3.38 51.59,12.2 14.36,7.99 26.05,19.03 34.18,33.34 8.03,14.16 11.8,29.62 11.8,45.87l0 57.71 -5.26 5.01c-4.24,4.04 -8.6,7.97 -13.02,11.82 2.77,2.44 5.53,4.9 8.25,7.39l10.69 0 0 -81.93c0,-16.24 3.76,-31.71 11.8,-45.87 8.11,-14.28 19.69,-25.31 33.98,-33.32 15.85,-8.88 33.76,-12.22 51.79,-12.22l108.28 0zm-754.16 69.81l0 -69.81 105.45 0 55.36 54.6 55.43 -54.6 105.68 0 0 361.22 -101.02 0 0 -231.72 -9.55 10.49 0 221.23 -101.02 0 0 -221.23 -9.55 -10.49 0 231.72 -100.79 0 0 -69.02c-1.77,10.07 -5.18,19.74 -10.38,28.83 -8.12,14.21 -19.72,25.27 -33.99,33.22 -15.9,8.86 -33.78,12.2 -51.83,12.2l-22.61 0c-17.95,0 -35.74,-3.42 -51.56,-12.18 -12.69,-7.02 -23.22,-16.44 -31.07,-28.4l0 35.35 -90 0c-17.99,0 -35.86,-3.37 -51.69,-12.21 -14.35,-8.01 -25.98,-19.11 -34.04,-33.49 -7.91,-14.11 -11.68,-29.54 -11.68,-45.71l0 -269.81 187.41 0 0 35.35c7.85,-11.96 18.37,-21.4 31.04,-28.45 15.81,-8.8 33.63,-12.2 51.59,-12.2l22.61 0c22.29,0 44.14,4.98 62.17,18.65 16.22,12.29 27.24,28.56 32.31,48.26 0.76,2.65 1.29,5.45 1.72,8.21zm-216.14 202.24l0 -181.35 -71.85 -5.13 0 167.79c0,3.33 0.32,13.08 2.04,16.88 5.07,1.8 17.75,2.04 22.11,2.04 3.77,0 7.55,-0.09 11.32,-0.22l0.31 -0.01 36.08 0zm-474.47 -210.39l0 -61.66 203.4 0 0 91.54 -102.61 -6.16 0 87.96 102.61 0 0 91.62 -102.61 -6.16 0 16.81 102.61 -6.16 0 91.54 -119.53 0 -83.87 0.29 0 -61.79c-1.83,5.53 -4.2,10.91 -7.15,16.11 -8.12,14.31 -19.72,25.42 -34.1,33.42 -15.87,8.83 -33.65,12.2 -51.67,12.2l-123.38 0 0 -67.74c-1.83,9.61 -5.17,18.85 -10.14,27.55 -8.12,14.21 -19.72,25.27 -33.99,33.22 -15.9,8.86 -33.78,12.2 -51.83,12.2l-22.61 0c-17.95,0 -35.74,-3.42 -51.56,-12.18 -12.69,-7.02 -23.22,-16.44 -31.07,-28.4l0 35.35 -90 0c-17.99,0 -35.86,-3.37 -51.69,-12.21 -14.35,-8.01 -25.99,-19.11 -34.04,-33.49 -7.91,-14.11 -11.68,-29.54 -11.68,-45.71l0 -269.81 187.41 0 0 35.35c7.85,-11.96 18.37,-21.4 31.04,-28.45 15.81,-8.8 33.63,-12.2 51.59,-12.2l22.61 0c22.29,0 44.14,4.98 62.17,18.65 16.21,12.29 27.24,28.56 32.31,48.26 0.63,2.19 1.1,4.48 1.49,6.78l0 -68.38 123.38 0c18.03,0 35.8,3.36 51.67,12.2 14.34,7.98 25.99,19.06 34.1,33.34 2.95,5.2 5.33,10.59 7.15,16.12zm-432.21 210.39l0 -181.35 -71.85 -5.13 0 167.79c0,3.33 0.32,13.08 2.04,16.88 5.07,1.8 17.75,2.04 22.11,2.04 3.77,0 7.55,-0.09 11.32,-0.22l0.31 -0.01 36.08 0zm114.47 -187.22c-1.68,-0.41 -4.43,-0.5 -5.67,-0.5 -1.28,0 -4.18,0.09 -5.9,0.54 -0.56,1.59 -0.91,4.26 -1.02,5.47 -1.02,10.32 -1.01,21.26 -1.01,31.63l0 117.19c0,10.41 -0,21.36 1.01,31.72 0.12,1.2 0.47,3.9 1.04,5.48 1.71,0.43 4.6,0.52 5.88,0.52 1.27,0 4.09,-0.09 5.82,-0.51 0.52,-1.57 0.83,-4.16 0.93,-5.32 0.92,-10.47 0.95,-21.38 0.95,-31.88l0 -117.19c0,-10.44 -0.04,-21.32 -1.02,-31.72 -0.11,-1.2 -0.45,-3.84 -1.01,-5.43zm202.46 187.37c5.65,-0.18 13.36,-0.68 16.99,-2.01 1.61,-3.53 1.91,-12.56 1.91,-15.66l0 -147.84c0,-3.11 -0.3,-12.16 -1.92,-15.73 -3.64,-1.3 -11.35,-1.78 -16.99,-1.95l0 183.18zm704.22 -187.37c-1.68,-0.41 -4.43,-0.5 -5.67,-0.5 -1.28,0 -4.18,0.09 -5.9,0.54 -0.56,1.59 -0.91,4.26 -1.02,5.47 -1.02,10.32 -1.01,21.26 -1.01,31.63l0 117.19c0,10.41 -0,21.36 1.01,31.72 0.12,1.2 0.47,3.9 1.04,5.48 1.71,0.43 4.6,0.52 5.88,0.52 1.27,0 4.09,-0.09 5.82,-0.51 0.52,-1.57 0.83,-4.16 0.93,-5.32 0.92,-10.47 0.95,-21.38 0.95,-31.88l0 -117.19c0,-10.44 -0.05,-21.32 -1.02,-31.72 -0.11,-1.2 -0.45,-3.84 -1.01,-5.43zm525.27 4.11l0 40.79c9.47,-7.14 18.77,-14.52 27.92,-22.03l-0.12 -5.4c-0.05,-2.28 -0.44,-8.71 -1.73,-11.27 -5.72,-1.96 -19.01,-2.1 -24.3,-2.1 -0.59,0 -1.18,0 -1.77,0.01zm28.03 137.42c-9.3,6.63 -18.63,13.22 -28.03,19.7l0 25.98c7.29,-0.01 14.72,-0.16 21.98,-0.86 0.9,-0.09 3.04,-0.37 4.13,-0.85 0.61,-1.49 0.94,-4.45 1.03,-5.72 0.78,-10.14 0.89,-20.51 0.89,-30.68l0 -7.58zm197.71 -53.03l22.8 0 0 -84.63c-0.23,-0 -0.45,-0 -0.68,-0 -4.02,0 -15.45,0.18 -20.22,1.72 -1.6,3.55 -1.9,12.5 -1.9,15.57l0 67.35z"/>
  <path class="fil29" d="M329.95 2395.05l-0.23 0 0 185.97c0,16.92 3.12,27.29 9.36,31.03 5.3,3.2 15.91,4.83 31.74,4.83 3.66,0 7.64,-0.08 11.93,-0.23l33.53 0 0 55.28 -73.06 0c-16.92,0 -31.42,-3.35 -43.43,-10.06 -12.01,-6.71 -21.21,-15.67 -27.52,-26.98 -6.32,-11.23 -9.51,-23.7 -9.51,-37.43l0 -252.87 153.53 0 0 56.61 -86.32 -6.16z"/>
  <path id="_1" class="fil29" d="M616.58 2393.73c0.62,2.11 1.17,5.15 1.72,8.97 0.55,3.9 0.86,7.1 0.86,9.51l0 190.72c0,13.72 -3.2,26.2 -9.59,37.35 -6.39,11.23 -15.59,20.2 -27.52,26.82 -12.01,6.71 -26.51,10.06 -43.59,10.06l-22.61 0c-16.84,0 -31.35,-3.35 -43.35,-10.06 -12.09,-6.63 -21.21,-15.59 -27.52,-26.82 -6.32,-11.15 -9.51,-23.63 -9.51,-37.35l0 -189.4c0,-13.65 3.2,-26.12 9.51,-37.27 6.32,-11.23 15.44,-20.2 27.52,-26.9 12.01,-6.71 26.51,-10.06 43.35,-10.06l22.61 0c21.21,0 38.52,5.07 51.93,15.2 13.33,10.14 22.14,23.24 26.2,39.22zm-64.64 55.91c0,-14.27 -0.39,-25.42 -1.09,-33.29 -0.78,-7.95 -2.89,-13.49 -6.32,-16.61 -3.43,-3.12 -9.2,-4.68 -17.23,-4.68 -8.11,0 -13.88,1.56 -17.39,4.68 -3.51,3.12 -5.61,8.66 -6.39,16.61 -0.78,7.88 -1.09,19.03 -1.09,33.29l0 117.19c0,14.35 0.31,25.42 1.09,33.37 0.78,7.95 2.89,13.41 6.32,16.53 3.43,3.2 9.2,4.76 17.47,4.76 8.19,0 14.04,-1.56 17.47,-4.76 3.43,-3.12 5.46,-8.58 6.16,-16.53 0.7,-7.95 1.01,-19.03 1.01,-33.37l0 -117.19z"/>
  <path id="_2" class="fil29" d="M838.41 2419.07l0 178.4c0,13.72 -3.2,26.2 -9.59,37.43 -6.39,11.31 -15.59,20.27 -27.6,26.98 -12.09,6.71 -26.51,10.06 -43.43,10.06l-106.43 0 0 -327.33 106.43 0c16.92,0 31.35,3.35 43.43,10.06 12.01,6.71 21.21,15.67 27.6,26.9 6.39,11.31 9.59,23.78 9.59,37.5zm-119.92 197.59c4.29,0.16 8.19,0.23 11.7,0.23 15.83,0 26.35,-1.64 31.73,-4.83 6.24,-3.66 9.36,-13.57 9.36,-29.86l0 -147.84c0,-16.3 -3.12,-26.28 -9.36,-29.94 -5.38,-3.2 -15.91,-4.76 -31.73,-4.76 -3.51,0 -7.41,0.08 -11.7,0.23l0 216.77z"/>
  <polygon id="_3" class="fil29" points="1037.17,2401.21 934.55,2395.05 934.55,2517.94 1037.17,2517.94 1037.17,2574.63 934.55,2568.47 934.55,2621.25 1037.17,2615.09 1037.17,2671.7 934.55,2671.7 867.65,2671.94 867.65,2574.63 842.7,2517.94 867.65,2517.94 867.65,2344.6 1037.17,2344.6 "/>
  <path id="_4" class="fil29" d="M1236.62 2395.05l-0.23 0 0 185.97c0,16.92 3.12,27.29 9.36,31.03 5.3,3.2 15.91,4.83 31.74,4.83 3.66,0 7.64,-0.08 11.93,-0.23l33.53 0 0 55.28 -73.06 0c-16.92,0 -31.42,-3.35 -43.43,-10.06 -12.01,-6.71 -21.21,-15.67 -27.52,-26.98 -6.32,-11.23 -9.51,-23.7 -9.51,-37.43l0 -252.87 153.53 0 0 56.61 -86.32 -6.16z"/>
  <path id="_5" class="fil29" d="M1523.25 2393.73c0.62,2.11 1.17,5.15 1.72,8.97 0.55,3.9 0.86,7.1 0.86,9.51l0 190.72c0,13.72 -3.2,26.2 -9.59,37.35 -6.39,11.23 -15.59,20.2 -27.52,26.82 -12.01,6.71 -26.51,10.06 -43.59,10.06l-22.61 0c-16.84,0 -31.35,-3.35 -43.35,-10.06 -12.09,-6.63 -21.21,-15.59 -27.52,-26.82 -6.32,-11.15 -9.51,-23.63 -9.51,-37.35l0 -189.4c0,-13.65 3.2,-26.12 9.51,-37.27 6.32,-11.23 15.44,-20.2 27.52,-26.9 12.01,-6.71 26.51,-10.06 43.35,-10.06l22.61 0c21.21,0 38.52,5.07 51.93,15.2 13.33,10.14 22.14,23.24 26.2,39.22zm-64.64 55.91c0,-14.27 -0.39,-25.42 -1.09,-33.29 -0.78,-7.95 -2.89,-13.49 -6.32,-16.61 -3.43,-3.12 -9.2,-4.68 -17.23,-4.68 -8.11,0 -13.88,1.56 -17.39,4.68 -3.51,3.12 -5.61,8.66 -6.39,16.61 -0.78,7.88 -1.09,19.03 -1.09,33.29l0 117.19c0,14.35 0.31,25.42 1.09,33.37 0.78,7.95 2.89,13.41 6.32,16.53 3.43,3.2 9.2,4.76 17.47,4.76 8.19,0 14.04,-1.56 17.47,-4.76 3.43,-3.12 5.46,-8.58 6.16,-16.53 0.7,-7.95 1.01,-19.03 1.01,-33.37l0 -117.19z"/>
  <polygon id="_6" class="fil29" points="1764.5,2344.6 1846.3,2344.6 1846.3,2671.94 1779.16,2671.94 1779.16,2413.38 1735.73,2461.1 1735.73,2671.94 1668.59,2671.94 1668.59,2461.1 1625.16,2413.38 1625.16,2671.94 1558.26,2671.94 1558.26,2344.6 1639.82,2344.6 1702.12,2406.05 "/>
  <path id="_7" class="fil29" d="M1991.41 2344.6c16.92,0 31.35,3.35 43.35,10.06 12.09,6.71 21.29,15.67 27.68,26.9 6.39,11.31 9.59,23.78 9.59,37.5l0 50.45c-8.19,7.8 -17.47,15.75 -27.6,24.02 10.14,8.34 19.42,16.45 27.6,24.17l0 79.77c0,13.72 -3.2,26.2 -9.59,37.43 -6.39,11.31 -15.59,20.27 -27.68,26.98 -12.01,6.71 -26.43,10.06 -43.35,10.06l-110.33 0 0 -327.33 110.33 0zm-43.43 55.28l0 90.45c18.71,-12.63 39.38,-28.3 61.91,-47.1l0 -2.96 -0.23 -10.68c-0.31,-14.35 -3.98,-23 -10.92,-26.04 -5.85,-2.65 -16.45,-3.9 -32.05,-3.9 -3.04,0 -6.32,0.08 -9.82,0.23l-8.89 0zm61.91 143.86c-4.83,-4.05 -9.82,-8.11 -14.81,-12.09 -18.01,12.94 -33.68,24.02 -47.1,33.14l0 51.85 16.45 0c9.59,0 17.62,-0.31 24.09,-0.94 6.47,-0.62 11.38,-2.5 14.66,-5.77 3.28,-3.28 5.22,-8.73 5.77,-16.37 0.62,-7.64 0.94,-18.25 0.94,-31.97l0 -17.86z"/>
  <path id="_8" class="fil29" d="M2187.2 2344.6l110.33 0 0 327.33 -67.14 0 0 -99.81 -56.45 -3.66 -0.23 0 0 103.47 -67.14 0 0 -97.31 -24.72 -56.69 24.72 0 0 -98.87c0,-13.72 3.2,-26.2 9.59,-37.5 6.39,-11.23 15.52,-20.2 27.52,-26.9 11.93,-6.71 26.43,-10.06 43.51,-10.06zm-13.49 173.34l56.69 0 0 -118.05 -0.23 0c-6.39,-0.31 -12.24,-0.47 -17.39,-0.47 -14.35,0 -24.09,1.33 -29.24,4.13 -6.55,3.51 -9.82,13.49 -9.82,30.1l0 84.29z"/>
  <polygon id="_9" class="fil29" points="2489.89,2344.6 2489.89,2401.21 2436.4,2395.75 2436.4,2671.94 2369.26,2671.94 2369.26,2394.58 2312.42,2401.21 2312.42,2344.6 "/>
  <path class="fil30" d="M408.32 2392.68l0 -40.14 -137.65 0 0 244.93c0,11.91 2.67,23.15 8.5,33.54 5.81,10.36 14.14,18.16 24.47,23.93 12.04,6.72 25.9,9.05 39.56,9.05l65.12 0 0 -39.4 -25.44 0c-4.02,0.14 -8.05,0.23 -12.07,0.23 -10.35,0 -26.73,-0.5 -35.83,-5.97 -11.86,-7.14 -13.21,-25.51 -13.21,-37.84l0 -193.91 8.46 0 78.09 5.57zm200.56 3c-3.64,-14.36 -11.5,-25.9 -23.3,-34.84 -13.56,-10.28 -30.43,-13.59 -47.13,-13.59l-22.61 0c-13.64,0 -27.46,2.36 -39.49,9.06 -10.35,5.76 -18.64,13.54 -24.47,23.87 -5.82,10.31 -8.49,21.54 -8.49,33.37l0 189.4c0,11.86 2.65,23.11 8.49,33.45 5.82,10.31 14.11,18.05 24.45,23.78 12.06,6.68 25.84,9.07 39.51,9.07l22.61 0c13.72,0 27.61,-2.31 39.72,-9.05 10.3,-5.74 18.63,-13.56 24.49,-23.83 5.89,-10.31 8.54,-21.55 8.54,-33.41l0 -190.72c0,-2.73 -0.4,-5.7 -0.78,-8.4 -0.35,-2.51 -0.75,-5.4 -1.47,-7.82l-0.05 -0.15 -0.04 -0.15zm-49 53.95l0 117.19c0,11.25 -0.06,22.86 -1.04,34.07 -0.69,7.77 -2.74,16.19 -8.69,21.68 -6.05,5.56 -14.94,6.85 -22.84,6.85 -7.93,0 -16.78,-1.27 -22.84,-6.85 -5.94,-5.46 -8.08,-13.85 -8.84,-21.6 -1.1,-11.19 -1.13,-22.9 -1.13,-34.15l0 -117.19c0,-11.21 0.03,-22.92 1.13,-34.07 0.77,-7.81 2.92,-16.35 9.02,-21.77 6.08,-5.41 14.82,-6.68 22.66,-6.68 7.81,0 16.58,1.29 22.57,6.74 6,5.45 8.15,13.97 8.88,21.74 1.05,11.18 1.13,22.81 1.13,34.03zm99.42 -97.09l0 311.45 98.49 0c13.7,0 27.48,-2.33 39.57,-9.06 10.38,-5.78 18.69,-13.62 24.56,-23.96 5.88,-10.37 8.56,-21.6 8.56,-33.51l0 -178.4c0,-11.93 -2.65,-23.18 -8.56,-33.59 -5.85,-10.31 -14.21,-18.12 -24.56,-23.88 -12.09,-6.73 -25.86,-9.06 -39.57,-9.06l-98.49 0zm51.25 271.77l0 -232.08 7.65 -0.28c3.99,-0.14 7.99,-0.24 11.98,-0.24 10.38,0 26.62,0.46 35.77,5.86 11.79,6.97 13.26,24.56 13.26,36.78l0 147.84c0,12.22 -1.46,29.74 -13.26,36.7 -9.18,5.42 -25.36,5.94 -35.77,5.94 -3.99,0 -7.99,-0.09 -11.98,-0.24l-7.65 -0.28zm318.68 -231.53l0 -40.23 -153.63 0 0 173.34 -20.72 0 20.72 47.07 0 91.01 58.95 -0.21 94.69 0 0 -40.23 -102.61 6.16 0 -69.65 102.61 6.16 0 -40.31 -102.61 0 0 -139.26 102.61 6.16zm285.77 -0.1l0 -40.14 -137.65 0 0 244.93c0,11.91 2.67,23.15 8.5,33.54 5.81,10.36 14.14,18.16 24.47,23.93 12.04,6.72 25.9,9.05 39.56,9.05l65.12 0 0 -39.4 -25.44 0c-4.02,0.14 -8.05,0.23 -12.07,0.23 -10.35,0 -26.73,-0.5 -35.83,-5.97 -11.86,-7.14 -13.21,-25.51 -13.21,-37.84l0 -193.91 8.46 0 78.09 5.57zm200.56 3c-3.64,-14.36 -11.5,-25.9 -23.3,-34.84 -13.56,-10.28 -30.43,-13.59 -47.13,-13.59l-22.61 0c-13.64,0 -27.46,2.36 -39.49,9.06 -10.35,5.76 -18.64,13.54 -24.47,23.87 -5.82,10.31 -8.49,21.54 -8.49,33.37l0 189.4c0,11.86 2.65,23.11 8.49,33.45 5.82,10.31 14.11,18.05 24.45,23.78 12.06,6.68 25.84,9.07 39.51,9.07l22.61 0c13.72,0 27.61,-2.31 39.72,-9.05 10.3,-5.74 18.63,-13.56 24.49,-23.83 5.89,-10.31 8.54,-21.55 8.54,-33.41l0 -190.72c0,-2.73 -0.4,-5.7 -0.78,-8.4 -0.35,-2.51 -0.75,-5.4 -1.47,-7.82l-0.04 -0.15 -0.04 -0.15zm-49 53.95l0 117.19c0,11.25 -0.06,22.86 -1.04,34.07 -0.69,7.77 -2.74,16.19 -8.69,21.68 -6.05,5.56 -14.94,6.85 -22.84,6.85 -7.93,0 -16.78,-1.27 -22.84,-6.85 -5.94,-5.46 -8.08,-13.85 -8.84,-21.6 -1.1,-11.19 -1.13,-22.9 -1.13,-34.15l0 -117.19c0,-11.21 0.03,-22.92 1.13,-34.07 0.77,-7.81 2.92,-16.35 9.02,-21.77 6.08,-5.41 14.82,-6.68 22.66,-6.68 7.81,0 16.58,1.29 22.57,6.74 6,5.45 8.15,13.97 8.88,21.74 1.05,11.18 1.13,22.81 1.13,34.03zm301.2 -97.09l-65.64 64.65 -65.55 -64.65 -70.36 0 0 311.45 51.02 0 0 -271.14 59.32 65.17 0 205.97 51.25 0 0 -205.97 59.31 -65.17 0 271.14 51.25 0 0 -311.45 -70.6 0zm121.26 0l0 311.45 102.39 0c13.67,0 27.43,-2.34 39.49,-9.06 10.39,-5.78 18.74,-13.58 24.64,-23.96 5.88,-10.37 8.56,-21.6 8.56,-33.51l0 -76.32c-8,-7.42 -16.29,-14.56 -24.71,-21.49l-7.49 -6.16 7.51 -6.13c8.41,-6.86 16.74,-13.89 24.68,-21.29l0 -47.02c0,-11.93 -2.65,-23.18 -8.56,-33.59 -5.87,-10.34 -14.27,-18.11 -24.64,-23.88 -12.06,-6.71 -25.82,-9.06 -39.49,-9.06l-102.39 0zm67.67 39.4c3.33,-0.15 6.67,-0.23 10,-0.23 10.31,0 25.75,0.34 35.28,4.59 12.61,5.61 15.36,20.78 15.63,33.13l0.24 10.77 0 6.77 -2.86 2.38c-20.08,16.75 -40.88,32.95 -62.55,47.58l-12.39 8.36 0 -113.33 16.66 0zm43.33 133.51c5.04,4.01 10.03,8.07 14.97,12.21l2.84 2.38 0 21.56c0,10.8 -0.13,21.8 -0.96,32.58 -0.58,7.6 -2.5,15.81 -8.07,21.38 -5.21,5.21 -12.35,7.37 -19.51,8.06 -8.22,0.79 -16.6,0.97 -24.86,0.97l-24.39 0 0 -64 3.48 -2.36c15.81,-10.75 31.4,-21.86 46.93,-33.02l4.88 -3.51 4.7 3.75zm93.96 0.43l20.53 47.09 0 91.03 51.25 0 0 -103.47 8.43 0 64.14 4.16 0 99.31 51.25 0 0 -311.45 -102.39 0c-13.67,0 -27.58,2.3 -39.63,9.05 -10.32,5.78 -18.64,13.56 -24.5,23.89 -5.91,10.41 -8.56,21.65 -8.56,33.59l0 106.81 -20.53 0zm136.37 -133.94l7.98 0 0 133.94 -72.57 0 0 -92.23c0,-12.49 1.57,-30.38 13.99,-37.09 8.66,-4.68 23.35,-5.09 33.01,-5.09 5.86,0 11.73,0.18 17.58,0.47zm251.6 -39.4l-161.58 0 0 39.75 56.84 -6.63 0 278.33 51.25 0 0 -277.03 53.49 5.46 0 -39.87z"/>
  <g style="clip-path:url(#id0)">
   <g id="_2201825515504">
    <path id="_1_0" class="fil31" d="M148.83 2507.56l2415.12 0.67 16.73 222.43c0,0 -109.69,126.43 -232.4,132 -122.71,5.58 -2190.15,-37.18 -2190.15,-37.18l-9.3 -317.93z"/>
   </g>
  </g>
  <path class="fil32" d="M408.32 2392.68l0 -40.14 -137.65 0 0 244.93c0,11.91 2.67,23.15 8.5,33.54 5.81,10.36 14.14,18.16 24.47,23.93 12.04,6.72 25.9,9.05 39.56,9.05l65.12 0 0 -39.4 -25.44 0c-4.02,0.14 -8.05,0.23 -12.07,0.23 -10.35,0 -26.73,-0.5 -35.83,-5.97 -11.86,-7.14 -13.21,-25.51 -13.21,-37.84l0 -193.91 8.46 0 78.09 5.57zm200.56 3c-3.64,-14.36 -11.5,-25.9 -23.3,-34.84 -13.56,-10.28 -30.43,-13.59 -47.13,-13.59l-22.61 0c-13.64,0 -27.46,2.36 -39.49,9.06 -10.35,5.76 -18.64,13.54 -24.47,23.87 -5.82,10.31 -8.49,21.54 -8.49,33.37l0 189.4c0,11.86 2.65,23.11 8.49,33.45 5.82,10.31 14.11,18.05 24.45,23.78 12.06,6.68 25.84,9.07 39.51,9.07l22.61 0c13.72,0 27.61,-2.31 39.72,-9.05 10.3,-5.74 18.63,-13.56 24.49,-23.83 5.89,-10.31 8.54,-21.55 8.54,-33.41l0 -190.72c0,-2.73 -0.4,-5.7 -0.78,-8.4 -0.35,-2.51 -0.75,-5.4 -1.47,-7.82l-0.05 -0.15 -0.04 -0.15zm-49 53.95l0 117.19c0,11.25 -0.06,22.86 -1.04,34.07 -0.69,7.77 -2.74,16.19 -8.69,21.68 -6.05,5.56 -14.94,6.85 -22.84,6.85 -7.93,0 -16.78,-1.27 -22.84,-6.85 -5.94,-5.46 -8.08,-13.85 -8.84,-21.6 -1.1,-11.19 -1.13,-22.9 -1.13,-34.15l0 -117.19c0,-11.21 0.03,-22.92 1.13,-34.07 0.77,-7.81 2.92,-16.35 9.02,-21.77 6.08,-5.41 14.82,-6.68 22.66,-6.68 7.81,0 16.58,1.29 22.57,6.74 6,5.45 8.15,13.97 8.88,21.74 1.05,11.18 1.13,22.81 1.13,34.03zm99.42 -97.09l0 311.45 98.49 0c13.7,0 27.48,-2.33 39.57,-9.06 10.38,-5.78 18.69,-13.62 24.56,-23.96 5.88,-10.37 8.56,-21.6 8.56,-33.51l0 -178.4c0,-11.93 -2.65,-23.18 -8.56,-33.59 -5.85,-10.31 -14.21,-18.12 -24.56,-23.88 -12.09,-6.73 -25.86,-9.06 -39.57,-9.06l-98.49 0zm51.25 271.77l0 -232.08 7.65 -0.28c3.99,-0.14 7.99,-0.24 11.98,-0.24 10.38,0 26.62,0.46 35.77,5.86 11.79,6.97 13.26,24.56 13.26,36.78l0 147.84c0,12.22 -1.46,29.74 -13.26,36.7 -9.18,5.42 -25.36,5.94 -35.77,5.94 -3.99,0 -7.99,-0.09 -11.98,-0.24l-7.65 -0.28zm318.68 -231.53l0 -40.23 -153.63 0 0 173.34 -20.72 0 20.72 47.07 0 91.01 58.95 -0.21 94.69 0 0 -40.23 -102.61 6.16 0 -69.65 102.61 6.16 0 -40.31 -102.61 0 0 -139.26 102.61 6.16zm285.77 -0.1l0 -40.14 -137.65 0 0 244.93c0,11.91 2.67,23.15 8.5,33.54 5.81,10.36 14.14,18.16 24.47,23.93 12.04,6.72 25.9,9.05 39.56,9.05l65.12 0 0 -39.4 -25.44 0c-4.02,0.14 -8.05,0.23 -12.07,0.23 -10.35,0 -26.73,-0.5 -35.83,-5.97 -11.86,-7.14 -13.21,-25.51 -13.21,-37.84l0 -193.91 8.46 0 78.09 5.57zm200.56 3c-3.64,-14.36 -11.5,-25.9 -23.3,-34.84 -13.56,-10.28 -30.43,-13.59 -47.13,-13.59l-22.61 0c-13.64,0 -27.46,2.36 -39.49,9.06 -10.35,5.76 -18.64,13.54 -24.47,23.87 -5.82,10.31 -8.49,21.54 -8.49,33.37l0 189.4c0,11.86 2.65,23.11 8.49,33.45 5.82,10.31 14.11,18.05 24.45,23.78 12.06,6.68 25.84,9.07 39.51,9.07l22.61 0c13.72,0 27.61,-2.31 39.72,-9.05 10.3,-5.74 18.63,-13.56 24.49,-23.83 5.89,-10.31 8.54,-21.55 8.54,-33.41l0 -190.72c0,-2.73 -0.4,-5.7 -0.78,-8.4 -0.35,-2.51 -0.75,-5.4 -1.47,-7.82l-0.04 -0.15 -0.04 -0.15zm-49 53.95l0 117.19c0,11.25 -0.06,22.86 -1.04,34.07 -0.69,7.77 -2.74,16.19 -8.69,21.68 -6.05,5.56 -14.94,6.85 -22.84,6.85 -7.93,0 -16.78,-1.27 -22.84,-6.85 -5.94,-5.46 -8.08,-13.85 -8.84,-21.6 -1.1,-11.19 -1.13,-22.9 -1.13,-34.15l0 -117.19c0,-11.21 0.03,-22.92 1.13,-34.07 0.77,-7.81 2.92,-16.35 9.02,-21.77 6.08,-5.41 14.82,-6.68 22.66,-6.68 7.81,0 16.58,1.29 22.57,6.74 6,5.45 8.15,13.97 8.88,21.74 1.05,11.18 1.13,22.81 1.13,34.03zm301.2 -97.09l-65.64 64.65 -65.55 -64.65 -70.36 0 0 311.45 51.02 0 0 -271.14 59.32 65.17 0 205.97 51.25 0 0 -205.97 59.31 -65.17 0 271.14 51.25 0 0 -311.45 -70.6 0zm121.26 0l0 311.45 102.39 0c13.67,0 27.43,-2.34 39.49,-9.06 10.39,-5.78 18.74,-13.58 24.64,-23.96 5.88,-10.37 8.56,-21.6 8.56,-33.51l0 -76.32c-8,-7.42 -16.29,-14.56 -24.71,-21.49l-7.49 -6.16 7.51 -6.13c8.41,-6.86 16.74,-13.89 24.68,-21.29l0 -47.02c0,-11.93 -2.65,-23.18 -8.56,-33.59 -5.87,-10.34 -14.27,-18.11 -24.64,-23.88 -12.06,-6.71 -25.82,-9.06 -39.49,-9.06l-102.39 0zm67.67 39.4c3.33,-0.15 6.67,-0.23 10,-0.23 10.31,0 25.75,0.34 35.28,4.59 12.61,5.61 15.36,20.78 15.63,33.13l0.24 10.77 0 6.77 -2.86 2.38c-20.08,16.75 -40.88,32.95 -62.55,47.58l-12.39 8.36 0 -113.33 16.66 0zm43.33 133.51c5.04,4.01 10.03,8.07 14.97,12.21l2.84 2.38 0 21.56c0,10.8 -0.13,21.8 -0.96,32.58 -0.58,7.6 -2.5,15.81 -8.07,21.38 -5.21,5.21 -12.35,7.37 -19.51,8.06 -8.22,0.79 -16.6,0.97 -24.86,0.97l-24.39 0 0 -64 3.48 -2.36c15.81,-10.75 31.4,-21.86 46.93,-33.02l4.88 -3.51 4.7 3.75zm93.96 0.43l20.53 47.09 0 91.03 51.25 0 0 -103.47 8.43 0 64.14 4.16 0 99.31 51.25 0 0 -311.45 -102.39 0c-13.67,0 -27.58,2.3 -39.63,9.05 -10.32,5.78 -18.64,13.56 -24.5,23.89 -5.91,10.41 -8.56,21.65 -8.56,33.59l0 106.81 -20.53 0zm136.37 -133.94l7.98 0 0 133.94 -72.57 0 0 -92.23c0,-12.49 1.57,-30.38 13.99,-37.09 8.66,-4.68 23.35,-5.09 33.01,-5.09 5.86,0 11.73,0.18 17.58,0.47zm251.6 -39.4l-161.58 0 0 39.75 56.84 -6.63 0 278.33 51.25 0 0 -277.03 53.49 5.46 0 -39.87z"/>
  <path class="fil33" d="M397.46 2381.02l0 -17.61 -115.92 0 0 81.94 29.37 0 0 -69.1 19.71 0 66.84 4.77zm200.89 17.33c-3.03,-11.98 -9.5,-21.4 -19.33,-28.85 -11.58,-8.78 -26.35,-11.39 -40.57,-11.39l-22.61 0c-11.73,0 -23.84,1.92 -34.21,7.69 -8.58,4.78 -15.45,11.13 -20.29,19.71 -4.9,8.67 -7.08,18.1 -7.08,28.03l0 31.82 29.37 0c0.02,-10.29 0.17,-20.61 1.18,-30.86 1.06,-10.72 4.31,-21.44 12.62,-28.82 8.23,-7.31 19.19,-9.43 29.88,-9.43 10.69,0 21.72,2.15 29.88,9.57 8.15,7.41 11.39,18.12 12.39,28.77 0.96,10.22 1.14,20.5 1.17,30.76l29.61 0 0 -33.14c0,-2.25 -0.36,-4.66 -0.67,-6.88 -0.28,-1.99 -0.55,-4.32 -1.12,-6.25l-0.11 -0.37 -0.09 -0.37zm71.81 -34.94l0 81.94 29.53 0 0 -63.6 18.12 -0.66c4.12,-0.15 8.25,-0.25 12.38,-0.25 12.92,0 30.01,0.7 41.3,7.37 15.78,9.32 18.6,29.44 18.6,46.13l0 11 29.53 0 0 -26.28c0,-10.04 -2.17,-19.46 -7.14,-28.22 -4.87,-8.58 -11.81,-14.98 -20.39,-19.75 -10.42,-5.8 -22.49,-7.69 -34.29,-7.69l-87.63 0zm348.2 17.84l0 -17.84 -131.91 0 0 81.94 29.29 0 0 -70.27 102.61 6.16zm285.77 -0.23l0 -17.61 -115.92 0 0 81.94 29.37 0 0 -69.1 19.71 0 66.84 4.77zm200.89 17.33c-3.03,-11.98 -9.5,-21.4 -19.33,-28.85 -11.58,-8.78 -26.35,-11.39 -40.57,-11.39l-22.61 0c-11.73,0 -23.84,1.92 -34.21,7.69 -8.58,4.78 -15.45,11.13 -20.29,19.71 -4.9,8.67 -7.08,18.1 -7.08,28.03l0 31.82 29.37 0c0.02,-10.29 0.17,-20.61 1.18,-30.86 1.06,-10.72 4.31,-21.44 12.61,-28.82 8.23,-7.31 19.19,-9.43 29.88,-9.43 10.69,0 21.72,2.15 29.88,9.57 8.15,7.41 11.39,18.12 12.39,28.77 0.96,10.22 1.14,20.5 1.17,30.76l29.61 0 0 -33.14c0,-2.25 -0.36,-4.66 -0.67,-6.88 -0.28,-1.99 -0.55,-4.32 -1.12,-6.25l-0.11 -0.37 -0.09 -0.37zm267.18 -34.94l-70.09 69.04 -70.01 -69.04 -55.04 0 0 81.94 29.29 0 0 -80.57 73.33 80.57 44.94 0 73.33 -80.57 0 80.57 29.53 0 0 -81.94 -55.28 0zm127.67 0l0 81.94 29.29 0 0 -64.27 27.28 0c3.41,-0.15 6.82,-0.23 10.24,-0.23 12.38,0 28.33,0.47 39.69,5.52 16.93,7.54 21.7,25.83 22.07,42.81l0.24 10.89 0 5.28 24.54 0 0 -26.28c0,-10.04 -2.17,-19.46 -7.14,-28.22 -4.88,-8.6 -11.87,-14.96 -20.47,-19.75 -10.39,-5.78 -22.44,-7.69 -34.21,-7.69l-91.53 0zm378.85 81.94l0 -81.94 -91.53 0c-11.74,0 -23.95,1.85 -34.32,7.66 -8.58,4.81 -15.49,11.18 -20.36,19.78 -4.97,8.76 -7.14,18.19 -7.14,28.22l0 26.28 29.53 0 0 -11.7c0,-17.11 3.04,-37.65 19.69,-46.64 10.68,-5.77 26.17,-6.39 38.18,-6.39 5.95,0 11.9,0.18 17.84,0.47l18.59 0 0 64.27 29.53 0zm192.36 -81.94l-139.86 0 0 16.68 56.84 -6.63 0 71.89 29.53 0 0 -70.42 53.49 5.46 0 -16.98z"/>
  <g style="clip-path:url(#id1)">
   <g id="_2201825514688">
    <polygon id="_1_1" class="fil34" points="41.9,2299.61 2664.83,2283.29 2587.07,2432.83 -38.82,2449.17 "/>
   </g>
  </g>
  <path class="fil32" d="M397.46 2381.02l0 -17.61 -115.92 0 0 81.94 29.37 0 0 -69.1 19.71 0 66.84 4.77zm200.89 17.33c-3.03,-11.98 -9.5,-21.4 -19.33,-28.85 -11.58,-8.78 -26.35,-11.39 -40.57,-11.39l-22.61 0c-11.73,0 -23.84,1.92 -34.21,7.69 -8.58,4.78 -15.45,11.13 -20.29,19.71 -4.9,8.67 -7.08,18.1 -7.08,28.03l0 31.82 29.37 0c0.02,-10.29 0.17,-20.61 1.18,-30.86 1.06,-10.72 4.31,-21.44 12.62,-28.82 8.23,-7.31 19.19,-9.43 29.88,-9.43 10.69,0 21.72,2.15 29.88,9.57 8.15,7.41 11.39,18.12 12.39,28.77 0.96,10.22 1.14,20.5 1.17,30.76l29.61 0 0 -33.14c0,-2.25 -0.36,-4.66 -0.67,-6.88 -0.28,-1.99 -0.55,-4.32 -1.12,-6.25l-0.11 -0.37 -0.09 -0.37zm71.81 -34.94l0 81.94 29.53 0 0 -63.6 18.12 -0.66c4.12,-0.15 8.25,-0.25 12.38,-0.25 12.92,0 30.01,0.7 41.3,7.37 15.78,9.32 18.6,29.44 18.6,46.13l0 11 29.53 0 0 -26.28c0,-10.04 -2.17,-19.46 -7.14,-28.22 -4.87,-8.58 -11.81,-14.98 -20.39,-19.75 -10.42,-5.8 -22.49,-7.69 -34.29,-7.69l-87.63 0zm348.2 17.84l0 -17.84 -131.91 0 0 81.94 29.29 0 0 -70.27 102.61 6.16zm285.77 -0.23l0 -17.61 -115.92 0 0 81.94 29.37 0 0 -69.1 19.71 0 66.84 4.77zm200.89 17.33c-3.03,-11.98 -9.5,-21.4 -19.33,-28.85 -11.58,-8.78 -26.35,-11.39 -40.57,-11.39l-22.61 0c-11.73,0 -23.84,1.92 -34.21,7.69 -8.58,4.78 -15.45,11.13 -20.29,19.71 -4.9,8.67 -7.08,18.1 -7.08,28.03l0 31.82 29.37 0c0.02,-10.29 0.17,-20.61 1.18,-30.86 1.06,-10.72 4.31,-21.44 12.61,-28.82 8.23,-7.31 19.19,-9.43 29.88,-9.43 10.69,0 21.72,2.15 29.88,9.57 8.15,7.41 11.39,18.12 12.39,28.77 0.96,10.22 1.14,20.5 1.17,30.76l29.61 0 0 -33.14c0,-2.25 -0.36,-4.66 -0.67,-6.88 -0.28,-1.99 -0.55,-4.32 -1.12,-6.25l-0.11 -0.37 -0.09 -0.37zm267.18 -34.94l-70.09 69.04 -70.01 -69.04 -55.04 0 0 81.94 29.29 0 0 -80.57 73.33 80.57 44.94 0 73.33 -80.57 0 80.57 29.53 0 0 -81.94 -55.28 0zm127.67 0l0 81.94 29.29 0 0 -64.27 27.28 0c3.41,-0.15 6.82,-0.23 10.24,-0.23 12.38,0 28.33,0.47 39.69,5.52 16.93,7.54 21.7,25.83 22.07,42.81l0.24 10.89 0 5.28 24.54 0 0 -26.28c0,-10.04 -2.17,-19.46 -7.14,-28.22 -4.88,-8.6 -11.87,-14.96 -20.47,-19.75 -10.39,-5.78 -22.44,-7.69 -34.21,-7.69l-91.53 0zm378.85 81.94l0 -81.94 -91.53 0c-11.74,0 -23.95,1.85 -34.32,7.66 -8.58,4.81 -15.49,11.18 -20.36,19.78 -4.97,8.76 -7.14,18.19 -7.14,28.22l0 26.28 29.53 0 0 -11.7c0,-17.11 3.04,-37.65 19.69,-46.64 10.68,-5.77 26.17,-6.39 38.18,-6.39 5.95,0 11.9,0.18 17.84,0.47l18.59 0 0 64.27 29.53 0zm192.36 -81.94l-139.86 0 0 16.68 56.84 -6.63 0 71.89 29.53 0 0 -70.42 53.49 5.46 0 -16.98z"/>
 </g>
</svg>
