<?xml version="1.0" encoding="UTF-8"?>
<!DOCTYPE svg PUBLIC "-//W3C//DTD SVG 1.1//EN" "http://www.w3.org/Graphics/SVG/1.1/DTD/svg11.dtd">
<!-- Creator: CorelDRAW 2021 (64-Bit) -->
<svg xmlns="http://www.w3.org/2000/svg" xml:space="preserve" width="5.93882in" height="0.548705in" version="1.1" style="shape-rendering:geometricPrecision; text-rendering:geometricPrecision; image-rendering:optimizeQuality; fill-rule:evenodd; clip-rule:evenodd"
viewBox="0 0 200.83 18.56"
 xmlns:xlink="http://www.w3.org/1999/xlink"
 xmlns:xodm="http://www.corel.com/coreldraw/odm/2003">
 <defs>
  <style type="text/css">
   <![CDATA[
    .str0 {stroke:#AEF8FB;stroke-width:0.34;stroke-linecap:round;stroke-linejoin:round;stroke-miterlimit:2.61313}
    .fil0 {fill:none;fill-rule:nonzero}
   ]]>
  </style>
 </defs>
 <g id="Layer_x0020_1">
  <metadata id="CorelCorpID_0Corel-Layer"/>
  <path class="fil0 str0" d="M8.12 0.48c-5.11,0 -7.95,2.89 -7.95,8.81 0,5.89 2.81,8.78 7.95,8.78l6.8 0 0 -3.08 -6.8 0c-3.41,0 -4.87,-1.69 -4.87,-5.71 0,-4.04 1.49,-5.73 4.87,-5.73l6.8 0 0 -3.08 -6.8 0z"/>
  <path id="_1" class="fil0 str0" d="M25.63 0.48c-5.11,0 -7.95,2.92 -7.95,8.83 0,5.89 2.81,8.76 7.95,8.76l2.4 0c5.13,0 7.95,-2.87 7.95,-8.76 0,-5.92 -2.84,-8.83 -7.95,-8.83l-2.4 0zm2.4 3.08c3.39,0 4.85,1.72 4.85,5.73 0,4.04 -1.46,5.71 -4.85,5.71l-2.4 0c-3.41,0 -4.87,-1.67 -4.87,-5.68 0,-4.04 1.49,-5.76 4.87,-5.76l2.4 0z"/>
  <path id="_2" class="fil0 str0" d="M41.06 0.48c-0.99,0 -1.46,0.47 -1.46,1.43l0 14.72c0,0.96 0.47,1.43 1.46,1.43l6.2 0c5.16,0 7.92,-2.87 7.92,-8.78 0,-5.94 -2.79,-8.81 -7.92,-8.81l-6.2 0zm1.62 3.39c0,-0.23 0.1,-0.31 0.34,-0.31l4.25 0c3.41,0 4.85,1.69 4.85,5.71 0,4.04 -1.43,5.73 -4.85,5.73l-4.25 0c-0.23,0 -0.34,-0.08 -0.34,-0.31l0 -10.82z"/>
  <path id="_3" class="fil0 str0" d="M64.05 0.48c-4.14,0 -5.89,1.98 -5.89,4.8 0,1.93 0.83,3.28 2.48,3.96 -1.62,0.68 -2.53,2.03 -2.53,4.04 0,2.74 1.69,4.8 5.86,4.8l8.91 0 0 -3.08 -8.91 0c-1.8,0 -2.66,-0.83 -2.66,-2.22 0,-1.43 0.91,-2.14 2.68,-2.14l8.73 0 0 -2.79 -8.65 0c-1.77,0 -2.68,-0.65 -2.68,-2.08 0,-1.36 0.81,-2.22 2.66,-2.22l8.81 0 0 -3.08 -8.81 0z"/>
  <path id="_4" class="fil0 str0" d="M91.12 0.48c-5.11,0 -7.95,2.89 -7.95,8.81 0,5.89 2.81,8.78 7.95,8.78l6.8 0 0 -3.08 -6.8 0c-3.41,0 -4.87,-1.69 -4.87,-5.71 0,-4.04 1.49,-5.73 4.87,-5.73l6.8 0 0 -3.08 -6.8 0z"/>
  <path id="_5" class="fil0 str0" d="M108.64 0.48c-5.11,0 -7.95,2.92 -7.95,8.83 0,5.89 2.81,8.76 7.95,8.76l2.4 0c5.13,0 7.95,-2.87 7.95,-8.76 0,-5.92 -2.84,-8.83 -7.95,-8.83l-2.4 0zm2.4 3.08c3.39,0 4.85,1.72 4.85,5.73 0,4.04 -1.46,5.71 -4.85,5.71l-2.4 0c-3.41,0 -4.87,-1.67 -4.87,-5.68 0,-4.04 1.49,-5.76 4.87,-5.76l2.4 0z"/>
  <path id="_6" class="fil0 str0" d="M128.5 3.9c0.18,-0.44 0.5,-0.76 0.96,-0.76 0.52,0 0.91,0.39 0.91,1.02l0 10.37c0,2.32 1.3,3.86 3.88,3.86 2.35,0 3.49,-1.25 4.17,-3.26l4.27 -11.23c0.16,-0.44 0.52,-0.76 0.96,-0.76 0.52,0 0.89,0.39 0.89,1.02l0 13.92 3.1 0 0 -14.07c0,-2.29 -1.3,-3.83 -3.91,-3.83 -2.35,0 -3.47,1.25 -4.14,3.26l-4.27 11.23c-0.16,0.44 -0.52,0.73 -0.99,0.73 -0.52,0 -0.89,-0.39 -0.89,-0.99l0 -10.4c0,-2.29 -1.3,-3.83 -3.91,-3.83 -2.35,0 -3.47,1.25 -4.14,3.26l-5.45 14.65 3.28 0 5.26 -14.18z"/>
  <path id="_7" class="fil0 str0" d="M153.36 0.48c-0.99,0 -1.46,0.47 -1.46,1.43l0 14.72c0,0.96 0.47,1.43 1.46,1.43l7.82 0c4.14,0 5.89,-2.03 5.89,-4.85 0,-2.03 -0.94,-3.34 -2.61,-4.01 1.64,-0.65 2.53,-1.88 2.53,-3.91 0,-2.87 -1.75,-4.82 -5.89,-4.82l-7.74 0zm1.56 9.98l6.33 0c1.8,0 2.71,0.78 2.71,2.27 0,1.43 -0.86,2.29 -2.71,2.29l-5.99 0c-0.21,0 -0.34,-0.08 -0.34,-0.29l0 -4.27zm0 -6.65c0,-0.21 0.13,-0.31 0.34,-0.31l5.94 0c1.88,0 2.68,0.91 2.68,2.29 0,1.43 -0.89,2.11 -2.71,2.11l-6.25 0 0 -4.09z"/>
  <path id="_8" class="fil0 str0" d="M177.36 3.92c0.18,-0.42 0.47,-0.6 0.89,-0.6 0.42,0 0.7,0.18 0.86,0.6l5.34 14.15 3.41 0 -5.94 -15.64c-0.63,-1.64 -1.82,-2.27 -3.65,-2.27 -1.85,0 -3.05,0.63 -3.7,2.27l-6.18 15.64 3.39 0 5.58 -14.15z"/>
  <polygon id="_9" class="fil0 str0" points="187.29,0.48 187.29,3.56 192.43,3.56 192.43,18.07 195.53,18.07 195.53,3.56 200.66,3.56 200.66,0.48 "/>
 </g>
</svg>
