<?xml version="1.0" encoding="UTF-8"?>
<!DOCTYPE svg PUBLIC "-//W3C//DTD SVG 1.1//EN" "http://www.w3.org/Graphics/SVG/1.1/DTD/svg11.dtd">
<!-- Creator: CorelDRAW 2021 (64-Bit) -->
<svg xmlns="http://www.w3.org/2000/svg" xml:space="preserve" width="5.09238in" height="0.775055in" version="1.1" style="shape-rendering:geometricPrecision; text-rendering:geometricPrecision; image-rendering:optimizeQuality; fill-rule:evenodd; clip-rule:evenodd"
viewBox="0 0 91.99 14"
 xmlns:xlink="http://www.w3.org/1999/xlink"
 xmlns:xodm="http://www.corel.com/coreldraw/odm/2003">
 <defs>
  <style type="text/css">
   <![CDATA[
    .str0 {stroke:white;stroke-width:0.05;stroke-linecap:round;stroke-linejoin:round;stroke-miterlimit:2.61313}
    .fil1 {fill:none;fill-rule:nonzero}
    .fil0 {fill:#D4E8FF;fill-rule:nonzero}
   ]]>
  </style>
 </defs>
 <g id="Layer_x0020_1">
  <metadata id="CorelCorpID_0Corel-Layer"/>
  <path class="fil0" d="M2.8 2.33l-0.01 0 0 7.68c0,0.7 0.13,1.13 0.39,1.28 0.22,0.13 0.66,0.2 1.31,0.2 0.15,0 0.32,-0 0.49,-0.01l1.38 0 0 2.28 -3.02 0c-0.7,0 -1.3,-0.14 -1.79,-0.42 -0.5,-0.28 -0.88,-0.65 -1.14,-1.11 -0.26,-0.46 -0.39,-0.98 -0.39,-1.55l0 -10.44 6.34 0 0 2.34 -3.56 -0.25z"/>
  <path id="_1" class="fil0" d="M14.63 2.27c0.03,0.09 0.05,0.21 0.07,0.37 0.02,0.16 0.04,0.29 0.04,0.39l0 7.87c0,0.57 -0.13,1.08 -0.4,1.54 -0.26,0.46 -0.64,0.83 -1.14,1.11 -0.5,0.28 -1.09,0.42 -1.8,0.42l-0.93 0c-0.7,0 -1.29,-0.14 -1.79,-0.42 -0.5,-0.27 -0.88,-0.64 -1.14,-1.11 -0.26,-0.46 -0.39,-0.98 -0.39,-1.54l0 -7.82c0,-0.56 0.13,-1.08 0.39,-1.54 0.26,-0.46 0.64,-0.83 1.14,-1.11 0.5,-0.28 1.09,-0.42 1.79,-0.42l0.93 0c0.88,0 1.59,0.21 2.14,0.63 0.55,0.42 0.91,0.96 1.08,1.62zm-2.67 2.31c0,-0.59 -0.02,-1.05 -0.05,-1.37 -0.03,-0.33 -0.12,-0.56 -0.26,-0.69 -0.14,-0.13 -0.38,-0.19 -0.71,-0.19 -0.33,0 -0.57,0.06 -0.72,0.19 -0.14,0.13 -0.23,0.36 -0.26,0.69 -0.03,0.33 -0.05,0.79 -0.05,1.37l0 4.84c0,0.59 0.01,1.05 0.05,1.38 0.03,0.33 0.12,0.55 0.26,0.68 0.14,0.13 0.38,0.2 0.72,0.2 0.34,0 0.58,-0.06 0.72,-0.2 0.14,-0.13 0.23,-0.35 0.25,-0.68 0.03,-0.33 0.04,-0.79 0.04,-1.38l0 -4.84z"/>
  <path id="_2" class="fil0" d="M23.79 3.32l0 7.36c0,0.57 -0.13,1.08 -0.4,1.55 -0.26,0.47 -0.64,0.84 -1.14,1.11 -0.5,0.28 -1.09,0.42 -1.79,0.42l-4.39 0 0 -13.51 4.39 0c0.7,0 1.29,0.14 1.79,0.42 0.5,0.28 0.88,0.65 1.14,1.11 0.26,0.47 0.4,0.98 0.4,1.55zm-4.95 8.16c0.18,0.01 0.34,0.01 0.48,0.01 0.65,0 1.09,-0.07 1.31,-0.2 0.26,-0.15 0.39,-0.56 0.39,-1.23l0 -6.1c0,-0.67 -0.13,-1.08 -0.39,-1.24 -0.22,-0.13 -0.66,-0.2 -1.31,-0.2 -0.14,0 -0.31,0 -0.48,0.01l0 8.95z"/>
  <polygon id="_3" class="fil0" points="32,2.58 27.76,2.33 27.76,7.4 32,7.4 32,9.74 27.76,9.49 27.76,11.67 32,11.41 32,13.75 27.76,13.75 25,13.76 25,9.74 23.97,7.4 25,7.4 25,0.25 32,0.25 "/>
  <path id="_4" class="fil0" d="M40.23 2.33l-0.01 0 0 7.68c0,0.7 0.13,1.13 0.39,1.28 0.22,0.13 0.66,0.2 1.31,0.2 0.15,0 0.32,-0 0.49,-0.01l1.38 0 0 2.28 -3.02 0c-0.7,0 -1.3,-0.14 -1.79,-0.42 -0.5,-0.28 -0.88,-0.65 -1.14,-1.11 -0.26,-0.46 -0.39,-0.98 -0.39,-1.55l0 -10.44 6.34 0 0 2.34 -3.56 -0.25z"/>
  <path id="_5" class="fil0" d="M52.06 2.27c0.03,0.09 0.05,0.21 0.07,0.37 0.02,0.16 0.04,0.29 0.04,0.39l0 7.87c0,0.57 -0.13,1.08 -0.4,1.54 -0.26,0.46 -0.64,0.83 -1.14,1.11 -0.5,0.28 -1.09,0.42 -1.8,0.42l-0.93 0c-0.7,0 -1.29,-0.14 -1.79,-0.42 -0.5,-0.27 -0.88,-0.64 -1.14,-1.11 -0.26,-0.46 -0.39,-0.98 -0.39,-1.54l0 -7.82c0,-0.56 0.13,-1.08 0.39,-1.54 0.26,-0.46 0.64,-0.83 1.14,-1.11 0.5,-0.28 1.09,-0.42 1.79,-0.42l0.93 0c0.88,0 1.59,0.21 2.14,0.63 0.55,0.42 0.91,0.96 1.08,1.62zm-2.67 2.31c0,-0.59 -0.02,-1.05 -0.05,-1.37 -0.03,-0.33 -0.12,-0.56 -0.26,-0.69 -0.14,-0.13 -0.38,-0.19 -0.71,-0.19 -0.33,0 -0.57,0.06 -0.72,0.19 -0.14,0.13 -0.23,0.36 -0.26,0.69 -0.03,0.33 -0.05,0.79 -0.05,1.37l0 4.84c0,0.59 0.01,1.05 0.05,1.38 0.03,0.33 0.12,0.55 0.26,0.68 0.14,0.13 0.38,0.2 0.72,0.2 0.34,0 0.58,-0.06 0.72,-0.2 0.14,-0.13 0.23,-0.35 0.25,-0.68 0.03,-0.33 0.04,-0.79 0.04,-1.38l0 -4.84z"/>
  <polygon id="_6" class="fil0" points="62.02,0.25 65.4,0.25 65.4,13.76 62.63,13.76 62.63,3.08 60.83,5.05 60.83,13.76 58.06,13.76 58.06,5.05 56.27,3.08 56.27,13.76 53.51,13.76 53.51,0.25 56.87,0.25 59.44,2.78 "/>
  <path id="_7" class="fil0" d="M71.39 0.25c0.7,0 1.29,0.14 1.79,0.42 0.5,0.28 0.88,0.65 1.14,1.11 0.26,0.47 0.4,0.98 0.4,1.55l0 2.08c-0.34,0.32 -0.72,0.65 -1.14,0.99 0.42,0.34 0.8,0.68 1.14,1l0 3.29c0,0.57 -0.13,1.08 -0.4,1.55 -0.26,0.47 -0.64,0.84 -1.14,1.11 -0.5,0.28 -1.09,0.42 -1.79,0.42l-4.55 0 0 -13.51 4.55 0zm-1.79 2.28l0 3.73c0.77,-0.52 1.63,-1.17 2.56,-1.94l0 -0.12 -0.01 -0.44c-0.01,-0.59 -0.16,-0.95 -0.45,-1.08 -0.24,-0.11 -0.68,-0.16 -1.32,-0.16 -0.13,0 -0.26,0 -0.41,0.01l-0.37 0zm2.56 5.94c-0.2,-0.17 -0.41,-0.33 -0.61,-0.5 -0.74,0.53 -1.39,0.99 -1.94,1.37l0 2.14 0.68 0c0.4,0 0.73,-0.01 0.99,-0.04 0.27,-0.03 0.47,-0.1 0.61,-0.24 0.14,-0.14 0.22,-0.36 0.24,-0.68 0.03,-0.32 0.04,-0.75 0.04,-1.32l0 -0.74z"/>
  <path id="_8" class="fil0" d="M79.47 0.25l4.55 0 0 13.51 -2.77 0 0 -4.12 -2.33 -0.15 -0.01 0 0 4.27 -2.77 0 0 -4.02 -1.02 -2.34 1.02 0 0 -4.08c0,-0.57 0.13,-1.08 0.4,-1.55 0.26,-0.46 0.64,-0.83 1.14,-1.11 0.49,-0.28 1.09,-0.42 1.8,-0.42zm-0.56 7.16l2.34 0 0 -4.87 -0.01 0c-0.26,-0.01 -0.51,-0.02 -0.72,-0.02 -0.59,0 -0.99,0.05 -1.21,0.17 -0.27,0.14 -0.41,0.56 -0.41,1.24l0 3.48z"/>
  <polygon id="_9" class="fil0" points="91.96,0.25 91.96,2.58 89.76,2.36 89.76,13.76 86.98,13.76 86.98,2.31 84.64,2.58 84.64,0.25 "/>
  <path id="_10" class="fil1 str0" d="M2.8 2.33l-0.01 0 0 7.68c0,0.7 0.13,1.13 0.39,1.28 0.22,0.13 0.66,0.2 1.31,0.2 0.15,0 0.32,-0 0.49,-0.01l1.38 0 0 2.28 -3.02 0c-0.7,0 -1.3,-0.14 -1.79,-0.42 -0.5,-0.28 -0.88,-0.65 -1.14,-1.11 -0.26,-0.46 -0.39,-0.98 -0.39,-1.55l0 -10.44 6.34 0 0 2.34 -3.56 -0.25z"/>
  <path id="_11" class="fil1 str0" d="M14.63 2.27c0.03,0.09 0.05,0.21 0.07,0.37 0.02,0.16 0.04,0.29 0.04,0.39l0 7.87c0,0.57 -0.13,1.08 -0.4,1.54 -0.26,0.46 -0.64,0.83 -1.14,1.11 -0.5,0.28 -1.09,0.42 -1.8,0.42l-0.93 0c-0.7,0 -1.29,-0.14 -1.79,-0.42 -0.5,-0.27 -0.88,-0.64 -1.14,-1.11 -0.26,-0.46 -0.39,-0.98 -0.39,-1.54l0 -7.82c0,-0.56 0.13,-1.08 0.39,-1.54 0.26,-0.46 0.64,-0.83 1.14,-1.11 0.5,-0.28 1.09,-0.42 1.79,-0.42l0.93 0c0.88,0 1.59,0.21 2.14,0.63 0.55,0.42 0.91,0.96 1.08,1.62zm-2.67 2.31c0,-0.59 -0.02,-1.05 -0.05,-1.37 -0.03,-0.33 -0.12,-0.56 -0.26,-0.69 -0.14,-0.13 -0.38,-0.19 -0.71,-0.19 -0.33,0 -0.57,0.06 -0.72,0.19 -0.14,0.13 -0.23,0.36 -0.26,0.69 -0.03,0.33 -0.05,0.79 -0.05,1.37l0 4.84c0,0.59 0.01,1.05 0.05,1.38 0.03,0.33 0.12,0.55 0.26,0.68 0.14,0.13 0.38,0.2 0.72,0.2 0.34,0 0.58,-0.06 0.72,-0.2 0.14,-0.13 0.23,-0.35 0.25,-0.68 0.03,-0.33 0.04,-0.79 0.04,-1.38l0 -4.84z"/>
  <path id="_12" class="fil1 str0" d="M23.79 3.32l0 7.36c0,0.57 -0.13,1.08 -0.4,1.55 -0.26,0.47 -0.64,0.84 -1.14,1.11 -0.5,0.28 -1.09,0.42 -1.79,0.42l-4.39 0 0 -13.51 4.39 0c0.7,0 1.29,0.14 1.79,0.42 0.5,0.28 0.88,0.65 1.14,1.11 0.26,0.47 0.4,0.98 0.4,1.55zm-4.95 8.16c0.18,0.01 0.34,0.01 0.48,0.01 0.65,0 1.09,-0.07 1.31,-0.2 0.26,-0.15 0.39,-0.56 0.39,-1.23l0 -6.1c0,-0.67 -0.13,-1.08 -0.39,-1.24 -0.22,-0.13 -0.66,-0.2 -1.31,-0.2 -0.14,0 -0.31,0 -0.48,0.01l0 8.95z"/>
  <polygon id="_13" class="fil1 str0" points="32,2.58 27.76,2.33 27.76,7.4 32,7.4 32,9.74 27.76,9.49 27.76,11.67 32,11.41 32,13.75 27.76,13.75 25,13.76 25,9.74 23.97,7.4 25,7.4 25,0.25 32,0.25 "/>
  <path id="_14" class="fil1 str0" d="M40.23 2.33l-0.01 0 0 7.68c0,0.7 0.13,1.13 0.39,1.28 0.22,0.13 0.66,0.2 1.31,0.2 0.15,0 0.32,-0 0.49,-0.01l1.38 0 0 2.28 -3.02 0c-0.7,0 -1.3,-0.14 -1.79,-0.42 -0.5,-0.28 -0.88,-0.65 -1.14,-1.11 -0.26,-0.46 -0.39,-0.98 -0.39,-1.55l0 -10.44 6.34 0 0 2.34 -3.56 -0.25z"/>
  <path id="_15" class="fil1 str0" d="M52.06 2.27c0.03,0.09 0.05,0.21 0.07,0.37 0.02,0.16 0.04,0.29 0.04,0.39l0 7.87c0,0.57 -0.13,1.08 -0.4,1.54 -0.26,0.46 -0.64,0.83 -1.14,1.11 -0.5,0.28 -1.09,0.42 -1.8,0.42l-0.93 0c-0.7,0 -1.29,-0.14 -1.79,-0.42 -0.5,-0.27 -0.88,-0.64 -1.14,-1.11 -0.26,-0.46 -0.39,-0.98 -0.39,-1.54l0 -7.82c0,-0.56 0.13,-1.08 0.39,-1.54 0.26,-0.46 0.64,-0.83 1.14,-1.11 0.5,-0.28 1.09,-0.42 1.79,-0.42l0.93 0c0.88,0 1.59,0.21 2.14,0.63 0.55,0.42 0.91,0.96 1.08,1.62zm-2.67 2.31c0,-0.59 -0.02,-1.05 -0.05,-1.37 -0.03,-0.33 -0.12,-0.56 -0.26,-0.69 -0.14,-0.13 -0.38,-0.19 -0.71,-0.19 -0.33,0 -0.57,0.06 -0.72,0.19 -0.14,0.13 -0.23,0.36 -0.26,0.69 -0.03,0.33 -0.05,0.79 -0.05,1.37l0 4.84c0,0.59 0.01,1.05 0.05,1.38 0.03,0.33 0.12,0.55 0.26,0.68 0.14,0.13 0.38,0.2 0.72,0.2 0.34,0 0.58,-0.06 0.72,-0.2 0.14,-0.13 0.23,-0.35 0.25,-0.68 0.03,-0.33 0.04,-0.79 0.04,-1.38l0 -4.84z"/>
  <polygon id="_16" class="fil1 str0" points="62.02,0.25 65.4,0.25 65.4,13.76 62.63,13.76 62.63,3.08 60.83,5.05 60.83,13.76 58.06,13.76 58.06,5.05 56.27,3.08 56.27,13.76 53.51,13.76 53.51,0.25 56.87,0.25 59.44,2.78 "/>
  <path id="_17" class="fil1 str0" d="M71.39 0.25c0.7,0 1.29,0.14 1.79,0.42 0.5,0.28 0.88,0.65 1.14,1.11 0.26,0.47 0.4,0.98 0.4,1.55l0 2.08c-0.34,0.32 -0.72,0.65 -1.14,0.99 0.42,0.34 0.8,0.68 1.14,1l0 3.29c0,0.57 -0.13,1.08 -0.4,1.55 -0.26,0.47 -0.64,0.84 -1.14,1.11 -0.5,0.28 -1.09,0.42 -1.79,0.42l-4.55 0 0 -13.51 4.55 0zm-1.79 2.28l0 3.73c0.77,-0.52 1.63,-1.17 2.56,-1.94l0 -0.12 -0.01 -0.44c-0.01,-0.59 -0.16,-0.95 -0.45,-1.08 -0.24,-0.11 -0.68,-0.16 -1.32,-0.16 -0.13,0 -0.26,0 -0.41,0.01l-0.37 0zm2.56 5.94c-0.2,-0.17 -0.41,-0.33 -0.61,-0.5 -0.74,0.53 -1.39,0.99 -1.94,1.37l0 2.14 0.68 0c0.4,0 0.73,-0.01 0.99,-0.04 0.27,-0.03 0.47,-0.1 0.61,-0.24 0.14,-0.14 0.22,-0.36 0.24,-0.68 0.03,-0.32 0.04,-0.75 0.04,-1.32l0 -0.74z"/>
  <path id="_18" class="fil1 str0" d="M79.47 0.25l4.55 0 0 13.51 -2.77 0 0 -4.12 -2.33 -0.15 -0.01 0 0 4.27 -2.77 0 0 -4.02 -1.02 -2.34 1.02 0 0 -4.08c0,-0.57 0.13,-1.08 0.4,-1.55 0.26,-0.46 0.64,-0.83 1.14,-1.11 0.49,-0.28 1.09,-0.42 1.8,-0.42zm-0.56 7.16l2.34 0 0 -4.87 -0.01 0c-0.26,-0.01 -0.51,-0.02 -0.72,-0.02 -0.59,0 -0.99,0.05 -1.21,0.17 -0.27,0.14 -0.41,0.56 -0.41,1.24l0 3.48z"/>
  <polygon id="_19" class="fil1 str0" points="91.96,0.25 91.96,2.58 89.76,2.36 89.76,13.76 86.98,13.76 86.98,2.31 84.64,2.58 84.64,0.25 "/>
 </g>
</svg>
