<?xml version="1.0" encoding="UTF-8"?>
<!DOCTYPE svg PUBLIC "-//W3C//DTD SVG 1.1//EN" "http://www.w3.org/Graphics/SVG/1.1/DTD/svg11.dtd">
<!-- Creator: CorelDRAW 2021 (64-Bit) -->
<svg xmlns="http://www.w3.org/2000/svg" xml:space="preserve" width="5.94598in" height="8.08002in" version="1.1" style="shape-rendering:geometricPrecision; text-rendering:geometricPrecision; image-rendering:optimizeQuality; fill-rule:evenodd; clip-rule:evenodd"
viewBox="0 0 450.41 612.06"
 xmlns:xlink="http://www.w3.org/1999/xlink"
 xmlns:xodm="http://www.corel.com/coreldraw/odm/2003">
 <defs>
  <style type="text/css">
   <![CDATA[
    .fil35 {fill:none}
    .fil33 {fill:#F9D4B2}
    .fil34 {fill:#F3B28E}
    .fil38 {fill:#BFC1C3}
    .fil37 {fill:#9CA3A3}
    .fil2 {fill:#919191}
    .fil36 {fill:#818686}
    .fil39 {fill:#818686}
    .fil1 {fill:#444545}
    .fil32 {fill:#333333}
    .fil0 {fill:#FEFEFE;fill-rule:nonzero}
    .fil5 {fill:#F9D4B2;fill-rule:nonzero}
    .fil20 {fill:#F4B63D;fill-rule:nonzero}
    .fil6 {fill:#EFA07D;fill-rule:nonzero}
    .fil13 {fill:#F1F1F5;fill-rule:nonzero}
    .fil27 {fill:#E2896A;fill-rule:nonzero}
    .fil28 {fill:#C5B4A2;fill-rule:nonzero}
    .fil19 {fill:#803333;fill-rule:nonzero}
    .fil3 {fill:#545454;fill-rule:nonzero}
    .fil4 {fill:#282929;fill-rule:nonzero}
    .fil17 {fill:#303234;fill-rule:nonzero}
    .fil30 {fill:#303234;fill-rule:nonzero}
    .fil29 {fill:#30363C;fill-rule:nonzero}
    .fil10 {fill:url(#id6)}
    .fil18 {fill:url(#id7)}
    .fil9 {fill:url(#id8)}
    .fil7 {fill:url(#id9)}
    .fil12 {fill:url(#id10)}
    .fil8 {fill:url(#id11)}
    .fil24 {fill:url(#id12)}
    .fil23 {fill:url(#id13)}
    .fil16 {fill:url(#id14)}
    .fil31 {fill:url(#id15)}
    .fil11 {fill:url(#id16)}
    .fil26 {fill:url(#id17)}
    .fil21 {fill:url(#id18)}
    .fil25 {fill:url(#id19)}
    .fil15 {fill:url(#id20)}
    .fil22 {fill:url(#id21)}
    .fil14 {fill:url(#id22)}
   ]]>
  </style>
     <clipPath id="id0">
      <path d="M187.23 543.12l-118.04 -24.96c0,0 -51.14,-5.34 -58.71,36.07 -7.57,41.41 55.1,48.54 55.1,48.54 0,0 46.51,1.91 104.28,2.36 50.25,-6.06 17.36,-62.01 17.36,-62.01z"/>
     </clipPath>
       <mask id="id1">
  <linearGradient id="id2" gradientUnits="userSpaceOnUse" x1="112.97" y1="570.17" x2="106.62" y2="591.33">
   <stop offset="0" style="stop-opacity:0; stop-color:white"/>
   <stop offset="1" style="stop-opacity:1; stop-color:white"/>
  </linearGradient>
        <rect style="fill:url(#id2)" x="-18.99" y="540.24" width="241.16" height="82.57"/>
       </mask>
     <clipPath id="id3">
      <path d="M267.66 540.08l118.04 -24.96c0,0 51.14,-5.34 58.71,36.07 7.57,41.41 -55.1,48.54 -55.1,48.54 0,0 -46.51,1.91 -104.28,2.36 -50.25,-6.06 -17.36,-62.01 -17.36,-62.01z"/>
     </clipPath>
       <mask id="id4">
  <linearGradient id="id5" gradientUnits="userSpaceOnUse" x1="341.93" y1="567.12" x2="348.27" y2="588.29">
   <stop offset="0" style="stop-opacity:0; stop-color:white"/>
   <stop offset="1" style="stop-opacity:1; stop-color:white"/>
  </linearGradient>
        <rect style="fill:url(#id5)" x="232.72" y="537.2" width="241.16" height="82.57"/>
       </mask>
  <linearGradient id="id6" gradientUnits="userSpaceOnUse" x1="232.15" y1="160.75" x2="232.15" y2="43.08">
   <stop offset="0" style="stop-opacity:1; stop-color:#F9D4B2"/>
   <stop offset="1" style="stop-opacity:1; stop-color:#EFA07D"/>
  </linearGradient>
  <linearGradient id="id7" gradientUnits="userSpaceOnUse" x1="232.15" y1="325.69" x2="232.15" y2="376.26">
   <stop offset="0" style="stop-opacity:1; stop-color:#FEFEFE"/>
   <stop offset="1" style="stop-opacity:1; stop-color:#E4EAF1"/>
  </linearGradient>
  <linearGradient id="id8" gradientUnits="userSpaceOnUse" x1="232.15" y1="310.19" x2="232.15" y2="191.85">
   <stop offset="0" style="stop-opacity:1; stop-color:#F4BB96"/>
   <stop offset="1" style="stop-opacity:1; stop-color:#EFA07D"/>
  </linearGradient>
  <linearGradient id="id9" gradientUnits="userSpaceOnUse" xlink:href="#id6" x1="232.15" y1="310.19" x2="232.15" y2="191.85">
  </linearGradient>
  <linearGradient id="id10" gradientUnits="userSpaceOnUse" x1="230.65" y1="23.61" x2="230.65" y2="113.41">
   <stop offset="0" style="stop-opacity:1; stop-color:#33373C"/>
   <stop offset="1" style="stop-opacity:1; stop-color:#434A50"/>
  </linearGradient>
  <linearGradient id="id11" gradientUnits="userSpaceOnUse" xlink:href="#id8" x1="232.15" y1="310.19" x2="232.15" y2="191.85">
  </linearGradient>
  <linearGradient id="id12" gradientUnits="userSpaceOnUse" x1="292.57" y1="402.23" x2="292.57" y2="233.12">
   <stop offset="0" style="stop-opacity:1; stop-color:#B03A3A"/>
   <stop offset="1" style="stop-opacity:1; stop-color:#8F3132"/>
  </linearGradient>
  <linearGradient id="id13" gradientUnits="userSpaceOnUse" x1="171.12" y1="402.23" x2="171.12" y2="233.12">
   <stop offset="0" style="stop-opacity:1; stop-color:#863232"/>
   <stop offset="1" style="stop-opacity:1; stop-color:#6D2D2D"/>
  </linearGradient>
  <linearGradient id="id14" gradientUnits="userSpaceOnUse" x1="230.65" y1="23.61" x2="230.65" y2="113.41">
   <stop offset="0" style="stop-opacity:1; stop-color:#41464C"/>
   <stop offset="1" style="stop-opacity:1; stop-color:#525A60"/>
  </linearGradient>
  <linearGradient id="id15" gradientUnits="userSpaceOnUse" x1="231.85" y1="166.91" x2="231.85" y2="61.27">
   <stop offset="0" style="stop-opacity:1; stop-color:#E0A884"/>
   <stop offset="1" style="stop-opacity:1; stop-color:#D7815F"/>
  </linearGradient>
  <linearGradient id="id16" gradientUnits="userSpaceOnUse" xlink:href="#id15" x1="232.15" y1="160.75" x2="232.15" y2="43.08">
  </linearGradient>
  <linearGradient id="id17" gradientUnits="userSpaceOnUse" xlink:href="#id13" x1="293.21" y1="402.23" x2="293.21" y2="233.12">
  </linearGradient>
  <linearGradient id="id18" gradientUnits="userSpaceOnUse" xlink:href="#id12" x1="171.73" y1="402.23" x2="171.73" y2="233.12">
  </linearGradient>
  <linearGradient id="id19" gradientUnits="userSpaceOnUse" x1="232.15" y1="310.19" x2="232.15" y2="191.86">
   <stop offset="0" style="stop-opacity:1; stop-color:#B98D78"/>
   <stop offset="1" style="stop-opacity:1; stop-color:#B46E57"/>
  </linearGradient>
  <linearGradient id="id20" gradientUnits="userSpaceOnUse" xlink:href="#id14" x1="230.64" y1="23.61" x2="230.64" y2="113.41">
  </linearGradient>
  <linearGradient id="id21" gradientUnits="userSpaceOnUse" xlink:href="#id19" x1="232.15" y1="310.19" x2="232.15" y2="191.85">
  </linearGradient>
  <linearGradient id="id22" gradientUnits="userSpaceOnUse" xlink:href="#id14" x1="230.65" y1="23.61" x2="230.65" y2="113.41">
  </linearGradient>
 </defs>
 <g id="Layer_x0020_1">
  <metadata id="CorelCorpID_0Corel-Layer"/>
  <g id="_2198762439168">
   <path class="fil0" d="M197.32 142.71c6.02,1.28 12.78,6.12 16.24,11.93 -2.45,4.15 -7.64,5.26 -18.39,4.51 -10.6,-4.71 -16.47,-10.72 -16.81,-13.57 2.72,-1.6 10.3,-3.46 18.96,-2.88z"/>
   <g>
    <path class="fil1" d="M198.94 145.79c-4.21,0 -7.62,3.37 -7.62,7.53 0,1.03 0.21,2.01 0.59,2.9 0.12,0.31 0.27,0.62 0.43,0.91l0.04 0.01c1.33,2.22 3.77,3.71 6.57,3.71 2.98,0 5.56,-1.69 6.81,-4.16l0.09 -0.04c0.26,-0.56 0.46,-1.16 0.59,-1.78 0.1,-0.5 0.15,-1.02 0.14,-1.55 -0,-0.05 -0.01,-0.09 -0.01,-0.14 -0.07,-4.1 -3.45,-7.4 -7.62,-7.4z"/>
    <path class="fil2" d="M200.47 145.93c-0.52,-0.11 -1.06,-0.16 -1.61,-0.15 -4.2,0.06 -7.56,3.54 -7.5,7.77 0.02,1.31 0.39,2.52 0.98,3.59 1.18,0.37 2.44,0.7 3.78,0.98 0.76,0.15 1.54,0.29 2.34,0.39 2.33,-0.02 4.94,-0.7 7.39,-1.84 0.26,-0.56 0.46,-1.16 0.59,-1.78 -0.12,0.62 -0.33,1.22 -0.59,1.78 -2.45,1.15 -5.05,1.82 -7.39,1.84 -0.8,-0.11 -1.58,-0.24 -2.34,-0.39 -1.34,-0.27 -2.61,-0.61 -3.78,-0.98 -0.52,-0.95 -0.86,-2.01 -0.95,-3.15 0.12,0.03 0.24,0.05 0.36,0.08 1.4,0.28 2.78,0.44 4.1,0.49 -0.12,-0.33 -0.18,-0.69 -0.19,-1.07 -0.03,-1.84 1.43,-3.35 3.26,-3.37 0.24,-0 0.47,0.02 0.7,0.07 1.49,0.3 2.63,1.62 2.65,3.22 0,0.25 -0.02,0.5 -0.07,0.73 1.81,-0.31 3.31,-0.74 4.34,-1.08 0.01,0.1 0.03,0.19 0.03,0.29 -0.05,-3.68 -2.67,-6.71 -6.11,-7.41z"/>
    <path class="fil3" d="M195.66 153.49c-0.03,-1.84 1.43,-3.35 3.26,-3.37 1.83,-0.03 3.33,1.44 3.35,3.28 0.03,1.84 -1.43,3.35 -3.26,3.38 -1.82,0.02 -3.32,-1.44 -3.35,-3.28z"/>
    <path class="fil0" d="M197.01 150.94c0.32,0.85 -0.26,1.85 -1.3,2.24 -1.03,0.39 -2.13,0.01 -2.45,-0.84 -0.32,-0.85 0.26,-1.85 1.3,-2.24 1.03,-0.39 2.13,-0.01 2.45,0.84z"/>
    <path class="fil4" d="M202.2 154.13c-1.84,0.32 -4,0.53 -6.35,0.43 0.39,1.09 1.32,1.92 2.46,2.15 0.22,0.05 0.46,0.07 0.7,0.06 1.58,-0.02 2.88,-1.15 3.19,-2.64z"/>
   </g>
   <path class="fil0" d="M267.24 142.54c-6.02,1.28 -12.78,6.12 -16.24,11.93 2.45,4.15 7.64,5.26 18.39,4.51 10.6,-4.71 16.47,-10.72 16.81,-13.57 -2.72,-1.6 -10.3,-3.46 -18.96,-2.88z"/>
   <g>
    <path class="fil1" d="M266.3 146.54c-4.21,0 -7.62,3.37 -7.62,7.53 0,1.03 0.21,2.01 0.59,2.9 0.12,0.31 0.27,0.62 0.43,0.91l0.04 0.01c1.33,2.22 3.77,3.71 6.57,3.71 2.98,0 5.56,-1.69 6.81,-4.16l0.09 -0.04c0.26,-0.56 0.46,-1.16 0.59,-1.78 0.1,-0.5 0.15,-1.02 0.14,-1.55 -0,-0.05 -0.01,-0.09 -0.01,-0.14 -0.07,-4.1 -3.45,-7.4 -7.62,-7.4z"/>
    <path class="fil2" d="M267.83 146.67c-0.52,-0.11 -1.06,-0.16 -1.61,-0.15 -4.2,0.06 -7.56,3.54 -7.5,7.77 0.02,1.31 0.39,2.52 0.98,3.59 1.18,0.37 2.44,0.7 3.78,0.98 0.76,0.15 1.54,0.29 2.34,0.39 2.33,-0.02 4.94,-0.7 7.39,-1.84 0.26,-0.56 0.46,-1.16 0.59,-1.78 -0.12,0.62 -0.33,1.22 -0.59,1.78 -2.45,1.15 -5.05,1.82 -7.39,1.84 -0.8,-0.11 -1.58,-0.24 -2.34,-0.39 -1.34,-0.27 -2.61,-0.61 -3.78,-0.98 -0.52,-0.95 -0.86,-2.01 -0.95,-3.15 0.12,0.03 0.24,0.05 0.36,0.08 1.4,0.28 2.78,0.44 4.1,0.49 -0.12,-0.33 -0.18,-0.69 -0.19,-1.07 -0.03,-1.84 1.43,-3.35 3.26,-3.37 0.24,-0 0.47,0.02 0.7,0.07 1.49,0.3 2.63,1.62 2.65,3.22 0,0.25 -0.02,0.5 -0.07,0.73 1.81,-0.31 3.31,-0.74 4.34,-1.08 0.01,0.1 0.03,0.19 0.03,0.29 -0.05,-3.68 -2.67,-6.71 -6.11,-7.41z"/>
    <path class="fil3" d="M263.02 154.23c-0.03,-1.84 1.43,-3.35 3.26,-3.37 1.83,-0.03 3.33,1.44 3.35,3.28 0.03,1.84 -1.43,3.35 -3.26,3.38 -1.82,0.02 -3.32,-1.44 -3.35,-3.28z"/>
    <path class="fil0" d="M264.38 151.68c0.32,0.85 -0.26,1.85 -1.3,2.24 -1.03,0.39 -2.13,0.01 -2.45,-0.84 -0.32,-0.85 0.26,-1.85 1.3,-2.24 1.03,-0.39 2.13,-0.01 2.45,0.84z"/>
    <path class="fil4" d="M269.56 154.87c-1.84,0.32 -4,0.53 -6.35,0.43 0.39,1.09 1.32,1.92 2.46,2.15 0.22,0.05 0.46,0.07 0.7,0.06 1.58,-0.02 2.88,-1.15 3.19,-2.64z"/>
   </g>
   <path class="fil5" d="M302.52 146.5c2.35,-6.58 11.94,-12.72 15.95,-10.38 4.02,2.35 6.25,13.84 4.58,21.09 -1.68,7.25 -8.37,20.3 -10.71,22.87 -2.34,2.56 -11.04,7.81 -16.4,6.36l6.58 -39.94z"/>
   <path class="fil6" d="M304.87 142.46c-1.02,1.28 -1.85,2.64 -2.35,4.03l-6.58 39.94c3.46,0.94 8.3,-0.92 11.94,-3.04l-3.01 -40.93z"/>
   <path class="fil5" d="M161.77 146.5c-2.34,-6.58 -11.94,-12.72 -15.95,-10.38 -4.02,2.35 -6.25,13.84 -4.57,21.09 1.67,7.25 8.36,20.3 10.7,22.87 2.34,2.56 11.05,7.81 16.4,6.36l-6.58 -39.94z"/>
   <path class="fil6" d="M159.43 142.46c1.02,1.28 1.85,2.64 2.34,4.03l6.58 39.94c-3.45,0.94 -8.3,-0.92 -11.93,-3.04l3.01 -40.93z"/>
   <path class="fil7" d="M232.15 417.16c-76.25,0 -139.07,-37.71 -145.32,-45.97 -1.08,-1.43 7.59,-20.08 10.94,-26.77 3.17,-6.35 6.35,-10.09 13.7,-15.97 7.76,8.76 38.84,43.6 50.93,53.23 13.86,11.05 69.75,28.79 69.75,28.79l0 -15.06c-25.5,-22.53 -48.35,-61.5 -60.55,-84.56 32.18,14.65 60.55,22.59 60.55,22.59 0,0 28.37,-7.94 60.55,-22.58 -12.21,23.06 -35.05,62.02 -60.55,84.56l0 15.06c0,0 55.9,-17.74 69.76,-28.79 12.09,-9.63 43.17,-44.48 50.93,-53.23 7.36,5.89 10.53,9.62 13.7,15.97 3.35,6.7 12.03,25.34 10.94,26.77 -6.24,8.26 -69.07,45.97 -145.33,45.97zm0 -99.9c0,0 -30.33,-4.48 -63.84,-12.72 -3.89,-7.6 -6.06,-12.33 -6.06,-12.33 0.05,-0.04 0.1,-0.07 0.15,-0.11 0.01,-0.01 0.02,-0.02 0.03,-0.03 0.04,-0.03 0.08,-0.06 0.12,-0.09 0.01,-0.01 0.03,-0.02 0.04,-0.02 0.04,-0.03 0.08,-0.06 0.12,-0.09 0.01,-0.01 0.02,-0.01 0.03,-0.02 0.04,-0.03 0.08,-0.06 0.12,-0.09 0.01,-0.01 0.02,-0.02 0.03,-0.02 0.04,-0.03 0.08,-0.06 0.12,-0.09 0,-0 0.01,-0.01 0.02,-0.01 0.04,-0.04 0.1,-0.07 0.14,-0.11 0,-0 0,-0 0.01,-0.01 7.94,-5.99 13.25,-11.55 16.76,-17.04 0,0 0,-0 0,-0.01 0.02,-0.03 0.04,-0.06 0.06,-0.09 0,-0.01 0,-0.01 0.01,-0.01 0.02,-0.03 0.04,-0.06 0.06,-0.09 0,-0 0,-0.01 0.01,-0.01 0.02,-0.03 0.04,-0.06 0.05,-0.09 0,-0 0.01,-0.01 0.01,-0.02 0.02,-0.03 0.04,-0.06 0.06,-0.09 0,-0 0,-0.01 0.01,-0.01 0.02,-0.03 0.04,-0.06 0.06,-0.1 0,-0 0,-0.01 0,-0.01 0.04,-0.07 0.09,-0.13 0.13,-0.2 0,-0 0.01,-0.01 0.01,-0.01 0.02,-0.03 0.04,-0.06 0.05,-0.09 0,-0.01 0.01,-0.01 0.01,-0.02 0.01,-0.03 0.03,-0.05 0.05,-0.08 0,-0.01 0.01,-0.02 0.02,-0.03 0.02,-0.03 0.03,-0.05 0.04,-0.07 0,-0.01 0.01,-0.02 0.02,-0.03 0.01,-0.02 0.03,-0.04 0.04,-0.06 0.01,-0.01 0.01,-0.03 0.02,-0.04 0.01,-0.02 0.03,-0.04 0.04,-0.06 0.01,-0.02 0.01,-0.03 0.02,-0.04 0.01,-0.02 0.02,-0.04 0.03,-0.05 0.01,-0.02 0.02,-0.03 0.03,-0.05 0.01,-0.02 0.02,-0.03 0.03,-0.05 0.01,-0.02 0.02,-0.03 0.03,-0.05 0.01,-0.01 0.02,-0.03 0.03,-0.04 0.02,-0.04 0.04,-0.07 0.07,-0.11 0.01,-0.01 0.02,-0.03 0.02,-0.04 0.01,-0.02 0.02,-0.04 0.03,-0.06 0.01,-0.01 0.01,-0.03 0.02,-0.04 0.01,-0.02 0.02,-0.04 0.04,-0.07 0.01,-0.01 0.01,-0.02 0.02,-0.03 0.01,-0.02 0.02,-0.04 0.04,-0.07 0.01,-0.01 0.01,-0.02 0.02,-0.03 0.01,-0.02 0.03,-0.04 0.04,-0.07 0.01,-0.01 0.01,-0.02 0.02,-0.03 0.01,-0.03 0.02,-0.05 0.04,-0.07 0.01,-0.01 0.01,-0.02 0.01,-0.02 0.01,-0.03 0.03,-0.05 0.04,-0.08 0,-0 0,-0.01 0.01,-0.01 4.3,-7.73 5.26,-15.41 5.26,-24.03 -0,-4.12 -0.23,-8.46 -0.41,-13.13 -0.19,-4.68 -0.5,-10.41 -0.9,-16.55 6.21,7.06 12.68,12.05 18.28,16.77 12.44,10.49 21.13,13.84 28.64,13.84 7.52,0 16.2,-3.35 28.63,-13.84 5.6,-4.72 12.08,-9.72 18.28,-16.77 -0.39,6.14 -0.71,11.87 -0.9,16.55 -0.71,17.98 -1.99,31.13 11.01,45.7 0,0 0.01,0 0.01,0.01 0.03,0.03 0.05,0.06 0.08,0.08 0.01,0.01 0.01,0.01 0.01,0.02 0.03,0.03 0.05,0.05 0.07,0.08 0.01,0.01 0.01,0.02 0.02,0.03 0.02,0.03 0.04,0.05 0.07,0.07 0.01,0.01 0.01,0.02 0.02,0.03 0.02,0.02 0.04,0.05 0.07,0.08 0.01,0.01 0.01,0.01 0.02,0.02 0.03,0.03 0.05,0.05 0.07,0.08 0,0 0.01,0.01 0.01,0.01 0.05,0.05 0.1,0.1 0.14,0.15 0.01,0.01 0.02,0.02 0.03,0.03 0.01,0.02 0.03,0.04 0.04,0.05 0.02,0.02 0.03,0.04 0.05,0.05 0.01,0.01 0.03,0.03 0.04,0.04 0.02,0.02 0.04,0.04 0.05,0.06 0.01,0.01 0.03,0.02 0.04,0.04 0.02,0.02 0.04,0.04 0.06,0.06 0.01,0.02 0.02,0.03 0.04,0.04 0.02,0.03 0.04,0.05 0.07,0.07 0.01,0.01 0.02,0.02 0.03,0.03 0.02,0.02 0.05,0.05 0.07,0.08 0.01,0.01 0.01,0.01 0.02,0.02 0.03,0.03 0.06,0.06 0.09,0.1 0,0 0,0 0.01,0.01 2.92,3.08 6.49,6.24 10.86,9.52 0,0 0.01,0 0.01,0.01 0.05,0.03 0.09,0.07 0.14,0.1 0.01,0 0.01,0.01 0.02,0.01 0.04,0.03 0.08,0.07 0.13,0.1 0.01,0 0.01,0.01 0.02,0.02 0.04,0.03 0.08,0.06 0.13,0.09 0.01,0.01 0.02,0.01 0.03,0.02 0.04,0.03 0.08,0.06 0.13,0.1 0.01,0 0.02,0.01 0.03,0.02 0.05,0.04 0.1,0.07 0.15,0.11 0,0 -2.18,4.74 -6.06,12.33 -33.51,8.24 -63.84,12.72 -63.84,12.72z"/>
   <path class="fil8" d="M232.15 333.43c0,0 -28.37,-7.94 -60.55,-22.59 -1.2,-2.26 -2.3,-4.38 -3.28,-6.31 33.51,8.24 63.84,12.72 63.84,12.72 0,0 30.33,-4.48 63.84,-12.72 -0.98,1.93 -2.08,4.04 -3.28,6.31 -32.18,14.65 -60.55,22.58 -60.55,22.58z"/>
   <path class="fil9" d="M260.78 253.37c5.37,-5.95 11.54,-12.23 17.51,-20.91 1.07,-23.35 4.79,-66.77 4.79,-66.77l-101.87 0c0,0 3.72,43.42 4.79,66.77 5.97,8.68 12.13,14.96 17.5,20.91 12.44,13.8 21.13,18.2 28.64,18.2 7.52,0 16.2,-4.4 28.63,-18.2z"/>
   <path class="fil10" d="M232.15 249.14c-7.51,0 -16.2,-3.35 -28.64,-13.84 -5.6,-4.72 -12.08,-9.72 -18.28,-16.77 -6.64,-7.55 -12.98,-17.46 -17.63,-31.94 -0.66,-2.04 -1.28,-4.17 -1.87,-6.4 -2.91,-11.05 -5.14,-21.08 -6.84,-30.43 0,-0 0,0 0,-0l4.92 -26.24c0,0 1.01,-1.04 2.01,-2.25 1.8,2.12 3.8,4.24 4.58,4.24 0.13,0 0.23,-0.06 0.28,-0.2 0.04,-0.24 2.04,-8.49 3.85,-16.01 2.35,3.93 5.02,7.22 7.5,10.22 1.79,-6.88 14.33,-23.61 20.4,-32.12 -0.12,4.14 -0.17,9.77 0.21,13.47 0,0 0.42,-0.33 1.17,-0.94 0.16,1.91 0.37,3.73 0.63,5.23 0,0 18.9,-17.27 29.54,-26.21 -3.28,7.23 -4.89,15.34 -4.89,15.34 0,0 0.68,-0.35 1.87,-0.95 -0.4,2.12 -0.58,3.49 -0.58,3.49 0,0 24.95,-14.86 37.42,-20.72l20.19 14.84c0,0 8.59,27.34 8.7,27.78 0.78,1.67 3.79,4.8 3.79,4.8l4.92 26.25c0,0 0,0 0,0.01 -1.69,9.35 -3.93,19.38 -6.83,30.42 -0.59,2.23 -1.21,4.36 -1.87,6.41 -4.66,14.47 -11,24.38 -17.64,31.93 -6.21,7.06 -12.68,12.05 -18.28,16.77 -12.44,10.49 -21.12,13.84 -28.63,13.84zm35.09 -106.6c-6.02,1.28 -12.78,6.12 -16.24,11.93 2.45,4.15 7.64,5.26 18.39,4.51 10.6,-4.71 16.47,-10.72 16.81,-13.57 -2.72,-1.6 -10.3,-3.46 -18.96,-2.88zm-69.92 0.17c6.02,1.28 12.78,6.12 16.24,11.93 -2.45,4.15 -7.64,5.26 -18.39,4.51 -10.6,-4.71 -16.47,-10.72 -16.81,-13.57 2.72,-1.6 10.3,-3.46 18.96,-2.88z"/>
   <path class="fil11" d="M170.4 125.5c-0.77,0 -2.77,-2.12 -4.58,-4.24 0.73,-0.88 1.46,-1.84 1.79,-2.55 0.06,-0.24 2.6,-8.33 4.91,-15.72 2.09,4.08 4.53,7.54 6.8,10.69 2.34,-7.04 17.07,-23.99 23.32,-31.69 0,0 -0.12,2.27 -0.21,5.39 -6.07,8.51 -18.61,25.24 -20.4,32.12 -2.48,-3 -5.14,-6.28 -7.5,-10.22 -1.81,7.52 -3.81,15.76 -3.85,16.01 -0.05,0.14 -0.15,0.2 -0.28,0.2zm34.04 -20.35c-0.25,-1.49 -0.46,-3.31 -0.63,-5.23 4.78,-3.79 22.92,-18.17 32.08,-24.72 -0.69,1.18 -1.33,2.44 -1.92,3.73 -10.64,8.95 -29.54,26.21 -29.54,26.21zm25.94 -8.33c0,0 0.18,-1.37 0.58,-3.49 6.18,-3.11 26.09,-13.03 36.85,-17.24 -12.47,5.86 -37.42,20.72 -37.42,20.72z"/>
   <path class="fil12" d="M305.5 150.29l-0.1 -0.53 -4.92 -26.25c0,0 -3.01,-3.12 -3.79,-4.8 -0.11,-0.44 -8.7,-27.78 -8.7,-27.78l-20.19 -14.84c-10.75,4.21 -30.67,14.13 -36.85,17.24 -1.2,0.6 -1.87,0.95 -1.87,0.95 0,0 1.61,-8.11 4.89,-15.34 0.58,-1.29 1.22,-2.55 1.92,-3.73 -9.16,6.55 -27.3,20.93 -32.08,24.72 -0.75,0.6 -1.17,0.94 -1.17,0.94 -0.38,-3.7 -0.33,-9.32 -0.21,-13.47 0.09,-3.11 0.21,-5.39 0.21,-5.39 -6.25,7.7 -20.98,24.65 -23.32,31.69 -2.27,-3.15 -4.71,-6.61 -6.8,-10.69 -2.31,7.38 -4.85,15.47 -4.91,15.72 -0.33,0.71 -1.06,1.67 -1.79,2.55 -1,1.2 -2.01,2.25 -2.01,2.25l-4.92 26.24 -0.1 0.54c0,0 -8.48,-13.37 -8.82,-14.38 0,-0.01 -0,-0.01 -0,-0.01 -3.12,-7.95 -9.2,-33.03 -9.28,-34.48 -0.08,-1.45 3.26,-15.79 3.26,-15.79 -4.01,-0.5 -14.28,-4.63 -14.28,-4.63 0,0 9.14,-11.2 15.08,-18.43 -0.01,0.01 -0.02,0.02 -0.03,0.03 12.88,1.14 25.46,1.53 36.62,1.53 23.83,0 41.18,-1.77 41.18,-1.77 -15.3,-4.49 -49.46,-12.09 -75.93,-18.75 -5.37,3.56 -9.39,6.26 -9.56,6.37 0.45,-0.3 27.29,-18.34 35.81,-23.2 8.59,-4.91 16.74,-7.36 16.74,-7.36 0,0 -3.79,-5.69 -6.14,-9.71 10.6,-2 44.52,-5.92 55.01,-7.7 21.19,3.13 32.46,11.16 41.39,18.86 -0.89,-8.37 -1.23,-20.87 -1.23,-20.87 0,0 16.96,19.86 18.64,25.22 1.11,10.15 0.45,13.05 0.45,13.05 0,0 15.51,14.62 16.29,15.62 -0.13,-0.17 -0.7,-0.74 -1.51,-1.54 -16.15,3.85 -31.1,7.44 -39.86,10.01 0,0 17.37,1.77 41.22,1.77 2.15,0 4.35,-0.01 6.59,-0.05 -2.13,-3.58 -4.11,-6.82 -5.45,-8.81 4.59,6.82 16.64,28.18 16.64,28.18 -9.26,-2.12 -12.49,-3.23 -12.49,-3.23 0,0 4.57,19.75 4.49,21.19 -0.08,1.45 -6.16,26.53 -9.28,34.48 -0,0 -0,0.01 -0.01,0.01 -0.33,1.01 -8.82,14.38 -8.82,14.38zm-157.81 -91.29c0.89,-1.08 1.54,-1.86 1.84,-2.21 -0.3,0.35 -0.95,1.13 -1.84,2.21zm-10.65 -9.02zm0 0zm0 0c0,0 0,0 0,0 -0,0 -0,0 -0,0z"/>
   <path class="fil13" d="M314.97 55.27c-0.38,-0.57 -0.71,-1.04 -0.98,-1.38 0.27,0.34 0.6,0.81 0.98,1.38z"/>
   <path class="fil14" d="M313.83 64.13c-23.85,0 -41.22,-1.77 -41.22,-1.77 8.76,-2.57 23.72,-6.16 39.86,-10.01 0.81,0.8 1.38,1.37 1.51,1.54 0.27,0.35 0.6,0.81 0.98,1.38 1.34,1.99 3.32,5.24 5.45,8.81 -2.24,0.03 -4.44,0.05 -6.59,0.05z"/>
   <path class="fil15" d="M144.75 62.57c1.12,-1.36 2.13,-2.59 2.94,-3.57 -0.81,0.98 -1.82,2.21 -2.94,3.57zm-7.72 -12.59l0 0 0 0zm0 0c0,-0 0,-0 0,-0 0,0 0,0 0,0z"/>
   <path class="fil16" d="M181.34 64.13c-11.16,0 -23.74,-0.39 -36.62,-1.53 0.01,-0.01 0.02,-0.02 0.03,-0.03 1.12,-1.36 2.13,-2.59 2.94,-3.57 0.89,-1.08 1.55,-1.86 1.84,-2.21 -8.26,-4.02 -12.5,-6.81 -12.5,-6.81 0,0 0,0 0,0 0,-0 0,-0 0,-0 0.17,-0.11 4.19,-2.81 9.56,-6.37 26.47,6.67 60.62,14.26 75.93,18.75 0,0 -17.35,1.77 -41.18,1.77z"/>
   <path class="fil17" d="M267.8 76.09c0,0 10.88,-10.22 14.53,-14.21 0,0 -5.11,11.98 -10.53,17.15l-4 -2.94z"/>
   <path class="fil17" d="M172.52 103c0,0 -2.65,-7.17 -4.17,-13.89 0,0 0.32,14.99 1.97,20.94l2.2 -7.05z"/>
   <path class="fil18" d="M330.62 309.38c-4.24,-2.95 -9.04,-6.33 -14.46,-10.21 -40.41,17.2 -84.02,26.72 -84.02,26.72 0,0 -43.6,-9.52 -84.01,-26.72 -5.42,3.88 -10.22,7.26 -14.46,10.21l98.46 92.04 98.47 -92.04z"/>
   <path class="fil19" d="M396.01 361.71c-3.55,-7.1 -23.81,-34.92 -42.77,-41.81 -3.65,-2.86 -8.4,-0.68 -14.97,-5.22 -2.3,-1.59 -4.86,-3.35 -7.66,-5.3l-98.47 92.04 -98.46 -92.04c-2.78,1.94 -5.33,3.69 -7.62,5.27 -6.59,4.55 -11.35,7.83 -15,10.69 -8.63,6.76 -28.49,11.8 -45.36,35.79 -13.15,26.3 -57.89,154.04 -65.71,189.86 -0.16,83.74 156.09,51.76 229.09,50.67 75.91,2.37 221.81,29.69 221.3,-44.49 0.74,-0.98 -41.23,-169.14 -54.39,-195.46z"/>
   <path class="fil20" d="M272.31 472.98l0 -84.61 -12.05 0 0 86.51c4.08,-0.48 8.09,-1.26 12.05,-1.91z"/>
   <path class="fil20" d="M191.99 470.81c3.96,0.65 5.54,1.76 9.61,2.24l2.43 -84.68 -12.05 0 0 82.44z"/>
   <path class="fil21" d="M232.15 410.47c0,0 -55.89,-17.74 -69.75,-28.79 -12.09,-9.63 -43.17,-44.47 -50.93,-53.23 -1.14,-1.28 -1.78,-2.01 -1.78,-2.01 0,0 -3,-13.33 3.69,-21.72 6.69,-8.39 13.39,-12.74 18.41,-22.78 5.02,-10.04 14.79,-21.42 24.63,-28.78 9.84,-7.37 29.7,-18.07 29.7,-18.07 0.18,4.67 0.41,9.01 0.41,13.13 0,8.62 -0.96,16.3 -5.26,24.03 5.35,-9.62 5.53,-19.16 5.12,-30.55 -7.21,7.45 -19.33,20.59 -21.8,27.08 -3.56,9.37 -2.34,23.43 -2.34,23.43 0,0 2.17,4.74 6.06,12.33 0.99,1.93 2.09,4.04 3.28,6.31 12.21,23.06 35.05,62.03 60.55,84.56l0 15.06zm-69.74 -118.37c0.01,-0.01 0.02,-0.01 0.03,-0.03 -0.01,0.01 -0.02,0.02 -0.03,0.03zm0.15 -0.11c0.01,-0.01 0.02,-0.02 0.04,-0.02 -0.01,0.01 -0.03,0.02 -0.04,0.02zm0.15 -0.11c0.01,-0.01 0.02,-0.01 0.03,-0.02 -0.01,0.01 -0.02,0.01 -0.03,0.02zm0.15 -0.11c0.01,-0.01 0.02,-0.02 0.03,-0.02 -0.01,0.01 -0.02,0.02 -0.03,0.02zm0.16 -0.12c0.01,-0 0.01,-0.01 0.02,-0.01 -0.01,0 -0.01,0.01 -0.02,0.01zm0.16 -0.12c0,-0 0,-0 0.01,-0.01 -0,0 -0,0 -0.01,0.01zm16.77 -17.04c0,0 0,-0 0,-0.01 0,0 -0,0.01 -0,0.01zm0.07 -0.1c0,-0.01 0,-0.01 0.01,-0.01 -0,0 -0,0.01 -0.01,0.01zm0.07 -0.11c0,-0 0,-0.01 0.01,-0.01 -0,0 -0.01,0.01 -0.01,0.01zm0.06 -0.1c0,-0 0.01,-0.01 0.01,-0.02 -0,0 -0.01,0.01 -0.01,0.02zm0.07 -0.11c0,-0 0,-0.01 0.01,-0.01 -0,0 -0.01,0.01 -0.01,0.01zm0.07 -0.11c0,-0 0,-0.01 0,-0.01 0,0 -0,0.01 -0,0.01zm0.13 -0.21c0,-0 0.01,-0.01 0.01,-0.01 0,0.01 -0,0.01 -0.01,0.01zm0.06 -0.1c0,-0.01 0.01,-0.01 0.01,-0.02 -0,0.01 -0.01,0.01 -0.01,0.02zm0.06 -0.1c0,-0.01 0.01,-0.02 0.02,-0.03 -0.01,0.01 -0.01,0.02 -0.02,0.03zm0.06 -0.1c0,-0.01 0.01,-0.02 0.02,-0.03 -0.01,0.01 -0.01,0.02 -0.02,0.03zm0.06 -0.09c0.01,-0.01 0.01,-0.03 0.02,-0.04 -0.01,0.01 -0.01,0.03 -0.02,0.04zm0.06 -0.1c0.01,-0.02 0.01,-0.03 0.02,-0.04 -0.01,0.01 -0.02,0.02 -0.02,0.04zm0.05 -0.1c0.01,-0.01 0.02,-0.03 0.03,-0.05 -0.01,0.01 -0.02,0.03 -0.03,0.05zm0.06 -0.1c0.01,-0.02 0.02,-0.03 0.03,-0.05 -0.01,0.02 -0.02,0.04 -0.03,0.05zm0.05 -0.09c0.02,-0.04 0.04,-0.08 0.07,-0.11 -0.02,0.04 -0.04,0.07 -0.07,0.11zm0.09 -0.15c0.01,-0.02 0.02,-0.04 0.03,-0.06 -0.01,0.02 -0.02,0.04 -0.03,0.06zm0.05 -0.09c0.01,-0.02 0.02,-0.04 0.04,-0.07 -0.01,0.02 -0.02,0.04 -0.04,0.07zm0.06 -0.1c0.01,-0.02 0.02,-0.04 0.04,-0.07 -0.01,0.02 -0.02,0.04 -0.04,0.07zm0.05 -0.1c0.01,-0.02 0.03,-0.04 0.04,-0.07 -0.01,0.02 -0.03,0.04 -0.04,0.07zm0.05 -0.09c0.01,-0.03 0.02,-0.05 0.04,-0.07 -0.01,0.02 -0.03,0.04 -0.04,0.07zm0.05 -0.09c0.01,-0.03 0.03,-0.05 0.04,-0.08 -0.02,0.03 -0.03,0.05 -0.04,0.08z"/>
   <path class="fil22" d="M162.25 292.2c0.05,-0.04 0.1,-0.07 0.15,-0.11 -0.05,0.04 -0.1,0.07 -0.15,0.11zm0.18 -0.13c0.04,-0.03 0.08,-0.06 0.12,-0.09 -0.04,0.03 -0.08,0.06 -0.12,0.09zm0.16 -0.11c0.04,-0.03 0.08,-0.06 0.12,-0.09 -0.04,0.03 -0.08,0.06 -0.12,0.09zm0.15 -0.11c0.04,-0.03 0.08,-0.06 0.12,-0.09 -0.04,0.03 -0.08,0.06 -0.12,0.09zm0.15 -0.11c0.04,-0.03 0.08,-0.07 0.12,-0.09 -0.04,0.03 -0.08,0.06 -0.12,0.09zm0.14 -0.11c0.05,-0.04 0.09,-0.07 0.14,-0.11 -0.04,0.03 -0.1,0.07 -0.14,0.11zm0.15 -0.11c7.93,-5.99 13.25,-11.55 16.76,-17.04 -3.52,5.49 -8.82,11.05 -16.76,17.04zm16.77 -17.04c0.02,-0.03 0.04,-0.06 0.06,-0.09 -0.02,0.03 -0.04,0.06 -0.06,0.09zm0.07 -0.11c0.02,-0.03 0.04,-0.06 0.06,-0.09 -0.02,0.03 -0.04,0.06 -0.06,0.09zm0.07 -0.1c0.02,-0.03 0.04,-0.06 0.05,-0.09 -0.02,0.03 -0.04,0.06 -0.05,0.09zm0.07 -0.11c0.02,-0.03 0.04,-0.06 0.06,-0.09 -0.02,0.03 -0.04,0.06 -0.06,0.09zm0.07 -0.1c0.02,-0.03 0.04,-0.06 0.06,-0.1 -0.02,0.03 -0.04,0.06 -0.06,0.1zm0.06 -0.11c0.04,-0.07 0.09,-0.13 0.13,-0.2 -0.04,0.07 -0.08,0.14 -0.13,0.2zm0.14 -0.22c0.02,-0.03 0.04,-0.06 0.05,-0.09 -0.02,0.03 -0.04,0.06 -0.05,0.09zm0.07 -0.11c0.01,-0.03 0.03,-0.05 0.05,-0.08 -0.02,0.03 -0.03,0.05 -0.05,0.08zm0.07 -0.11c0.02,-0.03 0.03,-0.05 0.04,-0.07 -0.01,0.02 -0.03,0.05 -0.04,0.07zm0.06 -0.11c0.01,-0.02 0.03,-0.04 0.04,-0.06 -0.01,0.02 -0.03,0.04 -0.04,0.06zm0.06 -0.1c0.01,-0.02 0.03,-0.04 0.04,-0.06 -0.01,0.02 -0.03,0.04 -0.04,0.06zm0.06 -0.1c0.01,-0.02 0.02,-0.04 0.03,-0.05 -0.01,0.02 -0.02,0.04 -0.03,0.05zm0.06 -0.1c0.01,-0.02 0.02,-0.03 0.03,-0.05 -0.01,0.02 -0.02,0.03 -0.03,0.05zm0.06 -0.1c0.01,-0.01 0.02,-0.03 0.03,-0.04 -0.01,0.01 -0.01,0.03 -0.03,0.04zm0.09 -0.15c0.01,-0.01 0.02,-0.03 0.02,-0.04 -0.01,0.01 -0.02,0.03 -0.02,0.04zm0.05 -0.1c0.01,-0.01 0.01,-0.03 0.02,-0.04 -0.01,0.01 -0.02,0.03 -0.02,0.04zm0.06 -0.1c0.01,-0.01 0.01,-0.02 0.02,-0.03 -0.01,0.01 -0.01,0.02 -0.02,0.03zm0.06 -0.1c0.01,-0.01 0.01,-0.02 0.02,-0.03 -0.01,0.01 -0.01,0.02 -0.02,0.03zm0.05 -0.1c0.01,-0.01 0.01,-0.02 0.02,-0.03 -0.01,0.01 -0.01,0.02 -0.02,0.03zm0.05 -0.1c0.01,-0.01 0.01,-0.02 0.01,-0.02 -0,0.01 -0.01,0.02 -0.01,0.02zm0.06 -0.1c0,-0 0,-0.01 0.01,-0.01 -0,0 -0,0.01 -0.01,0.01z"/>
   <path class="fil23" d="M162.25 292.2c-0.01,-0.09 -1.23,-14.06 2.34,-23.43 2.48,-6.5 14.59,-19.63 21.8,-27.08 0.42,11.39 0.24,20.93 -5.12,30.55 -0,0 -0,0.01 -0.01,0.01 -0.02,0.03 -0.03,0.05 -0.04,0.08 -0,0.01 -0.01,0.02 -0.01,0.02 -0.01,0.02 -0.02,0.04 -0.04,0.07 -0.01,0.01 -0.01,0.02 -0.02,0.03 -0.01,0.02 -0.03,0.04 -0.04,0.07 -0.01,0.01 -0.01,0.02 -0.02,0.03 -0.01,0.02 -0.02,0.04 -0.04,0.07 -0.01,0.01 -0.01,0.02 -0.02,0.03 -0.01,0.02 -0.02,0.04 -0.04,0.07 -0.01,0.01 -0.02,0.03 -0.02,0.04 -0.01,0.02 -0.02,0.04 -0.03,0.06 -0.01,0.01 -0.02,0.03 -0.02,0.04 -0.02,0.04 -0.04,0.08 -0.07,0.11 -0.01,0.01 -0.02,0.03 -0.03,0.04 -0.01,0.02 -0.02,0.04 -0.03,0.05 -0.01,0.02 -0.02,0.03 -0.03,0.05 -0.01,0.01 -0.02,0.03 -0.03,0.05 -0.01,0.02 -0.02,0.04 -0.03,0.05 -0.01,0.01 -0.02,0.02 -0.02,0.04 -0.01,0.02 -0.03,0.04 -0.04,0.06 -0.01,0.01 -0.01,0.03 -0.02,0.04 -0.01,0.02 -0.03,0.04 -0.04,0.06 -0.01,0.01 -0.01,0.02 -0.02,0.03 -0.01,0.03 -0.03,0.05 -0.04,0.07 -0.01,0.01 -0.01,0.02 -0.02,0.03 -0.02,0.03 -0.03,0.05 -0.05,0.08 -0,0.01 -0.01,0.01 -0.01,0.02 -0.02,0.03 -0.04,0.06 -0.05,0.09 0,0.01 -0,0.01 -0.01,0.01 -0.04,0.07 -0.08,0.14 -0.13,0.2 0,0 -0,0.01 -0,0.01 -0.02,0.03 -0.04,0.06 -0.06,0.1 -0,0 -0.01,0.01 -0.01,0.01 -0.02,0.03 -0.04,0.06 -0.06,0.09 -0,0 -0.01,0.01 -0.01,0.02 -0.02,0.03 -0.04,0.06 -0.05,0.09 -0,0 -0,0.01 -0.01,0.01 -0.02,0.03 -0.04,0.06 -0.06,0.09 -0,0 -0.01,0.01 -0.01,0.01 -0.02,0.03 -0.04,0.06 -0.06,0.09 -3.52,5.5 -8.83,11.06 -16.77,17.04 -0.05,0.04 -0.1,0.08 -0.15,0.11 -0.01,0 -0.01,0.01 -0.02,0.01 -0.04,0.03 -0.08,0.06 -0.12,0.09 -0.01,0.01 -0.02,0.02 -0.03,0.02 -0.04,0.03 -0.08,0.06 -0.12,0.09 -0.01,0.01 -0.02,0.01 -0.03,0.02 -0.04,0.03 -0.08,0.06 -0.12,0.09 -0.01,0.01 -0.03,0.02 -0.04,0.02 -0.04,0.03 -0.08,0.06 -0.12,0.09 -0.01,0.01 -0.02,0.02 -0.03,0.03 -0.05,0.04 -0.1,0.07 -0.15,0.11z"/>
   <path class="fil24" d="M232.15 410.47l0 -15.06c25.5,-22.53 48.35,-61.5 60.55,-84.56 1.2,-2.27 2.3,-4.38 3.28,-6.31 3.88,-7.6 6.06,-12.33 6.06,-12.33 0,0 1.23,-14.06 -2.34,-23.43 -2.47,-6.5 -14.59,-19.63 -21.8,-27.08 -0.54,14.73 -0.08,26.37 11.28,39.08 -13,-14.56 -11.73,-27.71 -11.01,-45.7 0,0 19.86,10.71 29.71,18.07 9.84,7.36 19.61,18.74 24.63,28.78 5.02,10.04 11.71,14.39 18.41,22.78 6.7,8.39 3.69,21.72 3.69,21.72 0,0 -0.63,0.72 -1.77,2.01 -7.76,8.75 -38.84,43.6 -50.93,53.23 -13.86,11.05 -69.76,28.79 -69.76,28.79zm69.75 -118.37c-0.01,-0.01 -0.02,-0.01 -0.03,-0.02 0.01,0 0.02,0.01 0.03,0.02zm-0.15 -0.11c-0.01,-0.01 -0.02,-0.01 -0.03,-0.02 0.01,0.01 0.01,0.01 0.03,0.02zm-0.15 -0.11c-0.01,-0.01 -0.01,-0.01 -0.02,-0.02 0.01,0 0.01,0.01 0.02,0.02zm-0.15 -0.12c-0.01,-0 -0.01,-0.01 -0.02,-0.01 0.01,0.01 0.01,0.01 0.02,0.01zm-0.16 -0.12c0,-0 -0,-0 -0.01,-0.01 0,0 0.01,0 0.01,0.01zm-10.87 -9.52c-0,-0 -0,-0.01 -0.01,-0.01 0,0 0.01,0 0.01,0.01zm-0.1 -0.1c-0.01,-0.01 -0.01,-0.01 -0.02,-0.02 0.01,0.01 0.01,0.01 0.02,0.02zm-0.1 -0.1c-0.01,-0.01 -0.02,-0.02 -0.03,-0.03 0.01,0.01 0.02,0.02 0.03,0.03zm-0.09 -0.1c-0.02,-0.01 -0.02,-0.02 -0.04,-0.04 0.01,0.02 0.02,0.03 0.04,0.04zm-0.1 -0.1c-0.01,-0.01 -0.03,-0.03 -0.04,-0.04 0.01,0.01 0.03,0.02 0.04,0.04zm-0.1 -0.1c-0.01,-0.01 -0.03,-0.03 -0.04,-0.04 0.01,0.01 0.03,0.03 0.04,0.04zm-0.09 -0.1c-0.01,-0.01 -0.03,-0.03 -0.04,-0.05 0.01,0.02 0.03,0.04 0.04,0.05zm-0.07 -0.08c-0.05,-0.05 -0.1,-0.1 -0.14,-0.15 0.05,0.05 0.1,0.1 0.14,0.15zm-0.15 -0.17c-0.03,-0.03 -0.05,-0.05 -0.07,-0.08 0.03,0.03 0.05,0.05 0.07,0.08zm-0.09 -0.1c-0.03,-0.03 -0.05,-0.05 -0.07,-0.08 0.02,0.02 0.05,0.05 0.07,0.08zm-0.09 -0.1c-0.02,-0.02 -0.04,-0.05 -0.07,-0.07 0.02,0.03 0.04,0.05 0.07,0.07zm-0.09 -0.1c-0.03,-0.03 -0.05,-0.05 -0.07,-0.08 0.03,0.03 0.05,0.05 0.07,0.08zm-0.09 -0.1c-0.03,-0.03 -0.05,-0.05 -0.08,-0.08 0.03,0.03 0.05,0.06 0.08,0.08z"/>
   <path class="fil25" d="M302.04 292.2c-0.05,-0.04 -0.1,-0.07 -0.15,-0.11 0.05,0.04 0.1,0.07 0.15,0.11zm-0.17 -0.13c-0.04,-0.03 -0.08,-0.07 -0.13,-0.1 0.04,0.03 0.08,0.06 0.13,0.1zm-0.15 -0.12c-0.04,-0.03 -0.08,-0.06 -0.13,-0.09 0.04,0.03 0.08,0.06 0.13,0.09zm-0.15 -0.11c-0.04,-0.03 -0.09,-0.07 -0.13,-0.1 0.04,0.03 0.08,0.07 0.13,0.1zm-0.15 -0.11c-0.05,-0.03 -0.09,-0.07 -0.14,-0.1 0.05,0.03 0.09,0.07 0.14,0.1zm-0.15 -0.11c-4.37,-3.28 -7.94,-6.43 -10.86,-9.52 2.92,3.08 6.5,6.24 10.86,9.52zm-10.87 -9.52c-0.03,-0.03 -0.06,-0.07 -0.09,-0.1 0.03,0.03 0.06,0.06 0.09,0.1zm-0.11 -0.12c-0.03,-0.03 -0.05,-0.05 -0.07,-0.08 0.03,0.03 0.05,0.05 0.07,0.08zm-0.1 -0.11c-0.02,-0.02 -0.04,-0.05 -0.07,-0.07 0.02,0.03 0.04,0.05 0.07,0.07zm-0.1 -0.11c-0.02,-0.02 -0.04,-0.04 -0.06,-0.06 0.02,0.02 0.04,0.04 0.06,0.06zm-0.1 -0.1c-0.02,-0.02 -0.04,-0.04 -0.05,-0.06 0.02,0.02 0.04,0.04 0.05,0.06zm-0.1 -0.11c-0.02,-0.02 -0.03,-0.04 -0.05,-0.05 0.02,0.02 0.04,0.04 0.05,0.05zm-0.09 -0.11c-0.01,-0.01 -0.02,-0.02 -0.03,-0.03 0.01,0.01 0.01,0.02 0.03,0.03zm-0.17 -0.18c-0,-0 -0.01,-0.01 -0.01,-0.01 0,0 0.01,0.01 0.01,0.01zm-0.08 -0.09c-0,-0.01 -0.01,-0.01 -0.02,-0.02 0.01,0.01 0.01,0.01 0.02,0.02zm-0.09 -0.1c-0.01,-0.01 -0.02,-0.01 -0.02,-0.03 0.01,0.01 0.01,0.02 0.02,0.03zm-0.09 -0.1c-0.01,-0.01 -0.01,-0.02 -0.02,-0.03 0.01,0.01 0.01,0.02 0.02,0.03zm-0.09 -0.1c-0,-0.01 -0.01,-0.01 -0.01,-0.02 0.01,0.01 0.01,0.01 0.01,0.02zm-0.09 -0.1c0,-0 -0,-0 -0.01,-0.01 0,0 0.01,0 0.01,0.01z"/>
   <path class="fil26" d="M302.04 292.2c-0.05,-0.04 -0.1,-0.07 -0.15,-0.11 -0.01,-0.01 -0.02,-0.01 -0.03,-0.02 -0.04,-0.03 -0.08,-0.07 -0.13,-0.1 -0.01,-0.01 -0.02,-0.01 -0.03,-0.02 -0.04,-0.03 -0.08,-0.06 -0.13,-0.09 -0.01,-0.01 -0.01,-0.01 -0.02,-0.02 -0.04,-0.03 -0.09,-0.07 -0.13,-0.1 -0.01,-0 -0.01,-0.01 -0.02,-0.01 -0.05,-0.03 -0.09,-0.07 -0.14,-0.1 0,-0 -0,-0 -0.01,-0.01 -4.36,-3.28 -7.94,-6.44 -10.86,-9.52 0,-0 -0,-0.01 -0.01,-0.01 -0.03,-0.03 -0.06,-0.06 -0.09,-0.1 -0.01,-0.01 -0.01,-0.01 -0.02,-0.02 -0.03,-0.03 -0.05,-0.05 -0.07,-0.08 -0.01,-0.01 -0.02,-0.02 -0.03,-0.03 -0.02,-0.02 -0.04,-0.05 -0.07,-0.07 -0.02,-0.01 -0.03,-0.02 -0.04,-0.04 -0.02,-0.02 -0.04,-0.04 -0.06,-0.06 -0.01,-0.01 -0.03,-0.03 -0.04,-0.04 -0.02,-0.02 -0.04,-0.04 -0.05,-0.06 -0.01,-0.01 -0.03,-0.03 -0.04,-0.04 -0.01,-0.02 -0.03,-0.04 -0.05,-0.05 -0.01,-0.01 -0.03,-0.03 -0.04,-0.05 -0.01,-0.01 -0.02,-0.01 -0.03,-0.03 -0.05,-0.05 -0.1,-0.1 -0.14,-0.15 -0,-0 -0.01,-0.01 -0.01,-0.01 -0.03,-0.03 -0.05,-0.05 -0.07,-0.08 -0,-0.01 -0.01,-0.01 -0.02,-0.02 -0.02,-0.03 -0.05,-0.05 -0.07,-0.08 -0.01,-0.01 -0.02,-0.01 -0.02,-0.03 -0.02,-0.02 -0.04,-0.05 -0.07,-0.07 -0.01,-0.01 -0.01,-0.02 -0.02,-0.03 -0.03,-0.03 -0.05,-0.05 -0.07,-0.08 -0,-0.01 -0.01,-0.01 -0.01,-0.02 -0.03,-0.03 -0.05,-0.05 -0.08,-0.08 0,-0 -0,-0 -0.01,-0.01 -11.35,-12.72 -11.82,-24.36 -11.28,-39.08 7.21,7.45 19.32,20.59 21.8,27.08 3.57,9.37 2.34,23.43 2.34,23.43z"/>
   <path class="fil27" d="M233.52 202.11c4.42,0 7.96,-4 8.27,-5.99 -1.37,0.59 -5.34,2.29 -8.28,2.29 -2.93,0 -6.91,-1.7 -8.27,-2.29 0.31,2 3.85,5.99 8.28,5.99z"/>
   <path class="fil28" d="M257.92 151.54c-0,-0.01 -0,-0.01 -0,-0.02 -0.15,-0.7 -0.22,-1.39 -0.22,-2.08 0,0.68 0.07,1.38 0.22,2.08 0,0.01 0,0.01 0,0.02z"/>
   <path class="fil29" d="M249.13 155.56c0,0 8.94,-10.46 19.12,-11.85 13.26,-0.32 17.2,2.66 17.2,2.66 0,0.64 -0.32,2.45 -0.32,2.45 0,0 3.36,-3.29 4.69,-5.45 -7.35,-1.95 -14.22,-2.75 -23.22,-1.9 -9,0.85 -17.2,5.43 -17.2,5.43 0,0 5.55,-2.05 10.31,-2.77 -3.08,1.84 -8.94,6.63 -10.57,11.42z"/>
   <path class="fil6" d="M257.77 158.72c0.77,0.42 13.79,2.5 24.15,-7.45 -0.62,2.32 -2.65,4.47 -5.92,6.44 -4.14,2.5 -10.3,3.89 -18.23,1.01z"/>
   <path class="fil6" d="M256.03 140.78c0,0 8.39,-2.87 20.37,-2.08 -6.23,-1.76 -14.7,-0.74 -15.44,-0.69 -0.74,0.05 -3.46,1.33 -4.92,2.77z"/>
   <path class="fil30" d="M289.81 127.42c0,0 -0.43,-0.03 -1.19,-0.07l-0.09 -0.32c0.81,0.23 1.28,0.39 1.28,0.39z"/>
   <path class="fil31" d="M173.89 127.42c0,0 0.81,-0.27 2.17,-0.64 -0.05,0.17 -0.1,0.35 -0.15,0.53 -1.26,0.06 -2.02,0.11 -2.02,0.11z"/>
   <g>
    <path class="fil29" d="M247 128.34c0,0 2.54,4.17 5.35,4.1 2.8,-0.07 18.3,-4.54 23.75,-6.38 5.45,-1.84 10.97,-2.72 12.2,-2.89 -2.87,-0.49 -7.36,-1.8 -13.85,-1.4 -7.39,0.45 -16.31,3.68 -27.44,6.58z"/>
    <path class="fil29" d="M218.35 128.34c0,0 -2.54,4.17 -5.35,4.1 -2.81,-0.07 -18.3,-4.54 -23.75,-6.38 -5.45,-1.84 -10.97,-2.72 -12.2,-2.89 2.87,-0.49 7.36,-1.8 13.85,-1.4 7.39,0.45 16.31,3.68 27.44,6.58z"/>
   </g>
   <path class="fil28" d="M206.63 151.71c0,-0.01 0,-0.01 0,-0.02 0.15,-0.7 0.22,-1.39 0.22,-2.08 -0,0.68 -0.07,1.38 -0.22,2.08 -0,0.01 -0,0.01 -0,0.02z"/>
   <path class="fil29" d="M215.43 155.73c0,0 -8.94,-10.46 -19.12,-11.85 -13.26,-0.32 -17.2,2.66 -17.2,2.66 0,0.64 0.32,2.45 0.32,2.45 0,0 -3.36,-3.29 -4.69,-5.45 7.35,-1.95 14.22,-2.75 23.22,-1.9 9,0.85 17.2,5.43 17.2,5.43 0,0 -5.55,-2.05 -10.31,-2.77 3.08,1.84 8.94,6.63 10.57,11.42z"/>
   <path class="fil6" d="M206.79 158.89c-0.77,0.42 -13.79,2.5 -24.15,-7.45 0.62,2.32 2.65,4.47 5.92,6.44 4.14,2.5 10.3,3.89 18.23,1.01z"/>
   <path class="fil6" d="M208.53 140.96c0,0 -8.39,-2.87 -20.37,-2.08 6.23,-1.76 14.7,-0.74 15.44,-0.69 0.74,0.05 3.46,1.33 4.92,2.77z"/>
   <path class="fil32" d="M238.88 216.45c0,0 -14.84,2.53 -17.39,0 -2.55,-2.53 -3.56,-0.5 -1.8,0.76 1.77,1.26 2.46,3.83 18.27,1.41 0,0 4.45,-0.66 5.97,-2.68 1.51,-2.02 -5.05,0.51 -5.05,0.51z"/>
   <g>
    <path class="fil33" d="M187.23 543.12l-118.04 -24.96c0,0 -51.14,-5.34 -58.71,36.07 -7.57,41.41 55.1,48.54 55.1,48.54 0,0 46.51,1.91 104.28,2.36 50.25,-6.06 17.36,-62.01 17.36,-62.01z"/>
    <g style="clip-path:url(#id0)">
     <g>
      <path id="_1" class="fil34" style="mask:url(#id1)" d="M13.23 540.37c0,0 69.44,36.11 208.82,18.69 0,0 -5.05,78.53 -125.24,61.1 -120.19,-17.42 -115.64,-45.2 -115.64,-45.2l32.07 -34.59z"/>
     </g>
    </g>
    <path class="fil35" d="M187.23 543.12l-118.04 -24.96c0,0 -51.14,-5.34 -58.71,36.07 -7.57,41.41 55.1,48.54 55.1,48.54 0,0 46.51,1.91 104.28,2.36 50.25,-6.06 17.36,-62.01 17.36,-62.01z"/>
    <path class="fil33" d="M267.66 540.08l118.04 -24.96c0,0 51.14,-5.34 58.71,36.07 7.57,41.41 -55.1,48.54 -55.1,48.54 0,0 -46.51,1.91 -104.28,2.36 -50.25,-6.06 -17.36,-62.01 -17.36,-62.01z"/>
    <g style="clip-path:url(#id3)">
     <g>
      <path id="_1_0" class="fil34" style="mask:url(#id4)" d="M441.67 537.33c0,0 -69.44,36.11 -208.82,18.69 0,0 5.05,78.53 125.24,61.1 120.19,-17.42 115.64,-45.2 115.64,-45.2l-32.07 -34.59z"/>
     </g>
    </g>
    <path class="fil35" d="M267.66 540.08l118.04 -24.96c0,0 51.14,-5.34 58.71,36.07 7.57,41.41 -55.1,48.54 -55.1,48.54 0,0 -46.51,1.91 -104.28,2.36 -50.25,-6.06 -17.36,-62.01 -17.36,-62.01z"/>
   </g>
   <g>
    <path class="fil36" d="M74.19 605.71l-15.18 -188.26c0,0 1.51,-7.57 10.6,-7.57 9.09,0 335.41,0 335.41,0 0,0 10.6,-2.27 9.09,15.9 -1.51,18.17 -14.26,175.35 -14.26,175.35 -0.78,4.21 -2.81,9.18 -8.38,10.9l-310.97 0c-2.36,0.34 -4.93,-3.01 -6.31,-6.32z"/>
    <path class="fil37" d="M80.97 612.04l-14.38 -187.01c0,0 -1.51,-12.87 15.9,-12.87 17.41,0 317.24,0 317.24,0 0,0 7.57,0 6.81,15.14 -0.76,15.14 -15.14,184.74 -15.14,184.74l-310.42 0z"/>
    <path class="fil38" d="M69.61 431.84l0 -9.84c0,0 2.27,-6.06 5.3,-6.06 3.03,0 321.02,0 321.02,0 0,0 4.54,2.27 4.54,5.3 0,3.03 0,10.6 0,10.6 0,0 -6.82,-10.6 -10.6,-11.36 -3.79,-0.76 -309.67,0 -309.67,0 0,0 -6.81,0 -10.6,11.36z"/>
    <g>
     <ellipse class="fil39" cx="236.94" cy="517.02" rx="18.93" ry="20.06"/>
     <ellipse class="fil38" cx="236.56" cy="515.88" rx="18.55" ry="18.17"/>
    </g>
   </g>
  </g>
 </g>
</svg>
