<?xml version="1.0" encoding="UTF-8"?>
<!DOCTYPE svg PUBLIC "-//W3C//DTD SVG 1.1//EN" "http://www.w3.org/Graphics/SVG/1.1/DTD/svg11.dtd">
<!-- Creator: CorelDRAW 2021 (64-Bit) -->
<svg xmlns="http://www.w3.org/2000/svg" xml:space="preserve" width="5.77087in" height="7.24607in" version="1.1" style="shape-rendering:geometricPrecision; text-rendering:geometricPrecision; image-rendering:optimizeQuality; fill-rule:evenodd; clip-rule:evenodd"
viewBox="0 0 359.06 450.85"
 xmlns:xlink="http://www.w3.org/1999/xlink"
 xmlns:xodm="http://www.corel.com/coreldraw/odm/2003">
 <defs>
  <style type="text/css">
   <![CDATA[
    .fil8 {fill:none}
    .fil13 {fill:none;fill-rule:nonzero}
    .fil6 {fill:#DEA978}
    .fil24 {fill:#DEA978}
    .fil7 {fill:#C18953}
    .fil25 {fill:#C18953}
    .fil28 {fill:#BFC1C3}
    .fil27 {fill:#9CA3A3}
    .fil1 {fill:#503431}
    .fil26 {fill:#818686}
    .fil29 {fill:#818686}
    .fil0 {fill:#FEFEFE;fill-rule:nonzero}
    .fil23 {fill:#F5893F;fill-rule:nonzero}
    .fil10 {fill:#F4B63D;fill-rule:nonzero}
    .fil19 {fill:#EFA07D;fill-rule:nonzero}
    .fil9 {fill:#E4EAF1;fill-rule:nonzero}
    .fil11 {fill:#DEA978;fill-rule:nonzero}
    .fil22 {fill:#BF6858;fill-rule:nonzero}
    .fil12 {fill:#C18953;fill-rule:nonzero}
    .fil17 {fill:#C5B4A2;fill-rule:nonzero}
    .fil3 {fill:#47302E;fill-rule:nonzero}
    .fil4 {fill:#3C2F2D;fill-rule:nonzero}
    .fil16 {fill:#303234;fill-rule:nonzero}
    .fil20 {fill:#303234;fill-rule:nonzero}
    .fil18 {fill:#30363C;fill-rule:nonzero}
    .fil15 {fill:url(#id8)}
    .fil14 {fill:url(#id9)}
    .fil5 {fill:url(#id10)}
    .fil2 {fill:url(#id11)}
    .fil21 {fill:url(#id12)}
   ]]>
  </style>
    <clipPath id="id0">
     <path d="M140.43 83.38c0,0 -10.95,45.08 -10.19,64.47 0.77,19.38 0.54,38.6 -6.12,44.36 -22.84,16.89 -35.51,24.76 -42.61,30.33 -7.11,5.57 -9.99,8.83 -12.87,14.59 -2.87,5.76 -10.33,21.8 -9.41,23.03 5.38,7.1 59.41,39.54 125,39.54 65.59,0 119.63,-32.44 125,-39.54 0.94,-1.23 -6.53,-17.27 -9.41,-23.03 -2.88,-5.76 -5.76,-9.02 -12.86,-14.59 -7.1,-5.57 -19.77,-13.44 -42.61,-30.33 -11.45,-10.89 -11.43,-21.82 -10.66,-41.21 0.77,-19.39 -5.66,-67.62 -5.66,-67.62l-87.62 0zm13.03 30.68c4.94,1.05 10.5,5.03 13.34,9.8 -2.01,3.41 -6.78,6.86 -15.62,6.25 -8.83,-0.61 -13.02,-11.35 -13.3,-13.69 2.23,-1.31 8.45,-2.84 15.57,-2.36zm58.13 0c-4.94,1.05 -10.5,5.03 -13.34,9.8 2.01,3.41 6.78,6.86 15.62,6.25 8.83,-0.61 13.02,-11.35 13.3,-13.69 -2.23,-1.31 -8.46,-2.84 -15.57,-2.36z"/>
    </clipPath>
    <clipPath id="id1" style="clip-rule:nonzero">
     <path d="M242.17 122.84c2.02,-5.66 10.27,-10.94 13.72,-8.93 3.46,2.02 5.37,11.9 3.93,18.14 -1.44,6.24 -7.19,17.46 -9.21,19.67 -2.02,2.2 -9.51,6.72 -14.1,5.47l5.66 -34.35z"/>
    </clipPath>
    <clipPath id="id2">
     <path d="M154.73 394.4l-99.63 -21.07c0,0 -43.16,-4.51 -49.56,30.45 -6.39,34.95 46.51,40.97 46.51,40.97 0,0 39.25,1.61 88.02,1.99 42.41,-5.11 14.66,-52.34 14.66,-52.34z"/>
    </clipPath>
      <mask id="id3">
  <linearGradient id="id4" gradientUnits="userSpaceOnUse" x1="92.05" y1="417.23" x2="86.69" y2="435.1">
   <stop offset="0" style="stop-opacity:0; stop-color:white"/>
   <stop offset="1" style="stop-opacity:1; stop-color:white"/>
  </linearGradient>
       <rect style="fill:url(#id4)" x="-19.32" y="391.98" width="203.54" height="69.68"/>
      </mask>
    <clipPath id="id5">
     <path d="M206.52 393.97l99.63 -21.07c0,0 43.16,-4.51 49.56,30.45 6.39,34.95 -46.51,40.97 -46.51,40.97 0,0 -39.25,1.61 -88.02,1.99 -42.41,-5.11 -14.66,-52.34 -14.66,-52.34z"/>
    </clipPath>
      <mask id="id6">
  <linearGradient id="id7" gradientUnits="userSpaceOnUse" x1="269.2" y1="416.8" x2="274.56" y2="434.67">
   <stop offset="0" style="stop-opacity:0; stop-color:white"/>
   <stop offset="1" style="stop-opacity:1; stop-color:white"/>
  </linearGradient>
       <rect style="fill:url(#id7)" x="177.03" y="391.55" width="203.54" height="69.68"/>
      </mask>
  <linearGradient id="id8" gradientUnits="userSpaceOnUse" x1="181.64" y1="8.52" x2="181.64" y2="111.14">
   <stop offset="0" style="stop-opacity:1; stop-color:#33373C"/>
   <stop offset="1" style="stop-opacity:1; stop-color:#434A50"/>
  </linearGradient>
  <linearGradient id="id9" gradientUnits="userSpaceOnUse" x1="181.92" y1="135.2" x2="181.92" y2="33.9">
   <stop offset="0" style="stop-opacity:1; stop-color:#DEA978"/>
   <stop offset="1" style="stop-opacity:1; stop-color:#B6755A"/>
  </linearGradient>
  <linearGradient id="id10" gradientUnits="userSpaceOnUse" x1="153.08" y1="122.29" x2="154.85" y2="131.05">
   <stop offset="0" style="stop-opacity:1; stop-color:#835644"/>
   <stop offset="1" style="stop-opacity:1; stop-color:#5C3937"/>
  </linearGradient>
  <linearGradient id="id11" gradientUnits="userSpaceOnUse" xlink:href="#id10" x1="208.29" y1="122.14" x2="210.1" y2="131.06">
  </linearGradient>
  <linearGradient id="id12" gradientUnits="userSpaceOnUse" x1="182.52" y1="134.08" x2="182.52" y2="47.31">
   <stop offset="0" style="stop-opacity:1; stop-color:#E0A884"/>
   <stop offset="1" style="stop-opacity:1; stop-color:#D7815F"/>
  </linearGradient>
 </defs>
 <g id="Layer_x0020_1">
  <metadata id="CorelCorpID_0Corel-Layer"/>
  <g id="_2203845276880">
   <path class="fil0" d="M211.59 114.07c-4.94,1.05 -10.5,5.03 -13.34,9.8 2.01,3.41 6.78,6.86 15.62,6.25 8.83,-0.61 13.02,-11.35 13.3,-13.69 -2.23,-1.31 -8.46,-2.84 -15.57,-2.36z"/>
   <g>
    <g>
     <path class="fil1" d="M209.45 120.11c3.46,0 6.26,2.77 6.26,6.19 0,0.84 -0.17,1.65 -0.48,2.38 -0.1,0.26 -0.22,0.51 -0.35,0.75l-0.03 0.01c-1.09,1.82 -3.1,3.05 -5.39,3.05 -2.45,0 -4.57,-1.39 -5.6,-3.41l-0.07 -0.03c-0.21,-0.46 -0.38,-0.95 -0.48,-1.46 -0.08,-0.41 -0.12,-0.83 -0.12,-1.27 0,-0.04 0.01,-0.08 0.01,-0.11 0.06,-3.37 2.84,-6.08 6.26,-6.08z"/>
     <g>
      <path class="fil2" d="M208.2 120.22c0.43,-0.09 0.87,-0.13 1.33,-0.12 3.45,0.05 6.21,2.91 6.16,6.38 -0.02,1.08 -0.32,2.07 -0.81,2.95 -0.97,0.3 -2.01,0.58 -3.11,0.8 -0.62,0.13 -1.26,0.23 -1.92,0.32 -1.92,-0.02 -4.06,-0.57 -6.07,-1.52 -0.21,-0.46 -0.38,-0.95 -0.48,-1.46 0.1,0.51 0.27,1 0.48,1.46 2.01,0.94 4.15,1.5 6.07,1.52 0.66,-0.09 1.3,-0.2 1.92,-0.32 1.1,-0.22 2.14,-0.5 3.11,-0.8 0.43,-0.78 0.71,-1.65 0.78,-2.59 -0.1,0.02 -0.2,0.04 -0.3,0.06 -1.15,0.23 -2.28,0.36 -3.36,0.4 0.1,-0.27 0.15,-0.57 0.16,-0.88 0.02,-1.51 -1.18,-2.75 -2.68,-2.77 -0.2,-0 -0.39,0.02 -0.58,0.05 -1.23,0.25 -2.16,1.33 -2.18,2.64 -0,0.21 0.02,0.41 0.06,0.6 -1.49,-0.26 -2.72,-0.61 -3.57,-0.89 -0.01,0.08 -0.03,0.15 -0.03,0.24 0.04,-3.02 2.19,-5.51 5.01,-6.08z"/>
      <path class="fil3" d="M212.15 126.44c0.02,-1.51 -1.18,-2.75 -2.68,-2.77 -1.5,-0.02 -2.73,1.18 -2.75,2.69 -0.02,1.51 1.18,2.75 2.68,2.77 1.5,0.02 2.73,-1.19 2.75,-2.7z"/>
      <path class="fil0" d="M211.04 124.34c-0.26,0.7 0.22,1.52 1.07,1.84 0.85,0.32 1.75,0.01 2.01,-0.69 0.26,-0.7 -0.22,-1.52 -1.07,-1.84 -0.85,-0.32 -1.75,-0.01 -2.01,0.69z"/>
     </g>
    </g>
    <path class="fil4" d="M206.78 126.96c1.51,0.26 3.29,0.43 5.22,0.35 -0.32,0.9 -1.08,1.58 -2.02,1.77 -0.18,0.04 -0.38,0.06 -0.57,0.05 -1.3,-0.02 -2.36,-0.95 -2.62,-2.17z"/>
   </g>
   <path class="fil0" d="M153.46 114.07c4.94,1.05 10.5,5.03 13.34,9.8 -2.01,3.41 -6.78,6.86 -15.62,6.25 -8.83,-0.61 -13.02,-11.35 -13.3,-13.69 2.23,-1.31 8.45,-2.84 15.57,-2.36z"/>
   <g>
    <g>
     <path class="fil1" d="M154.22 120.29c3.4,0 6.15,2.72 6.15,6.08 0,0.83 -0.17,1.62 -0.47,2.34 -0.1,0.25 -0.22,0.5 -0.35,0.73l-0.03 0.01c-1.07,1.79 -3.05,3 -5.3,3 -2.41,0 -4.49,-1.37 -5.5,-3.36l-0.07 -0.03c-0.21,-0.45 -0.37,-0.93 -0.47,-1.44 -0.08,-0.4 -0.12,-0.82 -0.12,-1.25 0,-0.04 0.01,-0.07 0.01,-0.11 0.06,-3.31 2.79,-5.98 6.15,-5.98z"/>
     <g>
      <path class="fil5" d="M152.99 120.4c0.42,-0.09 0.86,-0.13 1.3,-0.12 3.4,0.05 6.11,2.86 6.06,6.28 -0.02,1.06 -0.32,2.03 -0.79,2.9 -0.95,0.3 -1.97,0.57 -3.06,0.79 -0.61,0.12 -1.24,0.23 -1.89,0.32 -1.88,-0.02 -3.99,-0.56 -5.97,-1.49 -0.21,-0.45 -0.37,-0.93 -0.47,-1.44 0.1,0.5 0.26,0.98 0.47,1.44 1.98,0.93 4.08,1.47 5.97,1.49 0.65,-0.09 1.28,-0.19 1.89,-0.32 1.08,-0.22 2.11,-0.49 3.06,-0.79 0.42,-0.77 0.69,-1.62 0.76,-2.54 -0.1,0.02 -0.2,0.04 -0.29,0.06 -1.13,0.23 -2.24,0.35 -3.31,0.4 0.09,-0.27 0.15,-0.56 0.15,-0.86 0.02,-1.48 -1.16,-2.7 -2.63,-2.73 -0.19,-0 -0.38,0.02 -0.57,0.05 -1.21,0.24 -2.12,1.31 -2.14,2.6 -0,0.2 0.02,0.4 0.06,0.59 -1.46,-0.25 -2.67,-0.6 -3.51,-0.87 -0.01,0.08 -0.03,0.15 -0.03,0.23 0.04,-2.97 2.15,-5.42 4.93,-5.98z"/>
      <path class="fil3" d="M156.87 126.51c0.02,-1.48 -1.16,-2.7 -2.63,-2.73 -1.47,-0.02 -2.69,1.17 -2.71,2.65 -0.02,1.49 1.16,2.71 2.63,2.73 1.47,0.02 2.69,-1.17 2.71,-2.65z"/>
      <path class="fil0" d="M155.78 124.45c-0.26,0.68 0.21,1.49 1.05,1.81 0.84,0.31 1.72,0.01 1.98,-0.68 0.26,-0.69 -0.21,-1.49 -1.05,-1.81 -0.84,-0.31 -1.72,-0.01 -1.98,0.67z"/>
     </g>
    </g>
    <path class="fil4" d="M151.59 127.03c1.48,0.26 3.23,0.43 5.13,0.34 -0.31,0.88 -1.07,1.55 -1.99,1.74 -0.18,0.04 -0.37,0.05 -0.56,0.05 -1.27,-0.02 -2.33,-0.93 -2.58,-2.13z"/>
   </g>
   <path class="fil6" d="M140.43 83.38c0,0 -10.95,45.08 -10.19,64.47 0.77,19.38 0.54,38.6 -6.12,44.36 -22.84,16.89 -35.51,24.76 -42.61,30.33 -7.11,5.57 -9.99,8.83 -12.87,14.59 -2.87,5.76 -10.33,21.8 -9.41,23.03 5.38,7.1 59.41,39.54 125,39.54 65.59,0 119.63,-32.44 125,-39.54 0.94,-1.23 -6.53,-17.27 -9.41,-23.03 -2.88,-5.76 -5.76,-9.02 -12.86,-14.59 -7.1,-5.57 -19.77,-13.44 -42.61,-30.33 -11.45,-10.89 -11.43,-21.82 -10.66,-41.21 0.77,-19.39 -5.66,-67.62 -5.66,-67.62l-87.62 0zm13.03 30.68c4.94,1.05 10.5,5.03 13.34,9.8 -2.01,3.41 -6.78,6.86 -15.62,6.25 -8.83,-0.61 -13.02,-11.35 -13.3,-13.69 2.23,-1.31 8.45,-2.84 15.57,-2.36zm58.13 0c-4.94,1.05 -10.5,5.03 -13.34,9.8 2.01,3.41 6.78,6.86 15.62,6.25 8.83,-0.61 13.02,-11.35 13.3,-13.69 -2.23,-1.31 -8.46,-2.84 -15.57,-2.36z"/>
   <g style="clip-path:url(#id0)">
    <g>
     <path id="_1" class="fil7" d="M120.43 172.54l128.79 0c0,0 -70.51,108.47 -124.43,10.16 -53.92,-98.31 -4.36,-10.16 -4.36,-10.16z"/>
    </g>
   </g>
   <path class="fil8" d="M140.43 83.38c0,0 -10.95,45.08 -10.19,64.47 0.77,19.38 0.54,38.6 -6.12,44.36 -22.84,16.89 -35.51,24.76 -42.61,30.33 -7.11,5.57 -9.99,8.83 -12.87,14.59 -2.87,5.76 -10.33,21.8 -9.41,23.03 5.38,7.1 59.41,39.54 125,39.54 65.59,0 119.63,-32.44 125,-39.54 0.94,-1.23 -6.53,-17.27 -9.41,-23.03 -2.88,-5.76 -5.76,-9.02 -12.86,-14.59 -7.1,-5.57 -19.77,-13.44 -42.61,-30.33 -11.45,-10.89 -11.43,-21.82 -10.66,-41.21 0.77,-19.39 -5.66,-67.62 -5.66,-67.62l-87.62 0zm13.03 30.68c4.94,1.05 10.5,5.03 13.34,9.8 -2.01,3.41 -6.78,6.86 -15.62,6.25 -8.83,-0.61 -13.02,-11.35 -13.3,-13.69 2.23,-1.31 8.45,-2.84 15.57,-2.36zm58.13 0c-4.94,1.05 -10.5,5.03 -13.34,9.8 2.01,3.41 6.78,6.86 15.62,6.25 8.83,-0.61 13.02,-11.35 13.3,-13.69 -2.23,-1.31 -8.46,-2.84 -15.57,-2.36z"/>
   <path class="fil9" d="M288.4 220.72c-3.14,-2.46 -7.22,-5.27 -12.87,-9.17 -3.46,-2.39 -7.56,-5.21 -12.32,-8.57 -21.78,14.53 -49.18,23.21 -78.96,23.21 -29.78,0 -57.18,-8.68 -78.96,-23.21 -4.75,3.35 -8.83,6.17 -12.28,8.55 -5.67,3.92 -9.77,6.74 -12.91,9.2 -7.42,5.82 -10.45,9.26 -13.5,15.37 -11.31,22.62 -9.95,191.36 -9.3,192.21 6.06,8 76.26,17.33 124.46,20.19 65.29,0 90.48,-3.42 125.64,-5.98 0.64,-0.85 5.83,-183.79 -5.49,-206.42 -3.06,-6.11 -6.08,-9.55 -13.5,-15.37z"/>
   <path class="fil10" d="M117.62 193.02c-3.52,2.52 -9,6.45 -14.08,9.82 -4.75,3.35 -8.83,6.17 -12.28,8.55 -5.67,3.92 -9.76,6.74 -12.9,9.2 -7.42,5.82 -38.56,37.38 -41.62,43.49 -11.31,22.62 -26.42,101.82 -25.78,102.67 -18.42,58.87 -36.16,92.19 147.99,79.04l-38.77 -252.08c0,0 -0.8,-0.51 -2.56,-0.69z"/>
   <path class="fil11" d="M121.11 122.84c-2.02,-5.66 -10.27,-10.94 -13.72,-8.93 -3.46,2.02 -5.38,11.9 -3.94,18.14 1.44,6.24 7.19,17.46 9.21,19.67 2.01,2.2 9.5,6.72 14.11,5.47l-5.66 -34.35z"/>
   <path class="fil12" d="M119.09 119.37c0.88,1.1 1.59,2.27 2.02,3.47l5.66 34.35c-2.98,0.81 -7.14,-0.79 -10.27,-2.61l2.59 -35.21z"/>
   <path class="fil11" d="M242.17 122.84c2.02,-5.66 10.27,-10.94 13.72,-8.93 3.46,2.02 5.37,11.9 3.93,18.14 -1.44,6.24 -7.19,17.46 -9.21,19.67 -2.02,2.2 -9.51,6.72 -14.1,5.47l5.66 -34.35z"/>
   <g style="clip-path:url(#id1)">
    <g>
     <path id="_1_0" class="fil12" d="M249.62 118.59c-0.88,1.1 -7.02,3.05 -7.45,4.25l-5.66 34.35c2.97,0.81 11.46,-1.7 14.58,-3.52l-1.48 -35.08z"/>
    </g>
   </g>
   <path class="fil13" d="M242.17 122.84c2.02,-5.66 10.27,-10.94 13.72,-8.93 3.46,2.02 5.37,11.9 3.93,18.14 -1.44,6.24 -7.19,17.46 -9.21,19.67 -2.02,2.2 -9.51,6.72 -14.1,5.47l5.66 -34.35z"/>
   <path class="fil14" d="M181.64 14.78c-58.24,0 -67.23,39.54 -67.23,62.19 0,22.65 -1,52.79 7.07,83.5 7.42,28.23 16.18,29.74 26.88,38.76 10.69,9.02 26.81,11.9 33.28,11.9 6.46,0 23.52,1.88 34.23,-7.15 10.7,-9.02 21.42,-15.72 28.09,-41.35 8.08,-30.71 4.91,-63.01 4.91,-85.66 0,-22.65 -8.98,-62.19 -67.23,-62.19zm-28.18 99.29c4.94,1.05 10.5,5.03 13.34,9.8 -2.01,3.41 -6.78,6.86 -15.62,6.25 -8.83,-0.61 -13.02,-11.35 -13.3,-13.69 2.23,-1.31 8.45,-2.84 15.57,-2.36zm58.13 0c-4.94,1.05 -10.5,5.03 -13.34,9.8 2.01,3.41 6.78,6.86 15.62,6.25 8.83,-0.61 13.02,-11.35 13.3,-13.69 -2.23,-1.31 -8.46,-2.84 -15.57,-2.36z"/>
   <path class="fil15" d="M249.67 52.06c0,0 5.47,12.95 5.47,18.86 0,5.9 -2.44,38.86 -3.51,43.01 -1.07,4.14 -7.29,13.29 -7.29,13.29l-2.02 -21.91c0,0 -7.78,-9.36 -8.06,-11.51 -0.29,-2.16 0.14,-26.92 0,-28.79 -0.14,-1.87 -2.3,-2.3 -2.3,-2.3 -9.36,2.15 -50.33,4.6 -50.33,4.6 0,0 -40.98,-2.45 -50.33,-4.6 0,0 -2.16,0.43 -2.3,2.3 -0.14,1.87 0.29,26.63 0,28.79 -0.29,2.16 -8.06,11.51 -8.06,11.51l-2.02 21.91c0,0 -6.23,-9.15 -7.29,-13.29 -1.06,-4.15 -3.51,-37.11 -3.51,-43.01 0,-5.9 5.47,-18.86 5.47,-18.86 -2.35,-1.58 -3.7,-6.96 -3.7,-6.96l7.3 2.88c-0.38,-6.53 1.34,-12.1 2.59,-16.79 1.24,-4.71 6.14,-13.63 6.14,-13.63 0,0 3.07,6.04 3.36,9.02 2.69,-4.32 9.98,-11.23 16.12,-14.78 6.14,-3.55 22.26,-10.07 22.26,-10.07 0,0 0.77,4.99 0.49,8.25 5.56,-2.31 16.12,-5.09 23.32,-5.95 7.2,-0.87 19.29,-2.78 21.02,-4.03 0.29,7.01 -0.48,10.08 -0.48,10.08 0,0 11.7,-1.91 15.83,-3.55 4.13,-1.63 5.09,-2.4 5.09,-2.4 0,0 3.17,10.46 1.06,21.02 3.45,-3.07 5.85,-6.24 5.85,-6.24 0,0 7,12.77 7.68,19.67 0.67,6.91 0.57,9.69 0.57,9.69l3.94 -0.58c0,0 -0.78,2.78 -2.36,4.37z"/>
   <path class="fil16" d="M182.89 64.69c0,0 1.06,-2.3 3.11,-5.47 2.03,-3.19 5.1,-7.19 8.55,-10.87 1.82,-1.75 3.5,-3.64 5.36,-5.11 1.85,-1.49 3.51,-2.94 5.11,-3.96 3.22,-2.02 5.42,-3.2 5.42,-3.2 0,0 -1.8,1.8 -4.58,4.26 -0.72,0.58 -1.39,1.35 -2.16,2.09 -0.77,0.74 -1.56,1.52 -2.39,2.34 -0.86,0.77 -1.66,1.67 -2.5,2.54 -0.84,0.88 -1.7,1.76 -2.56,2.66 -0.9,0.85 -1.68,1.82 -2.51,2.71 -0.83,0.89 -1.65,1.77 -2.44,2.62 -1.55,1.74 -3,3.36 -4.24,4.75 -2.51,2.79 -4.19,4.66 -4.19,4.66z"/>
   <path class="fil16" d="M179.1 64.69c0,0 -0.3,-1.66 -0.37,-4.18 -0.05,-1.25 -0.01,-2.71 0.11,-4.28 0.06,-1.57 0.38,-3.22 0.62,-4.87 0.3,-1.65 0.77,-3.28 1.21,-4.79 0.21,-0.76 0.56,-1.46 0.83,-2.13 0.27,-0.67 0.55,-1.3 0.82,-1.87 0.25,-0.58 0.65,-1.05 0.93,-1.48 0.3,-0.42 0.56,-0.79 0.77,-1.09 0.43,-0.6 0.7,-0.91 0.7,-0.91 0,0 -0.09,0.43 -0.3,1.13 -0.1,0.34 -0.23,0.77 -0.37,1.25 -0.12,0.49 -0.34,0.99 -0.46,1.59 -0.23,1.22 -0.58,2.58 -0.92,4.06 -0.23,1.51 -0.65,3.07 -0.89,4.68 -0.3,1.6 -0.6,3.21 -0.88,4.71 -0.3,1.51 -0.58,2.92 -0.82,4.13 -0.54,2.42 -0.97,4.06 -0.97,4.06z"/>
   <path class="fil16" d="M174.01 64.17c0,0 -0.83,-0.66 -1.82,-1.86 -0.99,-1.19 -2.04,-2.94 -2.87,-4.81 -0.35,-0.97 -0.72,-1.92 -0.94,-2.86 -0.2,-0.95 -0.36,-1.84 -0.42,-2.62 -0.01,-1.59 0.16,-2.61 0.16,-2.61 0,0 0.56,0.93 1.15,2.28 0.68,1.34 1.46,3.1 2.21,4.9 0.77,1.79 1.44,3.65 1.89,5.09 0.42,1.45 0.63,2.49 0.63,2.49z"/>
   <path class="fil16" d="M190.2 64.69c0,0 1.68,-0.96 4.28,-2.17 2.61,-1.19 6.15,-2.6 9.68,-3.97 3.55,-1.31 7.17,-2.45 9.95,-3.16 2.78,-0.7 4.7,-1.03 4.7,-1.03 0,0 -1.64,1 -4.21,2.29 -2.57,1.27 -6.08,2.78 -9.65,4.12 -1.8,0.63 -3.58,1.31 -5.3,1.8 -1.72,0.49 -3.33,0.91 -4.73,1.23 -2.8,0.62 -4.72,0.89 -4.72,0.89z"/>
   <path class="fil16" d="M242.46 57.24c-4.96,3.4 -10.49,5.47 -10.49,5.47 0,0 2.16,0.43 2.3,2.3 0.02,0.24 0.02,0.83 0.03,1.71 4.69,-3.36 8.16,-9.48 8.16,-9.48z"/>
   <path class="fil16" d="M128.97 66.33c0.01,-0.63 0.01,-1.12 0.03,-1.31 0.14,-1.87 2.3,-2.3 2.3,-2.3 0,0 -8.83,-4.82 -12.26,-7.56 0,0 4.62,7.17 9.93,11.17z"/>
   <path class="fil12" d="M183.89 163.58c3.63,0 6.54,-3.28 6.8,-4.92 -1.12,0.48 -4.39,1.88 -6.8,1.88 -2.41,0 -5.67,-1.4 -6.8,-1.88 0.25,1.64 3.16,4.92 6.8,4.92z"/>
   <path class="fil17" d="M203.94 121.45c-0,-0 -0,-0.01 -0,-0.02 -0.12,-0.57 -0.18,-1.14 -0.18,-1.71 0,0.56 0.06,1.13 0.18,1.71 0,0 0,0.01 0,0.02z"/>
   <path class="fil18" d="M196.72 124.76c0,0 7.35,-8.6 15.7,-9.73 10.89,-0.26 14.13,2.19 14.13,2.19 0,0.53 -0.26,2.01 -0.26,2.01 0,0 2.76,-2.71 3.85,-4.48 -6.04,-1.6 -11.68,-2.26 -19.07,-1.56 -7.39,0.7 -14.13,4.46 -14.13,4.46 0,0 4.56,-1.68 8.47,-2.27 -2.53,1.51 -7.34,5.45 -8.68,9.38z"/>
   <path class="fil19" d="M203.31 128.41c1.74,0.73 13.22,3.92 19.97,-3.9 -1.58,3.2 -8.91,9.48 -19.97,3.9z"/>
   <path class="fil12" d="M202.38 112.62c0,0 6.89,-2.36 16.73,-1.71 -5.12,-1.44 -12.07,-0.61 -12.68,-0.57 -0.61,0.04 -2.84,1.09 -4.05,2.27z"/>
   <path class="fil18" d="M168.33 124.76c0,0 -7.35,-8.6 -15.71,-9.73 -10.89,-0.26 -14.13,2.19 -14.13,2.19 0,0.53 0.26,2.01 0.26,2.01 0,0 -2.76,-2.71 -3.85,-4.48 6.04,-1.6 11.68,-2.26 19.07,-1.56 7.39,0.7 14.13,4.46 14.13,4.46 0,0 -4.56,-1.68 -8.46,-2.27 2.53,1.51 7.34,5.45 8.68,9.38z"/>
   <path class="fil19" d="M161.74 128.41c-1.74,0.73 -13.22,3.92 -19.97,-3.9 1.58,3.2 8.91,9.48 19.97,3.9z"/>
   <path class="fil12" d="M162.67 112.62c0,0 -6.89,-2.36 -16.73,-1.71 5.12,-1.44 12.07,-0.61 12.69,-0.57 0.61,0.04 2.84,1.09 4.04,2.27z"/>
   <path class="fil20" d="M230.13 101.64c0,0 -0.36,-0.02 -0.98,-0.06l-0.07 -0.26c0.67,0.19 1.05,0.32 1.05,0.32z"/>
   <path class="fil21" d="M134.91 101.64c0,0 0.67,-0.22 1.78,-0.52 -0.04,0.14 -0.08,0.29 -0.13,0.43 -1.03,0.05 -1.66,0.09 -1.66,0.09z"/>
   <path class="fil22" d="M167.86 180.91c-0.53,0.14 -2.71,1.57 -2.85,1.9 -0.14,0.33 3.85,1.52 9.61,1.33 19.41,-0.62 24.35,-1.75 26.59,-2.94 2.24,-1.19 3.56,-1.96 3.08,-2.16 -0.48,-0.19 1.06,-1.87 0.06,-1.59 -1,0.29 -3.23,1.4 -4.99,2.06 -1.76,0.67 -10.95,2.81 -24.51,3.81 -3.09,0.23 -6.9,-0.81 -6.75,-1.19 0.14,-0.38 0.27,-1.37 -0.24,-1.24z"/>
   <g>
    <path class="fil18" d="M194.96 102.4c0,0 2.09,3.42 4.39,3.37 2.3,-0.05 15.03,-3.73 19.51,-5.24 4.47,-1.51 9.01,-2.23 10.02,-2.38 -2.36,-0.4 -6.05,-1.48 -11.38,-1.15 -6.07,0.37 -13.39,3.02 -22.54,5.4z"/>
    <path class="fil18" d="M171.44 102.4c0,0 -2.09,3.42 -4.39,3.37 -2.3,-0.05 -15.03,-3.73 -19.51,-5.24 -4.47,-1.51 -9.01,-2.23 -10.02,-2.38 2.36,-0.4 6.05,-1.48 11.38,-1.15 6.07,0.37 13.39,3.02 22.54,5.4z"/>
   </g>
   <path class="fil23" d="M97 207.43l23.56 194.83c0.8,0.28 1.68,-0.29 2.49,-0.02l-23.92 -196.3c-0.72,0.51 -1.45,1.02 -2.14,1.49z"/>
   <path class="fil10" d="M249.13 193.16c3.52,2.52 9,6.45 14.08,9.82 4.75,3.35 8.83,6.17 12.28,8.55 5.67,3.92 9.76,6.74 12.9,9.2 7.42,5.82 38.56,37.38 41.62,43.49 11.31,22.62 29.37,141.64 28.73,142.49 3.6,33.57 -22.27,49.5 -130.13,39.54l17.96 -252.4c0,0 0.8,-0.51 2.56,-0.69z"/>
   <path class="fil23" d="M269.76 207.56l-23.56 194.83c-0.8,0.28 -1.68,-0.29 -2.49,-0.02l23.92 -196.3c0.72,0.51 1.45,1.02 2.14,1.49z"/>
   <path class="fil24" d="M154.73 394.4l-99.63 -21.07c0,0 -43.16,-4.51 -49.56,30.45 -6.39,34.95 46.51,40.97 46.51,40.97 0,0 39.25,1.61 88.02,1.99 42.41,-5.11 14.66,-52.34 14.66,-52.34z"/>
   <g style="clip-path:url(#id2)">
    <g>
     <path id="_1_1" class="fil25" style="mask:url(#id3)" d="M7.87 392.08c0,0 58.61,30.48 176.25,15.77 0,0 -4.26,66.28 -105.71,51.57 -101.45,-14.71 -97.61,-38.15 -97.61,-38.15l27.07 -29.2z"/>
    </g>
   </g>
   <path class="fil8" d="M154.73 394.4l-99.63 -21.07c0,0 -43.16,-4.51 -49.56,30.45 -6.39,34.95 46.51,40.97 46.51,40.97 0,0 39.25,1.61 88.02,1.99 42.41,-5.11 14.66,-52.34 14.66,-52.34z"/>
   <path class="fil24" d="M206.52 393.97l99.63 -21.07c0,0 43.16,-4.51 49.56,30.45 6.39,34.95 -46.51,40.97 -46.51,40.97 0,0 -39.25,1.61 -88.02,1.99 -42.41,-5.11 -14.66,-52.34 -14.66,-52.34z"/>
   <g style="clip-path:url(#id5)">
    <g>
     <path id="_1_2" class="fil25" style="mask:url(#id6)" d="M353.39 391.65c0,0 -58.61,30.48 -176.25,15.77 0,0 4.26,66.28 105.71,51.57 101.45,-14.71 97.61,-38.15 97.61,-38.15l-27.07 -29.2z"/>
    </g>
   </g>
   <path class="fil8" d="M206.52 393.97l99.63 -21.07c0,0 43.16,-4.51 49.56,30.45 6.39,34.95 -46.51,40.97 -46.51,40.97 0,0 -39.25,1.61 -88.02,1.99 -42.41,-5.11 -14.66,-52.34 -14.66,-52.34z"/>
   <g>
    <path class="fil26" d="M56.67 445.63l-12.47 -154.63c0,0 1.24,-6.22 8.71,-6.22 7.46,0 275.5,0 275.5,0 0,0 8.71,-1.87 7.46,13.06 -1.24,14.93 -11.71,144.03 -11.71,144.03 -0.64,3.46 -2.31,7.54 -6.88,8.96l-255.43 0c-1.94,0.28 -4.05,-2.47 -5.18,-5.2z"/>
    <path class="fil27" d="M62.24 450.83l-11.82 -153.61c0,0 -1.24,-10.57 13.06,-10.57 14.3,0 260.57,0 260.57,0 0,0 6.22,0 5.6,12.44 -0.62,12.44 -12.44,151.74 -12.44,151.74l-254.98 0z"/>
    <path class="fil28" d="M52.91 302.82l0 -8.08c0,0 1.87,-4.97 4.35,-4.97 2.49,0 263.68,0 263.68,0 0,0 3.73,1.86 3.73,4.35 0,2.49 0,8.71 0,8.71 0,0 -5.6,-8.71 -8.71,-9.33 -3.11,-0.62 -254.35,0 -254.35,0 0,0 -5.6,0 -8.71,9.33z"/>
    <g>
     <ellipse class="fil29" cx="190.35" cy="372.78" rx="15.55" ry="16.48"/>
     <ellipse class="fil28" cx="190.04" cy="371.85" rx="15.24" ry="14.93"/>
    </g>
   </g>
  </g>
 </g>
</svg>
