<?xml version="1.0" encoding="UTF-8"?>
<!DOCTYPE svg PUBLIC "-//W3C//DTD SVG 1.1//EN" "http://www.w3.org/Graphics/SVG/1.1/DTD/svg11.dtd">
<!-- Creator: CorelDRAW 2021 (64-Bit) -->
<svg xmlns="http://www.w3.org/2000/svg" xml:space="preserve" width="5.85825in" height="6.94422in" version="1.1" style="shape-rendering:geometricPrecision; text-rendering:geometricPrecision; image-rendering:optimizeQuality; fill-rule:evenodd; clip-rule:evenodd"
viewBox="0 0 316.98 375.74"
 xmlns:xlink="http://www.w3.org/1999/xlink"
 xmlns:xodm="http://www.corel.com/coreldraw/odm/2003">
 <defs>
  <style type="text/css">
   <![CDATA[
    .fil30 {fill:#BFC1C3}
    .fil29 {fill:#9CA3A3}
    .fil1 {fill:#503431}
    .fil28 {fill:#818686}
    .fil31 {fill:#818686}
    .fil0 {fill:#FEFEFE;fill-rule:nonzero}
    .fil7 {fill:#F9D4B2;fill-rule:nonzero}
    .fil8 {fill:#EFA07D;fill-rule:nonzero}
    .fil15 {fill:#F2F9F3;fill-rule:nonzero}
    .fil23 {fill:#F1F1F5;fill-rule:nonzero}
    .fil12 {fill:#E4EAF1;fill-rule:nonzero}
    .fil27 {fill:#E2896A;fill-rule:nonzero}
    .fil14 {fill:#E3EEE5;fill-rule:nonzero}
    .fil26 {fill:#BF6858;fill-rule:nonzero}
    .fil5 {fill:#C5B4A2;fill-rule:nonzero}
    .fil18 {fill:#BFC9C1;fill-rule:nonzero}
    .fil3 {fill:#47302E;fill-rule:nonzero}
    .fil4 {fill:#3C2F2D;fill-rule:nonzero}
    .fil21 {fill:#303234;fill-rule:nonzero}
    .fil17 {fill:#3E9F6E;fill-rule:nonzero}
    .fil20 {fill:#30363C;fill-rule:nonzero}
    .fil16 {fill:#377F59;fill-rule:nonzero}
    .fil25 {fill:url(#id0)}
    .fil24 {fill:url(#id1)}
    .fil13 {fill:url(#id2)}
    .fil10 {fill:url(#id3)}
    .fil9 {fill:url(#id4)}
    .fil6 {fill:url(#id5)}
    .fil11 {fill:url(#id6)}
    .fil2 {fill:url(#id7)}
    .fil19 {fill:url(#id8)}
    .fil22 {fill:url(#id9)}
   ]]>
  </style>
  <linearGradient id="id0" gradientUnits="userSpaceOnUse" x1="159.88" y1="3.82" x2="159.88" y2="88.25">
   <stop offset="0" style="stop-opacity:1; stop-color:#41464C"/>
   <stop offset="1" style="stop-opacity:1; stop-color:#525A60"/>
  </linearGradient>
  <linearGradient id="id1" gradientUnits="userSpaceOnUse" x1="159.87" y1="3.82" x2="159.87" y2="88.25">
   <stop offset="0" style="stop-opacity:1; stop-color:#33373C"/>
   <stop offset="1" style="stop-opacity:1; stop-color:#434A50"/>
  </linearGradient>
  <linearGradient id="id2" gradientUnits="userSpaceOnUse" x1="83.29" y1="242.95" x2="83.29" y2="421.29">
   <stop offset="0" style="stop-opacity:1; stop-color:#3E9F6E"/>
   <stop offset="1" style="stop-opacity:1; stop-color:#387669"/>
  </linearGradient>
  <linearGradient id="id3" gradientUnits="userSpaceOnUse" x1="158.62" y1="186.24" x2="158.62" y2="121.33">
   <stop offset="0" style="stop-opacity:1; stop-color:#F9D4B2"/>
   <stop offset="1" style="stop-opacity:1; stop-color:#EFA07D"/>
  </linearGradient>
  <linearGradient id="id4" gradientUnits="userSpaceOnUse" xlink:href="#id3" x1="158.61" y1="186.24" x2="158.61" y2="121.33">
  </linearGradient>
  <linearGradient id="id5" gradientUnits="userSpaceOnUse" x1="133.42" y1="84.6" x2="135.53" y2="95.02">
   <stop offset="0" style="stop-opacity:1; stop-color:#835644"/>
   <stop offset="1" style="stop-opacity:1; stop-color:#5C3937"/>
  </linearGradient>
  <linearGradient id="id6" gradientUnits="userSpaceOnUse" xlink:href="#id3" x1="159.1" y1="83.97" x2="159.1" y2="-13.35">
  </linearGradient>
  <linearGradient id="id7" gradientUnits="userSpaceOnUse" xlink:href="#id5" x1="182.43" y1="83.51" x2="184.53" y2="93.94">
  </linearGradient>
  <linearGradient id="id8" gradientUnits="userSpaceOnUse" xlink:href="#id2" x1="234.47" y1="242.37" x2="234.47" y2="418.88">
  </linearGradient>
  <linearGradient id="id9" gradientUnits="userSpaceOnUse" x1="158.7" y1="96.01" x2="158.7" y2="20.53">
   <stop offset="0" style="stop-opacity:1; stop-color:#E0A884"/>
   <stop offset="1" style="stop-opacity:1; stop-color:#D7815F"/>
  </linearGradient>
 </defs>
 <g id="Layer_x0020_1">
  <metadata id="CorelCorpID_0Corel-Layer"/>
  <g id="_2163177428624">
   <path class="fil0" d="M183.98 78.6c-4.3,0.91 -9.13,4.37 -11.6,8.52 1.75,2.97 5.9,5.97 13.58,5.44 7.68,-0.53 11.33,-9.87 11.56,-11.91 -1.94,-1.14 -7.35,-2.47 -13.54,-2.05z"/>
   <g>
    <path class="fil1" d="M183.78 81.14c4.04,0 7.32,3.24 7.32,7.24 0,0.99 -0.2,1.93 -0.56,2.79 -0.12,0.3 -0.26,0.59 -0.41,0.87l-0.04 0.01c-1.27,2.13 -3.62,3.56 -6.31,3.56 -2.86,0 -5.34,-1.62 -6.54,-3.99l-0.09 -0.04c-0.25,-0.54 -0.44,-1.11 -0.56,-1.71 -0.1,-0.48 -0.15,-0.98 -0.14,-1.49 0,-0.05 0.01,-0.09 0.01,-0.13 0.07,-3.94 3.32,-7.11 7.32,-7.11z"/>
    <path class="fil2" d="M182.32 81.27c0.5,-0.1 1.02,-0.15 1.55,-0.14 4.04,0.06 7.26,3.4 7.21,7.46 -0.02,1.26 -0.38,2.42 -0.94,3.45 -1.13,0.35 -2.35,0.68 -3.64,0.94 -0.73,0.15 -1.48,0.27 -2.25,0.38 -2.24,-0.02 -4.74,-0.67 -7.09,-1.77 -0.25,-0.54 -0.44,-1.11 -0.56,-1.71 0.12,0.6 0.31,1.17 0.56,1.71 2.35,1.1 4.85,1.75 7.09,1.77 0.77,-0.1 1.52,-0.23 2.25,-0.38 1.29,-0.26 2.5,-0.58 3.64,-0.94 0.5,-0.91 0.83,-1.93 0.91,-3.02 -0.12,0.03 -0.23,0.05 -0.35,0.07 -1.35,0.27 -2.67,0.42 -3.93,0.47 0.11,-0.32 0.18,-0.67 0.18,-1.02 0.03,-1.76 -1.37,-3.22 -3.13,-3.24 -0.23,-0 -0.46,0.02 -0.67,0.06 -1.43,0.29 -2.52,1.56 -2.55,3.09 -0,0.24 0.02,0.48 0.07,0.71 -1.74,-0.3 -3.18,-0.71 -4.17,-1.04 -0.01,0.1 -0.03,0.18 -0.03,0.27 0.05,-3.53 2.56,-6.45 5.86,-7.11z"/>
    <path class="fil3" d="M186.94 88.54c0.03,-1.76 -1.37,-3.22 -3.13,-3.24 -1.75,-0.03 -3.19,1.39 -3.22,3.15 -0.03,1.77 1.37,3.22 3.13,3.24 1.75,0.02 3.19,-1.39 3.22,-3.15z"/>
    <path class="fil0" d="M185.63 86.08c-0.3,0.81 0.25,1.78 1.25,2.15 0.99,0.37 2.05,0.01 2.35,-0.8 0.31,-0.82 -0.25,-1.78 -1.25,-2.15 -0.99,-0.37 -2.05,-0.01 -2.35,0.8z"/>
    <path class="fil4" d="M180.66 89.15c1.77,0.31 3.85,0.51 6.1,0.41 -0.37,1.05 -1.27,1.84 -2.37,2.07 -0.22,0.04 -0.44,0.06 -0.67,0.06 -1.52,-0.02 -2.76,-1.11 -3.06,-2.54z"/>
    <path class="fil5" d="M176.04 87.61c-0,-0 -0,-0.01 -0,-0.01 -0.11,-0.5 -0.16,-0.99 -0.16,-1.48 0,0.49 0.05,0.99 0.16,1.48 0,0 0,0.01 0,0.01z"/>
   </g>
   <path class="fil0" d="M133.42 78.6c4.3,0.91 9.13,4.37 11.6,8.52 -1.75,2.97 -5.9,5.97 -13.58,5.44 -7.68,-0.53 -11.33,-9.87 -11.56,-11.91 1.94,-1.14 7.35,-2.47 13.54,-2.05z"/>
   <g>
    <path class="fil1" d="M134.78 82.23c4.04,0 7.32,3.24 7.32,7.24 0,0.99 -0.2,1.93 -0.56,2.79 -0.12,0.3 -0.26,0.59 -0.41,0.87l-0.04 0.01c-1.27,2.13 -3.62,3.56 -6.31,3.56 -2.86,0 -5.34,-1.62 -6.54,-3.99l-0.09 -0.04c-0.25,-0.54 -0.44,-1.11 -0.56,-1.71 -0.1,-0.48 -0.15,-0.98 -0.14,-1.49 0,-0.05 0.01,-0.09 0.01,-0.13 0.07,-3.94 3.32,-7.11 7.32,-7.11z"/>
    <path class="fil6" d="M133.31 82.36c0.5,-0.1 1.02,-0.15 1.55,-0.14 4.04,0.06 7.26,3.4 7.21,7.46 -0.02,1.26 -0.38,2.42 -0.94,3.45 -1.13,0.35 -2.35,0.68 -3.64,0.94 -0.73,0.15 -1.48,0.27 -2.25,0.38 -2.24,-0.02 -4.74,-0.67 -7.09,-1.77 -0.25,-0.54 -0.44,-1.11 -0.56,-1.71 0.12,0.6 0.31,1.17 0.56,1.71 2.35,1.1 4.85,1.75 7.09,1.77 0.77,-0.1 1.52,-0.23 2.25,-0.38 1.29,-0.26 2.5,-0.58 3.64,-0.94 0.5,-0.91 0.83,-1.93 0.91,-3.02 -0.12,0.03 -0.23,0.05 -0.35,0.07 -1.35,0.27 -2.67,0.42 -3.93,0.47 0.11,-0.32 0.18,-0.67 0.18,-1.02 0.03,-1.76 -1.37,-3.22 -3.13,-3.24 -0.23,-0 -0.46,0.02 -0.67,0.06 -1.43,0.29 -2.52,1.56 -2.55,3.09 -0,0.24 0.02,0.48 0.07,0.71 -1.74,-0.3 -3.18,-0.71 -4.17,-1.04 -0.01,0.1 -0.03,0.18 -0.03,0.27 0.05,-3.53 2.56,-6.45 5.86,-7.11z"/>
    <path class="fil3" d="M137.93 89.62c0.03,-1.76 -1.37,-3.22 -3.13,-3.24 -1.75,-0.03 -3.19,1.39 -3.22,3.15 -0.03,1.77 1.37,3.22 3.13,3.24 1.75,0.02 3.19,-1.39 3.22,-3.15z"/>
    <path class="fil0" d="M136.63 87.17c-0.3,0.81 0.25,1.78 1.25,2.15 0.99,0.37 2.05,0.01 2.35,-0.8 0.3,-0.82 -0.25,-1.78 -1.25,-2.15 -0.99,-0.37 -2.05,-0.01 -2.35,0.8z"/>
    <path class="fil4" d="M131.65 90.23c1.77,0.31 3.85,0.51 6.1,0.41 -0.37,1.05 -1.27,1.84 -2.37,2.07 -0.22,0.04 -0.44,0.06 -0.67,0.06 -1.52,-0.02 -2.76,-1.11 -3.06,-2.54z"/>
   </g>
   <path class="fil7" d="M208.44 86.31c1.66,-4.66 8.45,-9 11.3,-7.34 2.84,1.66 4.42,9.79 3.24,14.93 -1.18,5.13 -5.92,14.37 -7.58,16.19 -1.66,1.81 -7.82,5.53 -11.61,4.5l4.66 -28.28z"/>
   <path class="fil8" d="M210.1 83.46c-0.72,0.9 -1.31,1.87 -1.66,2.85l-4.66 28.28c2.45,0.66 5.87,-0.65 8.45,-2.15l-2.13 -28.97z"/>
   <path class="fil7" d="M108.8 86.31c-1.66,-4.66 -8.45,-9 -11.3,-7.34 -2.85,1.66 -4.42,9.79 -3.24,14.93 1.19,5.13 5.92,14.37 7.58,16.19 1.66,1.81 7.82,5.53 11.61,4.5l-4.66 -28.28z"/>
   <path class="fil8" d="M107.14 83.46c0.72,0.9 1.31,1.87 1.66,2.85l4.66 28.28c-2.45,0.66 -5.87,-0.65 -8.45,-2.15l2.13 -28.97z"/>
   <path class="fil9" d="M122.56 99.9c0,0 2.85,33.17 3.47,49.13 0.63,15.96 1.9,26.54 -16.9,40.45 -18.8,13.9 -29.23,20.38 -35.07,24.96 -5.85,4.58 -8.22,7.26 -10.59,12 -2.37,4.74 -8.51,17.94 -7.74,18.96 4.43,5.84 48.9,32.54 102.89,32.54 53.99,0 98.46,-26.7 102.89,-32.54 0.77,-1.02 -5.37,-14.22 -7.74,-18.96 -2.37,-4.74 -4.74,-7.42 -10.58,-12 -5.85,-4.59 -16.27,-11.06 -35.07,-24.96 -18.8,-13.91 -17.54,-24.49 -16.91,-40.45 0.63,-15.96 3.48,-49.13 3.48,-49.13l-72.12 0z"/>
   <path class="fil10" d="M178.9 161.98c3.8,-4.21 8.16,-8.66 12.39,-14.81 0.76,-16.53 3.4,-47.27 3.4,-47.27l-72.12 0c0,0 2.63,30.74 3.39,47.27 4.23,6.15 8.59,10.6 12.39,14.81 8.81,9.77 14.95,12.88 20.28,12.88 5.32,0 11.46,-3.11 20.27,-12.88z"/>
   <path class="fil11" d="M158.9 158.52c-5.32,0 -11.47,-2.37 -20.28,-9.8 -8.21,-6.92 -19.05,-14.65 -25.43,-34.48 -0.46,-1.44 -0.91,-2.96 -1.32,-4.54 -6.82,-25.88 -3.11,-19.46 -2.4,-49.08 0.04,-1.7 6.38,-5.95 6.35,-7.6 16.28,-34.2 46.52,-27.78 62.95,-27.78 0.03,0 15.49,3.08 15.51,3.07 0.29,-0.23 12.65,11.36 13.35,14.97 0.27,1.39 2.27,47.03 2.61,47.03 0.04,0 0.08,-0.01 0.13,-0.04 -1.15,6.02 -2.6,12.43 -4.44,19.43 -0.42,1.58 -0.86,3.09 -1.32,4.54 -6.38,19.83 -17.22,27.56 -25.43,34.48 -8.81,7.43 -14.96,9.8 -20.27,9.8zm-25.48 -79.91c4.3,0.91 9.13,4.37 11.6,8.52 -1.75,2.97 -5.9,5.97 -13.58,5.44 -7.68,-0.53 -11.33,-9.87 -11.56,-11.91 1.94,-1.14 7.35,-2.47 13.54,-2.05zm50.56 0c-4.3,0.91 -9.13,4.37 -11.6,8.52 1.75,2.97 5.9,5.97 13.58,5.44 7.68,-0.53 11.33,-9.87 11.56,-11.91 -1.94,-1.14 -7.35,-2.47 -13.54,-2.05z"/>
   <path class="fil12" d="M255.46 225.59c-2.52,-5.02 -5.01,-7.86 -11.11,-12.65 -2.58,-2.03 -5.94,-4.34 -10.6,-7.55 -5.74,-3.96 -13.59,-9.38 -23.89,-16.99 -12.8,22.77 -31.02,37.02 -51.24,37.02 -20.22,0 -38.44,-14.25 -51.24,-37.02 -10.29,7.59 -18.13,13 -23.87,16.96 -4.67,3.22 -8.04,5.55 -10.62,7.57 -6.11,4.78 -8.6,7.63 -11.11,12.65 -8.5,17 28.33,129.29 27.76,149.43l149.84 0.62c3.25,-3.8 22.21,-137.78 16.08,-150.04z"/>
   <path class="fil13" d="M109.78 186.57c-0.58,0.46 -0.29,1.37 -0.92,1.83 -10.61,7.84 -18.98,13.37 -24.85,17.42 -4.67,3.22 -7.84,5.64 -10.43,7.66 -6.1,4.78 -12.37,11.26 -14.89,16.29 -10.38,7.86 -40.72,68.34 -38.07,105.24 2.27,31.64 35.83,41.01 47.42,40.72l77.7 0 0 -151.47c0,-3.44 -0.35,-5.69 -1.54,-6.63 -1.08,-0.86 -29.42,-26.53 -34.43,-31.06z"/>
   <path class="fil14" d="M67.58 235.29c2.53,-5.71 8.45,-10.74 13.04,-13.59 3.07,-1.9 24.88,-16.68 38.97,-26.25 -4.5,-4.07 -8.27,-7.48 -9.81,-8.88 -0.58,0.46 -1.14,0.91 -1.77,1.38 -10.6,7.84 -18.63,13.38 -24.49,17.42 -4.67,3.22 -8.04,5.55 -10.62,7.57 -6.11,4.78 -18.44,10.91 -23.06,15.32 -11.2,11.98 -43.31,64.91 -49.05,100.36 -8.47,52.33 54.96,46.39 65.8,47.11l1.16 -19.23c-17.27,1.05 -42.63,5.57 -42.51,-19.16 0.16,-32.68 38.17,-102.54 42.35,-102.06z"/>
   <path class="fil14" d="M127.64 170.45c-1.4,-1.3 -2.31,-2.14 -2.31,-2.14 0,0 0.99,-5.47 0.99,-9.92 0,-4.45 -0.41,-12.09 -0.41,-12.09 0,0 -7.01,5.1 -10.51,8 -3.49,2.91 -4.62,5.33 -4.62,8.77 0,3.44 -1.91,23.4 -1.93,24.23 -0.03,0.83 0.57,2.08 1.64,3.44 0.74,0.94 3.08,6.96 12.06,15.09 0,-9.34 0,-28.3 0,-30.96 0,-2.83 1.51,-4.64 5.08,-4.41z"/>
   <path class="fil15" d="M127.64 170.45c-1.4,-1.3 -2.31,-2.14 -2.31,-2.14 0,0 0.99,-5.47 0.99,-9.92 0,-4.45 -0.41,-12.09 -0.41,-12.09 0,0 -7.01,5.1 -10.51,8 -0.77,0.64 -1.41,1.26 -1.96,1.87 -0.85,2.72 -0.3,5.2 0.72,6.84 1.36,2.19 4.74,6.16 8.76,9.77l0 0c0.63,-1.58 2.12,-2.49 4.71,-2.33z"/>
   <path class="fil16" d="M143.97 213.72c0,-1.66 0,-22.28 0,-24.17 0,-1.9 -0.81,-4.62 -2.42,-6.16 -1.21,-1.16 -9.72,-9.06 -13.9,-12.94 -3.57,-0.22 -5.08,1.59 -5.08,4.41 0,2.66 0,21.62 0,30.96 4.03,3.64 9.39,7.71 16.55,11.93 0,0 2.01,0 3.56,0 1.54,0 1.3,-2.37 1.3,-4.03z"/>
   <path class="fil17" d="M143.97 189.56c0,-1.9 -0.81,-4.62 -2.42,-6.16 -1.21,-1.16 -9.72,-9.06 -13.9,-12.94 -2.59,-0.16 -4.08,0.75 -4.71,2.33 1.9,1.88 11,10.83 12.9,12.67 2.13,2.05 2.84,3.71 2.84,7.27 0,2.93 0,19.16 0,24.78l0.43 0.26c0,0 2.01,0 3.56,0 1.54,0 1.3,-2.37 1.3,-4.03 0,-1.66 0,-22.28 0,-24.17z"/>
   <path class="fil18" d="M125.33 168.31c0,0 0.99,-3.16 0.99,-9.92 0,-1.81 -0.07,-4.17 -0.15,-6.31 -6.05,2.34 -7.22,5.85 -7.68,7.73 -0.53,2.13 4.27,5.87 6.84,8.49z"/>
   <path class="fil19" d="M207.46 186.57c0.59,0.46 0.29,1.37 0.92,1.83 10.6,7.84 18.99,13.37 24.84,17.42 4.67,3.22 7.84,5.64 10.43,7.66 6.11,4.78 13.92,11.7 16.43,16.73 69.16,138.22 41.65,141.69 -67.36,145.52l-21.23 0 0 -151.47c0,-3.44 0.36,-5.69 1.54,-6.63 1.08,-0.86 29.42,-26.53 34.43,-31.06z"/>
   <path class="fil14" d="M246.26 232.95c-2.53,-5.71 -5.05,-8.4 -9.63,-11.24 -3.07,-1.9 -24.88,-16.68 -38.97,-26.25 4.5,-4.07 8.27,-7.48 9.81,-8.88 0.59,0.46 1.14,0.91 1.77,1.38 10.61,7.84 18.63,13.38 24.49,17.42 4.67,3.22 8.04,5.55 10.62,7.57 6.11,4.78 13.22,12.25 15.73,17.27 10.83,11.02 51.74,72.43 56.74,109.21 2.77,20.38 -30.98,33.83 -42.03,36.22l-6.47 0.08c-1.25,-0.05 -38.41,-0.13 -39.28,-0.14 1.34,-3.18 57.19,-5.59 61.98,-38.71 5.17,-35.8 -40.88,-102.43 -44.77,-103.94z"/>
   <path class="fil14" d="M189.6 170.45c1.39,-1.3 2.31,-2.14 2.31,-2.14 0,0 -0.99,-5.47 -0.99,-9.92 0,-4.45 0.41,-12.09 0.41,-12.09 0,0 7.01,5.1 10.5,8 3.49,2.91 4.62,5.33 4.62,8.77 0,3.44 1.91,23.4 1.94,24.23 0.02,0.83 -0.57,2.08 -1.64,3.44 -0.74,0.94 -3.09,6.96 -12.06,15.09 0,-9.34 0,-28.3 0,-30.96 0,-2.83 -1.51,-4.64 -5.08,-4.41z"/>
   <path class="fil15" d="M189.6 170.45c1.39,-1.3 2.31,-2.14 2.31,-2.14 0,0 -0.99,-5.47 -0.99,-9.92 0,-4.45 0.41,-12.09 0.41,-12.09 0,0 7.01,5.1 10.5,8 0.77,0.64 1.41,1.26 1.97,1.87 0.85,2.72 0.3,5.2 -0.72,6.84 -1.36,2.19 -4.74,6.16 -8.76,9.77l-0 0c-0.63,-1.58 -2.13,-2.49 -4.71,-2.33z"/>
   <path class="fil16" d="M173.27 213.72c0,-1.66 0,-22.28 0,-24.17 0,-1.9 0.81,-4.62 2.42,-6.16 1.2,-1.16 9.72,-9.06 13.9,-12.94 3.58,-0.22 5.08,1.59 5.08,4.41 0,2.66 0,21.62 0,30.96 -4.03,3.64 -9.39,7.71 -16.55,11.93 0,0 -2.01,0 -3.55,0 -1.54,0 -1.3,-2.37 -1.3,-4.03z"/>
   <path class="fil17" d="M173.27 189.56c0,-1.9 0.81,-4.62 2.42,-6.16 1.2,-1.16 9.72,-9.06 13.9,-12.94 2.58,-0.16 4.08,0.75 4.71,2.33 -1.9,1.88 -10.99,10.83 -12.9,12.67 -2.13,2.05 -2.84,3.71 -2.84,7.27 0,2.93 0,19.16 0,24.78l-0.43 0.26c0,0 -2.01,0 -3.55,0 -1.54,0 -1.3,-2.37 -1.3,-4.03 0,-1.66 0,-22.28 0,-24.17z"/>
   <path class="fil18" d="M191.91 168.31c0,0 -0.99,-3.16 -0.99,-9.92 0,-1.81 0.07,-4.17 0.15,-6.31 6.05,2.34 7.21,5.85 7.68,7.73 0.53,2.13 -4.26,5.87 -6.84,8.49z"/>
   <path class="fil16" d="M240.03 260.89c-0.63,0.3 -1.26,0.59 -1.92,0.89 0.12,-14.4 3.12,-25.22 6.22,-32.61 0.41,0.68 0.81,1.45 1.21,2.26 -2.74,6.99 -5.27,16.79 -5.51,29.46z"/>
   <path class="fil20" d="M171.05 87.9c0,0 6.39,-7.48 13.66,-8.46 9.47,-0.23 12.29,1.9 12.29,1.9 0,0.46 -0.23,1.75 -0.23,1.75 0,0 2.4,-2.35 3.35,-3.9 -5.25,-1.39 -10.16,-1.96 -16.59,-1.35 -6.43,0.61 -12.29,3.88 -12.29,3.88 0,0 3.97,-1.47 7.36,-1.98 -2.2,1.31 -6.38,4.74 -7.55,8.16z"/>
   <path class="fil8" d="M176.78 91.07c1.51,0.63 11.5,3.41 17.37,-3.39 -1.37,2.79 -7.74,8.24 -17.37,3.39z"/>
   <path class="fil8" d="M175.97 77.35c0,0 5.99,-2.05 14.55,-1.48 -4.45,-1.26 -10.5,-0.53 -11.03,-0.49 -0.53,0.04 -2.47,0.95 -3.52,1.98z"/>
   <path class="fil20" d="M168.76 73.35c0,0 16.4,-5.18 21.19,-5.56 4.79,-0.38 10.16,0 10.16,0 0,0 -5.25,-1.75 -10.69,-1.86 -5.44,-0.12 -17.69,1.94 -18.64,2.21 -0.95,0.27 -2.17,2.62 -2.02,5.21z"/>
   <path class="fil20" d="M146.36 87.9c0,0 -6.39,-7.48 -13.66,-8.46 -9.47,-0.23 -12.29,1.9 -12.29,1.9 0,0.46 0.23,1.75 0.23,1.75 0,0 -2.4,-2.35 -3.35,-3.9 5.25,-1.39 10.16,-1.96 16.59,-1.35 6.43,0.61 12.29,3.88 12.29,3.88 0,0 -3.97,-1.47 -7.36,-1.98 2.2,1.31 6.38,4.74 7.55,8.16z"/>
   <path class="fil8" d="M140.62 91.07c-1.51,0.63 -11.5,3.41 -17.37,-3.39 1.38,2.79 7.75,8.24 17.37,3.39z"/>
   <path class="fil8" d="M141.43 77.35c0,0 -5.99,-2.05 -14.55,-1.48 4.45,-1.26 10.5,-0.53 11.03,-0.49 0.53,0.04 2.47,0.95 3.52,1.98z"/>
   <path class="fil20" d="M148.64 73.35c0,0 -16.4,-5.18 -21.19,-5.56 -4.79,-0.38 -10.16,0 -10.16,0 0,0 5.25,-1.75 10.69,-1.86 5.44,-0.12 17.69,1.94 18.64,2.21 0.95,0.27 2.17,2.62 2.02,5.21z"/>
   <path class="fil21" d="M200.11 67.8c0,0 -0.31,-0.02 -0.85,-0.05l-0.06 -0.23c0.58,0.17 0.91,0.28 0.91,0.28z"/>
   <path class="fil22" d="M117.3 67.8c0,0 0.58,-0.19 1.55,-0.45 -0.04,0.12 -0.07,0.25 -0.11,0.38 -0.9,0.04 -1.44,0.08 -1.44,0.08z"/>
   <path class="fil18" d="M251.67 219.69c-1.33,1.86 -3.8,5.79 -6.13,11.74 -0.4,-0.81 -0.8,-1.57 -1.21,-2.26 2.36,-5.62 4.78,-9.25 6.03,-10.95 0.46,0.48 0.9,0.97 1.31,1.46z"/>
   <path class="fil23" d="M77.78 51.42c-0,-0 -0,-0 -0,-0 0,0 0,0 0,0zm-0.01 -0.02c-0,-0 -0,-0 -0,-0.01 0,0 0,0 0,0.01zm-0.01 -0.02c-0,-0 -0,-0.01 -0.01,-0.01 0,0 0.01,0.01 0.01,0.01zm-0.01 -0.02c-0,-0 -0,-0.01 -0.01,-0.01 0,0 0.01,0.01 0.01,0.01zm-0.01 -0.01c-0.07,-0.12 -0.14,-0.23 -0.21,-0.34 0.07,0.11 0.14,0.23 0.21,0.34zm-0.21 -0.34c-0,-0 -0.01,-0.01 -0.01,-0.01 0,0 0.01,0.01 0.01,0.01zm-0.01 -0.02c-0,-0 -0.01,-0.01 -0.01,-0.01 0,0 0.01,0.01 0.01,0.01zm-0.01 -0.02c-0,-0 -0,-0.01 -0.01,-0.01 0,0.01 0.01,0.01 0.01,0.01zm-0.01 -0.02c-0,-0 -0.01,-0.01 -0.01,-0.01 0,0 0.01,0.01 0.01,0.01z"/>
   <path class="fil24" d="M208.95 93.09c0,0 -0.29,-7.77 -0.52,-8.38 -0.22,-0.61 -2.94,-5.88 -3.71,-6.54 -0.78,-0.67 0.11,-4.21 0,-5.21 -0.11,-1 -0.72,-4.88 -2.6,-7.65 -2.08,5.61 -5.06,10.53 -6.21,10.53 -0.02,0 -0.04,-0 -0.06,-0 -0.67,-0.1 -2.62,-3.16 -4.68,-6.81 -3.97,-7.04 -4.97,-9.53 -6.74,-12.19 0.06,1.33 -3.6,12.52 -4.98,12.58 -0,0 -0.01,0 -0.01,0 -1.39,0 -3.21,-8.11 -4.97,-13.74 -1.76,-5.6 -6.14,-14.37 -6.93,-14.37 -0,0 -0.01,0 -0.02,0 -0.74,0.15 -7.64,4.73 -7.64,4.73 0,0 -6.91,-4.58 -7.64,-4.73 -0.01,0 -0.01,0 -0.02,0 -0.79,0 -5.17,8.77 -6.93,14.37 -1.76,5.63 -3.59,13.74 -4.97,13.74 -0,0 -0.01,0 -0.01,0 -1.39,-0.06 -5.04,-11.25 -4.99,-12.58 -1.78,2.66 -2.77,5.16 -6.74,12.19 -2.06,3.65 -4.01,6.72 -4.68,6.81 -0.02,0 -0.04,0 -0.05,0 -1.15,0 -4.13,-4.92 -6.21,-10.53 -1.89,2.77 -2.5,6.65 -2.61,7.65 -0.11,1 0.78,4.54 0,5.21 -0.78,0.66 -3.49,5.93 -3.71,6.54 -0.22,0.61 -0.52,8.38 -0.52,8.38 -0.02,-0.02 -5.73,-5.32 -6.29,-6.07 -0.56,-0.76 -6.55,-21.04 -6.44,-35.88 0.11,-14.85 5.98,-28.6 13.3,-35.14 7.31,-6.54 26.7,-15.29 31.8,-15.84 0.92,-0.1 1.89,-0.15 2.88,-0.15 4.48,0 9.52,1.09 13.82,3.81 4.29,-2.72 9.33,-3.81 13.81,-3.81 0.99,0 1.96,0.05 2.89,0.15 5.1,0.55 24.49,9.31 31.81,15.84 7.31,6.54 13.19,20.28 13.3,35.14 0.11,14.85 -5.87,35.13 -6.43,35.88 -0.56,0.74 -6.14,5.93 -6.29,6.07 -0,0 -0,0 -0,0zm7.79 -64.98c-15.37,3.72 -32,7.53 -40.28,9.96 0,0 11.5,1.17 27.29,1.17 5.13,0 10.71,-0.12 16.5,-0.45 -0.85,-3.82 -2.04,-7.43 -3.51,-10.68zm-113.73 0c-1.46,3.25 -2.66,6.85 -3.51,10.68 5.79,0.33 11.37,0.45 16.5,0.45 15.79,0 27.29,-1.17 27.29,-1.17 -8.28,-2.43 -24.91,-6.24 -40.28,-9.96z"/>
   <path class="fil25" d="M203.75 39.24c-15.79,0 -27.29,-1.17 -27.29,-1.17 8.28,-2.43 24.91,-6.24 40.28,-9.96 1.46,3.25 2.66,6.85 3.51,10.68 -5.79,0.33 -11.37,0.45 -16.5,0.45zm-87.75 0c-5.13,0 -10.71,-0.12 -16.5,-0.45 0.85,-3.82 2.05,-7.43 3.51,-10.68 15.37,3.72 32,7.53 40.28,9.96 0,0 -11.5,1.17 -27.29,1.17z"/>
   <path class="fil26" d="M151.85 134.95c-0.37,0.09 -1.89,1.09 -1.99,1.33 -0.1,0.23 2.68,1.06 6.69,0.93 13.52,-0.43 21.93,-4.11 23.49,-4.94 1.56,-0.83 0.89,-1.62 0.56,-1.76 -0.33,-0.13 -2.65,-0.36 -3.35,-0.17 -0.7,0.2 -1.06,1.99 -2.29,2.45 -1.23,0.46 -8.82,3.15 -18.26,3.84 -2.15,0.16 -4.8,-0.56 -4.7,-0.83 0.1,-0.27 0.19,-0.95 -0.17,-0.86z"/>
   <path class="fil27" d="M161.69 122.38c3.16,0 5.69,-2.85 5.91,-4.28 -0.98,0.42 -3.82,1.64 -5.91,1.64 -2.09,0 -4.93,-1.22 -5.91,-1.64 0.22,1.43 2.75,4.28 5.91,4.28z"/>
   <g>
    <path class="fil28" d="M35.58 370.78l-10.84 -134.47c0,0 1.08,-5.41 7.57,-5.41 6.49,0 239.58,0 239.58,0 0,0 7.57,-1.62 6.49,11.36 -1.08,12.98 -10.19,125.25 -10.19,125.25 -0.56,3.01 -2.01,6.56 -5.98,7.79l-222.13 0c-1.68,0.24 -3.52,-2.15 -4.51,-4.52z"/>
    <path class="fil29" d="M40.42 375.29l-10.28 -133.58c0,0 -1.08,-9.19 11.36,-9.19 12.44,0 226.6,0 226.6,0 0,0 5.41,0 4.87,10.82 -0.54,10.82 -10.82,131.96 -10.82,131.96l-221.74 0z"/>
    <path class="fil30" d="M32.31 246.58l0 -7.03c0,0 1.62,-4.33 3.79,-4.33 2.16,0 229.31,0 229.31,0 0,0 3.25,1.62 3.25,3.79 0,2.16 0,7.57 0,7.57 0,0 -4.87,-7.57 -7.57,-8.11 -2.7,-0.54 -221.2,0 -221.2,0 0,0 -4.87,0 -7.57,8.11z"/>
    <g>
     <ellipse class="fil31" cx="151.83" cy="307.42" rx="13.52" ry="14.33"/>
     <ellipse class="fil30" cx="151.56" cy="306.61" rx="13.25" ry="12.98"/>
    </g>
   </g>
  </g>
 </g>
</svg>
