<svg id="Layer_1" data-name="Layer 1" xmlns="http://www.w3.org/2000/svg" xmlns:xlink="http://www.w3.org/1999/xlink" width="1104.43" height="280.88" viewBox="0 0 1104.43 280.88"><defs><style>.cls-1{fill:#301845;opacity:0.38;}.cls-1,.cls-10,.cls-11,.cls-14,.cls-15,.cls-16,.cls-2,.cls-3,.cls-4,.cls-5,.cls-6,.cls-7,.cls-8,.cls-9{fill-rule:evenodd;}.cls-2{fill:url(#Áåçûìÿííûé_ãðàäèåíò_209);}.cls-3{fill:url(#Áåçûìÿííûé_ãðàäèåíò_206);}.cls-11,.cls-4{fill:#816a92;}.cls-13,.cls-15,.cls-5{fill:#705681;}.cls-6{fill:url(#Áåçûìÿííûé_ãðàäèåíò_206-2);}.cls-7{fill:aqua;}.cls-8{fill:url(#Áåçûìÿííûé_ãðàäèåíò_206-3);}.cls-9{fill:#6c517d;}.cls-10{fill:url(#Áåçûìÿííûé_ãðàäèåíò_31);}.cls-11{opacity:0.2;}.cls-12{fill:#735986;}.cls-14{fill:#553669;}.cls-15{opacity:0.7;}.cls-16{fill:#fff;opacity:0.5;}</style><radialGradient id="Áåçûìÿííûé_ãðàäèåíò_209" cx="674.32" cy="7.78" r="274.75" gradientUnits="userSpaceOnUse"><stop offset="0" stop-color="#f0f6f3"/><stop offset="1" stop-color="#ece6f5"/></radialGradient><radialGradient id="Áåçûìÿííûé_ãðàäèåíò_206" cx="674.32" cy="20.34" r="274.71" gradientUnits="userSpaceOnUse"><stop offset="0.01" stop-color="#e1e1ef"/><stop offset="1" stop-color="#ccc7e2"/></radialGradient><radialGradient id="Áåçûìÿííûé_ãðàäèåíò_206-2" cx="846.89" cy="687.97" r="274.71" gradientTransform="matrix(1, 0, 0, -1, -172.57, 723.02)" xlink:href="#Áåçûìÿííûé_ãðàäèåíò_206"/><radialGradient id="Áåçûìÿííûé_ãðàäèåíò_206-3" cx="784.68" cy="133.93" r="311.95" xlink:href="#Áåçûìÿííûé_ãðàäèåíò_206"/><radialGradient id="Áåçûìÿííûé_ãðàäèåíò_31" cx="525.42" cy="237.88" r="287.22" gradientUnits="userSpaceOnUse"><stop offset="0.01" stop-color="#b8b8d8"/><stop offset="1" stop-color="#887ca5"/></radialGradient></defs><polygon class="cls-1" points="121.34 243.45 121.34 280.88 1104.43 280.88 1103.37 232.99 121.34 243.45"/><polygon class="cls-2" points="285.85 15.55 304.46 0 1032.93 0 1062.79 15.55 285.85 15.55"/><polygon class="cls-3" points="1062.79 15.55 1062.38 21.97 285.85 25.12 285.85 15.55 1062.79 15.55"/><polygon class="cls-4" points="304.46 0 39.99 0 0.74 16.75 0.74 27.11 285.85 25.12 285.85 15.55 304.46 0"/><polygon class="cls-5" points="0.74 16.75 285.85 15.55 285.85 25.12 0.74 27.11 0.74 16.75"/><polygon class="cls-5" points="285.85 39.84 304.46 55.4 1032.93 55.4 1062.79 39.84 285.85 39.84"/><polygon class="cls-6" points="1062.79 39.84 1062.38 33.43 285.85 30.27 285.85 39.84 1062.79 39.84"/><polygon class="cls-5" points="304.46 55.4 39.99 55.4 0.74 38.64 0 32.52 285.85 30.27 285.85 39.84 304.46 55.4"/><polygon class="cls-5" points="0.74 38.64 285.85 39.84 285.85 30.27 2.21 33.38 0.74 38.64"/><polygon class="cls-7" points="11.03 27.03 11.03 32.43 1052.16 33.38 1052.16 22.01 11.03 27.03"/><polygon class="cls-8" points="957.96 55.4 934.03 226.88 119.2 226.88 92.44 55.4 957.96 55.4"/><polygon class="cls-5" points="92.44 55.4 309.66 55.4 323.1 226.88 119.2 226.88 92.44 55.4"/><polygon class="cls-9" points="926.42 226.88 926.42 233.22 126.74 232.83 126.74 226.88 926.42 226.88"/><polygon class="cls-10" points="931.57 233.22 930.09 243.45 121.34 243.45 119.28 232.32 931.57 233.22"/><polygon class="cls-5" points="323.1 232.54 323.1 243.45 121.34 243.45 119.28 232.32 323.1 232.54"/><polygon class="cls-11" points="309.66 55.4 957.96 55.4 951.35 102.73 797.45 112.74 777.4 166.96 528.17 173.92 499.93 122.83 314.94 122.83 309.66 55.4"/><polygon class="cls-12" points="527.81 174.55 527.63 174.22 499.57 123.45 314.94 123.45 314.94 122.21 500.3 122.21 528.53 173.29 776.97 166.35 797.01 112.15 797.41 112.13 951.31 102.12 951.39 103.35 797.9 113.33 777.84 167.56 777.42 167.58 527.81 174.55"/><path class="cls-5" d="M705.09,387.31A1.11,1.11,0,1,1,704,386.2,1.11,1.11,0,0,1,705.09,387.31Z" transform="translate(-172.57 -217.71)"/><circle class="cls-13" cx="525.2" cy="178.77" r="1.11"/><circle class="cls-13" cx="321.99" cy="115.77" r="1.11"/><circle class="cls-13" cx="323.1" cy="129.35" r="1.11"/><path class="cls-5" d="M947.14,378a1.11,1.11,0,1,1-1.11-1.11A1.11,1.11,0,0,1,947.14,378Z" transform="translate(-172.57 -217.71)"/><circle class="cls-13" cx="779.18" cy="173.92" r="1.11"/><path class="cls-5" d="M969.93,324.66a1.11,1.11,0,1,1-1.11-1.11A1.11,1.11,0,0,1,969.93,324.66Z" transform="translate(-172.57 -217.71)"/><path class="cls-5" d="M975.43,336.63a1.11,1.11,0,1,1-1.11-1.11A1.11,1.11,0,0,1,975.43,336.63Z" transform="translate(-172.57 -217.71)"/><path class="cls-5" d="M672.31,332.37a1.11,1.11,0,1,1-1.11-1.11A1.11,1.11,0,0,1,672.31,332.37Z" transform="translate(-172.57 -217.71)"/><circle class="cls-13" cx="496.42" cy="129.35" r="1.11"/><circle class="cls-13" cx="941.43" cy="97.3" r="1.11"/><path class="cls-5" d="M1115.11,326.88a1.11,1.11,0,1,1-1.11-1.11A1.11,1.11,0,0,1,1115.11,326.88Z" transform="translate(-172.57 -217.71)"/><polygon class="cls-12" points="603.07 227.26 602.1 226.49 617.29 207.37 706.88 207.37 722 226.49 721.03 227.26 706.28 208.61 617.89 208.61 603.07 227.26"/><polygon class="cls-5" points="335.64 220.86 335.64 216.51 386.02 216.51 387.55 220.86 335.64 220.86"/><polygon class="cls-14" points="335.64 216.51 380.01 216.51 380.65 220.86 335.64 220.86 335.64 216.51"/><polygon class="cls-5" points="335.64 212.34 335.64 207.99 384.48 207.99 386.02 212.34 335.64 212.34"/><polygon class="cls-14" points="335.64 207.99 379.37 207.99 379.88 212.34 335.64 212.34 335.64 207.99"/><polygon class="cls-5" points="874.51 220.86 874.51 216.51 924.89 216.51 926.42 220.86 874.51 220.86"/><polygon class="cls-14" points="874.51 216.51 918.88 216.51 919.52 220.86 874.51 220.86 874.51 216.51"/><polygon class="cls-5" points="874.51 212.34 874.51 207.99 923.35 207.99 924.89 212.34 874.51 212.34"/><polygon class="cls-14" points="874.51 207.99 918.24 207.99 918.75 212.34 874.51 212.34 874.51 207.99"/><polygon class="cls-15" points="957.96 55.4 956.93 62.79 311.49 78.75 309.66 55.4 957.96 55.4"/><polygon class="cls-16" points="589.72 4.37 597.44 15.55 741.34 15.55 721.51 3.08 589.72 4.37"/><polygon class="cls-16" points="731.55 3.34 745.46 3.34 785.1 15.55 749.04 15.55 731.55 3.34"/></svg>